<svg version="1.1" xmlns="http://www.w3.org/2000/svg" xmlns:xlink="http://www.w3.org/1999/xlink" width="797" height="572">
<defs/>
<g>
<g>
<rect fill="#6DCEFF" stroke="none" x="88" y="40" width="112" height="40" transform="matrix(1 0 0 1 -78 -30)"/>
</g>
<g>
<path fill="none" stroke="#000000" paint-order="fill stroke markers" d=" M 10 10 L 122 10 L 122 50 L 10 50 L 10 10 Z Z" stroke-miterlimit="10" stroke-dasharray=""/>
</g>
<g>
<g>
<path fill="none" stroke="none"/>
<text fill="#000000" stroke="none" font-family="Arial" font-size="13px" font-style="normal" font-weight="bold" text-decoration="undefined" x="144.5" y="53.5" text-anchor="middle" dominant-baseline="central" transform="matrix(1 0 0 1 -78 -30)">
Reader</text>
</g>
</g>
<g>
<path fill="none" stroke="#000000" paint-order="fill stroke markers" d=" M 66.5 51 L 66.5 562" stroke-miterlimit="10" stroke-dasharray="3"/>
</g>
<g>
<rect fill="#6DCEFF" stroke="none" x="224" y="40" width="104" height="40" transform="matrix(1 0 0 1 -78 -30)"/>
</g>
<g>
<path fill="none" stroke="#000000" paint-order="fill stroke markers" d=" M 146 10 L 250 10 L 250 50 L 146 50 L 146 10 Z Z" stroke-miterlimit="10" stroke-dasharray=""/>
</g>
<g>
<g>
<path fill="none" stroke="none"/>
<text fill="#000000" stroke="none" font-family="Arial" font-size="13px" font-style="normal" font-weight="bold" text-decoration="undefined" x="276.5" y="53.5" text-anchor="middle" dominant-baseline="central" transform="matrix(1 0 0 1 -78 -30)">
Dispatcher</text>
</g>
</g>
<g>
<path fill="none" stroke="#000000" paint-order="fill stroke markers" d=" M 198.5 51 L 198.5 562" stroke-miterlimit="10" stroke-dasharray="3"/>
</g>
<g>
<rect fill="#FFEAAD" stroke="none" x="368" y="40" width="112" height="40" transform="matrix(1 0 0 1 -78 -30)"/>
</g>
<g>
<path fill="none" stroke="#000000" paint-order="fill stroke markers" d=" M 290 10 L 402 10 L 402 50 L 290 50 L 290 10 Z Z" stroke-miterlimit="10" stroke-dasharray=""/>
</g>
<g>
<g>
<path fill="none" stroke="none"/>
<text fill="#000000" stroke="none" font-family="Arial" font-size="13px" font-style="normal" font-weight="bold" text-decoration="undefined" x="424.5" y="53.5" text-anchor="middle" dominant-baseline="central" transform="matrix(1 0 0 1 -78 -30)">
TSW Provdier</text>
</g>
</g>
<g>
<path fill="none" stroke="#000000" paint-order="fill stroke markers" d=" M 346.5 51 L 346.5 562" stroke-miterlimit="10" stroke-dasharray="3"/>
</g>
<g>
<rect fill="#EBFFD8" stroke="none" x="496" y="40" width="112" height="40" transform="matrix(1 0 0 1 -78 -30)"/>
</g>
<g>
<path fill="none" stroke="#000000" paint-order="fill stroke markers" d=" M 418 10 L 530 10 L 530 50 L 418 50 L 418 10 Z Z" stroke-miterlimit="10" stroke-dasharray=""/>
</g>
<g>
<g>
<path fill="none" stroke="none"/>
<text fill="#000000" stroke="none" font-family="Arial" font-size="13px" font-style="normal" font-weight="bold" text-decoration="undefined" x="552.5" y="53.5" text-anchor="middle" dominant-baseline="central" transform="matrix(1 0 0 1 -78 -30)">
SIG Provider</text>
</g>
</g>
<g>
<path fill="none" stroke="#000000" paint-order="fill stroke markers" d=" M 474.5 51 L 474.5 562" stroke-miterlimit="10" stroke-dasharray="3"/>
</g>
<g>
<rect fill="#D8FFF8" stroke="none" x="624" y="40" width="103.07177734375" height="40" transform="matrix(1 0 0 1 -78 -30)"/>
</g>
<g>
<path fill="none" stroke="#000000" paint-order="fill stroke markers" d=" M 546 10 L 649.07177734375 10 L 649.07177734375 50 L 546 50 L 546 10 Z Z" stroke-miterlimit="10" stroke-dasharray=""/>
</g>
<g>
<g>
<path fill="none" stroke="none"/>
<text fill="#000000" stroke="none" font-family="Arial" font-size="13px" font-style="normal" font-weight="bold" text-decoration="undefined" x="676.035888671875" y="53.5" text-anchor="middle" dominant-baseline="central" transform="matrix(1 0 0 1 -78 -30)">
LCR Provider</text>
</g>
</g>
<g>
<path fill="none" stroke="#000000" paint-order="fill stroke markers" d=" M 598.5 51 L 598.5 562" stroke-miterlimit="10" stroke-dasharray="3"/>
</g>
<g>
<rect fill="#D8E5FF" stroke="none" x="736" y="40" width="128" height="40" transform="matrix(1 0 0 1 -78 -30)"/>
</g>
<g>
<path fill="none" stroke="#000000" paint-order="fill stroke markers" d=" M 658 10 L 786 10 L 786 50 L 658 50 L 658 10 Z Z" stroke-miterlimit="10" stroke-dasharray=""/>
</g>
<g>
<g>
<path fill="none" stroke="none"/>
<text fill="#000000" stroke="none" font-family="Arial" font-size="13px" font-style="normal" font-weight="bold" text-decoration="undefined" x="800.5" y="53.5" text-anchor="middle" dominant-baseline="central" transform="matrix(1 0 0 1 -78 -30)">
SEG Provider</text>
</g>
</g>
<g>
<path fill="none" stroke="#000000" paint-order="fill stroke markers" d=" M 722.5 51 L 722.5 562" stroke-miterlimit="10" stroke-dasharray="3"/>
</g>
<g>
<path fill="none" stroke="#000000" paint-order="fill stroke markers" d=" M 67 98 L 191 98" stroke-miterlimit="10" stroke-dasharray=""/>
</g>
<g>
<path fill="#000000" stroke="none" paint-order="stroke fill markers" d=" M 180.83732514237585 102.209517756016 L 191 98 L 180.83732514237585 93.79048224398402"/>
</g>
<g>
<path fill="none" stroke="#000000" paint-order="fill stroke markers" d=" M 180.83732514237585 102.209517756016 L 191 98 L 180.83732514237585 93.79048224398402 L 180.83732514237585 102.209517756016" stroke-miterlimit="10" stroke-dasharray=""/>
</g>
<g>
<rect fill="#ffffff" stroke="none" x="164" y="111" width="78.04443359375" height="13" transform="matrix(1 0 0 1 -78 -30)"/>
</g>
<g>
<g>
<path fill="none" stroke="none"/>
<text fill="#000000" stroke="none" font-family="Arial" font-size="13px" font-style="normal" font-weight="normal" text-decoration="undefined" x="203.022216796875" y="117.5" text-anchor="middle" dominant-baseline="central" transform="matrix(1 0 0 1 -78 -30)">
1 : reset</text>
</g>
</g>
<g>
<rect fill="#FFFFFF" stroke="none" x="269" y="128" width="14" height="28" transform="matrix(1 0 0 1 -78 -30)"/>
</g>
<g>
<path fill="none" stroke="#000000" paint-order="fill stroke markers" d=" M 191 98 L 205 98 L 205 126 L 191 126 L 191 98 Z Z" stroke-miterlimit="10" stroke-dasharray=""/>
</g>
<g>
<path fill="none" stroke="#000000" paint-order="fill stroke markers" d=" M 67 130 L 339 130" stroke-miterlimit="10" stroke-dasharray=""/>
</g>
<g>
<path fill="#000000" stroke="none" paint-order="stroke fill markers" d=" M 328.83732514237585 134.209517756016 L 339 130 L 328.83732514237585 125.790482243984"/>
</g>
<g>
<path fill="none" stroke="#000000" paint-order="fill stroke markers" d=" M 328.83732514237585 134.209517756016 L 339 130 L 328.83732514237585 125.790482243984 L 328.83732514237585 134.209517756016" stroke-miterlimit="10" stroke-dasharray=""/>
</g>
<g>
<rect fill="#ffffff" stroke="none" x="168" y="143" width="78.04443359375" height="13" transform="matrix(1 0 0 1 -78 -30)"/>
</g>
<g>
<g>
<path fill="none" stroke="none"/>
<text fill="#000000" stroke="none" font-family="Arial" font-size="13px" font-style="normal" font-weight="normal" text-decoration="undefined" x="207.022216796875" y="149.5" text-anchor="middle" dominant-baseline="central" transform="matrix(1 0 0 1 -78 -30)">
2 : load</text>
</g>
</g>
<g>
<rect fill="#FFFFFF" stroke="none" x="417" y="160" width="14" height="28" transform="matrix(1 0 0 1 -78 -30)"/>
</g>
<g>
<path fill="none" stroke="#000000" paint-order="fill stroke markers" d=" M 339 130 L 353 130 L 353 158 L 339 158 L 339 130 Z Z" stroke-miterlimit="10" stroke-dasharray=""/>
</g>
<g>
<path fill="none" stroke="#000000" paint-order="fill stroke markers" d=" M 346 162 L 205 162" stroke-miterlimit="10" stroke-dasharray=""/>
</g>
<g>
<path fill="#000000" stroke="none" paint-order="stroke fill markers" d=" M 215.16267485762415 157.790482243984 L 205 162 L 215.16267485762415 166.209517756016"/>
</g>
<g>
<path fill="none" stroke="#000000" paint-order="fill stroke markers" d=" M 215.16267485762415 157.790482243984 L 205 162 L 215.16267485762415 166.209517756016 L 215.16267485762415 157.790482243984" stroke-miterlimit="10" stroke-dasharray=""/>
</g>
<g>
<rect fill="#ffffff" stroke="none" x="314" y="176" width="78.04443359375" height="13" transform="matrix(1 0 0 1 -78 -30)"/>
</g>
<g>
<g>
<path fill="none" stroke="none"/>
<text fill="#000000" stroke="none" font-family="Arial" font-size="13px" font-style="normal" font-weight="normal" text-decoration="undefined" x="353.022216796875" y="182.5" text-anchor="middle" dominant-baseline="central" transform="matrix(1 0 0 1 -78 -30)">
3 : assign 1</text>
</g>
</g>
<g>
<rect fill="#FFFFFF" stroke="none" x="269" y="192" width="14" height="28" transform="matrix(1 0 0 1 -78 -30)"/>
</g>
<g>
<path fill="none" stroke="#000000" paint-order="fill stroke markers" d=" M 191 162 L 205 162 L 205 190 L 191 190 L 191 162 Z Z" stroke-miterlimit="10" stroke-dasharray=""/>
</g>
<g>
<path fill="none" stroke="#000000" paint-order="fill stroke markers" d=" M 199 194 L 339 194" stroke-miterlimit="10" stroke-dasharray=""/>
</g>
<g>
<path fill="#000000" stroke="none" paint-order="stroke fill markers" d=" M 328.83732514237585 198.209517756016 L 339 194 L 328.83732514237585 189.790482243984"/>
</g>
<g>
<path fill="none" stroke="#000000" paint-order="fill stroke markers" d=" M 328.83732514237585 198.209517756016 L 339 194 L 328.83732514237585 189.790482243984 L 328.83732514237585 198.209517756016" stroke-miterlimit="10" stroke-dasharray=""/>
</g>
<g>
<rect fill="#ffffff" stroke="none" x="308" y="208" width="78.04443359375" height="13" transform="matrix(1 0 0 1 -78 -30)"/>
</g>
<g>
<g>
<path fill="none" stroke="none"/>
<text fill="#000000" stroke="none" font-family="Arial" font-size="13px" font-style="normal" font-weight="normal" text-decoration="undefined" x="347.022216796875" y="214.5" text-anchor="middle" dominant-baseline="central" transform="matrix(1 0 0 1 -78 -30)">
4 : id 1</text>
</g>
</g>
<g>
<rect fill="#FFFFFF" stroke="none" x="417" y="224" width="14" height="28" transform="matrix(1 0 0 1 -78 -30)"/>
</g>
<g>
<path fill="none" stroke="#000000" paint-order="fill stroke markers" d=" M 339 194 L 353 194 L 353 222 L 339 222 L 339 194 Z Z" stroke-miterlimit="10" stroke-dasharray=""/>
</g>
<g>
<path fill="none" stroke="#000000" paint-order="fill stroke markers" d=" M 346 226 L 205 226" stroke-miterlimit="10" stroke-dasharray=""/>
</g>
<g>
<path fill="#000000" stroke="none" paint-order="stroke fill markers" d=" M 215.16267485762415 221.790482243984 L 205 226 L 215.16267485762415 230.209517756016"/>
</g>
<g>
<path fill="none" stroke="#000000" paint-order="fill stroke markers" d=" M 215.16267485762415 221.790482243984 L 205 226 L 215.16267485762415 230.209517756016 L 215.16267485762415 221.790482243984" stroke-miterlimit="10" stroke-dasharray=""/>
</g>
<g>
<rect fill="#ffffff" stroke="none" x="313" y="241" width="78.04443359375" height="13" transform="matrix(1 0 0 1 -78 -30)"/>
</g>
<g>
<g>
<path fill="none" stroke="none"/>
<text fill="#000000" stroke="none" font-family="Arial" font-size="13px" font-style="normal" font-weight="normal" text-decoration="undefined" x="352.022216796875" y="247.5" text-anchor="middle" dominant-baseline="central" transform="matrix(1 0 0 1 -78 -30)">
5 : assign n</text>
</g>
</g>
<g>
<rect fill="#FFFFFF" stroke="none" x="269" y="256" width="14" height="28" transform="matrix(1 0 0 1 -78 -30)"/>
</g>
<g>
<path fill="none" stroke="#000000" paint-order="fill stroke markers" d=" M 191 226 L 205 226 L 205 254 L 191 254 L 191 226 Z Z" stroke-miterlimit="10" stroke-dasharray=""/>
</g>
<g>
<path fill="none" stroke="#000000" paint-order="fill stroke markers" d=" M 199 258 L 339 258" stroke-miterlimit="10" stroke-dasharray=""/>
</g>
<g>
<path fill="#000000" stroke="none" paint-order="stroke fill markers" d=" M 328.83732514237585 262.209517756016 L 339 258 L 328.83732514237585 253.790482243984"/>
</g>
<g>
<path fill="none" stroke="#000000" paint-order="fill stroke markers" d=" M 328.83732514237585 262.209517756016 L 339 258 L 328.83732514237585 253.790482243984 L 328.83732514237585 262.209517756016" stroke-miterlimit="10" stroke-dasharray=""/>
</g>
<g>
<rect fill="#ffffff" stroke="none" x="308" y="272" width="78.04443359375" height="13" transform="matrix(1 0 0 1 -78 -30)"/>
</g>
<g>
<g>
<path fill="none" stroke="none"/>
<text fill="#000000" stroke="none" font-family="Arial" font-size="13px" font-style="normal" font-weight="normal" text-decoration="undefined" x="347.022216796875" y="278.5" text-anchor="middle" dominant-baseline="central" transform="matrix(1 0 0 1 -78 -30)">
6 : id n</text>
</g>
</g>
<g>
<rect fill="#FFFFFF" stroke="none" x="417" y="288" width="14" height="28" transform="matrix(1 0 0 1 -78 -30)"/>
</g>
<g>
<path fill="none" stroke="#000000" paint-order="fill stroke markers" d=" M 339 258 L 353 258 L 353 286 L 339 286 L 339 258 Z Z" stroke-miterlimit="10" stroke-dasharray=""/>
</g>
<g>
<path fill="none" stroke="#000000" paint-order="fill stroke markers" d=" M 346 290 L 73 290" stroke-miterlimit="10" stroke-dasharray=""/>
</g>
<g>
<path fill="#000000" stroke="none" paint-order="stroke fill markers" d=" M 83.16267485762415 285.790482243984 L 73 290 L 83.16267485762415 294.209517756016"/>
</g>
<g>
<path fill="none" stroke="#000000" paint-order="fill stroke markers" d=" M 83.16267485762415 285.790482243984 L 73 290 L 83.16267485762415 294.209517756016 L 83.16267485762415 285.790482243984" stroke-miterlimit="10" stroke-dasharray=""/>
</g>
<g>
<rect fill="#ffffff" stroke="none" x="313" y="304" width="78.04443359375" height="13" transform="matrix(1 0 0 1 -78 -30)"/>
</g>
<g>
<g>
<path fill="none" stroke="none"/>
<text fill="#000000" stroke="none" font-family="Arial" font-size="13px" font-style="normal" font-weight="normal" text-decoration="undefined" x="352.022216796875" y="310.5" text-anchor="middle" dominant-baseline="central" transform="matrix(1 0 0 1 -78 -30)">
7 : return</text>
</g>
</g>
<g>
<rect fill="#FFFFFF" stroke="none" x="137" y="320" width="14" height="28" transform="matrix(1 0 0 1 -78 -30)"/>
</g>
<g>
<path fill="none" stroke="#000000" paint-order="fill stroke markers" d=" M 59 290 L 73 290 L 73 318 L 59 318 L 59 290 Z Z" stroke-miterlimit="10" stroke-dasharray=""/>
</g>
<g>
<path fill="none" stroke="#000000" paint-order="fill stroke markers" d=" M 67 322 L 467 322" stroke-miterlimit="10" stroke-dasharray=""/>
</g>
<g>
<path fill="#000000" stroke="none" paint-order="stroke fill markers" d=" M 456.8373251423759 326.209517756016 L 467 322 L 456.8373251423758 317.790482243984"/>
</g>
<g>
<path fill="none" stroke="#000000" paint-order="fill stroke markers" d=" M 456.8373251423759 326.209517756016 L 467 322 L 456.8373251423758 317.790482243984 L 456.8373251423759 326.209517756016" stroke-miterlimit="10" stroke-dasharray=""/>
</g>
<g>
<rect fill="#ffffff" stroke="none" x="176" y="335" width="85.2744140625" height="13" transform="matrix(1 0 0 1 -78 -30)"/>
</g>
<g>
<g>
<path fill="none" stroke="none"/>
<text fill="#000000" stroke="none" font-family="Arial" font-size="13px" font-style="normal" font-weight="normal" text-decoration="undefined" x="218.63720703125" y="341.5" text-anchor="middle" dominant-baseline="central" transform="matrix(1 0 0 1 -78 -30)">
8 : load</text>
</g>
</g>
<g>
<rect fill="#FFFFFF" stroke="none" x="545" y="352" width="14" height="28" transform="matrix(1 0 0 1 -78 -30)"/>
</g>
<g>
<path fill="none" stroke="#000000" paint-order="fill stroke markers" d=" M 467 322 L 481 322 L 481 350 L 467 350 L 467 322 Z Z" stroke-miterlimit="10" stroke-dasharray=""/>
</g>
<g>
<path fill="none" stroke="#000000" paint-order="fill stroke markers" d=" M 474 354 L 73 354" stroke-miterlimit="10" stroke-dasharray=""/>
</g>
<g>
<path fill="#000000" stroke="none" paint-order="stroke fill markers" d=" M 83.16267485762415 349.790482243984 L 73 354 L 83.16267485762415 358.209517756016"/>
</g>
<g>
<path fill="none" stroke="#000000" paint-order="fill stroke markers" d=" M 83.16267485762415 349.790482243984 L 73 354 L 83.16267485762415 358.209517756016 L 83.16267485762415 349.790482243984" stroke-miterlimit="10" stroke-dasharray=""/>
</g>
<g>
<rect fill="#ffffff" stroke="none" x="448" y="368" width="84.3095703125" height="13" transform="matrix(1 0 0 1 -78 -30)"/>
</g>
<g>
<g>
<path fill="none" stroke="none"/>
<text fill="#000000" stroke="none" font-family="Arial" font-size="13px" font-style="normal" font-weight="normal" text-decoration="undefined" x="490.15478515625" y="374.5" text-anchor="middle" dominant-baseline="central" transform="matrix(1 0 0 1 -78 -30)">
9 : return</text>
</g>
</g>
<g>
<rect fill="#FFFFFF" stroke="none" x="137" y="384" width="14" height="28" transform="matrix(1 0 0 1 -78 -30)"/>
</g>
<g>
<path fill="none" stroke="#000000" paint-order="fill stroke markers" d=" M 59 354 L 73 354 L 73 382 L 59 382 L 59 354 Z Z" stroke-miterlimit="10" stroke-dasharray=""/>
</g>
<g>
<path fill="none" stroke="#000000" paint-order="fill stroke markers" d=" M 67 386 L 591 386" stroke-miterlimit="10" stroke-dasharray=""/>
</g>
<g>
<path fill="#000000" stroke="none" paint-order="stroke fill markers" d=" M 580.8373251423759 390.209517756016 L 591 386 L 580.8373251423758 381.790482243984"/>
</g>
<g>
<path fill="none" stroke="#000000" paint-order="fill stroke markers" d=" M 580.8373251423759 390.209517756016 L 591 386 L 580.8373251423758 381.790482243984 L 580.8373251423759 390.209517756016" stroke-miterlimit="10" stroke-dasharray=""/>
</g>
<g>
<rect fill="#ffffff" stroke="none" x="176" y="399" width="85.2744140625" height="13" transform="matrix(1 0 0 1 -78 -30)"/>
</g>
<g>
<g>
<path fill="none" stroke="none"/>
<text fill="#000000" stroke="none" font-family="Arial" font-size="13px" font-style="normal" font-weight="normal" text-decoration="undefined" x="218.63720703125" y="405.5" text-anchor="middle" dominant-baseline="central" transform="matrix(1 0 0 1 -78 -30)">
10 : load</text>
</g>
</g>
<g>
<rect fill="#ffffff" stroke="none" x="669" y="416" width="14" height="28" transform="matrix(1 0 0 1 -78 -30)"/>
</g>
<g>
<path fill="none" stroke="#000000" paint-order="fill stroke markers" d=" M 591 386 L 605 386 L 605 414 L 591 414 L 591 386 Z Z" stroke-miterlimit="10" stroke-dasharray=""/>
</g>
<g>
<path fill="none" stroke="#000000" paint-order="fill stroke markers" d=" M 598 418 L 73 418" stroke-miterlimit="10" stroke-dasharray=""/>
</g>
<g>
<path fill="#000000" stroke="none" paint-order="stroke fill markers" d=" M 83.16267485762415 413.790482243984 L 73 418 L 83.16267485762415 422.209517756016"/>
</g>
<g>
<path fill="none" stroke="#000000" paint-order="fill stroke markers" d=" M 83.16267485762415 413.790482243984 L 73 418 L 83.16267485762415 422.209517756016 L 83.16267485762415 413.790482243984" stroke-miterlimit="10" stroke-dasharray=""/>
</g>
<g>
<rect fill="#ffffff" stroke="none" x="576" y="432" width="84.3095703125" height="13" transform="matrix(1 0 0 1 -78 -30)"/>
</g>
<g>
<g>
<path fill="none" stroke="none"/>
<text fill="#000000" stroke="none" font-family="Arial" font-size="13px" font-style="normal" font-weight="normal" text-decoration="undefined" x="618.15478515625" y="438.5" text-anchor="middle" dominant-baseline="central" transform="matrix(1 0 0 1 -78 -30)">
11 : return</text>
</g>
</g>
<g>
<rect fill="#ffffff" stroke="none" x="137" y="448" width="14" height="28" transform="matrix(1 0 0 1 -78 -30)"/>
</g>
<g>
<path fill="none" stroke="#000000" paint-order="fill stroke markers" d=" M 59 418 L 73 418 L 73 446 L 59 446 L 59 418 Z Z" stroke-miterlimit="10" stroke-dasharray=""/>
</g>
<g>
<path fill="none" stroke="#000000" paint-order="fill stroke markers" d=" M 67 450 L 715 450" stroke-miterlimit="10" stroke-dasharray=""/>
</g>
<g>
<path fill="#000000" stroke="none" paint-order="stroke fill markers" d=" M 704.8373251423759 454.209517756016 L 715 450 L 704.8373251423758 445.790482243984"/>
</g>
<g>
<path fill="none" stroke="#000000" paint-order="fill stroke markers" d=" M 704.8373251423759 454.209517756016 L 715 450 L 704.8373251423758 445.790482243984 L 704.8373251423759 454.209517756016" stroke-miterlimit="10" stroke-dasharray=""/>
</g>
<g>
<rect fill="#ffffff" stroke="none" x="168" y="462" width="85.2744140625" height="13" transform="matrix(1 0 0 1 -78 -30)"/>
</g>
<g>
<g>
<path fill="none" stroke="none"/>
<text fill="#000000" stroke="none" font-family="Arial" font-size="13px" font-style="normal" font-weight="normal" text-decoration="undefined" x="210.63720703125" y="468.5" text-anchor="middle" dominant-baseline="central" transform="matrix(1 0 0 1 -78 -30)">
12 : load</text>
</g>
</g>
<g>
<rect fill="#ffffff" stroke="none" x="793" y="480" width="14" height="28" transform="matrix(1 0 0 1 -78 -30)"/>
</g>
<g>
<path fill="none" stroke="#000000" paint-order="fill stroke markers" d=" M 715 450 L 729 450 L 729 478 L 715 478 L 715 450 Z Z" stroke-miterlimit="10" stroke-dasharray=""/>
</g>
<g>
<path fill="none" stroke="#000000" paint-order="fill stroke markers" d=" M 722 482 L 73 482" stroke-miterlimit="10" stroke-dasharray=""/>
</g>
<g>
<path fill="#000000" stroke="none" paint-order="stroke fill markers" d=" M 83.16267485762415 477.790482243984 L 73 482 L 83.16267485762415 486.209517756016"/>
</g>
<g>
<path fill="none" stroke="#000000" paint-order="fill stroke markers" d=" M 83.16267485762415 477.790482243984 L 73 482 L 83.16267485762415 486.209517756016 L 83.16267485762415 477.790482243984" stroke-miterlimit="10" stroke-dasharray=""/>
</g>
<g>
<rect fill="#ffffff" stroke="none" x="704" y="496" width="85.2744140625" height="13" transform="matrix(1 0 0 1 -78 -30)"/>
</g>
<g>
<g>
<path fill="none" stroke="none"/>
<text fill="#000000" stroke="none" font-family="Arial" font-size="13px" font-style="normal" font-weight="normal" text-decoration="undefined" x="746.63720703125" y="502.5" text-anchor="middle" dominant-baseline="central" transform="matrix(1 0 0 1 -78 -30)">
13 : return</text>
</g>
</g>
<g>
<rect fill="#ffffff" stroke="none" x="137" y="512" width="14" height="28" transform="matrix(1 0 0 1 -78 -30)"/>
</g>
<g>
<path fill="none" stroke="#000000" paint-order="fill stroke markers" d=" M 59 482 L 73 482 L 73 510 L 59 510 L 59 482 Z Z" stroke-miterlimit="10" stroke-dasharray=""/>
</g>
<g>
<path fill="none" stroke="#000000" paint-order="fill stroke markers" d=" M 67 514 L 191 514" stroke-miterlimit="10" stroke-dasharray=""/>
</g>
<g>
<path fill="#000000" stroke="none" paint-order="stroke fill markers" d=" M 180.83732514237585 518.209517756016 L 191 514 L 180.83732514237585 509.790482243984"/>
</g>
<g>
<path fill="none" stroke="#000000" paint-order="fill stroke markers" d=" M 180.83732514237585 518.209517756016 L 191 514 L 180.83732514237585 509.790482243984 L 180.83732514237585 518.209517756016" stroke-miterlimit="10" stroke-dasharray=""/>
</g>
<g>
<rect fill="#ffffff" stroke="none" x="165" y="528" width="85.2744140625" height="13" transform="matrix(1 0 0 1 -78 -30)"/>
</g>
<g>
<g>
<path fill="none" stroke="none"/>
<text fill="#000000" stroke="none" font-family="Arial" font-size="13px" font-style="normal" font-weight="normal" text-decoration="undefined" x="207.63720703125" y="534.5" text-anchor="middle" dominant-baseline="central" transform="matrix(1 0 0 1 -78 -30)">
14 : index</text>
</g>
</g>
<g>
<rect fill="#FFFFFF" stroke="none" x="269" y="544" width="14" height="28" transform="matrix(1 0 0 1 -78 -30)"/>
</g>
<g>
<path fill="none" stroke="#000000" paint-order="fill stroke markers" d=" M 191 514 L 205 514 L 205 542 L 191 542 L 191 514 Z Z" stroke-miterlimit="10" stroke-dasharray=""/>
</g>
</g>
</svg>
