<svg version="1.1" xmlns="http://www.w3.org/2000/svg" xmlns:xlink="http://www.w3.org/1999/xlink" width="1077" height="1044">
<defs/>
<g>
<g>
<rect fill="#FFDF82" stroke="none" x="384" y="1008" width="144" height="176" transform="matrix(1 0 0 1 -278 -278)"/>
</g>
<g>
<path fill="none" stroke="#000000" paint-order="fill stroke markers" d=" M 106 730 L 250 730 L 250 906 L 106 906 L 106 730 Z Z" stroke-miterlimit="10" stroke-dasharray=""/>
</g>
<g>
<rect fill="#FFDF82" stroke="none" x="384" y="1008" width="144" height="176" transform="matrix(1 0 0 1 -278 -278)"/>
</g>
<g>
<path fill="none" stroke="#000000" paint-order="fill stroke markers" d=" M 106 730 L 250 730 L 250 906 L 106 906 L 106 730 Z Z" stroke-miterlimit="10" stroke-dasharray=""/>
</g>
<g>
<g>
<path fill="none" stroke="none"/>
<text fill="#000000" stroke="none" font-family="Arial" font-size="13px" font-style="normal" font-weight="bold" text-decoration="undefined" x="456.5" y="1021.5" text-anchor="middle" dominant-baseline="central" transform="matrix(1 0 0 1 -278 -278)">
TSW Provider</text>
<path fill="none" stroke="#000000" paint-order="fill stroke markers" d=" M 221.1181640625 750 L 135.8818359375 750" stroke-miterlimit="10" stroke-dasharray=""/>
</g>
</g>
<g>
<rect fill="#D1FFA3" stroke="none" x="384" y="800" width="144" height="192" transform="matrix(1 0 0 1 -278 -278)"/>
</g>
<g>
<path fill="none" stroke="#000000" paint-order="fill stroke markers" d=" M 106 522 L 250 522 L 250 714 L 106 714 L 106 522 Z Z" stroke-miterlimit="10" stroke-dasharray=""/>
</g>
<g>
<rect fill="#D1FFA3" stroke="none" x="384" y="800" width="144" height="192" transform="matrix(1 0 0 1 -278 -278)"/>
</g>
<g>
<path fill="none" stroke="#000000" paint-order="fill stroke markers" d=" M 106 522 L 250 522 L 250 714 L 106 714 L 106 522 Z Z" stroke-miterlimit="10" stroke-dasharray=""/>
</g>
<g>
<g>
<path fill="none" stroke="none"/>
<text fill="#000000" stroke="none" font-family="Arial" font-size="13px" font-style="normal" font-weight="bold" text-decoration="undefined" x="456.5" y="813.5" text-anchor="middle" dominant-baseline="central" transform="matrix(1 0 0 1 -278 -278)">
SIG Prowider</text>
<path fill="none" stroke="#000000" paint-order="fill stroke markers" d=" M 219.3154296875 542 L 137.6845703125 542" stroke-miterlimit="10" stroke-dasharray=""/>
</g>
</g>
<g>
<rect fill="#6DCEFF" stroke="none" x="672" y="864" width="224" height="128" transform="matrix(1 0 0 1 -278 -278)"/>
</g>
<g>
<path fill="none" stroke="#000000" paint-order="fill stroke markers" d=" M 394 586 L 618 586 L 618 714 L 394 714 L 394 586 Z Z" stroke-miterlimit="10" stroke-dasharray=""/>
</g>
<g>
<rect fill="#6DCEFF" stroke="none" x="672" y="864" width="224" height="128" transform="matrix(1 0 0 1 -278 -278)"/>
</g>
<g>
<path fill="none" stroke="#000000" paint-order="fill stroke markers" d=" M 394 586 L 618 586 L 618 714 L 394 714 L 394 586 Z Z" stroke-miterlimit="10" stroke-dasharray=""/>
</g>
<g>
<g>
<path fill="none" stroke="none"/>
<text fill="#000000" stroke="none" font-family="Arial" font-size="13px" font-style="normal" font-weight="bold" text-decoration="undefined" x="784.5" y="877.5" text-anchor="middle" dominant-baseline="central" transform="matrix(1 0 0 1 -278 -278)">
Dispatcher</text>
<path fill="none" stroke="#000000" paint-order="fill stroke markers" d=" M 540.094970703125 606 L 472.905029296875 606" stroke-miterlimit="10" stroke-dasharray=""/>
</g>
</g>
<g>
<rect fill="#6DCEFF" stroke="none" x="800" y="1088" width="224" height="96" transform="matrix(1 0 0 1 -278 -278)"/>
</g>
<g>
<path fill="none" stroke="#000000" paint-order="fill stroke markers" d=" M 522 810 L 746 810 L 746 906 L 522 906 L 522 810 Z Z" stroke-miterlimit="10" stroke-dasharray=""/>
</g>
<g>
<rect fill="#6DCEFF" stroke="none" x="800" y="1088" width="224" height="96" transform="matrix(1 0 0 1 -278 -278)"/>
</g>
<g>
<path fill="none" stroke="#000000" paint-order="fill stroke markers" d=" M 522 810 L 746 810 L 746 906 L 522 906 L 522 810 Z Z" stroke-miterlimit="10" stroke-dasharray=""/>
</g>
<g>
<g>
<path fill="none" stroke="none"/>
<text fill="#000000" stroke="none" font-family="Arial" font-size="13px" font-style="normal" font-weight="bold" text-decoration="undefined" x="912.5" y="1101.5" text-anchor="middle" dominant-baseline="central" transform="matrix(1 0 0 1 -278 -278)">
Com -NF-</text>
<path fill="none" stroke="#000000" paint-order="fill stroke markers" d=" M 663.74365234375 830 L 605.25634765625 830" stroke-miterlimit="10" stroke-dasharray=""/>
</g>
</g>
<g>
<path fill="none" stroke="#000000" paint-order="fill stroke markers" d=" M 570 810 L 570 714" stroke-miterlimit="10" stroke-dasharray=""/>
</g>
<g>
<path fill="none" stroke="#000000" paint-order="fill stroke markers" d=" M 574.209517756016 724.1626748576241 L 570 714 L 565.790482243984 724.1626748576241" stroke-miterlimit="10" stroke-dasharray=""/>
</g>
<g>
<rect fill="#FFDF82" stroke="none" x="400" y="1040" width="112" height="32" transform="matrix(1 0 0 1 -278 -278)"/>
</g>
<g>
<path fill="none" stroke="#000000" paint-order="fill stroke markers" d=" M 122 762 L 234 762 L 234 794 L 122 794 L 122 762 Z Z" stroke-miterlimit="10" stroke-dasharray=""/>
</g>
<g>
<rect fill="#FFDF82" stroke="none" x="400" y="1040" width="112" height="32" transform="matrix(1 0 0 1 -278 -278)"/>
</g>
<g>
<path fill="none" stroke="#000000" paint-order="fill stroke markers" d=" M 122 762 L 234 762 L 234 794 L 122 794 L 122 762 Z Z" stroke-miterlimit="10" stroke-dasharray=""/>
</g>
<g>
<g>
<path fill="none" stroke="none"/>
<text fill="#000000" stroke="none" font-family="Arial" font-size="13px" font-style="normal" font-weight="bold" text-decoration="undefined" x="456.5" y="1053.5" text-anchor="middle" dominant-baseline="central" transform="matrix(1 0 0 1 -278 -278)">
TSW</text>
<path fill="none" stroke="#000000" paint-order="fill stroke markers" d=" M 192.94091796875 782 L 164.05908203125 782" stroke-miterlimit="10" stroke-dasharray=""/>
</g>
</g>
<g>
<rect fill="#FFDF82" stroke="none" x="400" y="1072" width="112" height="32" transform="matrix(1 0 0 1 -278 -278)"/>
</g>
<g>
<path fill="none" stroke="#000000" paint-order="fill stroke markers" d=" M 122 794 L 234 794 L 234 826 L 122 826 L 122 794 Z Z" stroke-miterlimit="10" stroke-dasharray=""/>
</g>
<g>
<rect fill="#FFDF82" stroke="none" x="400" y="1072" width="112" height="32" transform="matrix(1 0 0 1 -278 -278)"/>
</g>
<g>
<path fill="none" stroke="#000000" paint-order="fill stroke markers" d=" M 122 794 L 234 794 L 234 826 L 122 826 L 122 794 Z Z" stroke-miterlimit="10" stroke-dasharray=""/>
</g>
<g>
<g>
<path fill="none" stroke="none"/>
<text fill="#000000" stroke="none" font-family="Arial" font-size="13px" font-style="normal" font-weight="bold" text-decoration="undefined" x="456.5" y="1085.5" text-anchor="middle" dominant-baseline="central" transform="matrix(1 0 0 1 -278 -278)">
TSW</text>
<path fill="none" stroke="#000000" paint-order="fill stroke markers" d=" M 192.94091796875 814 L 164.05908203125 814" stroke-miterlimit="10" stroke-dasharray=""/>
</g>
</g>
<g>
<rect fill="#FFDF82" stroke="none" x="400" y="1104" width="112" height="32" transform="matrix(1 0 0 1 -278 -278)"/>
</g>
<g>
<path fill="none" stroke="#000000" paint-order="fill stroke markers" d=" M 122 826 L 234 826 L 234 858 L 122 858 L 122 826 Z Z" stroke-miterlimit="10" stroke-dasharray=""/>
</g>
<g>
<rect fill="#FFDF82" stroke="none" x="400" y="1104" width="112" height="32" transform="matrix(1 0 0 1 -278 -278)"/>
</g>
<g>
<path fill="none" stroke="#000000" paint-order="fill stroke markers" d=" M 122 826 L 234 826 L 234 858 L 122 858 L 122 826 Z Z" stroke-miterlimit="10" stroke-dasharray=""/>
</g>
<g>
<g>
<path fill="none" stroke="none"/>
<text fill="#000000" stroke="none" font-family="Arial" font-size="13px" font-style="normal" font-weight="bold" text-decoration="undefined" x="456.5" y="1117.5" text-anchor="middle" dominant-baseline="central" transform="matrix(1 0 0 1 -278 -278)">
TSW</text>
<path fill="none" stroke="#000000" paint-order="fill stroke markers" d=" M 192.94091796875 846 L 164.05908203125 846" stroke-miterlimit="10" stroke-dasharray=""/>
</g>
</g>
<g>
<rect fill="#6DCEFF" stroke="none" x="1056" y="896" width="160" height="96" transform="matrix(1 0 0 1 -278 -278)"/>
</g>
<g>
<path fill="none" stroke="#000000" paint-order="fill stroke markers" d=" M 778 618 L 938 618 L 938 714 L 778 714 L 778 618 Z Z" stroke-miterlimit="10" stroke-dasharray=""/>
</g>
<g>
<rect fill="#6DCEFF" stroke="none" x="1056" y="896" width="160" height="96" transform="matrix(1 0 0 1 -278 -278)"/>
</g>
<g>
<path fill="none" stroke="#000000" paint-order="fill stroke markers" d=" M 778 618 L 938 618 L 938 714 L 778 714 L 778 618 Z Z" stroke-miterlimit="10" stroke-dasharray=""/>
</g>
<g>
<g>
<path fill="none" stroke="none"/>
<text fill="#000000" stroke="none" font-family="Arial" font-size="13px" font-style="normal" font-weight="bold" text-decoration="undefined" x="1136.5" y="909.5" text-anchor="middle" dominant-baseline="central" transform="matrix(1 0 0 1 -278 -278)">
Reader</text>
<path fill="none" stroke="#000000" paint-order="fill stroke markers" d=" M 880.5390625 638 L 836.4609375 638" stroke-miterlimit="10" stroke-dasharray=""/>
</g>
</g>
<g>
<rect fill="#FFFFFF00" stroke="none" x="800" y="1216" width="96" height="96" transform="matrix(1 0 0 1 -278 -278)"/>
</g>
<g>
<path fill="none" stroke="#707070" paint-order="fill stroke markers" d=" M 522 938 L 618 938 L 618 1034 L 522 1034 L 522 938 Z Z" stroke-miterlimit="10" stroke-dasharray=""/>
</g>
<g>
<rect fill="#FFFFFF00" stroke="none" x="800" y="1216" width="96" height="96" transform="matrix(1 0 0 1 -278 -278)"/>
</g>
<g>
<path fill="none" stroke="#707070" paint-order="fill stroke markers" d=" M 522 938 L 618 938 L 618 1034 L 522 1034 L 522 938 Z Z" stroke-miterlimit="10" stroke-dasharray=""/>
</g>
<g>
<g>
<path fill="none" stroke="none"/>
<text fill="#707070" stroke="none" font-family="Arial" font-size="13px" font-style="normal" font-weight="bold" text-decoration="undefined" x="848.5" y="1229.5" text-anchor="middle" dominant-baseline="central" transform="matrix(1 0 0 1 -278 -278)">
GUI</text>
<path fill="none" stroke="#707070" paint-order="fill stroke markers" d=" M 582.055908203125 958 L 558.944091796875 958" stroke-miterlimit="10" stroke-dasharray=""/>
</g>
</g>
<g>
<rect fill="#FFFFFF00" stroke="none" x="928" y="1216" width="96" height="96" transform="matrix(1 0 0 1 -278 -278)"/>
</g>
<g>
<path fill="none" stroke="#707070" paint-order="fill stroke markers" d=" M 650 938 L 746 938 L 746 1034 L 650 1034 L 650 938 Z Z" stroke-miterlimit="10" stroke-dasharray=""/>
</g>
<g>
<rect fill="#FFFFFF00" stroke="none" x="928" y="1216" width="96" height="96" transform="matrix(1 0 0 1 -278 -278)"/>
</g>
<g>
<path fill="none" stroke="#707070" paint-order="fill stroke markers" d=" M 650 938 L 746 938 L 746 1034 L 650 1034 L 650 938 Z Z" stroke-miterlimit="10" stroke-dasharray=""/>
</g>
<g>
<g>
<path fill="none" stroke="none"/>
<text fill="#707070" stroke="none" font-family="Arial" font-size="13px" font-style="normal" font-weight="bold" text-decoration="undefined" x="976.5" y="1229.5" text-anchor="middle" dominant-baseline="central" transform="matrix(1 0 0 1 -278 -278)">
Field</text>
<path fill="none" stroke="#707070" paint-order="fill stroke markers" d=" M 713.667724609375 958 L 683.332275390625 958" stroke-miterlimit="10" stroke-dasharray=""/>
</g>
</g>
<g>
<rect fill="#FFFFFF00" stroke="none" x="1056" y="1216" width="160" height="96" transform="matrix(1 0 0 1 -278 -278)"/>
</g>
<g>
<path fill="none" stroke="#000000" paint-order="fill stroke markers" d=" M 778 938 L 938 938 L 938 1034 L 778 1034 L 778 938 Z Z" stroke-miterlimit="10" stroke-dasharray=""/>
</g>
<g>
<rect fill="#FFFFFF00" stroke="none" x="1056" y="1216" width="160" height="96" transform="matrix(1 0 0 1 -278 -278)"/>
</g>
<g>
<path fill="none" stroke="#000000" paint-order="fill stroke markers" d=" M 778 938 L 938 938 L 938 1034 L 778 1034 L 778 938 Z Z" stroke-miterlimit="10" stroke-dasharray=""/>
</g>
<g>
<g>
<path fill="none" stroke="none"/>
<text fill="#000000" stroke="none" font-family="Arial" font-size="13px" font-style="normal" font-weight="bold" text-decoration="undefined" x="1136.5" y="1229.5" text-anchor="middle" dominant-baseline="central" transform="matrix(1 0 0 1 -278 -278)">
project data file</text>
<path fill="none" stroke="#000000" paint-order="fill stroke markers" d=" M 906.5390625 958 L 810.4609375 958" stroke-miterlimit="10" stroke-dasharray=""/>
</g>
</g>
<g>
<path fill="none" stroke="#707070" paint-order="fill stroke markers" d=" M 554 938 L 554 906" stroke-miterlimit="10" stroke-dasharray=""/>
</g>
<g>
<path fill="none" stroke="#707070" paint-order="fill stroke markers" d=" M 558.209517756016 916.1626748576241 L 554 906 L 549.790482243984 916.1626748576241" stroke-miterlimit="10" stroke-dasharray=""/>
</g>
<g>
<path fill="none" stroke="#707070" paint-order="fill stroke markers" d=" M 586 906 L 586 938" stroke-miterlimit="10" stroke-dasharray=""/>
</g>
<g>
<path fill="none" stroke="#707070" paint-order="fill stroke markers" d=" M 581.790482243984 927.8373251423759 L 586 938 L 590.209517756016 927.8373251423759" stroke-miterlimit="10" stroke-dasharray=""/>
</g>
<g>
<path fill="none" stroke="#007561" paint-order="fill stroke markers" d=" M 858 714 L 858 938" stroke-miterlimit="10" stroke-dasharray=""/>
</g>
<g>
<path fill="none" stroke="#007561" paint-order="fill stroke markers" d=" M 853.7904822439841 927.8373251423759 L 858 938 L 862.2095177560159 927.8373251423759" stroke-miterlimit="10" stroke-dasharray=""/>
</g>
<g>
<path fill="none" stroke="#007561" paint-order="fill stroke markers" d=" M 778 650 L 618 650" stroke-miterlimit="10" stroke-dasharray=""/>
</g>
<g>
<path fill="none" stroke="#007561" paint-order="fill stroke markers" d=" M 628.1626748576241 645.790482243984 L 618 650 L 628.1626748576241 654.209517756016" stroke-miterlimit="10" stroke-dasharray=""/>
</g>
<g>
<rect fill="#FFFFFF00" stroke="none" x="1184" y="1024" width="160" height="96" transform="matrix(1 0 0 1 -278 -278)"/>
</g>
<g>
<path fill="none" stroke="#007561" paint-order="fill stroke markers" d=" M 906 746 L 1066 746 L 1066 842 L 906 842 L 906 746 Z Z" stroke-miterlimit="10" stroke-dasharray=""/>
</g>
<g>
<rect fill="#FFFFFF00" stroke="none" x="1184" y="1024" width="160" height="96" transform="matrix(1 0 0 1 -278 -278)"/>
</g>
<g>
<path fill="none" stroke="#007561" paint-order="fill stroke markers" d=" M 906 746 L 1066 746 L 1066 842 L 906 842 L 906 746 Z Z" stroke-miterlimit="10" stroke-dasharray=""/>
</g>
<g>
<g>
<path fill="none" stroke="none"/>
<text fill="#007561" stroke="none" font-family="Arial" font-size="13px" font-style="normal" font-weight="bold" text-decoration="undefined" x="1264.5" y="1037.5" text-anchor="middle" dominant-baseline="central" transform="matrix(1 0 0 1 -278 -278)">
Startup</text>
<path fill="none" stroke="#007561" paint-order="fill stroke markers" d=" M 1009.25 766 L 963.75 766" stroke-miterlimit="10" stroke-dasharray=""/>
</g>
</g>
<g>
<path fill="none" stroke="#007561" paint-order="fill stroke markers" d=" M 986 746 L 986 650 L 938 650" stroke-miterlimit="10" stroke-dasharray=""/>
</g>
<g>
<path fill="none" stroke="#007561" paint-order="fill stroke markers" d=" M 948.1626748576241 645.790482243984 L 938 650 L 948.1626748576241 654.209517756016" stroke-miterlimit="10" stroke-dasharray=""/>
</g>
<g>
<path fill="none" stroke="#007561" paint-order="fill stroke markers" d=" M 250 874 L 490 874 L 490 714" stroke-miterlimit="10" stroke-dasharray=""/>
</g>
<g>
<path fill="none" stroke="#007561" paint-order="fill stroke markers" d=" M 494.209517756016 724.1626748576241 L 490 714 L 485.790482243984 724.1626748576241" stroke-miterlimit="10" stroke-dasharray=""/>
</g>
<g>
<rect fill="#D1FFA3" stroke="none" x="400" y="848" width="112" height="32" transform="matrix(1 0 0 1 -278 -278)"/>
</g>
<g>
<path fill="none" stroke="#000000" paint-order="fill stroke markers" d=" M 122 570 L 234 570 L 234 602 L 122 602 L 122 570 Z Z" stroke-miterlimit="10" stroke-dasharray=""/>
</g>
<g>
<rect fill="#D1FFA3" stroke="none" x="400" y="848" width="112" height="32" transform="matrix(1 0 0 1 -278 -278)"/>
</g>
<g>
<path fill="none" stroke="#000000" paint-order="fill stroke markers" d=" M 122 570 L 234 570 L 234 602 L 122 602 L 122 570 Z Z" stroke-miterlimit="10" stroke-dasharray=""/>
</g>
<g>
<g>
<path fill="none" stroke="none"/>
<text fill="#000000" stroke="none" font-family="Arial" font-size="13px" font-style="normal" font-weight="bold" text-decoration="undefined" x="456.5" y="861.5" text-anchor="middle" dominant-baseline="central" transform="matrix(1 0 0 1 -278 -278)">
SIG_X</text>
<path fill="none" stroke="#000000" paint-order="fill stroke markers" d=" M 197.647705078125 590 L 159.352294921875 590" stroke-miterlimit="10" stroke-dasharray=""/>
</g>
</g>
<g>
<rect fill="#D1FFA3" stroke="none" x="400" y="880" width="112" height="32" transform="matrix(1 0 0 1 -278 -278)"/>
</g>
<g>
<path fill="none" stroke="#000000" paint-order="fill stroke markers" d=" M 122 602 L 234 602 L 234 634 L 122 634 L 122 602 Z Z" stroke-miterlimit="10" stroke-dasharray=""/>
</g>
<g>
<rect fill="#D1FFA3" stroke="none" x="400" y="880" width="112" height="32" transform="matrix(1 0 0 1 -278 -278)"/>
</g>
<g>
<path fill="none" stroke="#000000" paint-order="fill stroke markers" d=" M 122 602 L 234 602 L 234 634 L 122 634 L 122 602 Z Z" stroke-miterlimit="10" stroke-dasharray=""/>
</g>
<g>
<g>
<path fill="none" stroke="none"/>
<text fill="#000000" stroke="none" font-family="Arial" font-size="13px" font-style="normal" font-weight="bold" text-decoration="undefined" x="456.5" y="893.5" text-anchor="middle" dominant-baseline="central" transform="matrix(1 0 0 1 -278 -278)">
SIG_X</text>
<path fill="none" stroke="#000000" paint-order="fill stroke markers" d=" M 197.647705078125 622 L 159.352294921875 622" stroke-miterlimit="10" stroke-dasharray=""/>
</g>
</g>
<g>
<rect fill="#D1FFA3" stroke="none" x="400" y="912" width="112" height="32" transform="matrix(1 0 0 1 -278 -278)"/>
</g>
<g>
<path fill="none" stroke="#000000" paint-order="fill stroke markers" d=" M 122 634 L 234 634 L 234 666 L 122 666 L 122 634 Z Z" stroke-miterlimit="10" stroke-dasharray=""/>
</g>
<g>
<rect fill="#D1FFA3" stroke="none" x="400" y="912" width="112" height="32" transform="matrix(1 0 0 1 -278 -278)"/>
</g>
<g>
<path fill="none" stroke="#000000" paint-order="fill stroke markers" d=" M 122 634 L 234 634 L 234 666 L 122 666 L 122 634 Z Z" stroke-miterlimit="10" stroke-dasharray=""/>
</g>
<g>
<g>
<path fill="none" stroke="none"/>
<text fill="#000000" stroke="none" font-family="Arial" font-size="13px" font-style="normal" font-weight="bold" text-decoration="undefined" x="456.5" y="925.5" text-anchor="middle" dominant-baseline="central" transform="matrix(1 0 0 1 -278 -278)">
SIG_X</text>
<path fill="none" stroke="#000000" paint-order="fill stroke markers" d=" M 197.647705078125 654 L 159.352294921875 654" stroke-miterlimit="10" stroke-dasharray=""/>
</g>
</g>
<g>
<path fill="none" stroke="#007561" paint-order="fill stroke markers" d=" M 250 682 L 394 682" stroke-miterlimit="10" stroke-dasharray=""/>
</g>
<g>
<path fill="none" stroke="#007561" paint-order="fill stroke markers" d=" M 383.8373251423759 686.209517756016 L 394 682 L 383.8373251423758 677.790482243984" stroke-miterlimit="10" stroke-dasharray=""/>
</g>
<g>
<path fill="none" stroke="#007561" paint-order="fill stroke markers" d=" M 874 618 L 874 42 L 42 42 L 42 554 L 106 554" stroke-miterlimit="10" stroke-dasharray=""/>
</g>
<g>
<path fill="none" stroke="#007561" paint-order="fill stroke markers" d=" M 95.83732514237585 558.209517756016 L 106 554 L 95.83732514237585 549.790482243984" stroke-miterlimit="10" stroke-dasharray=""/>
</g>
<g>
<path fill="none" stroke="#007561" paint-order="fill stroke markers" d=" M 906 618 L 906 10 L 10 10 L 10 762 L 106 762" stroke-miterlimit="10" stroke-dasharray=""/>
</g>
<g>
<path fill="none" stroke="#007561" paint-order="fill stroke markers" d=" M 95.83732514237585 766.2095177560159 L 106 762 L 95.83732514237585 757.7904822439841" stroke-miterlimit="10" stroke-dasharray=""/>
</g>
<g>
<path fill="none" stroke="#000000" paint-order="fill stroke markers" d=" M 602 714 L 602 810" stroke-miterlimit="10" stroke-dasharray=""/>
</g>
<g>
<path fill="none" stroke="#000000" paint-order="fill stroke markers" d=" M 597.790482243984 799.8373251423759 L 602 810 L 606.209517756016 799.8373251423759" stroke-miterlimit="10" stroke-dasharray=""/>
</g>
<g>
<path fill="none" stroke="#707070" paint-order="fill stroke markers" d=" M 682 938 L 682 906" stroke-miterlimit="10" stroke-dasharray=""/>
</g>
<g>
<path fill="none" stroke="#707070" paint-order="fill stroke markers" d=" M 686.209517756016 916.1626748576241 L 682 906 L 677.790482243984 916.1626748576241" stroke-miterlimit="10" stroke-dasharray=""/>
</g>
<g>
<path fill="none" stroke="#707070" paint-order="fill stroke markers" d=" M 714 906 L 714 938" stroke-miterlimit="10" stroke-dasharray=""/>
</g>
<g>
<path fill="none" stroke="#707070" paint-order="fill stroke markers" d=" M 709.790482243984 927.8373251423759 L 714 938 L 718.209517756016 927.8373251423759" stroke-miterlimit="10" stroke-dasharray=""/>
</g>
<g>
<rect fill="#D8FFF8" stroke="none" x="384" y="592" width="144" height="192" transform="matrix(1 0 0 1 -278 -278)"/>
</g>
<g>
<path fill="none" stroke="#000000" paint-order="fill stroke markers" d=" M 106 314 L 250 314 L 250 506 L 106 506 L 106 314 Z Z" stroke-miterlimit="10" stroke-dasharray=""/>
</g>
<g>
<rect fill="#D8FFF8" stroke="none" x="384" y="592" width="144" height="192" transform="matrix(1 0 0 1 -278 -278)"/>
</g>
<g>
<path fill="none" stroke="#000000" paint-order="fill stroke markers" d=" M 106 314 L 250 314 L 250 506 L 106 506 L 106 314 Z Z" stroke-miterlimit="10" stroke-dasharray=""/>
</g>
<g>
<g>
<path fill="none" stroke="none"/>
<text fill="#000000" stroke="none" font-family="Arial" font-size="13px" font-style="normal" font-weight="bold" text-decoration="undefined" x="456.5" y="605.5" text-anchor="middle" dominant-baseline="central" transform="matrix(1 0 0 1 -278 -278)">
LCR Provider</text>
<path fill="none" stroke="#000000" paint-order="fill stroke markers" d=" M 220.035888671875 334 L 136.964111328125 334" stroke-miterlimit="10" stroke-dasharray=""/>
</g>
</g>
<g>
<rect fill="#D8FFF8" stroke="none" x="400" y="640" width="112" height="32" transform="matrix(1 0 0 1 -278 -278)"/>
</g>
<g>
<path fill="none" stroke="#000000" paint-order="fill stroke markers" d=" M 122 362 L 234 362 L 234 394 L 122 394 L 122 362 Z Z" stroke-miterlimit="10" stroke-dasharray=""/>
</g>
<g>
<rect fill="#D8FFF8" stroke="none" x="400" y="640" width="112" height="32" transform="matrix(1 0 0 1 -278 -278)"/>
</g>
<g>
<path fill="none" stroke="#000000" paint-order="fill stroke markers" d=" M 122 362 L 234 362 L 234 394 L 122 394 L 122 362 Z Z" stroke-miterlimit="10" stroke-dasharray=""/>
</g>
<g>
<g>
<path fill="none" stroke="none"/>
<text fill="#000000" stroke="none" font-family="Arial" font-size="13px" font-style="normal" font-weight="bold" text-decoration="undefined" x="456.5" y="653.5" text-anchor="middle" dominant-baseline="central" transform="matrix(1 0 0 1 -278 -278)">
LCR_X</text>
<path fill="none" stroke="#000000" paint-order="fill stroke markers" d=" M 199.80908203125 382 L 157.19091796875 382" stroke-miterlimit="10" stroke-dasharray=""/>
</g>
</g>
<g>
<rect fill="#D8FFF8" stroke="none" x="400" y="672" width="112" height="32" transform="matrix(1 0 0 1 -278 -278)"/>
</g>
<g>
<path fill="none" stroke="#000000" paint-order="fill stroke markers" d=" M 122 394 L 234 394 L 234 426 L 122 426 L 122 394 Z Z" stroke-miterlimit="10" stroke-dasharray=""/>
</g>
<g>
<rect fill="#D8FFF8" stroke="none" x="400" y="672" width="112" height="32" transform="matrix(1 0 0 1 -278 -278)"/>
</g>
<g>
<path fill="none" stroke="#000000" paint-order="fill stroke markers" d=" M 122 394 L 234 394 L 234 426 L 122 426 L 122 394 Z Z" stroke-miterlimit="10" stroke-dasharray=""/>
</g>
<g>
<g>
<path fill="none" stroke="none"/>
<text fill="#000000" stroke="none" font-family="Arial" font-size="13px" font-style="normal" font-weight="bold" text-decoration="undefined" x="456.5" y="685.5" text-anchor="middle" dominant-baseline="central" transform="matrix(1 0 0 1 -278 -278)">
LCR_X</text>
<path fill="none" stroke="#000000" paint-order="fill stroke markers" d=" M 199.80908203125 414 L 157.19091796875 414" stroke-miterlimit="10" stroke-dasharray=""/>
</g>
</g>
<g>
<rect fill="#D8FFF8" stroke="none" x="400" y="704" width="112" height="32" transform="matrix(1 0 0 1 -278 -278)"/>
</g>
<g>
<path fill="none" stroke="#000000" paint-order="fill stroke markers" d=" M 122 426 L 234 426 L 234 458 L 122 458 L 122 426 Z Z" stroke-miterlimit="10" stroke-dasharray=""/>
</g>
<g>
<rect fill="#D8FFF8" stroke="none" x="400" y="704" width="112" height="32" transform="matrix(1 0 0 1 -278 -278)"/>
</g>
<g>
<path fill="none" stroke="#000000" paint-order="fill stroke markers" d=" M 122 426 L 234 426 L 234 458 L 122 458 L 122 426 Z Z" stroke-miterlimit="10" stroke-dasharray=""/>
</g>
<g>
<g>
<path fill="none" stroke="none"/>
<text fill="#000000" stroke="none" font-family="Arial" font-size="13px" font-style="normal" font-weight="bold" text-decoration="undefined" x="456.5" y="717.5" text-anchor="middle" dominant-baseline="central" transform="matrix(1 0 0 1 -278 -278)">
LCR_X</text>
<path fill="none" stroke="#000000" paint-order="fill stroke markers" d=" M 199.80908203125 446 L 157.19091796875 446" stroke-miterlimit="10" stroke-dasharray=""/>
</g>
</g>
<g>
<path fill="none" stroke="#007561" paint-order="fill stroke markers" d=" M 250 474 L 426 474 L 426 586" stroke-miterlimit="10" stroke-dasharray=""/>
</g>
<g>
<path fill="none" stroke="#007561" paint-order="fill stroke markers" d=" M 421.790482243984 575.8373251423759 L 426 586 L 430.209517756016 575.8373251423759" stroke-miterlimit="10" stroke-dasharray=""/>
</g>
<g>
<rect fill="#D8E5FF" stroke="none" x="384" y="384" width="144" height="192" transform="matrix(1 0 0 1 -278 -278)"/>
</g>
<g>
<path fill="none" stroke="#000000" paint-order="fill stroke markers" d=" M 106 106 L 250 106 L 250 298 L 106 298 L 106 106 Z Z" stroke-miterlimit="10" stroke-dasharray=""/>
</g>
<g>
<rect fill="#D8E5FF" stroke="none" x="384" y="384" width="144" height="192" transform="matrix(1 0 0 1 -278 -278)"/>
</g>
<g>
<path fill="none" stroke="#000000" paint-order="fill stroke markers" d=" M 106 106 L 250 106 L 250 298 L 106 298 L 106 106 Z Z" stroke-miterlimit="10" stroke-dasharray=""/>
</g>
<g>
<g>
<path fill="none" stroke="none"/>
<text fill="#000000" stroke="none" font-family="Arial" font-size="13px" font-style="normal" font-weight="bold" text-decoration="undefined" x="456.5" y="397.5" text-anchor="middle" dominant-baseline="central" transform="matrix(1 0 0 1 -278 -278)">
SEG Provider</text>
<path fill="none" stroke="#000000" paint-order="fill stroke markers" d=" M 220.404052734375 126 L 136.595947265625 126" stroke-miterlimit="10" stroke-dasharray=""/>
</g>
</g>
<g>
<rect fill="#D8E5FF" stroke="none" x="400" y="432" width="112" height="32" transform="matrix(1 0 0 1 -278 -278)"/>
</g>
<g>
<path fill="none" stroke="#000000" paint-order="fill stroke markers" d=" M 122 154 L 234 154 L 234 186 L 122 186 L 122 154 Z Z" stroke-miterlimit="10" stroke-dasharray=""/>
</g>
<g>
<rect fill="#D8E5FF" stroke="none" x="400" y="432" width="112" height="32" transform="matrix(1 0 0 1 -278 -278)"/>
</g>
<g>
<path fill="none" stroke="#000000" paint-order="fill stroke markers" d=" M 122 154 L 234 154 L 234 186 L 122 186 L 122 154 Z Z" stroke-miterlimit="10" stroke-dasharray=""/>
</g>
<g>
<g>
<path fill="none" stroke="none"/>
<text fill="#000000" stroke="none" font-family="Arial" font-size="13px" font-style="normal" font-weight="bold" text-decoration="undefined" x="456.5" y="445.5" text-anchor="middle" dominant-baseline="central" transform="matrix(1 0 0 1 -278 -278)">
SEG</text>
<path fill="none" stroke="#000000" paint-order="fill stroke markers" d=" M 192.226806640625 174 L 164.773193359375 174" stroke-miterlimit="10" stroke-dasharray=""/>
</g>
</g>
<g>
<rect fill="#D8E5FF" stroke="none" x="400" y="464" width="112" height="32" transform="matrix(1 0 0 1 -278 -278)"/>
</g>
<g>
<path fill="none" stroke="#000000" paint-order="fill stroke markers" d=" M 122 186 L 234 186 L 234 218 L 122 218 L 122 186 Z Z" stroke-miterlimit="10" stroke-dasharray=""/>
</g>
<g>
<rect fill="#D8E5FF" stroke="none" x="400" y="464" width="112" height="32" transform="matrix(1 0 0 1 -278 -278)"/>
</g>
<g>
<path fill="none" stroke="#000000" paint-order="fill stroke markers" d=" M 122 186 L 234 186 L 234 218 L 122 218 L 122 186 Z Z" stroke-miterlimit="10" stroke-dasharray=""/>
</g>
<g>
<g>
<path fill="none" stroke="none"/>
<text fill="#000000" stroke="none" font-family="Arial" font-size="13px" font-style="normal" font-weight="bold" text-decoration="undefined" x="456.5" y="477.5" text-anchor="middle" dominant-baseline="central" transform="matrix(1 0 0 1 -278 -278)">
SEG</text>
<path fill="none" stroke="#000000" paint-order="fill stroke markers" d=" M 192.226806640625 206 L 164.773193359375 206" stroke-miterlimit="10" stroke-dasharray=""/>
</g>
</g>
<g>
<rect fill="#D8E5FF" stroke="none" x="400" y="496" width="112" height="32" transform="matrix(1 0 0 1 -278 -278)"/>
</g>
<g>
<path fill="none" stroke="#000000" paint-order="fill stroke markers" d=" M 122 218 L 234 218 L 234 250 L 122 250 L 122 218 Z Z" stroke-miterlimit="10" stroke-dasharray=""/>
</g>
<g>
<rect fill="#D8E5FF" stroke="none" x="400" y="496" width="112" height="32" transform="matrix(1 0 0 1 -278 -278)"/>
</g>
<g>
<path fill="none" stroke="#000000" paint-order="fill stroke markers" d=" M 122 218 L 234 218 L 234 250 L 122 250 L 122 218 Z Z" stroke-miterlimit="10" stroke-dasharray=""/>
</g>
<g>
<g>
<path fill="none" stroke="none"/>
<text fill="#000000" stroke="none" font-family="Arial" font-size="13px" font-style="normal" font-weight="bold" text-decoration="undefined" x="456.5" y="509.5" text-anchor="middle" dominant-baseline="central" transform="matrix(1 0 0 1 -278 -278)">
SEG</text>
<path fill="none" stroke="#000000" paint-order="fill stroke markers" d=" M 192.226806640625 238 L 164.773193359375 238" stroke-miterlimit="10" stroke-dasharray=""/>
</g>
</g>
<g>
<path fill="none" stroke="#007561" paint-order="fill stroke markers" d=" M 250 266 L 522 266 L 522 586" stroke-miterlimit="10" stroke-dasharray=""/>
</g>
<g>
<path fill="none" stroke="#007561" paint-order="fill stroke markers" d=" M 517.790482243984 575.8373251423759 L 522 586 L 526.209517756016 575.8373251423759" stroke-miterlimit="10" stroke-dasharray=""/>
</g>
<g>
<path fill="none" stroke="#007561" paint-order="fill stroke markers" d=" M 842 618 L 842 74 L 74 74 L 74 346 L 106 346" stroke-miterlimit="10" stroke-dasharray=""/>
</g>
<g>
<path fill="none" stroke="#007561" paint-order="fill stroke markers" d=" M 95.83732514237585 350.209517756016 L 106 346 L 95.83732514237585 341.790482243984" stroke-miterlimit="10" stroke-dasharray=""/>
</g>
<g>
<path fill="none" stroke="#007561" paint-order="fill stroke markers" d=" M 810 618 L 810 138 L 250 138" stroke-miterlimit="10" stroke-dasharray=""/>
</g>
<g>
<path fill="none" stroke="#007561" paint-order="fill stroke markers" d=" M 260.1626748576241 133.790482243984 L 250 138 L 260.1626748576241 142.209517756016" stroke-miterlimit="10" stroke-dasharray=""/>
</g>
<g>
<path fill="none" stroke="#000000" paint-order="fill stroke markers" d=" M 458 586 L 458 442 L 250 442" stroke-miterlimit="10" stroke-dasharray=""/>
</g>
<g>
<path fill="none" stroke="#000000" paint-order="fill stroke markers" d=" M 260.1626748576241 437.790482243984 L 250 442 L 260.1626748576241 446.209517756016" stroke-miterlimit="10" stroke-dasharray=""/>
</g>
<g>
<path fill="none" stroke="#000000" paint-order="fill stroke markers" d=" M 394 618 L 250 618" stroke-miterlimit="10" stroke-dasharray=""/>
</g>
<g>
<path fill="none" stroke="#000000" paint-order="fill stroke markers" d=" M 260.1626748576241 613.790482243984 L 250 618 L 260.1626748576241 622.209517756016" stroke-miterlimit="10" stroke-dasharray=""/>
</g>
<g>
<path fill="none" stroke="#000000" paint-order="fill stroke markers" d=" M 554 586 L 554 234 L 250 234" stroke-miterlimit="10" stroke-dasharray=""/>
</g>
<g>
<path fill="none" stroke="#000000" paint-order="fill stroke markers" d=" M 260.1626748576241 229.790482243984 L 250 234 L 260.1626748576241 238.209517756016" stroke-miterlimit="10" stroke-dasharray=""/>
</g>
<g>
<path fill="none" stroke="#000000" paint-order="fill stroke markers" d=" M 234 410 L 490 410 L 490 586" stroke-miterlimit="10" stroke-dasharray=""/>
</g>
<g>
<path fill="none" stroke="#000000" paint-order="fill stroke markers" d=" M 485.790482243984 575.8373251423759 L 490 586 L 494.209517756016 575.8373251423759" stroke-miterlimit="10" stroke-dasharray=""/>
</g>
<g>
<path fill="none" stroke="#000000" paint-order="fill stroke markers" d=" M 234 202 L 586 202 L 586 586" stroke-miterlimit="10" stroke-dasharray=""/>
</g>
<g>
<path fill="none" stroke="#000000" paint-order="fill stroke markers" d=" M 581.790482243984 575.8373251423759 L 586 586 L 590.209517756016 575.8373251423759" stroke-miterlimit="10" stroke-dasharray=""/>
</g>
<g>
<path fill="none" stroke="#000000" paint-order="fill stroke markers" d=" M 458 714 L 458 842 L 250 842" stroke-miterlimit="10" stroke-dasharray=""/>
</g>
<g>
<path fill="none" stroke="#000000" paint-order="fill stroke markers" d=" M 260.1626748576241 837.7904822439841 L 250 842 L 260.1626748576241 846.2095177560159" stroke-miterlimit="10" stroke-dasharray=""/>
</g>
<g>
<path fill="none" stroke="#000000" paint-order="fill stroke markers" d=" M 234 810 L 426 810 L 426 714" stroke-miterlimit="10" stroke-dasharray=""/>
</g>
<g>
<path fill="none" stroke="#000000" paint-order="fill stroke markers" d=" M 430.209517756016 724.1626748576241 L 426 714 L 421.790482243984 724.1626748576241" stroke-miterlimit="10" stroke-dasharray=""/>
</g>
<g>
<path fill="none" stroke="#000000" paint-order="fill stroke markers" d=" M 234 634 L 234 650 L 394 650" stroke-miterlimit="10" stroke-dasharray=""/>
</g>
<g>
<path fill="none" stroke="#000000" paint-order="fill stroke markers" d=" M 383.8373251423759 654.209517756016 L 394 650 L 383.8373251423758 645.790482243984" stroke-miterlimit="10" stroke-dasharray=""/>
</g>
</g>
</svg>
