<svg version="1.1" xmlns="http://www.w3.org/2000/svg" xmlns:xlink="http://www.w3.org/1999/xlink" width="1077" height="1269">
<defs/>
<g>
<g>
<rect fill="#FFDF82" stroke="none" x="384" y="1008" width="144" height="176" transform="matrix(1 0 0 1 -278 -53)"/>
</g>
<g>
<path fill="none" stroke="#000000" paint-order="fill stroke markers" d=" M 106 955 L 250 955 L 250 1131 L 106 1131 L 106 955 Z Z" stroke-miterlimit="10" stroke-dasharray=""/>
</g>
<g>
<rect fill="#FFDF82" stroke="none" x="384" y="1008" width="144" height="176" transform="matrix(1 0 0 1 -278 -53)"/>
</g>
<g>
<path fill="none" stroke="#000000" paint-order="fill stroke markers" d=" M 106 955 L 250 955 L 250 1131 L 106 1131 L 106 955 Z Z" stroke-miterlimit="10" stroke-dasharray=""/>
</g>
<g>
<g>
<path fill="none" stroke="none"/>
<text fill="#000000" stroke="none" font-family="Arial" font-size="13px" font-style="normal" font-weight="bold" text-decoration="undefined" x="456.5" y="1021.5" text-anchor="middle" dominant-baseline="central" transform="matrix(1 0 0 1 -278 -53)">
TSW Provider</text>
<path fill="none" stroke="#000000" paint-order="fill stroke markers" d=" M 221.1181640625 975 L 135.8818359375 975" stroke-miterlimit="10" stroke-dasharray=""/>
</g>
</g>
<g>
<rect fill="#D1FFA3" stroke="none" x="384" y="800" width="144" height="192" transform="matrix(1 0 0 1 -278 -53)"/>
</g>
<g>
<path fill="none" stroke="#000000" paint-order="fill stroke markers" d=" M 106 747 L 250 747 L 250 939 L 106 939 L 106 747 Z Z" stroke-miterlimit="10" stroke-dasharray=""/>
</g>
<g>
<rect fill="#D1FFA3" stroke="none" x="384" y="800" width="144" height="192" transform="matrix(1 0 0 1 -278 -53)"/>
</g>
<g>
<path fill="none" stroke="#000000" paint-order="fill stroke markers" d=" M 106 747 L 250 747 L 250 939 L 106 939 L 106 747 Z Z" stroke-miterlimit="10" stroke-dasharray=""/>
</g>
<g>
<g>
<path fill="none" stroke="none"/>
<text fill="#000000" stroke="none" font-family="Arial" font-size="13px" font-style="normal" font-weight="bold" text-decoration="undefined" x="456.5" y="813.5" text-anchor="middle" dominant-baseline="central" transform="matrix(1 0 0 1 -278 -53)">
SIG Prowider</text>
<path fill="none" stroke="#000000" paint-order="fill stroke markers" d=" M 219.3154296875 767 L 137.6845703125 767" stroke-miterlimit="10" stroke-dasharray=""/>
</g>
</g>
<g>
<rect fill="#6DCEFF" stroke="none" x="672" y="864" width="224" height="128" transform="matrix(1 0 0 1 -278 -53)"/>
</g>
<g>
<path fill="none" stroke="#000000" paint-order="fill stroke markers" d=" M 394 811 L 618 811 L 618 939 L 394 939 L 394 811 Z Z" stroke-miterlimit="10" stroke-dasharray=""/>
</g>
<g>
<rect fill="#6DCEFF" stroke="none" x="672" y="864" width="224" height="128" transform="matrix(1 0 0 1 -278 -53)"/>
</g>
<g>
<path fill="none" stroke="#000000" paint-order="fill stroke markers" d=" M 394 811 L 618 811 L 618 939 L 394 939 L 394 811 Z Z" stroke-miterlimit="10" stroke-dasharray=""/>
</g>
<g>
<g>
<path fill="none" stroke="none"/>
<text fill="#000000" stroke="none" font-family="Arial" font-size="13px" font-style="normal" font-weight="bold" text-decoration="undefined" x="784.5" y="877.5" text-anchor="middle" dominant-baseline="central" transform="matrix(1 0 0 1 -278 -53)">
Dispatcher</text>
<path fill="none" stroke="#000000" paint-order="fill stroke markers" d=" M 540.094970703125 831 L 472.905029296875 831" stroke-miterlimit="10" stroke-dasharray=""/>
</g>
</g>
<g>
<rect fill="#6DCEFF" stroke="none" x="800" y="1088" width="224" height="96" transform="matrix(1 0 0 1 -278 -53)"/>
</g>
<g>
<path fill="none" stroke="#000000" paint-order="fill stroke markers" d=" M 522 1035 L 746 1035 L 746 1131 L 522 1131 L 522 1035 Z Z" stroke-miterlimit="10" stroke-dasharray=""/>
</g>
<g>
<rect fill="#6DCEFF" stroke="none" x="800" y="1088" width="224" height="96" transform="matrix(1 0 0 1 -278 -53)"/>
</g>
<g>
<path fill="none" stroke="#000000" paint-order="fill stroke markers" d=" M 522 1035 L 746 1035 L 746 1131 L 522 1131 L 522 1035 Z Z" stroke-miterlimit="10" stroke-dasharray=""/>
</g>
<g>
<g>
<path fill="none" stroke="none"/>
<text fill="#000000" stroke="none" font-family="Arial" font-size="13px" font-style="normal" font-weight="bold" text-decoration="undefined" x="912.5" y="1101.5" text-anchor="middle" dominant-baseline="central" transform="matrix(1 0 0 1 -278 -53)">
Com -NF-</text>
<path fill="none" stroke="#000000" paint-order="fill stroke markers" d=" M 663.74365234375 1055 L 605.25634765625 1055" stroke-miterlimit="10" stroke-dasharray=""/>
</g>
</g>
<g>
<path fill="none" stroke="#000000" paint-order="fill stroke markers" d=" M 570 1035 L 570 939" stroke-miterlimit="10" stroke-dasharray=""/>
</g>
<g>
<path fill="none" stroke="#000000" paint-order="fill stroke markers" d=" M 574.209517756016 949.1626748576241 L 570 939 L 565.790482243984 949.1626748576241" stroke-miterlimit="10" stroke-dasharray=""/>
</g>
<g>
<rect fill="#FFDF82" stroke="none" x="400" y="1040" width="112" height="32" transform="matrix(1 0 0 1 -278 -53)"/>
</g>
<g>
<path fill="none" stroke="#000000" paint-order="fill stroke markers" d=" M 122 987 L 234 987 L 234 1019 L 122 1019 L 122 987 Z Z" stroke-miterlimit="10" stroke-dasharray=""/>
</g>
<g>
<rect fill="#FFDF82" stroke="none" x="400" y="1040" width="112" height="32" transform="matrix(1 0 0 1 -278 -53)"/>
</g>
<g>
<path fill="none" stroke="#000000" paint-order="fill stroke markers" d=" M 122 987 L 234 987 L 234 1019 L 122 1019 L 122 987 Z Z" stroke-miterlimit="10" stroke-dasharray=""/>
</g>
<g>
<g>
<path fill="none" stroke="none"/>
<text fill="#000000" stroke="none" font-family="Arial" font-size="13px" font-style="normal" font-weight="bold" text-decoration="undefined" x="456.5" y="1053.5" text-anchor="middle" dominant-baseline="central" transform="matrix(1 0 0 1 -278 -53)">
TSW</text>
<path fill="none" stroke="#000000" paint-order="fill stroke markers" d=" M 192.94091796875 1007 L 164.05908203125 1007" stroke-miterlimit="10" stroke-dasharray=""/>
</g>
</g>
<g>
<rect fill="#FFDF82" stroke="none" x="400" y="1072" width="112" height="32" transform="matrix(1 0 0 1 -278 -53)"/>
</g>
<g>
<path fill="none" stroke="#000000" paint-order="fill stroke markers" d=" M 122 1019 L 234 1019 L 234 1051 L 122 1051 L 122 1019 Z Z" stroke-miterlimit="10" stroke-dasharray=""/>
</g>
<g>
<rect fill="#FFDF82" stroke="none" x="400" y="1072" width="112" height="32" transform="matrix(1 0 0 1 -278 -53)"/>
</g>
<g>
<path fill="none" stroke="#000000" paint-order="fill stroke markers" d=" M 122 1019 L 234 1019 L 234 1051 L 122 1051 L 122 1019 Z Z" stroke-miterlimit="10" stroke-dasharray=""/>
</g>
<g>
<g>
<path fill="none" stroke="none"/>
<text fill="#000000" stroke="none" font-family="Arial" font-size="13px" font-style="normal" font-weight="bold" text-decoration="undefined" x="456.5" y="1085.5" text-anchor="middle" dominant-baseline="central" transform="matrix(1 0 0 1 -278 -53)">
TSW</text>
<path fill="none" stroke="#000000" paint-order="fill stroke markers" d=" M 192.94091796875 1039 L 164.05908203125 1039" stroke-miterlimit="10" stroke-dasharray=""/>
</g>
</g>
<g>
<rect fill="#FFDF82" stroke="none" x="400" y="1104" width="112" height="32" transform="matrix(1 0 0 1 -278 -53)"/>
</g>
<g>
<path fill="none" stroke="#000000" paint-order="fill stroke markers" d=" M 122 1051 L 234 1051 L 234 1083 L 122 1083 L 122 1051 Z Z" stroke-miterlimit="10" stroke-dasharray=""/>
</g>
<g>
<rect fill="#FFDF82" stroke="none" x="400" y="1104" width="112" height="32" transform="matrix(1 0 0 1 -278 -53)"/>
</g>
<g>
<path fill="none" stroke="#000000" paint-order="fill stroke markers" d=" M 122 1051 L 234 1051 L 234 1083 L 122 1083 L 122 1051 Z Z" stroke-miterlimit="10" stroke-dasharray=""/>
</g>
<g>
<g>
<path fill="none" stroke="none"/>
<text fill="#000000" stroke="none" font-family="Arial" font-size="13px" font-style="normal" font-weight="bold" text-decoration="undefined" x="456.5" y="1117.5" text-anchor="middle" dominant-baseline="central" transform="matrix(1 0 0 1 -278 -53)">
TSW</text>
<path fill="none" stroke="#000000" paint-order="fill stroke markers" d=" M 192.94091796875 1071 L 164.05908203125 1071" stroke-miterlimit="10" stroke-dasharray=""/>
</g>
</g>
<g>
<rect fill="#6DCEFF" stroke="none" x="1056" y="896" width="160" height="96" transform="matrix(1 0 0 1 -278 -53)"/>
</g>
<g>
<path fill="none" stroke="#000000" paint-order="fill stroke markers" d=" M 778 843 L 938 843 L 938 939 L 778 939 L 778 843 Z Z" stroke-miterlimit="10" stroke-dasharray=""/>
</g>
<g>
<rect fill="#6DCEFF" stroke="none" x="1056" y="896" width="160" height="96" transform="matrix(1 0 0 1 -278 -53)"/>
</g>
<g>
<path fill="none" stroke="#000000" paint-order="fill stroke markers" d=" M 778 843 L 938 843 L 938 939 L 778 939 L 778 843 Z Z" stroke-miterlimit="10" stroke-dasharray=""/>
</g>
<g>
<g>
<path fill="none" stroke="none"/>
<text fill="#000000" stroke="none" font-family="Arial" font-size="13px" font-style="normal" font-weight="bold" text-decoration="undefined" x="1136.5" y="909.5" text-anchor="middle" dominant-baseline="central" transform="matrix(1 0 0 1 -278 -53)">
Reader</text>
<path fill="none" stroke="#000000" paint-order="fill stroke markers" d=" M 880.5390625 863 L 836.4609375 863" stroke-miterlimit="10" stroke-dasharray=""/>
</g>
</g>
<g>
<rect fill="#FFFFFF00" stroke="none" x="800" y="1216" width="96" height="96" transform="matrix(1 0 0 1 -278 -53)"/>
</g>
<g>
<path fill="none" stroke="#707070" paint-order="fill stroke markers" d=" M 522 1163 L 618 1163 L 618 1259 L 522 1259 L 522 1163 Z Z" stroke-miterlimit="10" stroke-dasharray=""/>
</g>
<g>
<rect fill="#FFFFFF00" stroke="none" x="800" y="1216" width="96" height="96" transform="matrix(1 0 0 1 -278 -53)"/>
</g>
<g>
<path fill="none" stroke="#707070" paint-order="fill stroke markers" d=" M 522 1163 L 618 1163 L 618 1259 L 522 1259 L 522 1163 Z Z" stroke-miterlimit="10" stroke-dasharray=""/>
</g>
<g>
<g>
<path fill="none" stroke="none"/>
<text fill="#707070" stroke="none" font-family="Arial" font-size="13px" font-style="normal" font-weight="bold" text-decoration="undefined" x="848.5" y="1229.5" text-anchor="middle" dominant-baseline="central" transform="matrix(1 0 0 1 -278 -53)">
GUI</text>
<path fill="none" stroke="#707070" paint-order="fill stroke markers" d=" M 582.055908203125 1183 L 558.944091796875 1183" stroke-miterlimit="10" stroke-dasharray=""/>
</g>
</g>
<g>
<rect fill="#FFFFFF00" stroke="none" x="928" y="1216" width="96" height="96" transform="matrix(1 0 0 1 -278 -53)"/>
</g>
<g>
<path fill="none" stroke="#707070" paint-order="fill stroke markers" d=" M 650 1163 L 746 1163 L 746 1259 L 650 1259 L 650 1163 Z Z" stroke-miterlimit="10" stroke-dasharray=""/>
</g>
<g>
<rect fill="#FFFFFF00" stroke="none" x="928" y="1216" width="96" height="96" transform="matrix(1 0 0 1 -278 -53)"/>
</g>
<g>
<path fill="none" stroke="#707070" paint-order="fill stroke markers" d=" M 650 1163 L 746 1163 L 746 1259 L 650 1259 L 650 1163 Z Z" stroke-miterlimit="10" stroke-dasharray=""/>
</g>
<g>
<g>
<path fill="none" stroke="none"/>
<text fill="#707070" stroke="none" font-family="Arial" font-size="13px" font-style="normal" font-weight="bold" text-decoration="undefined" x="976.5" y="1229.5" text-anchor="middle" dominant-baseline="central" transform="matrix(1 0 0 1 -278 -53)">
Field</text>
<path fill="none" stroke="#707070" paint-order="fill stroke markers" d=" M 713.667724609375 1183 L 683.332275390625 1183" stroke-miterlimit="10" stroke-dasharray=""/>
</g>
</g>
<g>
<rect fill="#FFFFFF00" stroke="none" x="1056" y="1216" width="160" height="96" transform="matrix(1 0 0 1 -278 -53)"/>
</g>
<g>
<path fill="none" stroke="#000000" paint-order="fill stroke markers" d=" M 778 1163 L 938 1163 L 938 1259 L 778 1259 L 778 1163 Z Z" stroke-miterlimit="10" stroke-dasharray=""/>
</g>
<g>
<rect fill="#FFFFFF00" stroke="none" x="1056" y="1216" width="160" height="96" transform="matrix(1 0 0 1 -278 -53)"/>
</g>
<g>
<path fill="none" stroke="#000000" paint-order="fill stroke markers" d=" M 778 1163 L 938 1163 L 938 1259 L 778 1259 L 778 1163 Z Z" stroke-miterlimit="10" stroke-dasharray=""/>
</g>
<g>
<g>
<path fill="none" stroke="none"/>
<text fill="#000000" stroke="none" font-family="Arial" font-size="13px" font-style="normal" font-weight="bold" text-decoration="undefined" x="1136.5" y="1229.5" text-anchor="middle" dominant-baseline="central" transform="matrix(1 0 0 1 -278 -53)">
Storage</text>
<path fill="none" stroke="#000000" paint-order="fill stroke markers" d=" M 882.700439453125 1183 L 834.299560546875 1183" stroke-miterlimit="10" stroke-dasharray=""/>
</g>
</g>
<g>
<path fill="none" stroke="#707070" paint-order="fill stroke markers" d=" M 554 1163 L 554 1131" stroke-miterlimit="10" stroke-dasharray=""/>
</g>
<g>
<path fill="none" stroke="#707070" paint-order="fill stroke markers" d=" M 558.209517756016 1141.162674857624 L 554 1131 L 549.790482243984 1141.162674857624" stroke-miterlimit="10" stroke-dasharray=""/>
</g>
<g>
<path fill="none" stroke="#707070" paint-order="fill stroke markers" d=" M 586 1131 L 586 1163" stroke-miterlimit="10" stroke-dasharray=""/>
</g>
<g>
<path fill="none" stroke="#707070" paint-order="fill stroke markers" d=" M 581.790482243984 1152.837325142376 L 586 1163 L 590.209517756016 1152.837325142376" stroke-miterlimit="10" stroke-dasharray=""/>
</g>
<g>
<path fill="none" stroke="#007561" paint-order="fill stroke markers" d=" M 858 939 L 858 1163" stroke-miterlimit="10" stroke-dasharray=""/>
</g>
<g>
<path fill="none" stroke="#007561" paint-order="fill stroke markers" d=" M 853.7904822439841 1152.837325142376 L 858 1163 L 862.2095177560159 1152.837325142376" stroke-miterlimit="10" stroke-dasharray=""/>
</g>
<g>
<path fill="none" stroke="#007561" paint-order="fill stroke markers" d=" M 778 875 L 618 875" stroke-miterlimit="10" stroke-dasharray=""/>
</g>
<g>
<path fill="none" stroke="#007561" paint-order="fill stroke markers" d=" M 628.1626748576241 870.790482243984 L 618 875 L 628.1626748576241 879.209517756016" stroke-miterlimit="10" stroke-dasharray=""/>
</g>
<g>
<rect fill="#FFFFFF00" stroke="none" x="1184" y="1024" width="160" height="96" transform="matrix(1 0 0 1 -278 -53)"/>
</g>
<g>
<path fill="none" stroke="#007561" paint-order="fill stroke markers" d=" M 906 971 L 1066 971 L 1066 1067 L 906 1067 L 906 971 Z Z" stroke-miterlimit="10" stroke-dasharray=""/>
</g>
<g>
<rect fill="#FFFFFF00" stroke="none" x="1184" y="1024" width="160" height="96" transform="matrix(1 0 0 1 -278 -53)"/>
</g>
<g>
<path fill="none" stroke="#007561" paint-order="fill stroke markers" d=" M 906 971 L 1066 971 L 1066 1067 L 906 1067 L 906 971 Z Z" stroke-miterlimit="10" stroke-dasharray=""/>
</g>
<g>
<g>
<path fill="none" stroke="none"/>
<text fill="#007561" stroke="none" font-family="Arial" font-size="13px" font-style="normal" font-weight="bold" text-decoration="undefined" x="1264.5" y="1037.5" text-anchor="middle" dominant-baseline="central" transform="matrix(1 0 0 1 -278 -53)">
Startup</text>
<path fill="none" stroke="#007561" paint-order="fill stroke markers" d=" M 1009.25 991 L 963.75 991" stroke-miterlimit="10" stroke-dasharray=""/>
</g>
</g>
<g>
<path fill="none" stroke="#007561" paint-order="fill stroke markers" d=" M 986 971 L 986 875 L 938 875" stroke-miterlimit="10" stroke-dasharray=""/>
</g>
<g>
<path fill="none" stroke="#007561" paint-order="fill stroke markers" d=" M 948.1626748576241 870.790482243984 L 938 875 L 948.1626748576241 879.209517756016" stroke-miterlimit="10" stroke-dasharray=""/>
</g>
<g>
<path fill="none" stroke="#007561" paint-order="fill stroke markers" d=" M 250 1099 L 490 1099 L 490 939" stroke-miterlimit="10" stroke-dasharray=""/>
</g>
<g>
<path fill="none" stroke="#007561" paint-order="fill stroke markers" d=" M 494.209517756016 949.1626748576241 L 490 939 L 485.790482243984 949.1626748576241" stroke-miterlimit="10" stroke-dasharray=""/>
</g>
<g>
<rect fill="#D1FFA3" stroke="none" x="400" y="848" width="112" height="32" transform="matrix(1 0 0 1 -278 -53)"/>
</g>
<g>
<path fill="none" stroke="#000000" paint-order="fill stroke markers" d=" M 122 795 L 234 795 L 234 827 L 122 827 L 122 795 Z Z" stroke-miterlimit="10" stroke-dasharray=""/>
</g>
<g>
<rect fill="#D1FFA3" stroke="none" x="400" y="848" width="112" height="32" transform="matrix(1 0 0 1 -278 -53)"/>
</g>
<g>
<path fill="none" stroke="#000000" paint-order="fill stroke markers" d=" M 122 795 L 234 795 L 234 827 L 122 827 L 122 795 Z Z" stroke-miterlimit="10" stroke-dasharray=""/>
</g>
<g>
<g>
<path fill="none" stroke="none"/>
<text fill="#000000" stroke="none" font-family="Arial" font-size="13px" font-style="normal" font-weight="bold" text-decoration="undefined" x="456.5" y="861.5" text-anchor="middle" dominant-baseline="central" transform="matrix(1 0 0 1 -278 -53)">
SIG_X</text>
<path fill="none" stroke="#000000" paint-order="fill stroke markers" d=" M 197.647705078125 815 L 159.352294921875 815" stroke-miterlimit="10" stroke-dasharray=""/>
</g>
</g>
<g>
<rect fill="#D1FFA3" stroke="none" x="400" y="880" width="112" height="32" transform="matrix(1 0 0 1 -278 -53)"/>
</g>
<g>
<path fill="none" stroke="#000000" paint-order="fill stroke markers" d=" M 122 827 L 234 827 L 234 859 L 122 859 L 122 827 Z Z" stroke-miterlimit="10" stroke-dasharray=""/>
</g>
<g>
<rect fill="#D1FFA3" stroke="none" x="400" y="880" width="112" height="32" transform="matrix(1 0 0 1 -278 -53)"/>
</g>
<g>
<path fill="none" stroke="#000000" paint-order="fill stroke markers" d=" M 122 827 L 234 827 L 234 859 L 122 859 L 122 827 Z Z" stroke-miterlimit="10" stroke-dasharray=""/>
</g>
<g>
<g>
<path fill="none" stroke="none"/>
<text fill="#000000" stroke="none" font-family="Arial" font-size="13px" font-style="normal" font-weight="bold" text-decoration="undefined" x="456.5" y="893.5" text-anchor="middle" dominant-baseline="central" transform="matrix(1 0 0 1 -278 -53)">
SIG_X</text>
<path fill="none" stroke="#000000" paint-order="fill stroke markers" d=" M 197.647705078125 847 L 159.352294921875 847" stroke-miterlimit="10" stroke-dasharray=""/>
</g>
</g>
<g>
<rect fill="#D1FFA3" stroke="none" x="400" y="912" width="112" height="32" transform="matrix(1 0 0 1 -278 -53)"/>
</g>
<g>
<path fill="none" stroke="#000000" paint-order="fill stroke markers" d=" M 122 859 L 234 859 L 234 891 L 122 891 L 122 859 Z Z" stroke-miterlimit="10" stroke-dasharray=""/>
</g>
<g>
<rect fill="#D1FFA3" stroke="none" x="400" y="912" width="112" height="32" transform="matrix(1 0 0 1 -278 -53)"/>
</g>
<g>
<path fill="none" stroke="#000000" paint-order="fill stroke markers" d=" M 122 859 L 234 859 L 234 891 L 122 891 L 122 859 Z Z" stroke-miterlimit="10" stroke-dasharray=""/>
</g>
<g>
<g>
<path fill="none" stroke="none"/>
<text fill="#000000" stroke="none" font-family="Arial" font-size="13px" font-style="normal" font-weight="bold" text-decoration="undefined" x="456.5" y="925.5" text-anchor="middle" dominant-baseline="central" transform="matrix(1 0 0 1 -278 -53)">
SIG_X</text>
<path fill="none" stroke="#000000" paint-order="fill stroke markers" d=" M 197.647705078125 879 L 159.352294921875 879" stroke-miterlimit="10" stroke-dasharray=""/>
</g>
</g>
<g>
<path fill="none" stroke="#007561" paint-order="fill stroke markers" d=" M 250 907 L 394 907" stroke-miterlimit="10" stroke-dasharray=""/>
</g>
<g>
<path fill="none" stroke="#007561" paint-order="fill stroke markers" d=" M 383.8373251423759 911.209517756016 L 394 907 L 383.8373251423758 902.790482243984" stroke-miterlimit="10" stroke-dasharray=""/>
</g>
<g>
<path fill="none" stroke="#007561" paint-order="fill stroke markers" d=" M 874 843 L 874 267 L 42 267 L 42 779 L 106 779" stroke-miterlimit="10" stroke-dasharray=""/>
</g>
<g>
<path fill="none" stroke="#007561" paint-order="fill stroke markers" d=" M 95.83732514237585 783.209517756016 L 106 779 L 95.83732514237585 774.790482243984" stroke-miterlimit="10" stroke-dasharray=""/>
</g>
<g>
<path fill="none" stroke="#007561" paint-order="fill stroke markers" d=" M 906 843 L 906 235 L 10 235 L 10 987 L 106 987" stroke-miterlimit="10" stroke-dasharray=""/>
</g>
<g>
<path fill="none" stroke="#007561" paint-order="fill stroke markers" d=" M 95.83732514237585 991.2095177560159 L 106 987 L 95.83732514237585 982.7904822439841" stroke-miterlimit="10" stroke-dasharray=""/>
</g>
<g>
<path fill="none" stroke="#000000" paint-order="fill stroke markers" d=" M 602 939 L 602 1035" stroke-miterlimit="10" stroke-dasharray=""/>
</g>
<g>
<path fill="none" stroke="#000000" paint-order="fill stroke markers" d=" M 597.790482243984 1024.837325142376 L 602 1035 L 606.209517756016 1024.837325142376" stroke-miterlimit="10" stroke-dasharray=""/>
</g>
<g>
<path fill="none" stroke="#707070" paint-order="fill stroke markers" d=" M 682 1163 L 682 1131" stroke-miterlimit="10" stroke-dasharray=""/>
</g>
<g>
<path fill="none" stroke="#707070" paint-order="fill stroke markers" d=" M 686.209517756016 1141.162674857624 L 682 1131 L 677.790482243984 1141.162674857624" stroke-miterlimit="10" stroke-dasharray=""/>
</g>
<g>
<path fill="none" stroke="#707070" paint-order="fill stroke markers" d=" M 714 1131 L 714 1163" stroke-miterlimit="10" stroke-dasharray=""/>
</g>
<g>
<path fill="none" stroke="#707070" paint-order="fill stroke markers" d=" M 709.790482243984 1152.837325142376 L 714 1163 L 718.209517756016 1152.837325142376" stroke-miterlimit="10" stroke-dasharray=""/>
</g>
<g>
<rect fill="#D8FFF8" stroke="none" x="384" y="592" width="144" height="192" transform="matrix(1 0 0 1 -278 -53)"/>
</g>
<g>
<path fill="none" stroke="#000000" paint-order="fill stroke markers" d=" M 106 539 L 250 539 L 250 731 L 106 731 L 106 539 Z Z" stroke-miterlimit="10" stroke-dasharray=""/>
</g>
<g>
<rect fill="#D8FFF8" stroke="none" x="384" y="592" width="144" height="192" transform="matrix(1 0 0 1 -278 -53)"/>
</g>
<g>
<path fill="none" stroke="#000000" paint-order="fill stroke markers" d=" M 106 539 L 250 539 L 250 731 L 106 731 L 106 539 Z Z" stroke-miterlimit="10" stroke-dasharray=""/>
</g>
<g>
<g>
<path fill="none" stroke="none"/>
<text fill="#000000" stroke="none" font-family="Arial" font-size="13px" font-style="normal" font-weight="bold" text-decoration="undefined" x="456.5" y="605.5" text-anchor="middle" dominant-baseline="central" transform="matrix(1 0 0 1 -278 -53)">
LCR Provider</text>
<path fill="none" stroke="#000000" paint-order="fill stroke markers" d=" M 220.035888671875 559 L 136.964111328125 559" stroke-miterlimit="10" stroke-dasharray=""/>
</g>
</g>
<g>
<rect fill="#D8FFF8" stroke="none" x="400" y="640" width="112" height="32" transform="matrix(1 0 0 1 -278 -53)"/>
</g>
<g>
<path fill="none" stroke="#000000" paint-order="fill stroke markers" d=" M 122 587 L 234 587 L 234 619 L 122 619 L 122 587 Z Z" stroke-miterlimit="10" stroke-dasharray=""/>
</g>
<g>
<rect fill="#D8FFF8" stroke="none" x="400" y="640" width="112" height="32" transform="matrix(1 0 0 1 -278 -53)"/>
</g>
<g>
<path fill="none" stroke="#000000" paint-order="fill stroke markers" d=" M 122 587 L 234 587 L 234 619 L 122 619 L 122 587 Z Z" stroke-miterlimit="10" stroke-dasharray=""/>
</g>
<g>
<g>
<path fill="none" stroke="none"/>
<text fill="#000000" stroke="none" font-family="Arial" font-size="13px" font-style="normal" font-weight="bold" text-decoration="undefined" x="456.5" y="653.5" text-anchor="middle" dominant-baseline="central" transform="matrix(1 0 0 1 -278 -53)">
LCR_X</text>
<path fill="none" stroke="#000000" paint-order="fill stroke markers" d=" M 199.80908203125 607 L 157.19091796875 607" stroke-miterlimit="10" stroke-dasharray=""/>
</g>
</g>
<g>
<rect fill="#D8FFF8" stroke="none" x="400" y="672" width="112" height="32" transform="matrix(1 0 0 1 -278 -53)"/>
</g>
<g>
<path fill="none" stroke="#000000" paint-order="fill stroke markers" d=" M 122 619 L 234 619 L 234 651 L 122 651 L 122 619 Z Z" stroke-miterlimit="10" stroke-dasharray=""/>
</g>
<g>
<rect fill="#D8FFF8" stroke="none" x="400" y="672" width="112" height="32" transform="matrix(1 0 0 1 -278 -53)"/>
</g>
<g>
<path fill="none" stroke="#000000" paint-order="fill stroke markers" d=" M 122 619 L 234 619 L 234 651 L 122 651 L 122 619 Z Z" stroke-miterlimit="10" stroke-dasharray=""/>
</g>
<g>
<g>
<path fill="none" stroke="none"/>
<text fill="#000000" stroke="none" font-family="Arial" font-size="13px" font-style="normal" font-weight="bold" text-decoration="undefined" x="456.5" y="685.5" text-anchor="middle" dominant-baseline="central" transform="matrix(1 0 0 1 -278 -53)">
LCR_X</text>
<path fill="none" stroke="#000000" paint-order="fill stroke markers" d=" M 199.80908203125 639 L 157.19091796875 639" stroke-miterlimit="10" stroke-dasharray=""/>
</g>
</g>
<g>
<rect fill="#D8FFF8" stroke="none" x="400" y="704" width="112" height="32" transform="matrix(1 0 0 1 -278 -53)"/>
</g>
<g>
<path fill="none" stroke="#000000" paint-order="fill stroke markers" d=" M 122 651 L 234 651 L 234 683 L 122 683 L 122 651 Z Z" stroke-miterlimit="10" stroke-dasharray=""/>
</g>
<g>
<rect fill="#D8FFF8" stroke="none" x="400" y="704" width="112" height="32" transform="matrix(1 0 0 1 -278 -53)"/>
</g>
<g>
<path fill="none" stroke="#000000" paint-order="fill stroke markers" d=" M 122 651 L 234 651 L 234 683 L 122 683 L 122 651 Z Z" stroke-miterlimit="10" stroke-dasharray=""/>
</g>
<g>
<g>
<path fill="none" stroke="none"/>
<text fill="#000000" stroke="none" font-family="Arial" font-size="13px" font-style="normal" font-weight="bold" text-decoration="undefined" x="456.5" y="717.5" text-anchor="middle" dominant-baseline="central" transform="matrix(1 0 0 1 -278 -53)">
LCR_X</text>
<path fill="none" stroke="#000000" paint-order="fill stroke markers" d=" M 199.80908203125 671 L 157.19091796875 671" stroke-miterlimit="10" stroke-dasharray=""/>
</g>
</g>
<g>
<path fill="none" stroke="#007561" paint-order="fill stroke markers" d=" M 250 699 L 426 699 L 426 811" stroke-miterlimit="10" stroke-dasharray=""/>
</g>
<g>
<path fill="none" stroke="#007561" paint-order="fill stroke markers" d=" M 421.790482243984 800.8373251423759 L 426 811 L 430.209517756016 800.8373251423759" stroke-miterlimit="10" stroke-dasharray=""/>
</g>
<g>
<rect fill="#D8E5FF" stroke="none" x="384" y="384" width="144" height="192" transform="matrix(1 0 0 1 -278 -53)"/>
</g>
<g>
<path fill="none" stroke="#000000" paint-order="fill stroke markers" d=" M 106 331 L 250 331 L 250 523 L 106 523 L 106 331 Z Z" stroke-miterlimit="10" stroke-dasharray=""/>
</g>
<g>
<rect fill="#D8E5FF" stroke="none" x="384" y="384" width="144" height="192" transform="matrix(1 0 0 1 -278 -53)"/>
</g>
<g>
<path fill="none" stroke="#000000" paint-order="fill stroke markers" d=" M 106 331 L 250 331 L 250 523 L 106 523 L 106 331 Z Z" stroke-miterlimit="10" stroke-dasharray=""/>
</g>
<g>
<g>
<path fill="none" stroke="none"/>
<text fill="#000000" stroke="none" font-family="Arial" font-size="13px" font-style="normal" font-weight="bold" text-decoration="undefined" x="456.5" y="397.5" text-anchor="middle" dominant-baseline="central" transform="matrix(1 0 0 1 -278 -53)">
SEG Provider</text>
<path fill="none" stroke="#000000" paint-order="fill stroke markers" d=" M 220.404052734375 351 L 136.595947265625 351" stroke-miterlimit="10" stroke-dasharray=""/>
</g>
</g>
<g>
<rect fill="#D8E5FF" stroke="none" x="400" y="432" width="112" height="32" transform="matrix(1 0 0 1 -278 -53)"/>
</g>
<g>
<path fill="none" stroke="#000000" paint-order="fill stroke markers" d=" M 122 379 L 234 379 L 234 411 L 122 411 L 122 379 Z Z" stroke-miterlimit="10" stroke-dasharray=""/>
</g>
<g>
<rect fill="#D8E5FF" stroke="none" x="400" y="432" width="112" height="32" transform="matrix(1 0 0 1 -278 -53)"/>
</g>
<g>
<path fill="none" stroke="#000000" paint-order="fill stroke markers" d=" M 122 379 L 234 379 L 234 411 L 122 411 L 122 379 Z Z" stroke-miterlimit="10" stroke-dasharray=""/>
</g>
<g>
<g>
<path fill="none" stroke="none"/>
<text fill="#000000" stroke="none" font-family="Arial" font-size="13px" font-style="normal" font-weight="bold" text-decoration="undefined" x="456.5" y="445.5" text-anchor="middle" dominant-baseline="central" transform="matrix(1 0 0 1 -278 -53)">
SEG</text>
<path fill="none" stroke="#000000" paint-order="fill stroke markers" d=" M 192.226806640625 399 L 164.773193359375 399" stroke-miterlimit="10" stroke-dasharray=""/>
</g>
</g>
<g>
<rect fill="#D8E5FF" stroke="none" x="400" y="464" width="112" height="32" transform="matrix(1 0 0 1 -278 -53)"/>
</g>
<g>
<path fill="none" stroke="#000000" paint-order="fill stroke markers" d=" M 122 411 L 234 411 L 234 443 L 122 443 L 122 411 Z Z" stroke-miterlimit="10" stroke-dasharray=""/>
</g>
<g>
<rect fill="#D8E5FF" stroke="none" x="400" y="464" width="112" height="32" transform="matrix(1 0 0 1 -278 -53)"/>
</g>
<g>
<path fill="none" stroke="#000000" paint-order="fill stroke markers" d=" M 122 411 L 234 411 L 234 443 L 122 443 L 122 411 Z Z" stroke-miterlimit="10" stroke-dasharray=""/>
</g>
<g>
<g>
<path fill="none" stroke="none"/>
<text fill="#000000" stroke="none" font-family="Arial" font-size="13px" font-style="normal" font-weight="bold" text-decoration="undefined" x="456.5" y="477.5" text-anchor="middle" dominant-baseline="central" transform="matrix(1 0 0 1 -278 -53)">
SEG</text>
<path fill="none" stroke="#000000" paint-order="fill stroke markers" d=" M 192.226806640625 431 L 164.773193359375 431" stroke-miterlimit="10" stroke-dasharray=""/>
</g>
</g>
<g>
<rect fill="#D8E5FF" stroke="none" x="400" y="496" width="112" height="32" transform="matrix(1 0 0 1 -278 -53)"/>
</g>
<g>
<path fill="none" stroke="#000000" paint-order="fill stroke markers" d=" M 122 443 L 234 443 L 234 475 L 122 475 L 122 443 Z Z" stroke-miterlimit="10" stroke-dasharray=""/>
</g>
<g>
<rect fill="#D8E5FF" stroke="none" x="400" y="496" width="112" height="32" transform="matrix(1 0 0 1 -278 -53)"/>
</g>
<g>
<path fill="none" stroke="#000000" paint-order="fill stroke markers" d=" M 122 443 L 234 443 L 234 475 L 122 475 L 122 443 Z Z" stroke-miterlimit="10" stroke-dasharray=""/>
</g>
<g>
<g>
<path fill="none" stroke="none"/>
<text fill="#000000" stroke="none" font-family="Arial" font-size="13px" font-style="normal" font-weight="bold" text-decoration="undefined" x="456.5" y="509.5" text-anchor="middle" dominant-baseline="central" transform="matrix(1 0 0 1 -278 -53)">
SEG</text>
<path fill="none" stroke="#000000" paint-order="fill stroke markers" d=" M 192.226806640625 463 L 164.773193359375 463" stroke-miterlimit="10" stroke-dasharray=""/>
</g>
</g>
<g>
<path fill="none" stroke="#007561" paint-order="fill stroke markers" d=" M 250 491 L 522 491 L 522 811" stroke-miterlimit="10" stroke-dasharray=""/>
</g>
<g>
<path fill="none" stroke="#007561" paint-order="fill stroke markers" d=" M 517.790482243984 800.8373251423759 L 522 811 L 526.209517756016 800.8373251423759" stroke-miterlimit="10" stroke-dasharray=""/>
</g>
<g>
<path fill="none" stroke="#007561" paint-order="fill stroke markers" d=" M 842 843 L 842 299 L 74 299 L 74 571 L 106 571" stroke-miterlimit="10" stroke-dasharray=""/>
</g>
<g>
<path fill="none" stroke="#007561" paint-order="fill stroke markers" d=" M 95.83732514237585 575.209517756016 L 106 571 L 95.83732514237585 566.790482243984" stroke-miterlimit="10" stroke-dasharray=""/>
</g>
<g>
<path fill="none" stroke="#007561" paint-order="fill stroke markers" d=" M 810 843 L 810 363 L 250 363" stroke-miterlimit="10" stroke-dasharray=""/>
</g>
<g>
<path fill="none" stroke="#007561" paint-order="fill stroke markers" d=" M 260.1626748576241 358.790482243984 L 250 363 L 260.1626748576241 367.209517756016" stroke-miterlimit="10" stroke-dasharray=""/>
</g>
<g>
<path fill="none" stroke="#000000" paint-order="fill stroke markers" d=" M 458 811 L 458 667 L 250 667" stroke-miterlimit="10" stroke-dasharray=""/>
</g>
<g>
<path fill="none" stroke="#000000" paint-order="fill stroke markers" d=" M 260.1626748576241 662.790482243984 L 250 667 L 260.1626748576241 671.209517756016" stroke-miterlimit="10" stroke-dasharray=""/>
</g>
<g>
<path fill="none" stroke="#000000" paint-order="fill stroke markers" d=" M 394 843 L 250 843" stroke-miterlimit="10" stroke-dasharray=""/>
</g>
<g>
<path fill="none" stroke="#000000" paint-order="fill stroke markers" d=" M 260.1626748576241 838.790482243984 L 250 843 L 260.1626748576241 847.209517756016" stroke-miterlimit="10" stroke-dasharray=""/>
</g>
<g>
<path fill="none" stroke="#000000" paint-order="fill stroke markers" d=" M 554 811 L 554 459 L 250 459" stroke-miterlimit="10" stroke-dasharray=""/>
</g>
<g>
<path fill="none" stroke="#000000" paint-order="fill stroke markers" d=" M 260.1626748576241 454.790482243984 L 250 459 L 260.1626748576241 463.209517756016" stroke-miterlimit="10" stroke-dasharray=""/>
</g>
<g>
<path fill="none" stroke="#000000" paint-order="fill stroke markers" d=" M 234 635 L 490 635 L 490 811" stroke-miterlimit="10" stroke-dasharray=""/>
</g>
<g>
<path fill="none" stroke="#000000" paint-order="fill stroke markers" d=" M 485.790482243984 800.8373251423759 L 490 811 L 494.209517756016 800.8373251423759" stroke-miterlimit="10" stroke-dasharray=""/>
</g>
<g>
<path fill="none" stroke="#000000" paint-order="fill stroke markers" d=" M 234 427 L 586 427 L 586 811" stroke-miterlimit="10" stroke-dasharray=""/>
</g>
<g>
<path fill="none" stroke="#000000" paint-order="fill stroke markers" d=" M 581.790482243984 800.8373251423759 L 586 811 L 590.209517756016 800.8373251423759" stroke-miterlimit="10" stroke-dasharray=""/>
</g>
<g>
<path fill="none" stroke="#000000" paint-order="fill stroke markers" d=" M 458 939 L 458 1067 L 250 1067" stroke-miterlimit="10" stroke-dasharray=""/>
</g>
<g>
<path fill="none" stroke="#000000" paint-order="fill stroke markers" d=" M 260.1626748576241 1062.7904822439841 L 250 1067 L 260.1626748576241 1071.2095177560159" stroke-miterlimit="10" stroke-dasharray=""/>
</g>
<g>
<path fill="none" stroke="#000000" paint-order="fill stroke markers" d=" M 234 1035 L 426 1035 L 426 939" stroke-miterlimit="10" stroke-dasharray=""/>
</g>
<g>
<path fill="none" stroke="#000000" paint-order="fill stroke markers" d=" M 430.209517756016 949.1626748576241 L 426 939 L 421.790482243984 949.1626748576241" stroke-miterlimit="10" stroke-dasharray=""/>
</g>
<g>
<path fill="none" stroke="#000000" paint-order="fill stroke markers" d=" M 234 859 L 234 875 L 394 875" stroke-miterlimit="10" stroke-dasharray=""/>
</g>
<g>
<path fill="none" stroke="#000000" paint-order="fill stroke markers" d=" M 383.8373251423759 879.209517756016 L 394 875 L 383.8373251423758 870.790482243984" stroke-miterlimit="10" stroke-dasharray=""/>
</g>
<g>
<g>
<path fill="none" stroke="none"/>
<text fill="#000000" stroke="none" font-family="Arial" font-size="13px" font-style="normal" font-weight="normal" text-decoration="undefined" x="539" y="68" text-anchor="start" dominant-baseline="text-before-edge" transform="matrix(1 0 0 1 -278 -53)">
Text</text>
</g>
</g>
</g>
</svg>
