<svg version="1.1" xmlns="http://www.w3.org/2000/svg" xmlns:xlink="http://www.w3.org/1999/xlink" width="1173" height="1108">
<defs/>
<g>
<g>
<rect fill="#FFDF82" stroke="none" x="144" y="800" width="144" height="176" transform="matrix(1 0 0 1 -38 -70)"/>
</g>
<g>
<path fill="none" stroke="#000000" paint-order="fill stroke markers" d=" M 106 730 L 250 730 L 250 906 L 106 906 L 106 730 Z Z" stroke-miterlimit="10" stroke-dasharray=""/>
</g>
<g>
<rect fill="#FFDF82" stroke="none" x="144" y="800" width="144" height="176" transform="matrix(1 0 0 1 -38 -70)"/>
</g>
<g>
<path fill="none" stroke="#000000" paint-order="fill stroke markers" d=" M 106 730 L 250 730 L 250 906 L 106 906 L 106 730 Z Z" stroke-miterlimit="10" stroke-dasharray=""/>
</g>
<g>
<g>
<path fill="none" stroke="none"/>
<text fill="#000000" stroke="none" font-family="Arial" font-size="13px" font-style="normal" font-weight="bold" text-decoration="undefined" x="216.5" y="813.5" text-anchor="middle" dominant-baseline="central" transform="matrix(1 0 0 1 -38 -70)">
TSW Provider</text>
<path fill="none" stroke="#000000" paint-order="fill stroke markers" d=" M 221.1181640625 750 L 135.8818359375 750" stroke-miterlimit="10" stroke-dasharray=""/>
</g>
</g>
<g>
<rect fill="#D1FFA3" stroke="none" x="144" y="592" width="144" height="192" transform="matrix(1 0 0 1 -38 -70)"/>
</g>
<g>
<path fill="none" stroke="#000000" paint-order="fill stroke markers" d=" M 106 522 L 250 522 L 250 714 L 106 714 L 106 522 Z Z" stroke-miterlimit="10" stroke-dasharray=""/>
</g>
<g>
<rect fill="#D1FFA3" stroke="none" x="144" y="592" width="144" height="192" transform="matrix(1 0 0 1 -38 -70)"/>
</g>
<g>
<path fill="none" stroke="#000000" paint-order="fill stroke markers" d=" M 106 522 L 250 522 L 250 714 L 106 714 L 106 522 Z Z" stroke-miterlimit="10" stroke-dasharray=""/>
</g>
<g>
<g>
<path fill="none" stroke="none"/>
<text fill="#000000" stroke="none" font-family="Arial" font-size="13px" font-style="normal" font-weight="bold" text-decoration="undefined" x="216.5" y="605.5" text-anchor="middle" dominant-baseline="central" transform="matrix(1 0 0 1 -38 -70)">
SIG Prowider</text>
<path fill="none" stroke="#000000" paint-order="fill stroke markers" d=" M 219.3154296875 542 L 137.6845703125 542" stroke-miterlimit="10" stroke-dasharray=""/>
</g>
</g>
<g>
<rect fill="#6DCEFF" stroke="none" x="432" y="656" width="224" height="128" transform="matrix(1 0 0 1 -38 -70)"/>
</g>
<g>
<path fill="none" stroke="#000000" paint-order="fill stroke markers" d=" M 394 586 L 618 586 L 618 714 L 394 714 L 394 586 Z Z" stroke-miterlimit="10" stroke-dasharray=""/>
</g>
<g>
<rect fill="#6DCEFF" stroke="none" x="432" y="656" width="224" height="128" transform="matrix(1 0 0 1 -38 -70)"/>
</g>
<g>
<path fill="none" stroke="#000000" paint-order="fill stroke markers" d=" M 394 586 L 618 586 L 618 714 L 394 714 L 394 586 Z Z" stroke-miterlimit="10" stroke-dasharray=""/>
</g>
<g>
<g>
<path fill="none" stroke="none"/>
<text fill="#000000" stroke="none" font-family="Arial" font-size="13px" font-style="normal" font-weight="bold" text-decoration="undefined" x="544.5" y="669.5" text-anchor="middle" dominant-baseline="central" transform="matrix(1 0 0 1 -38 -70)">
Dispatcher</text>
<path fill="none" stroke="#000000" paint-order="fill stroke markers" d=" M 540.094970703125 606 L 472.905029296875 606" stroke-miterlimit="10" stroke-dasharray=""/>
</g>
</g>
<g>
<rect fill="#FFA3FF" stroke="none" x="560" y="880" width="352" height="96" transform="matrix(1 0 0 1 -38 -70)"/>
</g>
<g>
<path fill="none" stroke="#000000" paint-order="fill stroke markers" d=" M 522 810 L 874 810 L 874 906 L 522 906 L 522 810 Z Z" stroke-miterlimit="10" stroke-dasharray=""/>
</g>
<g>
<rect fill="#FFA3FF" stroke="none" x="560" y="880" width="352" height="96" transform="matrix(1 0 0 1 -38 -70)"/>
</g>
<g>
<path fill="none" stroke="#000000" paint-order="fill stroke markers" d=" M 522 810 L 874 810 L 874 906 L 522 906 L 522 810 Z Z" stroke-miterlimit="10" stroke-dasharray=""/>
</g>
<g>
<g>
<path fill="none" stroke="none"/>
<text fill="#000000" stroke="none" font-family="Arial" font-size="13px" font-style="normal" font-weight="bold" text-decoration="undefined" x="736.5" y="893.5" text-anchor="middle" dominant-baseline="central" transform="matrix(1 0 0 1 -38 -70)">
Com</text>
<path fill="none" stroke="#000000" paint-order="fill stroke markers" d=" M 712.944091796875 830 L 684.055908203125 830" stroke-miterlimit="10" stroke-dasharray=""/>
</g>
</g>
<g>
<path fill="none" stroke="#000000" paint-order="fill stroke markers" d=" M 554 810 L 554 714" stroke-miterlimit="10" stroke-dasharray=""/>
</g>
<g>
<path fill="none" stroke="#000000" paint-order="fill stroke markers" d=" M 558.209517756016 724.1626748576241 L 554 714 L 549.790482243984 724.1626748576241" stroke-miterlimit="10" stroke-dasharray=""/>
</g>
<g>
<rect fill="#FFDF82" stroke="none" x="160" y="832" width="112" height="32" transform="matrix(1 0 0 1 -38 -70)"/>
</g>
<g>
<path fill="none" stroke="#000000" paint-order="fill stroke markers" d=" M 122 762 L 234 762 L 234 794 L 122 794 L 122 762 Z Z" stroke-miterlimit="10" stroke-dasharray=""/>
</g>
<g>
<rect fill="#FFDF82" stroke="none" x="160" y="832" width="112" height="32" transform="matrix(1 0 0 1 -38 -70)"/>
</g>
<g>
<path fill="none" stroke="#000000" paint-order="fill stroke markers" d=" M 122 762 L 234 762 L 234 794 L 122 794 L 122 762 Z Z" stroke-miterlimit="10" stroke-dasharray=""/>
</g>
<g>
<g>
<path fill="none" stroke="none"/>
<text fill="#000000" stroke="none" font-family="Arial" font-size="13px" font-style="normal" font-weight="bold" text-decoration="undefined" x="216.5" y="845.5" text-anchor="middle" dominant-baseline="central" transform="matrix(1 0 0 1 -38 -70)">
TSW</text>
<path fill="none" stroke="#000000" paint-order="fill stroke markers" d=" M 192.94091796875 782 L 164.05908203125 782" stroke-miterlimit="10" stroke-dasharray=""/>
</g>
</g>
<g>
<rect fill="#FFDF82" stroke="none" x="160" y="864" width="112" height="32" transform="matrix(1 0 0 1 -38 -70)"/>
</g>
<g>
<path fill="none" stroke="#000000" paint-order="fill stroke markers" d=" M 122 794 L 234 794 L 234 826 L 122 826 L 122 794 Z Z" stroke-miterlimit="10" stroke-dasharray=""/>
</g>
<g>
<rect fill="#FFDF82" stroke="none" x="160" y="864" width="112" height="32" transform="matrix(1 0 0 1 -38 -70)"/>
</g>
<g>
<path fill="none" stroke="#000000" paint-order="fill stroke markers" d=" M 122 794 L 234 794 L 234 826 L 122 826 L 122 794 Z Z" stroke-miterlimit="10" stroke-dasharray=""/>
</g>
<g>
<g>
<path fill="none" stroke="none"/>
<text fill="#000000" stroke="none" font-family="Arial" font-size="13px" font-style="normal" font-weight="bold" text-decoration="undefined" x="216.5" y="877.5" text-anchor="middle" dominant-baseline="central" transform="matrix(1 0 0 1 -38 -70)">
TSW</text>
<path fill="none" stroke="#000000" paint-order="fill stroke markers" d=" M 192.94091796875 814 L 164.05908203125 814" stroke-miterlimit="10" stroke-dasharray=""/>
</g>
</g>
<g>
<rect fill="#FFDF82" stroke="none" x="160" y="896" width="112" height="32" transform="matrix(1 0 0 1 -38 -70)"/>
</g>
<g>
<path fill="none" stroke="#000000" paint-order="fill stroke markers" d=" M 122 826 L 234 826 L 234 858 L 122 858 L 122 826 Z Z" stroke-miterlimit="10" stroke-dasharray=""/>
</g>
<g>
<rect fill="#FFDF82" stroke="none" x="160" y="896" width="112" height="32" transform="matrix(1 0 0 1 -38 -70)"/>
</g>
<g>
<path fill="none" stroke="#000000" paint-order="fill stroke markers" d=" M 122 826 L 234 826 L 234 858 L 122 858 L 122 826 Z Z" stroke-miterlimit="10" stroke-dasharray=""/>
</g>
<g>
<g>
<path fill="none" stroke="none"/>
<text fill="#000000" stroke="none" font-family="Arial" font-size="13px" font-style="normal" font-weight="bold" text-decoration="undefined" x="216.5" y="909.5" text-anchor="middle" dominant-baseline="central" transform="matrix(1 0 0 1 -38 -70)">
TSW</text>
<path fill="none" stroke="#000000" paint-order="fill stroke markers" d=" M 192.94091796875 846 L 164.05908203125 846" stroke-miterlimit="10" stroke-dasharray=""/>
</g>
</g>
<g>
<rect fill="#6DCEFF" stroke="none" x="912" y="672" width="160" height="96" transform="matrix(1 0 0 1 -38 -70)"/>
</g>
<g>
<path fill="none" stroke="#000000" paint-order="fill stroke markers" d=" M 874 602 L 1034 602 L 1034 698 L 874 698 L 874 602 Z Z" stroke-miterlimit="10" stroke-dasharray=""/>
</g>
<g>
<rect fill="#6DCEFF" stroke="none" x="912" y="672" width="160" height="96" transform="matrix(1 0 0 1 -38 -70)"/>
</g>
<g>
<path fill="none" stroke="#000000" paint-order="fill stroke markers" d=" M 874 602 L 1034 602 L 1034 698 L 874 698 L 874 602 Z Z" stroke-miterlimit="10" stroke-dasharray=""/>
</g>
<g>
<g>
<path fill="none" stroke="none"/>
<text fill="#000000" stroke="none" font-family="Arial" font-size="13px" font-style="normal" font-weight="bold" text-decoration="undefined" x="992.5" y="685.5" text-anchor="middle" dominant-baseline="central" transform="matrix(1 0 0 1 -38 -70)">
Reader</text>
<path fill="none" stroke="#000000" paint-order="fill stroke markers" d=" M 976.5390625 622 L 932.4609375 622" stroke-miterlimit="10" stroke-dasharray=""/>
</g>
</g>
<g>
<rect fill="#FFD8FF" stroke="none" x="560" y="1072" width="96" height="96" transform="matrix(1 0 0 1 -38 -70)"/>
</g>
<g>
<path fill="none" stroke="#000000" paint-order="fill stroke markers" d=" M 522 1002 L 618 1002 L 618 1098 L 522 1098 L 522 1002 Z Z" stroke-miterlimit="10" stroke-dasharray=""/>
</g>
<g>
<rect fill="#FFD8FF" stroke="none" x="560" y="1072" width="96" height="96" transform="matrix(1 0 0 1 -38 -70)"/>
</g>
<g>
<path fill="none" stroke="#000000" paint-order="fill stroke markers" d=" M 522 1002 L 618 1002 L 618 1098 L 522 1098 L 522 1002 Z Z" stroke-miterlimit="10" stroke-dasharray=""/>
</g>
<g>
<g>
<path fill="none" stroke="none"/>
<text fill="#000000" stroke="none" font-family="Arial" font-size="13px" font-style="normal" font-weight="bold" text-decoration="undefined" x="608.5" y="1085.5" text-anchor="middle" dominant-baseline="central" transform="matrix(1 0 0 1 -38 -70)">
GUI</text>
<path fill="none" stroke="#000000" paint-order="fill stroke markers" d=" M 582.055908203125 1022 L 558.944091796875 1022" stroke-miterlimit="10" stroke-dasharray=""/>
</g>
</g>
<g>
<rect fill="#FFD8FF" stroke="none" x="688" y="1072" width="96" height="96" transform="matrix(1 0 0 1 -38 -70)"/>
</g>
<g>
<path fill="none" stroke="#000000" paint-order="fill stroke markers" d=" M 650 1002 L 746 1002 L 746 1098 L 650 1098 L 650 1002 Z Z" stroke-miterlimit="10" stroke-dasharray=""/>
</g>
<g>
<rect fill="#FFD8FF" stroke="none" x="688" y="1072" width="96" height="96" transform="matrix(1 0 0 1 -38 -70)"/>
</g>
<g>
<path fill="none" stroke="#000000" paint-order="fill stroke markers" d=" M 650 1002 L 746 1002 L 746 1098 L 650 1098 L 650 1002 Z Z" stroke-miterlimit="10" stroke-dasharray=""/>
</g>
<g>
<g>
<path fill="none" stroke="none"/>
<text fill="#000000" stroke="none" font-family="Arial" font-size="13px" font-style="normal" font-weight="bold" text-decoration="undefined" x="736.5" y="1085.5" text-anchor="middle" dominant-baseline="central" transform="matrix(1 0 0 1 -38 -70)">
FLD</text>
<path fill="none" stroke="#000000" paint-order="fill stroke markers" d=" M 711.135009765625 1022 L 685.864990234375 1022" stroke-miterlimit="10" stroke-dasharray=""/>
</g>
</g>
<g>
<rect fill="#FFFFFF00" stroke="none" x="944" y="1024" width="96" height="96" transform="matrix(1 0 0 1 -38 -70)"/>
</g>
<g>
<path fill="none" stroke="#000000" paint-order="fill stroke markers" d=" M 906 954 L 1002 954 L 1002 1050 L 906 1050 L 906 954 Z Z" stroke-miterlimit="10" stroke-dasharray=""/>
</g>
<g>
<rect fill="#FFFFFF00" stroke="none" x="944" y="1024" width="96" height="96" transform="matrix(1 0 0 1 -38 -70)"/>
</g>
<g>
<path fill="none" stroke="#000000" paint-order="fill stroke markers" d=" M 906 954 L 1002 954 L 1002 1050 L 906 1050 L 906 954 Z Z" stroke-miterlimit="10" stroke-dasharray=""/>
</g>
<g>
<g>
<path fill="none" stroke="none"/>
<text fill="#000000" stroke="none" font-family="Arial" font-size="13px" font-style="normal" font-weight="bold" text-decoration="undefined" x="992.5" y="1037.5" text-anchor="middle" dominant-baseline="central" transform="matrix(1 0 0 1 -38 -70)">
project data</text>
<path fill="none" stroke="#000000" paint-order="fill stroke markers" d=" M 991.341796875 974 L 917.658203125 974" stroke-miterlimit="10" stroke-dasharray=""/>
</g>
</g>
<g>
<path fill="none" stroke="#000000" paint-order="fill stroke markers" d=" M 554 1002 L 554 954" stroke-miterlimit="10" stroke-dasharray=""/>
</g>
<g>
<path fill="none" stroke="#000000" paint-order="fill stroke markers" d=" M 558.209517756016 964.1626748576241 L 554 954 L 549.790482243984 964.1626748576241" stroke-miterlimit="10" stroke-dasharray=""/>
</g>
<g>
<path fill="none" stroke="#000000" paint-order="fill stroke markers" d=" M 586 954 L 586 1002" stroke-miterlimit="10" stroke-dasharray=""/>
</g>
<g>
<path fill="none" stroke="#000000" paint-order="fill stroke markers" d=" M 581.790482243984 991.8373251423759 L 586 1002 L 590.209517756016 991.8373251423759" stroke-miterlimit="10" stroke-dasharray=""/>
</g>
<g>
<path fill="none" stroke="#007561" paint-order="fill stroke markers" d=" M 954 698 L 954 906" stroke-miterlimit="10" stroke-dasharray=""/>
</g>
<g>
<path fill="none" stroke="#007561" paint-order="fill stroke markers" d=" M 949.790482243984 895.8373251423759 L 954 906 L 958.209517756016 895.8373251423759" stroke-miterlimit="10" stroke-dasharray=""/>
</g>
<g>
<path fill="none" stroke="#007561" paint-order="fill stroke markers" d=" M 874 650 L 618 650" stroke-miterlimit="10" stroke-dasharray=""/>
</g>
<g>
<path fill="none" stroke="#007561" paint-order="fill stroke markers" d=" M 628.1626748576241 645.790482243984 L 618 650 L 628.1626748576241 654.209517756016" stroke-miterlimit="10" stroke-dasharray=""/>
</g>
<g>
<rect fill="#FFFFFF00" stroke="none" x="1040" y="800" width="160" height="96" transform="matrix(1 0 0 1 -38 -70)"/>
</g>
<g>
<path fill="none" stroke="#007561" paint-order="fill stroke markers" d=" M 1002 730 L 1162 730 L 1162 826 L 1002 826 L 1002 730 Z Z" stroke-miterlimit="10" stroke-dasharray=""/>
</g>
<g>
<rect fill="#FFFFFF00" stroke="none" x="1040" y="800" width="160" height="96" transform="matrix(1 0 0 1 -38 -70)"/>
</g>
<g>
<path fill="none" stroke="#007561" paint-order="fill stroke markers" d=" M 1002 730 L 1162 730 L 1162 826 L 1002 826 L 1002 730 Z Z" stroke-miterlimit="10" stroke-dasharray=""/>
</g>
<g>
<g>
<path fill="none" stroke="none"/>
<text fill="#007561" stroke="none" font-family="Arial" font-size="13px" font-style="normal" font-weight="bold" text-decoration="undefined" x="1120.5" y="813.5" text-anchor="middle" dominant-baseline="central" transform="matrix(1 0 0 1 -38 -70)">
Startup</text>
<path fill="none" stroke="#007561" paint-order="fill stroke markers" d=" M 1105.25 750 L 1059.75 750" stroke-miterlimit="10" stroke-dasharray=""/>
</g>
</g>
<g>
<path fill="none" stroke="#007561" paint-order="fill stroke markers" d=" M 1082 730 L 1082 650 L 1034 650" stroke-miterlimit="10" stroke-dasharray=""/>
</g>
<g>
<path fill="none" stroke="#007561" paint-order="fill stroke markers" d=" M 1044.162674857624 645.790482243984 L 1034 650 L 1044.162674857624 654.209517756016" stroke-miterlimit="10" stroke-dasharray=""/>
</g>
<g>
<path fill="none" stroke="#007561" paint-order="fill stroke markers" d=" M 250 874 L 490 874 L 490 714" stroke-miterlimit="10" stroke-dasharray=""/>
</g>
<g>
<path fill="none" stroke="#007561" paint-order="fill stroke markers" d=" M 494.209517756016 724.1626748576241 L 490 714 L 485.790482243984 724.1626748576241" stroke-miterlimit="10" stroke-dasharray=""/>
</g>
<g>
<rect fill="#D1FFA3" stroke="none" x="160" y="640" width="112" height="32" transform="matrix(1 0 0 1 -38 -70)"/>
</g>
<g>
<path fill="none" stroke="#000000" paint-order="fill stroke markers" d=" M 122 570 L 234 570 L 234 602 L 122 602 L 122 570 Z Z" stroke-miterlimit="10" stroke-dasharray=""/>
</g>
<g>
<rect fill="#D1FFA3" stroke="none" x="160" y="640" width="112" height="32" transform="matrix(1 0 0 1 -38 -70)"/>
</g>
<g>
<path fill="none" stroke="#000000" paint-order="fill stroke markers" d=" M 122 570 L 234 570 L 234 602 L 122 602 L 122 570 Z Z" stroke-miterlimit="10" stroke-dasharray=""/>
</g>
<g>
<g>
<path fill="none" stroke="none"/>
<text fill="#000000" stroke="none" font-family="Arial" font-size="13px" font-style="normal" font-weight="bold" text-decoration="undefined" x="216.5" y="653.5" text-anchor="middle" dominant-baseline="central" transform="matrix(1 0 0 1 -38 -70)">
SIG_X</text>
<path fill="none" stroke="#000000" paint-order="fill stroke markers" d=" M 197.647705078125 590 L 159.352294921875 590" stroke-miterlimit="10" stroke-dasharray=""/>
</g>
</g>
<g>
<rect fill="#D1FFA3" stroke="none" x="160" y="672" width="112" height="32" transform="matrix(1 0 0 1 -38 -70)"/>
</g>
<g>
<path fill="none" stroke="#000000" paint-order="fill stroke markers" d=" M 122 602 L 234 602 L 234 634 L 122 634 L 122 602 Z Z" stroke-miterlimit="10" stroke-dasharray=""/>
</g>
<g>
<rect fill="#D1FFA3" stroke="none" x="160" y="672" width="112" height="32" transform="matrix(1 0 0 1 -38 -70)"/>
</g>
<g>
<path fill="none" stroke="#000000" paint-order="fill stroke markers" d=" M 122 602 L 234 602 L 234 634 L 122 634 L 122 602 Z Z" stroke-miterlimit="10" stroke-dasharray=""/>
</g>
<g>
<g>
<path fill="none" stroke="none"/>
<text fill="#000000" stroke="none" font-family="Arial" font-size="13px" font-style="normal" font-weight="bold" text-decoration="undefined" x="216.5" y="685.5" text-anchor="middle" dominant-baseline="central" transform="matrix(1 0 0 1 -38 -70)">
SIG_X</text>
<path fill="none" stroke="#000000" paint-order="fill stroke markers" d=" M 197.647705078125 622 L 159.352294921875 622" stroke-miterlimit="10" stroke-dasharray=""/>
</g>
</g>
<g>
<rect fill="#D1FFA3" stroke="none" x="160" y="704" width="112" height="32" transform="matrix(1 0 0 1 -38 -70)"/>
</g>
<g>
<path fill="none" stroke="#000000" paint-order="fill stroke markers" d=" M 122 634 L 234 634 L 234 666 L 122 666 L 122 634 Z Z" stroke-miterlimit="10" stroke-dasharray=""/>
</g>
<g>
<rect fill="#D1FFA3" stroke="none" x="160" y="704" width="112" height="32" transform="matrix(1 0 0 1 -38 -70)"/>
</g>
<g>
<path fill="none" stroke="#000000" paint-order="fill stroke markers" d=" M 122 634 L 234 634 L 234 666 L 122 666 L 122 634 Z Z" stroke-miterlimit="10" stroke-dasharray=""/>
</g>
<g>
<g>
<path fill="none" stroke="none"/>
<text fill="#000000" stroke="none" font-family="Arial" font-size="13px" font-style="normal" font-weight="bold" text-decoration="undefined" x="216.5" y="717.5" text-anchor="middle" dominant-baseline="central" transform="matrix(1 0 0 1 -38 -70)">
SIG_X</text>
<path fill="none" stroke="#000000" paint-order="fill stroke markers" d=" M 197.647705078125 654 L 159.352294921875 654" stroke-miterlimit="10" stroke-dasharray=""/>
</g>
</g>
<g>
<path fill="none" stroke="#007561" paint-order="fill stroke markers" d=" M 250 682 L 394 682" stroke-miterlimit="10" stroke-dasharray=""/>
</g>
<g>
<path fill="none" stroke="#007561" paint-order="fill stroke markers" d=" M 383.83732514237585 686.209517756016 L 394 682 L 383.83732514237585 677.790482243984" stroke-miterlimit="10" stroke-dasharray=""/>
</g>
<g>
<path fill="none" stroke="#007561" paint-order="fill stroke markers" d=" M 970 602 L 970 42 L 42 42 L 42 554 L 106 554" stroke-miterlimit="10" stroke-dasharray=""/>
</g>
<g>
<path fill="none" stroke="#007561" paint-order="fill stroke markers" d=" M 95.83732514237585 558.209517756016 L 106 554 L 95.83732514237585 549.790482243984" stroke-miterlimit="10" stroke-dasharray=""/>
</g>
<g>
<path fill="none" stroke="#007561" paint-order="fill stroke markers" d=" M 1002 602 L 1002 10 L 10 10 L 10 762 L 106 762" stroke-miterlimit="10" stroke-dasharray=""/>
</g>
<g>
<path fill="none" stroke="#007561" paint-order="fill stroke markers" d=" M 95.83732514237585 766.209517756016 L 106 762 L 95.83732514237585 757.790482243984" stroke-miterlimit="10" stroke-dasharray=""/>
</g>
<g>
<path fill="none" stroke="#000000" paint-order="fill stroke markers" d=" M 586 714 L 586 810" stroke-miterlimit="10" stroke-dasharray=""/>
</g>
<g>
<path fill="none" stroke="#000000" paint-order="fill stroke markers" d=" M 581.790482243984 799.8373251423759 L 586 810 L 590.209517756016 799.8373251423759" stroke-miterlimit="10" stroke-dasharray=""/>
</g>
<g>
<path fill="none" stroke="#000000" paint-order="fill stroke markers" d=" M 682 1002 L 682 954" stroke-miterlimit="10" stroke-dasharray=""/>
</g>
<g>
<path fill="none" stroke="#000000" paint-order="fill stroke markers" d=" M 686.209517756016 964.1626748576241 L 682 954 L 677.790482243984 964.1626748576241" stroke-miterlimit="10" stroke-dasharray=""/>
</g>
<g>
<path fill="none" stroke="#000000" paint-order="fill stroke markers" d=" M 714 954 L 714 1002" stroke-miterlimit="10" stroke-dasharray=""/>
</g>
<g>
<path fill="none" stroke="#000000" paint-order="fill stroke markers" d=" M 709.790482243984 991.8373251423759 L 714 1002 L 718.209517756016 991.8373251423759" stroke-miterlimit="10" stroke-dasharray=""/>
</g>
<g>
<rect fill="#D8FFF8" stroke="none" x="144" y="384" width="144" height="192" transform="matrix(1 0 0 1 -38 -70)"/>
</g>
<g>
<path fill="none" stroke="#000000" paint-order="fill stroke markers" d=" M 106 314 L 250 314 L 250 506 L 106 506 L 106 314 Z Z" stroke-miterlimit="10" stroke-dasharray=""/>
</g>
<g>
<rect fill="#D8FFF8" stroke="none" x="144" y="384" width="144" height="192" transform="matrix(1 0 0 1 -38 -70)"/>
</g>
<g>
<path fill="none" stroke="#000000" paint-order="fill stroke markers" d=" M 106 314 L 250 314 L 250 506 L 106 506 L 106 314 Z Z" stroke-miterlimit="10" stroke-dasharray=""/>
</g>
<g>
<g>
<path fill="none" stroke="none"/>
<text fill="#000000" stroke="none" font-family="Arial" font-size="13px" font-style="normal" font-weight="bold" text-decoration="undefined" x="216.5" y="397.5" text-anchor="middle" dominant-baseline="central" transform="matrix(1 0 0 1 -38 -70)">
LCR Provider</text>
<path fill="none" stroke="#000000" paint-order="fill stroke markers" d=" M 220.035888671875 334 L 136.964111328125 334" stroke-miterlimit="10" stroke-dasharray=""/>
</g>
</g>
<g>
<rect fill="#D8FFF8" stroke="none" x="160" y="432" width="112" height="32" transform="matrix(1 0 0 1 -38 -70)"/>
</g>
<g>
<path fill="none" stroke="#000000" paint-order="fill stroke markers" d=" M 122 362 L 234 362 L 234 394 L 122 394 L 122 362 Z Z" stroke-miterlimit="10" stroke-dasharray=""/>
</g>
<g>
<rect fill="#D8FFF8" stroke="none" x="160" y="432" width="112" height="32" transform="matrix(1 0 0 1 -38 -70)"/>
</g>
<g>
<path fill="none" stroke="#000000" paint-order="fill stroke markers" d=" M 122 362 L 234 362 L 234 394 L 122 394 L 122 362 Z Z" stroke-miterlimit="10" stroke-dasharray=""/>
</g>
<g>
<g>
<path fill="none" stroke="none"/>
<text fill="#000000" stroke="none" font-family="Arial" font-size="13px" font-style="normal" font-weight="bold" text-decoration="undefined" x="216.5" y="445.5" text-anchor="middle" dominant-baseline="central" transform="matrix(1 0 0 1 -38 -70)">
LCR_X</text>
<path fill="none" stroke="#000000" paint-order="fill stroke markers" d=" M 199.80908203125 382 L 157.19091796875 382" stroke-miterlimit="10" stroke-dasharray=""/>
</g>
</g>
<g>
<rect fill="#D8FFF8" stroke="none" x="160" y="464" width="112" height="32" transform="matrix(1 0 0 1 -38 -70)"/>
</g>
<g>
<path fill="none" stroke="#000000" paint-order="fill stroke markers" d=" M 122 394 L 234 394 L 234 426 L 122 426 L 122 394 Z Z" stroke-miterlimit="10" stroke-dasharray=""/>
</g>
<g>
<rect fill="#D8FFF8" stroke="none" x="160" y="464" width="112" height="32" transform="matrix(1 0 0 1 -38 -70)"/>
</g>
<g>
<path fill="none" stroke="#000000" paint-order="fill stroke markers" d=" M 122 394 L 234 394 L 234 426 L 122 426 L 122 394 Z Z" stroke-miterlimit="10" stroke-dasharray=""/>
</g>
<g>
<g>
<path fill="none" stroke="none"/>
<text fill="#000000" stroke="none" font-family="Arial" font-size="13px" font-style="normal" font-weight="bold" text-decoration="undefined" x="216.5" y="477.5" text-anchor="middle" dominant-baseline="central" transform="matrix(1 0 0 1 -38 -70)">
LCR_X</text>
<path fill="none" stroke="#000000" paint-order="fill stroke markers" d=" M 199.80908203125 414 L 157.19091796875 414" stroke-miterlimit="10" stroke-dasharray=""/>
</g>
</g>
<g>
<rect fill="#D8FFF8" stroke="none" x="160" y="496" width="112" height="32" transform="matrix(1 0 0 1 -38 -70)"/>
</g>
<g>
<path fill="none" stroke="#000000" paint-order="fill stroke markers" d=" M 122 426 L 234 426 L 234 458 L 122 458 L 122 426 Z Z" stroke-miterlimit="10" stroke-dasharray=""/>
</g>
<g>
<rect fill="#D8FFF8" stroke="none" x="160" y="496" width="112" height="32" transform="matrix(1 0 0 1 -38 -70)"/>
</g>
<g>
<path fill="none" stroke="#000000" paint-order="fill stroke markers" d=" M 122 426 L 234 426 L 234 458 L 122 458 L 122 426 Z Z" stroke-miterlimit="10" stroke-dasharray=""/>
</g>
<g>
<g>
<path fill="none" stroke="none"/>
<text fill="#000000" stroke="none" font-family="Arial" font-size="13px" font-style="normal" font-weight="bold" text-decoration="undefined" x="216.5" y="509.5" text-anchor="middle" dominant-baseline="central" transform="matrix(1 0 0 1 -38 -70)">
LCR_X</text>
<path fill="none" stroke="#000000" paint-order="fill stroke markers" d=" M 199.80908203125 446 L 157.19091796875 446" stroke-miterlimit="10" stroke-dasharray=""/>
</g>
</g>
<g>
<path fill="none" stroke="#007561" paint-order="fill stroke markers" d=" M 250 474 L 426 474 L 426 586" stroke-miterlimit="10" stroke-dasharray=""/>
</g>
<g>
<path fill="none" stroke="#007561" paint-order="fill stroke markers" d=" M 421.790482243984 575.8373251423759 L 426 586 L 430.209517756016 575.8373251423759" stroke-miterlimit="10" stroke-dasharray=""/>
</g>
<g>
<rect fill="#D8E5FF" stroke="none" x="144" y="176" width="144" height="192" transform="matrix(1 0 0 1 -38 -70)"/>
</g>
<g>
<path fill="none" stroke="#000000" paint-order="fill stroke markers" d=" M 106 106 L 250 106 L 250 298 L 106 298 L 106 106 Z Z" stroke-miterlimit="10" stroke-dasharray=""/>
</g>
<g>
<rect fill="#D8E5FF" stroke="none" x="144" y="176" width="144" height="192" transform="matrix(1 0 0 1 -38 -70)"/>
</g>
<g>
<path fill="none" stroke="#000000" paint-order="fill stroke markers" d=" M 106 106 L 250 106 L 250 298 L 106 298 L 106 106 Z Z" stroke-miterlimit="10" stroke-dasharray=""/>
</g>
<g>
<g>
<path fill="none" stroke="none"/>
<text fill="#000000" stroke="none" font-family="Arial" font-size="13px" font-style="normal" font-weight="bold" text-decoration="undefined" x="216.5" y="189.5" text-anchor="middle" dominant-baseline="central" transform="matrix(1 0 0 1 -38 -70)">
SEG Provider</text>
<path fill="none" stroke="#000000" paint-order="fill stroke markers" d=" M 220.404052734375 126 L 136.595947265625 126" stroke-miterlimit="10" stroke-dasharray=""/>
</g>
</g>
<g>
<rect fill="#D8E5FF" stroke="none" x="160" y="224" width="112" height="32" transform="matrix(1 0 0 1 -38 -70)"/>
</g>
<g>
<path fill="none" stroke="#000000" paint-order="fill stroke markers" d=" M 122 154 L 234 154 L 234 186 L 122 186 L 122 154 Z Z" stroke-miterlimit="10" stroke-dasharray=""/>
</g>
<g>
<rect fill="#D8E5FF" stroke="none" x="160" y="224" width="112" height="32" transform="matrix(1 0 0 1 -38 -70)"/>
</g>
<g>
<path fill="none" stroke="#000000" paint-order="fill stroke markers" d=" M 122 154 L 234 154 L 234 186 L 122 186 L 122 154 Z Z" stroke-miterlimit="10" stroke-dasharray=""/>
</g>
<g>
<g>
<path fill="none" stroke="none"/>
<text fill="#000000" stroke="none" font-family="Arial" font-size="13px" font-style="normal" font-weight="bold" text-decoration="undefined" x="216.5" y="237.5" text-anchor="middle" dominant-baseline="central" transform="matrix(1 0 0 1 -38 -70)">
SEG</text>
<path fill="none" stroke="#000000" paint-order="fill stroke markers" d=" M 192.226806640625 174 L 164.773193359375 174" stroke-miterlimit="10" stroke-dasharray=""/>
</g>
</g>
<g>
<rect fill="#D8E5FF" stroke="none" x="160" y="256" width="112" height="32" transform="matrix(1 0 0 1 -38 -70)"/>
</g>
<g>
<path fill="none" stroke="#000000" paint-order="fill stroke markers" d=" M 122 186 L 234 186 L 234 218 L 122 218 L 122 186 Z Z" stroke-miterlimit="10" stroke-dasharray=""/>
</g>
<g>
<rect fill="#D8E5FF" stroke="none" x="160" y="256" width="112" height="32" transform="matrix(1 0 0 1 -38 -70)"/>
</g>
<g>
<path fill="none" stroke="#000000" paint-order="fill stroke markers" d=" M 122 186 L 234 186 L 234 218 L 122 218 L 122 186 Z Z" stroke-miterlimit="10" stroke-dasharray=""/>
</g>
<g>
<g>
<path fill="none" stroke="none"/>
<text fill="#000000" stroke="none" font-family="Arial" font-size="13px" font-style="normal" font-weight="bold" text-decoration="undefined" x="216.5" y="269.5" text-anchor="middle" dominant-baseline="central" transform="matrix(1 0 0 1 -38 -70)">
SEG</text>
<path fill="none" stroke="#000000" paint-order="fill stroke markers" d=" M 192.226806640625 206 L 164.773193359375 206" stroke-miterlimit="10" stroke-dasharray=""/>
</g>
</g>
<g>
<rect fill="#D8E5FF" stroke="none" x="160" y="288" width="112" height="32" transform="matrix(1 0 0 1 -38 -70)"/>
</g>
<g>
<path fill="none" stroke="#000000" paint-order="fill stroke markers" d=" M 122 218 L 234 218 L 234 250 L 122 250 L 122 218 Z Z" stroke-miterlimit="10" stroke-dasharray=""/>
</g>
<g>
<rect fill="#D8E5FF" stroke="none" x="160" y="288" width="112" height="32" transform="matrix(1 0 0 1 -38 -70)"/>
</g>
<g>
<path fill="none" stroke="#000000" paint-order="fill stroke markers" d=" M 122 218 L 234 218 L 234 250 L 122 250 L 122 218 Z Z" stroke-miterlimit="10" stroke-dasharray=""/>
</g>
<g>
<g>
<path fill="none" stroke="none"/>
<text fill="#000000" stroke="none" font-family="Arial" font-size="13px" font-style="normal" font-weight="bold" text-decoration="undefined" x="216.5" y="301.5" text-anchor="middle" dominant-baseline="central" transform="matrix(1 0 0 1 -38 -70)">
SEG</text>
<path fill="none" stroke="#000000" paint-order="fill stroke markers" d=" M 192.226806640625 238 L 164.773193359375 238" stroke-miterlimit="10" stroke-dasharray=""/>
</g>
</g>
<g>
<path fill="none" stroke="#007561" paint-order="fill stroke markers" d=" M 250 266 L 522 266 L 522 586" stroke-miterlimit="10" stroke-dasharray=""/>
</g>
<g>
<path fill="none" stroke="#007561" paint-order="fill stroke markers" d=" M 517.790482243984 575.8373251423759 L 522 586 L 526.209517756016 575.8373251423759" stroke-miterlimit="10" stroke-dasharray=""/>
</g>
<g>
<path fill="none" stroke="#007561" paint-order="fill stroke markers" d=" M 938 602 L 938 74 L 74 74 L 74 346 L 106 346" stroke-miterlimit="10" stroke-dasharray=""/>
</g>
<g>
<path fill="none" stroke="#007561" paint-order="fill stroke markers" d=" M 95.83732514237585 350.209517756016 L 106 346 L 95.83732514237585 341.790482243984" stroke-miterlimit="10" stroke-dasharray=""/>
</g>
<g>
<path fill="none" stroke="#007561" paint-order="fill stroke markers" d=" M 906 602 L 906 138 L 250 138" stroke-miterlimit="10" stroke-dasharray=""/>
</g>
<g>
<path fill="none" stroke="#007561" paint-order="fill stroke markers" d=" M 260.16267485762415 133.790482243984 L 250 138 L 260.16267485762415 142.209517756016" stroke-miterlimit="10" stroke-dasharray=""/>
</g>
<g>
<path fill="none" stroke="#000000" paint-order="fill stroke markers" d=" M 458 586 L 458 442 L 250 442" stroke-miterlimit="10" stroke-dasharray=""/>
</g>
<g>
<path fill="none" stroke="#000000" paint-order="fill stroke markers" d=" M 260.16267485762415 437.790482243984 L 250 442 L 260.16267485762415 446.209517756016" stroke-miterlimit="10" stroke-dasharray=""/>
</g>
<g>
<path fill="none" stroke="#000000" paint-order="fill stroke markers" d=" M 394 650 L 250 650" stroke-miterlimit="10" stroke-dasharray=""/>
</g>
<g>
<path fill="none" stroke="#000000" paint-order="fill stroke markers" d=" M 260.16267485762415 645.790482243984 L 250 650 L 260.16267485762415 654.209517756016" stroke-miterlimit="10" stroke-dasharray=""/>
</g>
<g>
<path fill="none" stroke="#000000" paint-order="fill stroke markers" d=" M 554 586 L 554 234 L 250 234" stroke-miterlimit="10" stroke-dasharray=""/>
</g>
<g>
<path fill="none" stroke="#000000" paint-order="fill stroke markers" d=" M 260.16267485762415 229.790482243984 L 250 234 L 260.16267485762415 238.209517756016" stroke-miterlimit="10" stroke-dasharray=""/>
</g>
<g>
<path fill="none" stroke="#000000" paint-order="fill stroke markers" d=" M 234 410 L 490 410 L 490 586" stroke-miterlimit="10" stroke-dasharray=""/>
</g>
<g>
<path fill="none" stroke="#000000" paint-order="fill stroke markers" d=" M 485.790482243984 575.8373251423759 L 490 586 L 494.209517756016 575.8373251423759" stroke-miterlimit="10" stroke-dasharray=""/>
</g>
<g>
<path fill="none" stroke="#000000" paint-order="fill stroke markers" d=" M 234 202 L 586 202 L 586 586" stroke-miterlimit="10" stroke-dasharray=""/>
</g>
<g>
<path fill="none" stroke="#000000" paint-order="fill stroke markers" d=" M 581.790482243984 575.8373251423759 L 586 586 L 590.209517756016 575.8373251423759" stroke-miterlimit="10" stroke-dasharray=""/>
</g>
<g>
<path fill="none" stroke="#000000" paint-order="fill stroke markers" d=" M 458 714 L 458 842 L 250 842" stroke-miterlimit="10" stroke-dasharray=""/>
</g>
<g>
<path fill="none" stroke="#000000" paint-order="fill stroke markers" d=" M 260.16267485762415 837.790482243984 L 250 842 L 260.16267485762415 846.209517756016" stroke-miterlimit="10" stroke-dasharray=""/>
</g>
<g>
<path fill="none" stroke="#000000" paint-order="fill stroke markers" d=" M 234 810 L 426 810 L 426 714" stroke-miterlimit="10" stroke-dasharray=""/>
</g>
<g>
<path fill="none" stroke="#000000" paint-order="fill stroke markers" d=" M 430.209517756016 724.1626748576241 L 426 714 L 421.790482243984 724.1626748576241" stroke-miterlimit="10" stroke-dasharray=""/>
</g>
<g>
<path fill="none" stroke="#000000" paint-order="fill stroke markers" d=" M 234 618 L 394 618" stroke-miterlimit="10" stroke-dasharray=""/>
</g>
<g>
<path fill="none" stroke="#000000" paint-order="fill stroke markers" d=" M 383.83732514237585 622.209517756016 L 394 618 L 383.83732514237585 613.790482243984" stroke-miterlimit="10" stroke-dasharray=""/>
</g>
<g>
<rect fill="#FFD8FF" stroke="none" x="816" y="1072" width="96" height="96" transform="matrix(1 0 0 1 -38 -70)"/>
</g>
<g>
<path fill="none" stroke="#000000" paint-order="fill stroke markers" d=" M 778 1002 L 874 1002 L 874 1098 L 778 1098 L 778 1002 Z Z" stroke-miterlimit="10" stroke-dasharray=""/>
</g>
<g>
<rect fill="#FFD8FF" stroke="none" x="816" y="1072" width="96" height="96" transform="matrix(1 0 0 1 -38 -70)"/>
</g>
<g>
<path fill="none" stroke="#000000" paint-order="fill stroke markers" d=" M 778 1002 L 874 1002 L 874 1098 L 778 1098 L 778 1002 Z Z" stroke-miterlimit="10" stroke-dasharray=""/>
</g>
<g>
<g>
<path fill="none" stroke="none"/>
<text fill="#000000" stroke="none" font-family="Arial" font-size="13px" font-style="normal" font-weight="bold" text-decoration="undefined" x="864.5" y="1085.5" text-anchor="middle" dominant-baseline="central" transform="matrix(1 0 0 1 -38 -70)">
CTRL</text>
<path fill="none" stroke="#000000" paint-order="fill stroke markers" d=" M 843.8291015625 1022 L 809.1708984375 1022" stroke-miterlimit="10" stroke-dasharray=""/>
</g>
</g>
<g>
<path fill="none" stroke="#000000" paint-order="fill stroke markers" d=" M 810 1002 L 810 954" stroke-miterlimit="10" stroke-dasharray=""/>
</g>
<g>
<path fill="none" stroke="#000000" paint-order="fill stroke markers" d=" M 814.209517756016 964.1626748576241 L 810 954 L 805.790482243984 964.1626748576241" stroke-miterlimit="10" stroke-dasharray=""/>
</g>
<g>
<path fill="none" stroke="#000000" paint-order="fill stroke markers" d=" M 842 954 L 842 1002" stroke-miterlimit="10" stroke-dasharray=""/>
</g>
<g>
<path fill="none" stroke="#000000" paint-order="fill stroke markers" d=" M 837.790482243984 991.8373251423759 L 842 1002 L 846.209517756016 991.8373251423759" stroke-miterlimit="10" stroke-dasharray=""/>
</g>
<g>
<rect fill="#FFD8FF" stroke="none" x="560" y="976" width="352" height="48" transform="matrix(1 0 0 1 -38 -70)"/>
</g>
<g>
<path fill="none" stroke="#000000" paint-order="fill stroke markers" d=" M 522 906 L 874 906 L 874 954 L 522 954 L 522 906 Z Z" stroke-miterlimit="10" stroke-dasharray=""/>
</g>
<g>
<rect fill="#FFD8FF" stroke="none" x="560" y="976" width="352" height="48" transform="matrix(1 0 0 1 -38 -70)"/>
</g>
<g>
<path fill="none" stroke="#000000" paint-order="fill stroke markers" d=" M 522 906 L 874 906 L 874 954 L 522 954 L 522 906 Z Z" stroke-miterlimit="10" stroke-dasharray=""/>
</g>
<g>
<g>
<path fill="none" stroke="none"/>
<text fill="#000000" stroke="none" font-family="Arial" font-size="13px" font-style="normal" font-weight="bold" text-decoration="undefined" x="736.5" y="989.5" text-anchor="middle" dominant-baseline="central" transform="matrix(1 0 0 1 -38 -70)">
TCP</text>
<path fill="none" stroke="#000000" paint-order="fill stroke markers" d=" M 711.5 926 L 685.5 926" stroke-miterlimit="10" stroke-dasharray=""/>
</g>
</g>
<g>
<rect fill="#E2E2E2" stroke="none" x="944" y="976" width="96" height="48" transform="matrix(1 0 0 1 -38 -70)"/>
</g>
<g>
<path fill="none" stroke="#000000" paint-order="fill stroke markers" d=" M 906 906 L 1002 906 L 1002 954 L 906 954 L 906 906 Z Z" stroke-miterlimit="10" stroke-dasharray=""/>
</g>
<g>
<rect fill="#E2E2E2" stroke="none" x="944" y="976" width="96" height="48" transform="matrix(1 0 0 1 -38 -70)"/>
</g>
<g>
<path fill="none" stroke="#000000" paint-order="fill stroke markers" d=" M 906 906 L 1002 906 L 1002 954 L 906 954 L 906 906 Z Z" stroke-miterlimit="10" stroke-dasharray=""/>
</g>
<g>
<g>
<path fill="none" stroke="none"/>
<text fill="#000000" stroke="none" font-family="Arial" font-size="13px" font-style="normal" font-weight="bold" text-decoration="undefined" x="992.5" y="989.5" text-anchor="middle" dominant-baseline="central" transform="matrix(1 0 0 1 -38 -70)">
FS</text>
<path fill="none" stroke="#000000" paint-order="fill stroke markers" d=" M 962.805908203125 926 L 946.194091796875 926" stroke-miterlimit="10" stroke-dasharray=""/>
</g>
</g>
</g>
</svg>
