<svg version="1.1" xmlns="http://www.w3.org/2000/svg" xmlns:xlink="http://www.w3.org/1999/xlink" width="837" height="596">
<defs/>
<g>
<g>
<rect fill="#FFDF82" stroke="none" x="560" y="576" width="128" height="96" transform="matrix(1 0 0 1 -310 -166)"/>
</g>
<g>
<path fill="none" stroke="#00B799" paint-order="fill stroke markers" d=" M 250 410 L 378 410 L 378 506 L 250 506 L 250 410 Z Z" stroke-miterlimit="10" stroke-dasharray=""/>
</g>
<g>
<rect fill="#FFDF82" stroke="none" x="560" y="576" width="128" height="96" transform="matrix(1 0 0 1 -310 -166)"/>
</g>
<g>
<path fill="none" stroke="#00B799" paint-order="fill stroke markers" d=" M 250 410 L 378 410 L 378 506 L 250 506 L 250 410 Z Z" stroke-miterlimit="10" stroke-dasharray=""/>
</g>
<g>
<g>
<path fill="none" stroke="none"/>
<text fill="#000000" stroke="none" font-family="Arial" font-size="13px" font-style="normal" font-weight="bold" text-decoration="undefined" x="624.5" y="589.5" text-anchor="middle" dominant-baseline="central" transform="matrix(1 0 0 1 -310 -166)">
TSW Hub</text>
<path fill="none" stroke="#000000" paint-order="fill stroke markers" d=" M 343.3818359375 430 L 285.6181640625 430" stroke-miterlimit="10" stroke-dasharray=""/>
</g>
</g>
<g>
<rect fill="#6DCEFF" stroke="none" x="848" y="656" width="288" height="96" transform="matrix(1 0 0 1 -310 -166)"/>
</g>
<g>
<path fill="none" stroke="#00B799" paint-order="fill stroke markers" d=" M 538 490 L 826 490 L 826 586 L 538 586 L 538 490 Z Z" stroke-miterlimit="10" stroke-dasharray=""/>
</g>
<g>
<rect fill="#6DCEFF" stroke="none" x="848" y="656" width="288" height="96" transform="matrix(1 0 0 1 -310 -166)"/>
</g>
<g>
<path fill="none" stroke="#00B799" paint-order="fill stroke markers" d=" M 538 490 L 826 490 L 826 586 L 538 586 L 538 490 Z Z" stroke-miterlimit="10" stroke-dasharray=""/>
</g>
<g>
<g>
<path fill="none" stroke="none"/>
<text fill="#000000" stroke="none" font-family="Arial" font-size="13px" font-style="normal" font-weight="bold" text-decoration="undefined" x="992.5" y="669.5" text-anchor="middle" dominant-baseline="central" transform="matrix(1 0 0 1 -310 -166)">
Dispatcher</text>
<path fill="none" stroke="#000000" paint-order="fill stroke markers" d=" M 716.094970703125 510 L 648.905029296875 510" stroke-miterlimit="10" stroke-dasharray=""/>
</g>
</g>
<g>
<rect fill="#FFDF82" stroke="none" x="320" y="480" width="144" height="272" transform="matrix(1 0 0 1 -310 -166)"/>
</g>
<g>
<path fill="none" stroke="#00B799" paint-order="fill stroke markers" d=" M 10 314 L 154 314 L 154 586 L 10 586 L 10 314 Z Z" stroke-miterlimit="10" stroke-dasharray=""/>
</g>
<g>
<rect fill="#FFDF82" stroke="none" x="320" y="480" width="144" height="272" transform="matrix(1 0 0 1 -310 -166)"/>
</g>
<g>
<path fill="none" stroke="#00B799" paint-order="fill stroke markers" d=" M 10 314 L 154 314 L 154 586 L 10 586 L 10 314 Z Z" stroke-miterlimit="10" stroke-dasharray=""/>
</g>
<g>
<g>
<path fill="none" stroke="none"/>
<text fill="#000000" stroke="none" font-family="Arial" font-size="13px" font-style="normal" font-weight="bold" text-decoration="undefined" x="392.5" y="493.5" text-anchor="middle" dominant-baseline="central" transform="matrix(1 0 0 1 -310 -166)">
TSW Provider</text>
<path fill="none" stroke="#000000" paint-order="fill stroke markers" d=" M 125.1181640625 334 L 39.8818359375 334" stroke-miterlimit="10" stroke-dasharray=""/>
</g>
</g>
<g>
<rect fill="#6DCEFF" stroke="none" x="1008" y="176" width="128" height="96" transform="matrix(1 0 0 1 -310 -166)"/>
</g>
<g>
<path fill="none" stroke="#00B799" paint-order="fill stroke markers" d=" M 698 10 L 826 10 L 826 106 L 698 106 L 698 10 Z Z" stroke-miterlimit="10" stroke-dasharray=""/>
</g>
<g>
<rect fill="#6DCEFF" stroke="none" x="1008" y="176" width="128" height="96" transform="matrix(1 0 0 1 -310 -166)"/>
</g>
<g>
<path fill="none" stroke="#00B799" paint-order="fill stroke markers" d=" M 698 10 L 826 10 L 826 106 L 698 106 L 698 10 Z Z" stroke-miterlimit="10" stroke-dasharray=""/>
</g>
<g>
<g>
<path fill="none" stroke="none"/>
<text fill="#000000" stroke="none" font-family="Arial" font-size="13px" font-style="normal" font-weight="bold" text-decoration="undefined" x="1072.5" y="189.5" text-anchor="middle" dominant-baseline="central" transform="matrix(1 0 0 1 -310 -166)">
Loader</text>
<path fill="none" stroke="#000000" paint-order="fill stroke markers" d=" M 784.1708984375 30 L 740.8291015625 30" stroke-miterlimit="10" stroke-dasharray=""/>
</g>
</g>
<g>
<rect fill="#D1FFA3" stroke="none" x="320" y="176" width="144" height="288" transform="matrix(1 0 0 1 -310 -166)"/>
</g>
<g>
<path fill="none" stroke="#00B799" paint-order="fill stroke markers" d=" M 10 10 L 154 10 L 154 298 L 10 298 L 10 10 Z Z" stroke-miterlimit="10" stroke-dasharray=""/>
</g>
<g>
<rect fill="#D1FFA3" stroke="none" x="320" y="176" width="144" height="288" transform="matrix(1 0 0 1 -310 -166)"/>
</g>
<g>
<path fill="none" stroke="#00B799" paint-order="fill stroke markers" d=" M 10 10 L 154 10 L 154 298 L 10 298 L 10 10 Z Z" stroke-miterlimit="10" stroke-dasharray=""/>
</g>
<g>
<g>
<path fill="none" stroke="none"/>
<text fill="#000000" stroke="none" font-family="Arial" font-size="13px" font-style="normal" font-weight="bold" text-decoration="undefined" x="392.5" y="189.5" text-anchor="middle" dominant-baseline="central" transform="matrix(1 0 0 1 -310 -166)">
SIG Prowider</text>
<path fill="none" stroke="#000000" paint-order="fill stroke markers" d=" M 123.3154296875 30 L 41.6845703125 30" stroke-miterlimit="10" stroke-dasharray=""/>
</g>
</g>
<g>
<rect fill="#D1FFA3" stroke="none" x="560" y="272" width="128" height="96" transform="matrix(1 0 0 1 -310 -166)"/>
</g>
<g>
<path fill="none" stroke="#00B799" paint-order="fill stroke markers" d=" M 250 106 L 378 106 L 378 202 L 250 202 L 250 106 Z Z" stroke-miterlimit="10" stroke-dasharray=""/>
</g>
<g>
<rect fill="#D1FFA3" stroke="none" x="560" y="272" width="128" height="96" transform="matrix(1 0 0 1 -310 -166)"/>
</g>
<g>
<path fill="none" stroke="#00B799" paint-order="fill stroke markers" d=" M 250 106 L 378 106 L 378 202 L 250 202 L 250 106 Z Z" stroke-miterlimit="10" stroke-dasharray=""/>
</g>
<g>
<g>
<path fill="none" stroke="none"/>
<text fill="#000000" stroke="none" font-family="Arial" font-size="13px" font-style="normal" font-weight="bold" text-decoration="undefined" x="624.5" y="285.5" text-anchor="middle" dominant-baseline="central" transform="matrix(1 0 0 1 -310 -166)">
SIG Hub</text>
<path fill="none" stroke="#000000" paint-order="fill stroke markers" d=" M 340.13818359375 126 L 288.86181640625 126" stroke-miterlimit="10" stroke-dasharray=""/>
</g>
</g>
<g>
<rect fill="#6DCEFF" stroke="none" x="864" y="368" width="160" height="96" transform="matrix(1 0 0 1 -310 -166)"/>
</g>
<g>
<path fill="none" stroke="#00B799" paint-order="fill stroke markers" d=" M 554 202 L 714 202 L 714 298 L 554 298 L 554 202 Z Z" stroke-miterlimit="10" stroke-dasharray=""/>
</g>
<g>
<rect fill="#6DCEFF" stroke="none" x="864" y="368" width="160" height="96" transform="matrix(1 0 0 1 -310 -166)"/>
</g>
<g>
<path fill="none" stroke="#00B799" paint-order="fill stroke markers" d=" M 554 202 L 714 202 L 714 298 L 554 298 L 554 202 Z Z" stroke-miterlimit="10" stroke-dasharray=""/>
</g>
<g>
<g>
<path fill="none" stroke="none"/>
<text fill="#000000" stroke="none" font-family="Arial" font-size="13px" font-style="normal" font-weight="bold" text-decoration="undefined" x="944.5" y="381.5" text-anchor="middle" dominant-baseline="central" transform="matrix(1 0 0 1 -310 -166)">
Log -NF-</text>
<path fill="none" stroke="#000000" paint-order="fill stroke markers" d=" M 661.2109375 222 L 607.7890625 222" stroke-miterlimit="10" stroke-dasharray=""/>
</g>
</g>
<g>
<rect fill="#FFDF82" stroke="none" x="336" y="528" width="112" height="32" transform="matrix(1 0 0 1 -310 -166)"/>
</g>
<g>
<path fill="none" stroke="#00B799" paint-order="fill stroke markers" d=" M 26 362 L 138 362 L 138 394 L 26 394 L 26 362 Z Z" stroke-miterlimit="10" stroke-dasharray=""/>
</g>
<g>
<rect fill="#FFDF82" stroke="none" x="336" y="528" width="112" height="32" transform="matrix(1 0 0 1 -310 -166)"/>
</g>
<g>
<path fill="none" stroke="#00B799" paint-order="fill stroke markers" d=" M 26 362 L 138 362 L 138 394 L 26 394 L 26 362 Z Z" stroke-miterlimit="10" stroke-dasharray=""/>
</g>
<g>
<g>
<path fill="none" stroke="none"/>
<text fill="#000000" stroke="none" font-family="Arial" font-size="13px" font-style="normal" font-weight="bold" text-decoration="undefined" x="392.5" y="541.5" text-anchor="middle" dominant-baseline="central" transform="matrix(1 0 0 1 -310 -166)">
TSW</text>
<path fill="none" stroke="#000000" paint-order="fill stroke markers" d=" M 96.94091796875 382 L 68.05908203125 382" stroke-miterlimit="10" stroke-dasharray=""/>
</g>
</g>
<g>
<path fill="none" stroke="#00B799" paint-order="fill stroke markers" d=" M 138 378 L 618 378 L 618 298" stroke-miterlimit="10" stroke-dasharray=""/>
</g>
<g>
<path fill="none" stroke="#00B799" paint-order="fill stroke markers" d=" M 622.209517756016 308.16267485762415 L 618 298 L 613.790482243984 308.16267485762415" stroke-miterlimit="10" stroke-dasharray=""/>
</g>
<g>
<path fill="none" stroke="#00B799" paint-order="fill stroke markers" d=" M 378 458 L 650 458 L 650 298" stroke-miterlimit="10" stroke-dasharray=""/>
</g>
<g>
<path fill="none" stroke="#00B799" paint-order="fill stroke markers" d=" M 654.209517756016 308.16267485762415 L 650 298 L 645.790482243984 308.16267485762415" stroke-miterlimit="10" stroke-dasharray=""/>
</g>
<g>
<path fill="none" stroke="#00B799" paint-order="fill stroke markers" d=" M 138 74 L 618 74 L 618 202" stroke-miterlimit="10" stroke-dasharray=""/>
</g>
<g>
<path fill="none" stroke="#00B799" paint-order="fill stroke markers" d=" M 613.790482243984 191.83732514237585 L 618 202 L 622.209517756016 191.83732514237585" stroke-miterlimit="10" stroke-dasharray=""/>
</g>
<g>
<path fill="none" stroke="#00B799" paint-order="fill stroke markers" d=" M 378 154 L 586 154 L 586 202" stroke-miterlimit="10" stroke-dasharray=""/>
</g>
<g>
<path fill="none" stroke="#00B799" paint-order="fill stroke markers" d=" M 581.790482243984 191.83732514237585 L 586 202 L 590.209517756016 191.83732514237585" stroke-miterlimit="10" stroke-dasharray=""/>
</g>
<g>
<path fill="none" stroke="#00B799" paint-order="fill stroke markers" d=" M 154 42 L 650 42 L 650 202" stroke-miterlimit="10" stroke-dasharray=""/>
</g>
<g>
<path fill="none" stroke="#00B799" paint-order="fill stroke markers" d=" M 645.790482243984 191.83732514237585 L 650 202 L 654.209517756016 191.83732514237585" stroke-miterlimit="10" stroke-dasharray=""/>
</g>
<g>
<path fill="none" stroke="#00B799" paint-order="fill stroke markers" d=" M 154 346 L 586 346 L 586 298" stroke-miterlimit="10" stroke-dasharray=""/>
</g>
<g>
<path fill="none" stroke="#00B799" paint-order="fill stroke markers" d=" M 590.209517756016 308.16267485762415 L 586 298 L 581.790482243984 308.16267485762415" stroke-miterlimit="10" stroke-dasharray=""/>
</g>
<g>
<path fill="none" stroke="#00B799" paint-order="fill stroke markers" d=" M 682 490 L 682 298" stroke-miterlimit="10" stroke-dasharray=""/>
</g>
<g>
<path fill="none" stroke="#00B799" paint-order="fill stroke markers" d=" M 686.209517756016 308.16267485762415 L 682 298 L 677.790482243984 308.16267485762415" stroke-miterlimit="10" stroke-dasharray=""/>
</g>
<g>
<rect fill="#D1FFA3" stroke="none" x="336" y="224" width="112" height="32" transform="matrix(1 0 0 1 -310 -166)"/>
</g>
<g>
<path fill="none" stroke="#00B799" paint-order="fill stroke markers" d=" M 26 58 L 138 58 L 138 90 L 26 90 L 26 58 Z Z" stroke-miterlimit="10" stroke-dasharray=""/>
</g>
<g>
<rect fill="#D1FFA3" stroke="none" x="336" y="224" width="112" height="32" transform="matrix(1 0 0 1 -310 -166)"/>
</g>
<g>
<path fill="none" stroke="#00B799" paint-order="fill stroke markers" d=" M 26 58 L 138 58 L 138 90 L 26 90 L 26 58 Z Z" stroke-miterlimit="10" stroke-dasharray=""/>
</g>
<g>
<g>
<path fill="none" stroke="none"/>
<text fill="#000000" stroke="none" font-family="Arial" font-size="13px" font-style="normal" font-weight="bold" text-decoration="undefined" x="392.5" y="237.5" text-anchor="middle" dominant-baseline="central" transform="matrix(1 0 0 1 -310 -166)">
SIG_X</text>
<path fill="none" stroke="#000000" paint-order="fill stroke markers" d=" M 101.647705078125 78 L 63.352294921875 78" stroke-miterlimit="10" stroke-dasharray=""/>
</g>
</g>
<g>
<rect fill="#D1FFA3" stroke="none" x="336" y="256" width="112" height="32" transform="matrix(1 0 0 1 -310 -166)"/>
</g>
<g>
<path fill="none" stroke="#00B799" paint-order="fill stroke markers" d=" M 26 90 L 138 90 L 138 122 L 26 122 L 26 90 Z Z" stroke-miterlimit="10" stroke-dasharray=""/>
</g>
<g>
<rect fill="#D1FFA3" stroke="none" x="336" y="256" width="112" height="32" transform="matrix(1 0 0 1 -310 -166)"/>
</g>
<g>
<path fill="none" stroke="#00B799" paint-order="fill stroke markers" d=" M 26 90 L 138 90 L 138 122 L 26 122 L 26 90 Z Z" stroke-miterlimit="10" stroke-dasharray=""/>
</g>
<g>
<g>
<path fill="none" stroke="none"/>
<text fill="#000000" stroke="none" font-family="Arial" font-size="13px" font-style="normal" font-weight="bold" text-decoration="undefined" x="392.5" y="269.5" text-anchor="middle" dominant-baseline="central" transform="matrix(1 0 0 1 -310 -166)">
SIG_X</text>
<path fill="none" stroke="#000000" paint-order="fill stroke markers" d=" M 101.647705078125 110 L 63.352294921875 110" stroke-miterlimit="10" stroke-dasharray=""/>
</g>
</g>
<g>
<rect fill="#D1FFA3" stroke="none" x="336" y="288" width="112" height="32" transform="matrix(1 0 0 1 -310 -166)"/>
</g>
<g>
<path fill="none" stroke="#00B799" paint-order="fill stroke markers" d=" M 26 122 L 138 122 L 138 154 L 26 154 L 26 122 Z Z" stroke-miterlimit="10" stroke-dasharray=""/>
</g>
<g>
<rect fill="#D1FFA3" stroke="none" x="336" y="288" width="112" height="32" transform="matrix(1 0 0 1 -310 -166)"/>
</g>
<g>
<path fill="none" stroke="#00B799" paint-order="fill stroke markers" d=" M 26 122 L 138 122 L 138 154 L 26 154 L 26 122 Z Z" stroke-miterlimit="10" stroke-dasharray=""/>
</g>
<g>
<g>
<path fill="none" stroke="none"/>
<text fill="#000000" stroke="none" font-family="Arial" font-size="13px" font-style="normal" font-weight="bold" text-decoration="undefined" x="392.5" y="301.5" text-anchor="middle" dominant-baseline="central" transform="matrix(1 0 0 1 -310 -166)">
SIG_X</text>
<path fill="none" stroke="#000000" paint-order="fill stroke markers" d=" M 101.647705078125 142 L 63.352294921875 142" stroke-miterlimit="10" stroke-dasharray=""/>
</g>
</g>
<g>
<rect fill="#D1FFA3" stroke="none" x="336" y="320" width="112" height="32" transform="matrix(1 0 0 1 -310 -166)"/>
</g>
<g>
<path fill="none" stroke="#00B799" paint-order="fill stroke markers" d=" M 26 154 L 138 154 L 138 186 L 26 186 L 26 154 Z Z" stroke-miterlimit="10" stroke-dasharray=""/>
</g>
<g>
<rect fill="#D1FFA3" stroke="none" x="336" y="320" width="112" height="32" transform="matrix(1 0 0 1 -310 -166)"/>
</g>
<g>
<path fill="none" stroke="#00B799" paint-order="fill stroke markers" d=" M 26 154 L 138 154 L 138 186 L 26 186 L 26 154 Z Z" stroke-miterlimit="10" stroke-dasharray=""/>
</g>
<g>
<g>
<path fill="none" stroke="none"/>
<text fill="#000000" stroke="none" font-family="Arial" font-size="13px" font-style="normal" font-weight="bold" text-decoration="undefined" x="392.5" y="333.5" text-anchor="middle" dominant-baseline="central" transform="matrix(1 0 0 1 -310 -166)">
SIG_X</text>
<path fill="none" stroke="#000000" paint-order="fill stroke markers" d=" M 101.647705078125 174 L 63.352294921875 174" stroke-miterlimit="10" stroke-dasharray=""/>
</g>
</g>
<g>
<rect fill="#D1FFA3" stroke="none" x="336" y="352" width="112" height="32" transform="matrix(1 0 0 1 -310 -166)"/>
</g>
<g>
<path fill="none" stroke="#00B799" paint-order="fill stroke markers" d=" M 26 186 L 138 186 L 138 218 L 26 218 L 26 186 Z Z" stroke-miterlimit="10" stroke-dasharray=""/>
</g>
<g>
<rect fill="#D1FFA3" stroke="none" x="336" y="352" width="112" height="32" transform="matrix(1 0 0 1 -310 -166)"/>
</g>
<g>
<path fill="none" stroke="#00B799" paint-order="fill stroke markers" d=" M 26 186 L 138 186 L 138 218 L 26 218 L 26 186 Z Z" stroke-miterlimit="10" stroke-dasharray=""/>
</g>
<g>
<g>
<path fill="none" stroke="none"/>
<text fill="#000000" stroke="none" font-family="Arial" font-size="13px" font-style="normal" font-weight="bold" text-decoration="undefined" x="392.5" y="365.5" text-anchor="middle" dominant-baseline="central" transform="matrix(1 0 0 1 -310 -166)">
SIG_X</text>
<path fill="none" stroke="#000000" paint-order="fill stroke markers" d=" M 101.647705078125 206 L 63.352294921875 206" stroke-miterlimit="10" stroke-dasharray=""/>
</g>
</g>
<g>
<rect fill="#FFDF82" stroke="none" x="336" y="560" width="112" height="32" transform="matrix(1 0 0 1 -310 -166)"/>
</g>
<g>
<path fill="none" stroke="#00B799" paint-order="fill stroke markers" d=" M 26 394 L 138 394 L 138 426 L 26 426 L 26 394 Z Z" stroke-miterlimit="10" stroke-dasharray=""/>
</g>
<g>
<rect fill="#FFDF82" stroke="none" x="336" y="560" width="112" height="32" transform="matrix(1 0 0 1 -310 -166)"/>
</g>
<g>
<path fill="none" stroke="#00B799" paint-order="fill stroke markers" d=" M 26 394 L 138 394 L 138 426 L 26 426 L 26 394 Z Z" stroke-miterlimit="10" stroke-dasharray=""/>
</g>
<g>
<g>
<path fill="none" stroke="none"/>
<text fill="#000000" stroke="none" font-family="Arial" font-size="13px" font-style="normal" font-weight="bold" text-decoration="undefined" x="392.5" y="573.5" text-anchor="middle" dominant-baseline="central" transform="matrix(1 0 0 1 -310 -166)">
TSW</text>
<path fill="none" stroke="#000000" paint-order="fill stroke markers" d=" M 96.94091796875 414 L 68.05908203125 414" stroke-miterlimit="10" stroke-dasharray=""/>
</g>
</g>
<g>
<rect fill="#FFDF82" stroke="none" x="336" y="592" width="112" height="32" transform="matrix(1 0 0 1 -310 -166)"/>
</g>
<g>
<path fill="none" stroke="#00B799" paint-order="fill stroke markers" d=" M 26 426 L 138 426 L 138 458 L 26 458 L 26 426 Z Z" stroke-miterlimit="10" stroke-dasharray=""/>
</g>
<g>
<rect fill="#FFDF82" stroke="none" x="336" y="592" width="112" height="32" transform="matrix(1 0 0 1 -310 -166)"/>
</g>
<g>
<path fill="none" stroke="#00B799" paint-order="fill stroke markers" d=" M 26 426 L 138 426 L 138 458 L 26 458 L 26 426 Z Z" stroke-miterlimit="10" stroke-dasharray=""/>
</g>
<g>
<g>
<path fill="none" stroke="none"/>
<text fill="#000000" stroke="none" font-family="Arial" font-size="13px" font-style="normal" font-weight="bold" text-decoration="undefined" x="392.5" y="605.5" text-anchor="middle" dominant-baseline="central" transform="matrix(1 0 0 1 -310 -166)">
TSW</text>
<path fill="none" stroke="#000000" paint-order="fill stroke markers" d=" M 96.94091796875 446 L 68.05908203125 446" stroke-miterlimit="10" stroke-dasharray=""/>
</g>
</g>
<g>
<rect fill="#FFDF82" stroke="none" x="336" y="624" width="112" height="32" transform="matrix(1 0 0 1 -310 -166)"/>
</g>
<g>
<path fill="none" stroke="#00B799" paint-order="fill stroke markers" d=" M 26 458 L 138 458 L 138 490 L 26 490 L 26 458 Z Z" stroke-miterlimit="10" stroke-dasharray=""/>
</g>
<g>
<rect fill="#FFDF82" stroke="none" x="336" y="624" width="112" height="32" transform="matrix(1 0 0 1 -310 -166)"/>
</g>
<g>
<path fill="none" stroke="#00B799" paint-order="fill stroke markers" d=" M 26 458 L 138 458 L 138 490 L 26 490 L 26 458 Z Z" stroke-miterlimit="10" stroke-dasharray=""/>
</g>
<g>
<g>
<path fill="none" stroke="none"/>
<text fill="#000000" stroke="none" font-family="Arial" font-size="13px" font-style="normal" font-weight="bold" text-decoration="undefined" x="392.5" y="637.5" text-anchor="middle" dominant-baseline="central" transform="matrix(1 0 0 1 -310 -166)">
TSW</text>
<path fill="none" stroke="#000000" paint-order="fill stroke markers" d=" M 96.94091796875 478 L 68.05908203125 478" stroke-miterlimit="10" stroke-dasharray=""/>
</g>
</g>
<g>
<rect fill="#FFDF82" stroke="none" x="336" y="656" width="112" height="32" transform="matrix(1 0 0 1 -310 -166)"/>
</g>
<g>
<path fill="none" stroke="#00B799" paint-order="fill stroke markers" d=" M 26 490 L 138 490 L 138 522 L 26 522 L 26 490 Z Z" stroke-miterlimit="10" stroke-dasharray=""/>
</g>
<g>
<rect fill="#FFDF82" stroke="none" x="336" y="656" width="112" height="32" transform="matrix(1 0 0 1 -310 -166)"/>
</g>
<g>
<path fill="none" stroke="#00B799" paint-order="fill stroke markers" d=" M 26 490 L 138 490 L 138 522 L 26 522 L 26 490 Z Z" stroke-miterlimit="10" stroke-dasharray=""/>
</g>
<g>
<g>
<path fill="none" stroke="none"/>
<text fill="#000000" stroke="none" font-family="Arial" font-size="13px" font-style="normal" font-weight="bold" text-decoration="undefined" x="392.5" y="669.5" text-anchor="middle" dominant-baseline="central" transform="matrix(1 0 0 1 -310 -166)">
TSW</text>
<path fill="none" stroke="#000000" paint-order="fill stroke markers" d=" M 96.94091796875 510 L 68.05908203125 510" stroke-miterlimit="10" stroke-dasharray=""/>
</g>
</g>
<g>
<path fill="none" stroke="#00B799" paint-order="fill stroke markers" d=" M 762 106 L 762 250 L 714 250" stroke-miterlimit="10" stroke-dasharray=""/>
</g>
<g>
<path fill="none" stroke="#00B799" paint-order="fill stroke markers" d=" M 724.1626748576241 245.790482243984 L 714 250 L 724.1626748576241 254.209517756016" stroke-miterlimit="10" stroke-dasharray=""/>
</g>
</g>
</svg>
