<svg version="1.1" xmlns="http://www.w3.org/2000/svg" xmlns:xlink="http://www.w3.org/1999/xlink" width="1301" height="1220">
<defs/>
<g>
<g>
<rect fill="#FFDF82" stroke="none" x="304" y="1056" width="144" height="224" transform="matrix(1 0 0 1 -182 -230)"/>
</g>
<g>
<path fill="none" stroke="#00B799" paint-order="fill stroke markers" d=" M 122 826 L 266 826 L 266 1050 L 122 1050 L 122 826 Z Z" stroke-miterlimit="10" stroke-dasharray=""/>
</g>
<g>
<rect fill="#FFDF82" stroke="none" x="304" y="1056" width="144" height="224" transform="matrix(1 0 0 1 -182 -230)"/>
</g>
<g>
<path fill="none" stroke="#00B799" paint-order="fill stroke markers" d=" M 122 826 L 266 826 L 266 1050 L 122 1050 L 122 826 Z Z" stroke-miterlimit="10" stroke-dasharray=""/>
</g>
<g>
<g>
<path fill="none" stroke="none"/>
<text fill="#000000" stroke="none" font-family="Arial" font-size="13px" font-style="normal" font-weight="bold" text-decoration="undefined" x="376.5" y="1069.5" text-anchor="middle" dominant-baseline="central" transform="matrix(1 0 0 1 -182 -230)">
TSW Provider</text>
<path fill="none" stroke="#000000" paint-order="fill stroke markers" d=" M 237.1181640625 846 L 151.8818359375 846" stroke-miterlimit="10" stroke-dasharray=""/>
</g>
</g>
<g>
<rect fill="#FFDF82" stroke="none" x="320" y="1104" width="112" height="32" transform="matrix(1 0 0 1 -182 -230)"/>
</g>
<g>
<path fill="none" stroke="#00B799" paint-order="fill stroke markers" d=" M 138 874 L 250 874 L 250 906 L 138 906 L 138 874 Z Z" stroke-miterlimit="10" stroke-dasharray=""/>
</g>
<g>
<rect fill="#FFDF82" stroke="none" x="320" y="1104" width="112" height="32" transform="matrix(1 0 0 1 -182 -230)"/>
</g>
<g>
<path fill="none" stroke="#00B799" paint-order="fill stroke markers" d=" M 138 874 L 250 874 L 250 906 L 138 906 L 138 874 Z Z" stroke-miterlimit="10" stroke-dasharray=""/>
</g>
<g>
<g>
<path fill="none" stroke="none"/>
<text fill="#000000" stroke="none" font-family="Arial" font-size="13px" font-style="normal" font-weight="bold" text-decoration="undefined" x="376.5" y="1117.5" text-anchor="middle" dominant-baseline="central" transform="matrix(1 0 0 1 -182 -230)">
TSW</text>
<path fill="none" stroke="#000000" paint-order="fill stroke markers" d=" M 208.94091796875 894 L 180.05908203125 894" stroke-miterlimit="10" stroke-dasharray=""/>
</g>
</g>
<g>
<rect fill="#D1FFA3" stroke="none" x="304" y="816" width="144" height="224" transform="matrix(1 0 0 1 -182 -230)"/>
</g>
<g>
<path fill="none" stroke="#00B799" paint-order="fill stroke markers" d=" M 122 586 L 266 586 L 266 810 L 122 810 L 122 586 Z Z" stroke-miterlimit="10" stroke-dasharray=""/>
</g>
<g>
<rect fill="#D1FFA3" stroke="none" x="304" y="816" width="144" height="224" transform="matrix(1 0 0 1 -182 -230)"/>
</g>
<g>
<path fill="none" stroke="#00B799" paint-order="fill stroke markers" d=" M 122 586 L 266 586 L 266 810 L 122 810 L 122 586 Z Z" stroke-miterlimit="10" stroke-dasharray=""/>
</g>
<g>
<g>
<path fill="none" stroke="none"/>
<text fill="#000000" stroke="none" font-family="Arial" font-size="13px" font-style="normal" font-weight="bold" text-decoration="undefined" x="376.5" y="829.5" text-anchor="middle" dominant-baseline="central" transform="matrix(1 0 0 1 -182 -230)">
SIG Prowider</text>
<path fill="none" stroke="#000000" paint-order="fill stroke markers" d=" M 235.3154296875 606 L 153.6845703125 606" stroke-miterlimit="10" stroke-dasharray=""/>
</g>
</g>
<g>
<rect fill="#D1FFA3" stroke="none" x="320" y="864" width="112" height="32" transform="matrix(1 0 0 1 -182 -230)"/>
</g>
<g>
<path fill="none" stroke="#00B799" paint-order="fill stroke markers" d=" M 138 634 L 250 634 L 250 666 L 138 666 L 138 634 Z Z" stroke-miterlimit="10" stroke-dasharray=""/>
</g>
<g>
<rect fill="#D1FFA3" stroke="none" x="320" y="864" width="112" height="32" transform="matrix(1 0 0 1 -182 -230)"/>
</g>
<g>
<path fill="none" stroke="#00B799" paint-order="fill stroke markers" d=" M 138 634 L 250 634 L 250 666 L 138 666 L 138 634 Z Z" stroke-miterlimit="10" stroke-dasharray=""/>
</g>
<g>
<g>
<path fill="none" stroke="none"/>
<text fill="#000000" stroke="none" font-family="Arial" font-size="13px" font-style="normal" font-weight="bold" text-decoration="undefined" x="376.5" y="877.5" text-anchor="middle" dominant-baseline="central" transform="matrix(1 0 0 1 -182 -230)">
SIG_X</text>
<path fill="none" stroke="#000000" paint-order="fill stroke markers" d=" M 213.647705078125 654 L 175.352294921875 654" stroke-miterlimit="10" stroke-dasharray=""/>
</g>
</g>
<g>
<rect fill="#FFDF82" stroke="none" x="544" y="1120" width="128" height="96" transform="matrix(1 0 0 1 -182 -230)"/>
</g>
<g>
<path fill="none" stroke="#00B799" paint-order="fill stroke markers" d=" M 362 890 L 490 890 L 490 986 L 362 986 L 362 890 Z Z" stroke-miterlimit="10" stroke-dasharray=""/>
</g>
<g>
<rect fill="#FFDF82" stroke="none" x="544" y="1120" width="128" height="96" transform="matrix(1 0 0 1 -182 -230)"/>
</g>
<g>
<path fill="none" stroke="#00B799" paint-order="fill stroke markers" d=" M 362 890 L 490 890 L 490 986 L 362 986 L 362 890 Z Z" stroke-miterlimit="10" stroke-dasharray=""/>
</g>
<g>
<g>
<path fill="none" stroke="none"/>
<text fill="#000000" stroke="none" font-family="Arial" font-size="13px" font-style="normal" font-weight="bold" text-decoration="undefined" x="608.5" y="1133.5" text-anchor="middle" dominant-baseline="central" transform="matrix(1 0 0 1 -182 -230)">
TSW Hub</text>
<path fill="none" stroke="#000000" paint-order="fill stroke markers" d=" M 455.3818359375 910 L 397.6181640625 910" stroke-miterlimit="10" stroke-dasharray=""/>
</g>
</g>
<g>
<rect fill="#6DCEFF" stroke="none" x="800" y="880" width="240" height="160" transform="matrix(1 0 0 1 -182 -230)"/>
</g>
<g>
<path fill="none" stroke="#00B799" paint-order="fill stroke markers" d=" M 618 650 L 858 650 L 858 810 L 618 810 L 618 650 Z Z" stroke-miterlimit="10" stroke-dasharray=""/>
</g>
<g>
<rect fill="#6DCEFF" stroke="none" x="800" y="880" width="240" height="160" transform="matrix(1 0 0 1 -182 -230)"/>
</g>
<g>
<path fill="none" stroke="#00B799" paint-order="fill stroke markers" d=" M 618 650 L 858 650 L 858 810 L 618 810 L 618 650 Z Z" stroke-miterlimit="10" stroke-dasharray=""/>
</g>
<g>
<g>
<path fill="none" stroke="none"/>
<text fill="#000000" stroke="none" font-family="Arial" font-size="13px" font-style="normal" font-weight="bold" text-decoration="undefined" x="920.5" y="893.5" text-anchor="middle" dominant-baseline="central" transform="matrix(1 0 0 1 -182 -230)">
Dispatcher</text>
<path fill="none" stroke="#000000" paint-order="fill stroke markers" d=" M 772.094970703125 670 L 704.905029296875 670" stroke-miterlimit="10" stroke-dasharray=""/>
</g>
</g>
<g>
<path fill="none" stroke="#00B799" paint-order="fill stroke markers" d=" M 362 922 L 266 922" stroke-miterlimit="10" stroke-dasharray=""/>
</g>
<g>
<path fill="none" stroke="#00B799" paint-order="fill stroke markers" d=" M 276.16267485762415 917.7904822439841 L 266 922 L 276.16267485762415 926.2095177560159" stroke-miterlimit="10" stroke-dasharray=""/>
</g>
<g>
<path fill="none" stroke="#00B799" paint-order="fill stroke markers" d=" M 650 810 L 650 922 L 490 922" stroke-miterlimit="10" stroke-dasharray=""/>
</g>
<g>
<path fill="none" stroke="#00B799" paint-order="fill stroke markers" d=" M 500.1626748576241 917.7904822439841 L 490 922 L 500.1626748576241 926.2095177560159" stroke-miterlimit="10" stroke-dasharray=""/>
</g>
<g>
<path fill="none" stroke="#00B799" paint-order="fill stroke markers" d=" M 490 954 L 682 954 L 682 810" stroke-miterlimit="10" stroke-dasharray=""/>
</g>
<g>
<path fill="none" stroke="#00B799" paint-order="fill stroke markers" d=" M 686.209517756016 820.1626748576241 L 682 810 L 677.790482243984 820.1626748576241" stroke-miterlimit="10" stroke-dasharray=""/>
</g>
<g>
<rect fill="#6DCEFF" stroke="none" x="928" y="1184" width="224" height="96" transform="matrix(1 0 0 1 -182 -230)"/>
</g>
<g>
<path fill="none" stroke="#00B799" paint-order="fill stroke markers" d=" M 746 954 L 970 954 L 970 1050 L 746 1050 L 746 954 Z Z" stroke-miterlimit="10" stroke-dasharray=""/>
</g>
<g>
<rect fill="#6DCEFF" stroke="none" x="928" y="1184" width="224" height="96" transform="matrix(1 0 0 1 -182 -230)"/>
</g>
<g>
<path fill="none" stroke="#00B799" paint-order="fill stroke markers" d=" M 746 954 L 970 954 L 970 1050 L 746 1050 L 746 954 Z Z" stroke-miterlimit="10" stroke-dasharray=""/>
</g>
<g>
<g>
<path fill="none" stroke="none"/>
<text fill="#000000" stroke="none" font-family="Arial" font-size="13px" font-style="normal" font-weight="bold" text-decoration="undefined" x="1040.5" y="1197.5" text-anchor="middle" dominant-baseline="central" transform="matrix(1 0 0 1 -182 -230)">
Com [NF]</text>
<path fill="none" stroke="#000000" paint-order="fill stroke markers" d=" M 887.74365234375 974 L 829.25634765625 974" stroke-miterlimit="10" stroke-dasharray=""/>
</g>
</g>
<g>
<path fill="none" stroke="#00B799" paint-order="fill stroke markers" d=" M 794 954 L 794 810" stroke-miterlimit="10" stroke-dasharray=""/>
</g>
<g>
<path fill="none" stroke="#00B799" paint-order="fill stroke markers" d=" M 798.209517756016 820.1626748576241 L 794 810 L 789.790482243984 820.1626748576241" stroke-miterlimit="10" stroke-dasharray=""/>
</g>
<g>
<rect fill="#FFDF82" stroke="none" x="320" y="1136" width="112" height="32" transform="matrix(1 0 0 1 -182 -230)"/>
</g>
<g>
<path fill="none" stroke="#00B799" paint-order="fill stroke markers" d=" M 138 906 L 250 906 L 250 938 L 138 938 L 138 906 Z Z" stroke-miterlimit="10" stroke-dasharray=""/>
</g>
<g>
<rect fill="#FFDF82" stroke="none" x="320" y="1136" width="112" height="32" transform="matrix(1 0 0 1 -182 -230)"/>
</g>
<g>
<path fill="none" stroke="#00B799" paint-order="fill stroke markers" d=" M 138 906 L 250 906 L 250 938 L 138 938 L 138 906 Z Z" stroke-miterlimit="10" stroke-dasharray=""/>
</g>
<g>
<g>
<path fill="none" stroke="none"/>
<text fill="#000000" stroke="none" font-family="Arial" font-size="13px" font-style="normal" font-weight="bold" text-decoration="undefined" x="376.5" y="1149.5" text-anchor="middle" dominant-baseline="central" transform="matrix(1 0 0 1 -182 -230)">
TSW</text>
<path fill="none" stroke="#000000" paint-order="fill stroke markers" d=" M 208.94091796875 926 L 180.05908203125 926" stroke-miterlimit="10" stroke-dasharray=""/>
</g>
</g>
<g>
<rect fill="#FFDF82" stroke="none" x="320" y="1168" width="112" height="32" transform="matrix(1 0 0 1 -182 -230)"/>
</g>
<g>
<path fill="none" stroke="#00B799" paint-order="fill stroke markers" d=" M 138 938 L 250 938 L 250 970 L 138 970 L 138 938 Z Z" stroke-miterlimit="10" stroke-dasharray=""/>
</g>
<g>
<rect fill="#FFDF82" stroke="none" x="320" y="1168" width="112" height="32" transform="matrix(1 0 0 1 -182 -230)"/>
</g>
<g>
<path fill="none" stroke="#00B799" paint-order="fill stroke markers" d=" M 138 938 L 250 938 L 250 970 L 138 970 L 138 938 Z Z" stroke-miterlimit="10" stroke-dasharray=""/>
</g>
<g>
<g>
<path fill="none" stroke="none"/>
<text fill="#000000" stroke="none" font-family="Arial" font-size="13px" font-style="normal" font-weight="bold" text-decoration="undefined" x="376.5" y="1181.5" text-anchor="middle" dominant-baseline="central" transform="matrix(1 0 0 1 -182 -230)">
TSW</text>
<path fill="none" stroke="#000000" paint-order="fill stroke markers" d=" M 208.94091796875 958 L 180.05908203125 958" stroke-miterlimit="10" stroke-dasharray=""/>
</g>
</g>
<g>
<rect fill="#FFDF82" stroke="none" x="320" y="1200" width="112" height="32" transform="matrix(1 0 0 1 -182 -230)"/>
</g>
<g>
<path fill="none" stroke="#00B799" paint-order="fill stroke markers" d=" M 138 970 L 250 970 L 250 1002 L 138 1002 L 138 970 Z Z" stroke-miterlimit="10" stroke-dasharray=""/>
</g>
<g>
<rect fill="#FFDF82" stroke="none" x="320" y="1200" width="112" height="32" transform="matrix(1 0 0 1 -182 -230)"/>
</g>
<g>
<path fill="none" stroke="#00B799" paint-order="fill stroke markers" d=" M 138 970 L 250 970 L 250 1002 L 138 1002 L 138 970 Z Z" stroke-miterlimit="10" stroke-dasharray=""/>
</g>
<g>
<g>
<path fill="none" stroke="none"/>
<text fill="#000000" stroke="none" font-family="Arial" font-size="13px" font-style="normal" font-weight="bold" text-decoration="undefined" x="376.5" y="1213.5" text-anchor="middle" dominant-baseline="central" transform="matrix(1 0 0 1 -182 -230)">
TSW</text>
<path fill="none" stroke="#000000" paint-order="fill stroke markers" d=" M 208.94091796875 990 L 180.05908203125 990" stroke-miterlimit="10" stroke-dasharray=""/>
</g>
</g>
<g>
<path fill="none" stroke="#00B799" paint-order="fill stroke markers" d=" M 250 954 L 362 954" stroke-miterlimit="10" stroke-dasharray=""/>
</g>
<g>
<path fill="none" stroke="#00B799" paint-order="fill stroke markers" d=" M 351.8373251423759 958.2095177560159 L 362 954 L 351.8373251423758 949.7904822439841" stroke-miterlimit="10" stroke-dasharray=""/>
</g>
<g>
<rect fill="#6DCEFF" stroke="none" x="1184" y="912" width="160" height="96" transform="matrix(1 0 0 1 -182 -230)"/>
</g>
<g>
<path fill="none" stroke="#00B799" paint-order="fill stroke markers" d=" M 1002 682 L 1162 682 L 1162 778 L 1002 778 L 1002 682 Z Z" stroke-miterlimit="10" stroke-dasharray=""/>
</g>
<g>
<rect fill="#6DCEFF" stroke="none" x="1184" y="912" width="160" height="96" transform="matrix(1 0 0 1 -182 -230)"/>
</g>
<g>
<path fill="none" stroke="#00B799" paint-order="fill stroke markers" d=" M 1002 682 L 1162 682 L 1162 778 L 1002 778 L 1002 682 Z Z" stroke-miterlimit="10" stroke-dasharray=""/>
</g>
<g>
<g>
<path fill="none" stroke="none"/>
<text fill="#000000" stroke="none" font-family="Arial" font-size="13px" font-style="normal" font-weight="bold" text-decoration="undefined" x="1264.5" y="925.5" text-anchor="middle" dominant-baseline="central" transform="matrix(1 0 0 1 -182 -230)">
Loader</text>
<path fill="none" stroke="#000000" paint-order="fill stroke markers" d=" M 1104.1708984375 702 L 1060.8291015625 702" stroke-miterlimit="10" stroke-dasharray=""/>
</g>
</g>
<g>
<rect fill="#FFFFFF00" stroke="none" x="928" y="1344" width="96" height="96" transform="matrix(1 0 0 1 -182 -230)"/>
</g>
<g>
<path fill="none" stroke="#707070" paint-order="fill stroke markers" d=" M 746 1114 L 842 1114 L 842 1210 L 746 1210 L 746 1114 Z Z" stroke-miterlimit="10" stroke-dasharray=""/>
</g>
<g>
<rect fill="#FFFFFF00" stroke="none" x="928" y="1344" width="96" height="96" transform="matrix(1 0 0 1 -182 -230)"/>
</g>
<g>
<path fill="none" stroke="#707070" paint-order="fill stroke markers" d=" M 746 1114 L 842 1114 L 842 1210 L 746 1210 L 746 1114 Z Z" stroke-miterlimit="10" stroke-dasharray=""/>
</g>
<g>
<g>
<path fill="none" stroke="none"/>
<text fill="#707070" stroke="none" font-family="Arial" font-size="13px" font-style="normal" font-weight="bold" text-decoration="undefined" x="976.5" y="1357.5" text-anchor="middle" dominant-baseline="central" transform="matrix(1 0 0 1 -182 -230)">
GUI</text>
<path fill="none" stroke="#707070" paint-order="fill stroke markers" d=" M 806.055908203125 1134 L 782.944091796875 1134" stroke-miterlimit="10" stroke-dasharray=""/>
</g>
</g>
<g>
<rect fill="#FFFFFF00" stroke="none" x="1056" y="1344" width="96" height="96" transform="matrix(1 0 0 1 -182 -230)"/>
</g>
<g>
<path fill="none" stroke="#707070" paint-order="fill stroke markers" d=" M 874 1114 L 970 1114 L 970 1210 L 874 1210 L 874 1114 Z Z" stroke-miterlimit="10" stroke-dasharray=""/>
</g>
<g>
<rect fill="#FFFFFF00" stroke="none" x="1056" y="1344" width="96" height="96" transform="matrix(1 0 0 1 -182 -230)"/>
</g>
<g>
<path fill="none" stroke="#707070" paint-order="fill stroke markers" d=" M 874 1114 L 970 1114 L 970 1210 L 874 1210 L 874 1114 Z Z" stroke-miterlimit="10" stroke-dasharray=""/>
</g>
<g>
<g>
<path fill="none" stroke="none"/>
<text fill="#707070" stroke="none" font-family="Arial" font-size="13px" font-style="normal" font-weight="bold" text-decoration="undefined" x="1104.5" y="1357.5" text-anchor="middle" dominant-baseline="central" transform="matrix(1 0 0 1 -182 -230)">
Field</text>
<path fill="none" stroke="#707070" paint-order="fill stroke markers" d=" M 937.667724609375 1134 L 907.332275390625 1134" stroke-miterlimit="10" stroke-dasharray=""/>
</g>
</g>
<g>
<rect fill="#FFFFFF00" stroke="none" x="1184" y="1344" width="160" height="96" transform="matrix(1 0 0 1 -182 -230)"/>
</g>
<g>
<path fill="none" stroke="#707070" paint-order="fill stroke markers" d=" M 1002 1114 L 1162 1114 L 1162 1210 L 1002 1210 L 1002 1114 Z Z" stroke-miterlimit="10" stroke-dasharray=""/>
</g>
<g>
<rect fill="#FFFFFF00" stroke="none" x="1184" y="1344" width="160" height="96" transform="matrix(1 0 0 1 -182 -230)"/>
</g>
<g>
<path fill="none" stroke="#707070" paint-order="fill stroke markers" d=" M 1002 1114 L 1162 1114 L 1162 1210 L 1002 1210 L 1002 1114 Z Z" stroke-miterlimit="10" stroke-dasharray=""/>
</g>
<g>
<g>
<path fill="none" stroke="none"/>
<text fill="#707070" stroke="none" font-family="Arial" font-size="13px" font-style="normal" font-weight="bold" text-decoration="undefined" x="1264.5" y="1357.5" text-anchor="middle" dominant-baseline="central" transform="matrix(1 0 0 1 -182 -230)">
Storage</text>
<path fill="none" stroke="#707070" paint-order="fill stroke markers" d=" M 1106.700439453125 1134 L 1058.299560546875 1134" stroke-miterlimit="10" stroke-dasharray=""/>
</g>
</g>
<g>
<path fill="none" stroke="#707070" paint-order="fill stroke markers" d=" M 778 1114 L 778 1050" stroke-miterlimit="10" stroke-dasharray=""/>
</g>
<g>
<path fill="none" stroke="#707070" paint-order="fill stroke markers" d=" M 782.209517756016 1060.162674857624 L 778 1050 L 773.790482243984 1060.162674857624" stroke-miterlimit="10" stroke-dasharray=""/>
</g>
<g>
<path fill="none" stroke="#707070" paint-order="fill stroke markers" d=" M 810 1050 L 810 1114" stroke-miterlimit="10" stroke-dasharray=""/>
</g>
<g>
<path fill="none" stroke="#707070" paint-order="fill stroke markers" d=" M 805.790482243984 1103.837325142376 L 810 1114 L 814.209517756016 1103.837325142376" stroke-miterlimit="10" stroke-dasharray=""/>
</g>
<g>
<path fill="none" stroke="#707070" paint-order="fill stroke markers" d=" M 1082 1050 L 1082 1114" stroke-miterlimit="10" stroke-dasharray=""/>
</g>
<g>
<path fill="none" stroke="#707070" paint-order="fill stroke markers" d=" M 1077.7904822439841 1103.837325142376 L 1082 1114 L 1086.2095177560159 1103.837325142376" stroke-miterlimit="10" stroke-dasharray=""/>
</g>
<g>
<path fill="none" stroke="#00B799" paint-order="fill stroke markers" d=" M 1002 730 L 858 730" stroke-miterlimit="10" stroke-dasharray=""/>
</g>
<g>
<path fill="none" stroke="#00B799" paint-order="fill stroke markers" d=" M 868.1626748576241 725.790482243984 L 858 730 L 868.1626748576241 734.209517756016" stroke-miterlimit="10" stroke-dasharray=""/>
</g>
<g>
<rect fill="#FFFFFF00" stroke="none" x="1184" y="1184" width="160" height="96" transform="matrix(1 0 0 1 -182 -230)"/>
</g>
<g>
<path fill="none" stroke="#707070" paint-order="fill stroke markers" d=" M 1002 954 L 1162 954 L 1162 1050 L 1002 1050 L 1002 954 Z Z" stroke-miterlimit="10" stroke-dasharray=""/>
</g>
<g>
<rect fill="#FFFFFF00" stroke="none" x="1184" y="1184" width="160" height="96" transform="matrix(1 0 0 1 -182 -230)"/>
</g>
<g>
<path fill="none" stroke="#707070" paint-order="fill stroke markers" d=" M 1002 954 L 1162 954 L 1162 1050 L 1002 1050 L 1002 954 Z Z" stroke-miterlimit="10" stroke-dasharray=""/>
</g>
<g>
<g>
<path fill="none" stroke="none"/>
<text fill="#707070" stroke="none" font-family="Arial" font-size="13px" font-style="normal" font-weight="bold" text-decoration="undefined" x="1264.5" y="1197.5" text-anchor="middle" dominant-baseline="central" transform="matrix(1 0 0 1 -182 -230)">
Reader</text>
<path fill="none" stroke="#707070" paint-order="fill stroke markers" d=" M 1104.5390625 974 L 1060.4609375 974" stroke-miterlimit="10" stroke-dasharray=""/>
</g>
</g>
<g>
<rect fill="#FFFFFF00" stroke="none" x="1312" y="1040" width="160" height="96" transform="matrix(1 0 0 1 -182 -230)"/>
</g>
<g>
<path fill="none" stroke="#707070" paint-order="fill stroke markers" d=" M 1130 810 L 1290 810 L 1290 906 L 1130 906 L 1130 810 Z Z" stroke-miterlimit="10" stroke-dasharray=""/>
</g>
<g>
<rect fill="#FFFFFF00" stroke="none" x="1312" y="1040" width="160" height="96" transform="matrix(1 0 0 1 -182 -230)"/>
</g>
<g>
<path fill="none" stroke="#707070" paint-order="fill stroke markers" d=" M 1130 810 L 1290 810 L 1290 906 L 1130 906 L 1130 810 Z Z" stroke-miterlimit="10" stroke-dasharray=""/>
</g>
<g>
<g>
<path fill="none" stroke="none"/>
<text fill="#707070" stroke="none" font-family="Arial" font-size="13px" font-style="normal" font-weight="bold" text-decoration="undefined" x="1392.5" y="1053.5" text-anchor="middle" dominant-baseline="central" transform="matrix(1 0 0 1 -182 -230)">
Startup</text>
<path fill="none" stroke="#707070" paint-order="fill stroke markers" d=" M 1233.25 830 L 1187.75 830" stroke-miterlimit="10" stroke-dasharray=""/>
</g>
</g>
<g>
<path fill="none" stroke="#707070" paint-order="fill stroke markers" d=" M 1210 906 L 1210 1002 L 1162 1002" stroke-miterlimit="10" stroke-dasharray=""/>
</g>
<g>
<path fill="none" stroke="#707070" paint-order="fill stroke markers" d=" M 1172.162674857624 997.7904822439841 L 1162 1002 L 1172.162674857624 1006.2095177560159" stroke-miterlimit="10" stroke-dasharray=""/>
</g>
<g>
<path fill="none" stroke="#707070" paint-order="fill stroke markers" d=" M 1082 954 L 1082 778" stroke-miterlimit="10" stroke-dasharray=""/>
</g>
<g>
<path fill="none" stroke="#707070" paint-order="fill stroke markers" d=" M 1086.2095177560159 788.1626748576241 L 1082 778 L 1077.7904822439841 788.1626748576241" stroke-miterlimit="10" stroke-dasharray=""/>
</g>
<g>
<path fill="none" stroke="#00B799" paint-order="fill stroke markers" d=" M 266 1018 L 714 1018 L 714 810" stroke-miterlimit="10" stroke-dasharray=""/>
</g>
<g>
<path fill="none" stroke="#00B799" paint-order="fill stroke markers" d=" M 718.209517756016 820.1626748576241 L 714 810 L 709.790482243984 820.1626748576241" stroke-miterlimit="10" stroke-dasharray=""/>
</g>
<g>
<rect fill="#D1FFA3" stroke="none" x="320" y="896" width="112" height="32" transform="matrix(1 0 0 1 -182 -230)"/>
</g>
<g>
<path fill="none" stroke="#00B799" paint-order="fill stroke markers" d=" M 138 666 L 250 666 L 250 698 L 138 698 L 138 666 Z Z" stroke-miterlimit="10" stroke-dasharray=""/>
</g>
<g>
<rect fill="#D1FFA3" stroke="none" x="320" y="896" width="112" height="32" transform="matrix(1 0 0 1 -182 -230)"/>
</g>
<g>
<path fill="none" stroke="#00B799" paint-order="fill stroke markers" d=" M 138 666 L 250 666 L 250 698 L 138 698 L 138 666 Z Z" stroke-miterlimit="10" stroke-dasharray=""/>
</g>
<g>
<g>
<path fill="none" stroke="none"/>
<text fill="#000000" stroke="none" font-family="Arial" font-size="13px" font-style="normal" font-weight="bold" text-decoration="undefined" x="376.5" y="909.5" text-anchor="middle" dominant-baseline="central" transform="matrix(1 0 0 1 -182 -230)">
SIG_X</text>
<path fill="none" stroke="#000000" paint-order="fill stroke markers" d=" M 213.647705078125 686 L 175.352294921875 686" stroke-miterlimit="10" stroke-dasharray=""/>
</g>
</g>
<g>
<rect fill="#D1FFA3" stroke="none" x="320" y="928" width="112" height="32" transform="matrix(1 0 0 1 -182 -230)"/>
</g>
<g>
<path fill="none" stroke="#00B799" paint-order="fill stroke markers" d=" M 138 698 L 250 698 L 250 730 L 138 730 L 138 698 Z Z" stroke-miterlimit="10" stroke-dasharray=""/>
</g>
<g>
<rect fill="#D1FFA3" stroke="none" x="320" y="928" width="112" height="32" transform="matrix(1 0 0 1 -182 -230)"/>
</g>
<g>
<path fill="none" stroke="#00B799" paint-order="fill stroke markers" d=" M 138 698 L 250 698 L 250 730 L 138 730 L 138 698 Z Z" stroke-miterlimit="10" stroke-dasharray=""/>
</g>
<g>
<g>
<path fill="none" stroke="none"/>
<text fill="#000000" stroke="none" font-family="Arial" font-size="13px" font-style="normal" font-weight="bold" text-decoration="undefined" x="376.5" y="941.5" text-anchor="middle" dominant-baseline="central" transform="matrix(1 0 0 1 -182 -230)">
SIG_X</text>
<path fill="none" stroke="#000000" paint-order="fill stroke markers" d=" M 213.647705078125 718 L 175.352294921875 718" stroke-miterlimit="10" stroke-dasharray=""/>
</g>
</g>
<g>
<rect fill="#D1FFA3" stroke="none" x="320" y="960" width="112" height="32" transform="matrix(1 0 0 1 -182 -230)"/>
</g>
<g>
<path fill="none" stroke="#00B799" paint-order="fill stroke markers" d=" M 138 730 L 250 730 L 250 762 L 138 762 L 138 730 Z Z" stroke-miterlimit="10" stroke-dasharray=""/>
</g>
<g>
<rect fill="#D1FFA3" stroke="none" x="320" y="960" width="112" height="32" transform="matrix(1 0 0 1 -182 -230)"/>
</g>
<g>
<path fill="none" stroke="#00B799" paint-order="fill stroke markers" d=" M 138 730 L 250 730 L 250 762 L 138 762 L 138 730 Z Z" stroke-miterlimit="10" stroke-dasharray=""/>
</g>
<g>
<g>
<path fill="none" stroke="none"/>
<text fill="#000000" stroke="none" font-family="Arial" font-size="13px" font-style="normal" font-weight="bold" text-decoration="undefined" x="376.5" y="973.5" text-anchor="middle" dominant-baseline="central" transform="matrix(1 0 0 1 -182 -230)">
SIG_X</text>
<path fill="none" stroke="#000000" paint-order="fill stroke markers" d=" M 213.647705078125 750 L 175.352294921875 750" stroke-miterlimit="10" stroke-dasharray=""/>
</g>
</g>
<g>
<rect fill="#D1FFA3" stroke="none" x="544" y="880" width="128" height="96" transform="matrix(1 0 0 1 -182 -230)"/>
</g>
<g>
<path fill="none" stroke="#00B799" paint-order="fill stroke markers" d=" M 362 650 L 490 650 L 490 746 L 362 746 L 362 650 Z Z" stroke-miterlimit="10" stroke-dasharray=""/>
</g>
<g>
<rect fill="#D1FFA3" stroke="none" x="544" y="880" width="128" height="96" transform="matrix(1 0 0 1 -182 -230)"/>
</g>
<g>
<path fill="none" stroke="#00B799" paint-order="fill stroke markers" d=" M 362 650 L 490 650 L 490 746 L 362 746 L 362 650 Z Z" stroke-miterlimit="10" stroke-dasharray=""/>
</g>
<g>
<g>
<path fill="none" stroke="none"/>
<text fill="#000000" stroke="none" font-family="Arial" font-size="13px" font-style="normal" font-weight="bold" text-decoration="undefined" x="608.5" y="893.5" text-anchor="middle" dominant-baseline="central" transform="matrix(1 0 0 1 -182 -230)">
SIG Hub</text>
<path fill="none" stroke="#000000" paint-order="fill stroke markers" d=" M 452.13818359375 670 L 400.86181640625 670" stroke-miterlimit="10" stroke-dasharray=""/>
</g>
</g>
<g>
<path fill="none" stroke="#00B799" paint-order="fill stroke markers" d=" M 266 778 L 618 778" stroke-miterlimit="10" stroke-dasharray=""/>
</g>
<g>
<path fill="none" stroke="#00B799" paint-order="fill stroke markers" d=" M 607.8373251423759 782.209517756016 L 618 778 L 607.8373251423758 773.790482243984" stroke-miterlimit="10" stroke-dasharray=""/>
</g>
<g>
<path fill="none" stroke="#00B799" paint-order="fill stroke markers" d=" M 618 682 L 490 682" stroke-miterlimit="10" stroke-dasharray=""/>
</g>
<g>
<path fill="none" stroke="#00B799" paint-order="fill stroke markers" d=" M 500.1626748576241 677.790482243984 L 490 682 L 500.1626748576241 686.209517756016" stroke-miterlimit="10" stroke-dasharray=""/>
</g>
<g>
<path fill="none" stroke="#00B799" paint-order="fill stroke markers" d=" M 490 714 L 618 714" stroke-miterlimit="10" stroke-dasharray=""/>
</g>
<g>
<path fill="none" stroke="#00B799" paint-order="fill stroke markers" d=" M 607.8373251423759 718.209517756016 L 618 714 L 607.8373251423758 709.790482243984" stroke-miterlimit="10" stroke-dasharray=""/>
</g>
<g>
<path fill="none" stroke="#00B799" paint-order="fill stroke markers" d=" M 1098 682 L 1098 42 L 42 42 L 42 618 L 122 618" stroke-miterlimit="10" stroke-dasharray=""/>
</g>
<g>
<path fill="none" stroke="#00B799" paint-order="fill stroke markers" d=" M 111.83732514237585 622.209517756016 L 122 618 L 111.83732514237585 613.790482243984" stroke-miterlimit="10" stroke-dasharray=""/>
</g>
<g>
<path fill="none" stroke="#00B799" paint-order="fill stroke markers" d=" M 1130 682 L 1130 10 L 10 10 L 10 858 L 122 858" stroke-miterlimit="10" stroke-dasharray=""/>
</g>
<g>
<path fill="none" stroke="#00B799" paint-order="fill stroke markers" d=" M 111.83732514237585 862.2095177560159 L 122 858 L 111.83732514237585 853.7904822439841" stroke-miterlimit="10" stroke-dasharray=""/>
</g>
<g>
<path fill="none" stroke="#00B799" paint-order="fill stroke markers" d=" M 362 682 L 266 682" stroke-miterlimit="10" stroke-dasharray=""/>
</g>
<g>
<path fill="none" stroke="#00B799" paint-order="fill stroke markers" d=" M 276.16267485762415 677.790482243984 L 266 682 L 276.16267485762415 686.209517756016" stroke-miterlimit="10" stroke-dasharray=""/>
</g>
<g>
<path fill="none" stroke="#00B799" paint-order="fill stroke markers" d=" M 250 714 L 362 714" stroke-miterlimit="10" stroke-dasharray=""/>
</g>
<g>
<path fill="none" stroke="#00B799" paint-order="fill stroke markers" d=" M 351.8373251423759 718.209517756016 L 362 714 L 351.8373251423758 709.790482243984" stroke-miterlimit="10" stroke-dasharray=""/>
</g>
<g>
<path fill="none" stroke="#00B799" paint-order="fill stroke markers" d=" M 826 810 L 826 954" stroke-miterlimit="10" stroke-dasharray=""/>
</g>
<g>
<path fill="none" stroke="#00B799" paint-order="fill stroke markers" d=" M 821.790482243984 943.8373251423759 L 826 954 L 830.209517756016 943.8373251423759" stroke-miterlimit="10" stroke-dasharray=""/>
</g>
<g>
<path fill="none" stroke="#707070" paint-order="fill stroke markers" d=" M 906 1114 L 906 1050" stroke-miterlimit="10" stroke-dasharray=""/>
</g>
<g>
<path fill="none" stroke="#707070" paint-order="fill stroke markers" d=" M 910.2095177560159 1060.162674857624 L 906 1050 L 901.7904822439841 1060.162674857624" stroke-miterlimit="10" stroke-dasharray=""/>
</g>
<g>
<path fill="none" stroke="#707070" paint-order="fill stroke markers" d=" M 938 1050 L 938 1114" stroke-miterlimit="10" stroke-dasharray=""/>
</g>
<g>
<path fill="none" stroke="#707070" paint-order="fill stroke markers" d=" M 933.7904822439841 1103.837325142376 L 938 1114 L 942.2095177560159 1103.837325142376" stroke-miterlimit="10" stroke-dasharray=""/>
</g>
<g>
<rect fill="#D8FFF8" stroke="none" x="304" y="576" width="144" height="224" transform="matrix(1 0 0 1 -182 -230)"/>
</g>
<g>
<path fill="none" stroke="#00B799" paint-order="fill stroke markers" d=" M 122 346 L 266 346 L 266 570 L 122 570 L 122 346 Z Z" stroke-miterlimit="10" stroke-dasharray=""/>
</g>
<g>
<rect fill="#D8FFF8" stroke="none" x="304" y="576" width="144" height="224" transform="matrix(1 0 0 1 -182 -230)"/>
</g>
<g>
<path fill="none" stroke="#00B799" paint-order="fill stroke markers" d=" M 122 346 L 266 346 L 266 570 L 122 570 L 122 346 Z Z" stroke-miterlimit="10" stroke-dasharray=""/>
</g>
<g>
<g>
<path fill="none" stroke="none"/>
<text fill="#000000" stroke="none" font-family="Arial" font-size="13px" font-style="normal" font-weight="bold" text-decoration="undefined" x="376.5" y="589.5" text-anchor="middle" dominant-baseline="central" transform="matrix(1 0 0 1 -182 -230)">
LCR Provider</text>
<path fill="none" stroke="#000000" paint-order="fill stroke markers" d=" M 236.035888671875 366 L 152.964111328125 366" stroke-miterlimit="10" stroke-dasharray=""/>
</g>
</g>
<g>
<rect fill="#D8FFF8" stroke="none" x="320" y="624" width="112" height="32" transform="matrix(1 0 0 1 -182 -230)"/>
</g>
<g>
<path fill="none" stroke="#00B799" paint-order="fill stroke markers" d=" M 138 394 L 250 394 L 250 426 L 138 426 L 138 394 Z Z" stroke-miterlimit="10" stroke-dasharray=""/>
</g>
<g>
<rect fill="#D8FFF8" stroke="none" x="320" y="624" width="112" height="32" transform="matrix(1 0 0 1 -182 -230)"/>
</g>
<g>
<path fill="none" stroke="#00B799" paint-order="fill stroke markers" d=" M 138 394 L 250 394 L 250 426 L 138 426 L 138 394 Z Z" stroke-miterlimit="10" stroke-dasharray=""/>
</g>
<g>
<g>
<path fill="none" stroke="none"/>
<text fill="#000000" stroke="none" font-family="Arial" font-size="13px" font-style="normal" font-weight="bold" text-decoration="undefined" x="376.5" y="637.5" text-anchor="middle" dominant-baseline="central" transform="matrix(1 0 0 1 -182 -230)">
LCR_X</text>
<path fill="none" stroke="#000000" paint-order="fill stroke markers" d=" M 215.80908203125 414 L 173.19091796875 414" stroke-miterlimit="10" stroke-dasharray=""/>
</g>
</g>
<g>
<rect fill="#D8FFF8" stroke="none" x="320" y="656" width="112" height="32" transform="matrix(1 0 0 1 -182 -230)"/>
</g>
<g>
<path fill="none" stroke="#00B799" paint-order="fill stroke markers" d=" M 138 426 L 250 426 L 250 458 L 138 458 L 138 426 Z Z" stroke-miterlimit="10" stroke-dasharray=""/>
</g>
<g>
<rect fill="#D8FFF8" stroke="none" x="320" y="656" width="112" height="32" transform="matrix(1 0 0 1 -182 -230)"/>
</g>
<g>
<path fill="none" stroke="#00B799" paint-order="fill stroke markers" d=" M 138 426 L 250 426 L 250 458 L 138 458 L 138 426 Z Z" stroke-miterlimit="10" stroke-dasharray=""/>
</g>
<g>
<g>
<path fill="none" stroke="none"/>
<text fill="#000000" stroke="none" font-family="Arial" font-size="13px" font-style="normal" font-weight="bold" text-decoration="undefined" x="376.5" y="669.5" text-anchor="middle" dominant-baseline="central" transform="matrix(1 0 0 1 -182 -230)">
LCR_X</text>
<path fill="none" stroke="#000000" paint-order="fill stroke markers" d=" M 215.80908203125 446 L 173.19091796875 446" stroke-miterlimit="10" stroke-dasharray=""/>
</g>
</g>
<g>
<rect fill="#D8FFF8" stroke="none" x="320" y="688" width="112" height="32" transform="matrix(1 0 0 1 -182 -230)"/>
</g>
<g>
<path fill="none" stroke="#00B799" paint-order="fill stroke markers" d=" M 138 458 L 250 458 L 250 490 L 138 490 L 138 458 Z Z" stroke-miterlimit="10" stroke-dasharray=""/>
</g>
<g>
<rect fill="#D8FFF8" stroke="none" x="320" y="688" width="112" height="32" transform="matrix(1 0 0 1 -182 -230)"/>
</g>
<g>
<path fill="none" stroke="#00B799" paint-order="fill stroke markers" d=" M 138 458 L 250 458 L 250 490 L 138 490 L 138 458 Z Z" stroke-miterlimit="10" stroke-dasharray=""/>
</g>
<g>
<g>
<path fill="none" stroke="none"/>
<text fill="#000000" stroke="none" font-family="Arial" font-size="13px" font-style="normal" font-weight="bold" text-decoration="undefined" x="376.5" y="701.5" text-anchor="middle" dominant-baseline="central" transform="matrix(1 0 0 1 -182 -230)">
LCR_X</text>
<path fill="none" stroke="#000000" paint-order="fill stroke markers" d=" M 215.80908203125 478 L 173.19091796875 478" stroke-miterlimit="10" stroke-dasharray=""/>
</g>
</g>
<g>
<rect fill="#D8FFF8" stroke="none" x="320" y="720" width="112" height="32" transform="matrix(1 0 0 1 -182 -230)"/>
</g>
<g>
<path fill="none" stroke="#00B799" paint-order="fill stroke markers" d=" M 138 490 L 250 490 L 250 522 L 138 522 L 138 490 Z Z" stroke-miterlimit="10" stroke-dasharray=""/>
</g>
<g>
<rect fill="#D8FFF8" stroke="none" x="320" y="720" width="112" height="32" transform="matrix(1 0 0 1 -182 -230)"/>
</g>
<g>
<path fill="none" stroke="#00B799" paint-order="fill stroke markers" d=" M 138 490 L 250 490 L 250 522 L 138 522 L 138 490 Z Z" stroke-miterlimit="10" stroke-dasharray=""/>
</g>
<g>
<g>
<path fill="none" stroke="none"/>
<text fill="#000000" stroke="none" font-family="Arial" font-size="13px" font-style="normal" font-weight="bold" text-decoration="undefined" x="376.5" y="733.5" text-anchor="middle" dominant-baseline="central" transform="matrix(1 0 0 1 -182 -230)">
LCR_X</text>
<path fill="none" stroke="#000000" paint-order="fill stroke markers" d=" M 215.80908203125 510 L 173.19091796875 510" stroke-miterlimit="10" stroke-dasharray=""/>
</g>
</g>
<g>
<rect fill="#D8FFF8" stroke="none" x="544" y="640" width="128" height="96" transform="matrix(1 0 0 1 -182 -230)"/>
</g>
<g>
<path fill="none" stroke="#00B799" paint-order="fill stroke markers" d=" M 362 410 L 490 410 L 490 506 L 362 506 L 362 410 Z Z" stroke-miterlimit="10" stroke-dasharray=""/>
</g>
<g>
<rect fill="#D8FFF8" stroke="none" x="544" y="640" width="128" height="96" transform="matrix(1 0 0 1 -182 -230)"/>
</g>
<g>
<path fill="none" stroke="#00B799" paint-order="fill stroke markers" d=" M 362 410 L 490 410 L 490 506 L 362 506 L 362 410 Z Z" stroke-miterlimit="10" stroke-dasharray=""/>
</g>
<g>
<g>
<path fill="none" stroke="none"/>
<text fill="#000000" stroke="none" font-family="Arial" font-size="13px" font-style="normal" font-weight="bold" text-decoration="undefined" x="608.5" y="653.5" text-anchor="middle" dominant-baseline="central" transform="matrix(1 0 0 1 -182 -230)">
LCR Hub</text>
<path fill="none" stroke="#000000" paint-order="fill stroke markers" d=" M 454.299560546875 430 L 398.700439453125 430" stroke-miterlimit="10" stroke-dasharray=""/>
</g>
</g>
<g>
<path fill="none" stroke="#00B799" paint-order="fill stroke markers" d=" M 250 490 L 250 474 L 362 474" stroke-miterlimit="10" stroke-dasharray=""/>
</g>
<g>
<path fill="none" stroke="#00B799" paint-order="fill stroke markers" d=" M 351.8373251423759 478.209517756016 L 362 474 L 351.8373251423758 469.790482243984" stroke-miterlimit="10" stroke-dasharray=""/>
</g>
<g>
<path fill="none" stroke="#00B799" paint-order="fill stroke markers" d=" M 362 442 L 266 442" stroke-miterlimit="10" stroke-dasharray=""/>
</g>
<g>
<path fill="none" stroke="#00B799" paint-order="fill stroke markers" d=" M 276.16267485762415 437.790482243984 L 266 442 L 276.16267485762415 446.209517756016" stroke-miterlimit="10" stroke-dasharray=""/>
</g>
<g>
<path fill="none" stroke="#00B799" paint-order="fill stroke markers" d=" M 266 538 L 650 538 L 650 650" stroke-miterlimit="10" stroke-dasharray=""/>
</g>
<g>
<path fill="none" stroke="#00B799" paint-order="fill stroke markers" d=" M 645.790482243984 639.8373251423759 L 650 650 L 654.209517756016 639.8373251423759" stroke-miterlimit="10" stroke-dasharray=""/>
</g>
<g>
<path fill="none" stroke="#00B799" paint-order="fill stroke markers" d=" M 490 474 L 682 474 L 682 650" stroke-miterlimit="10" stroke-dasharray=""/>
</g>
<g>
<path fill="none" stroke="#00B799" paint-order="fill stroke markers" d=" M 677.790482243984 639.8373251423759 L 682 650 L 686.209517756016 639.8373251423759" stroke-miterlimit="10" stroke-dasharray=""/>
</g>
<g>
<path fill="none" stroke="#00B799" paint-order="fill stroke markers" d=" M 714 650 L 714 442 L 490 442" stroke-miterlimit="10" stroke-dasharray=""/>
</g>
<g>
<path fill="none" stroke="#00B799" paint-order="fill stroke markers" d=" M 500.1626748576241 437.790482243984 L 490 442 L 500.1626748576241 446.209517756016" stroke-miterlimit="10" stroke-dasharray=""/>
</g>
<g>
<rect fill="#D8E5FF" stroke="none" x="304" y="336" width="144" height="224" transform="matrix(1 0 0 1 -182 -230)"/>
</g>
<g>
<path fill="none" stroke="#00B799" paint-order="fill stroke markers" d=" M 122 106 L 266 106 L 266 330 L 122 330 L 122 106 Z Z" stroke-miterlimit="10" stroke-dasharray=""/>
</g>
<g>
<rect fill="#D8E5FF" stroke="none" x="304" y="336" width="144" height="224" transform="matrix(1 0 0 1 -182 -230)"/>
</g>
<g>
<path fill="none" stroke="#00B799" paint-order="fill stroke markers" d=" M 122 106 L 266 106 L 266 330 L 122 330 L 122 106 Z Z" stroke-miterlimit="10" stroke-dasharray=""/>
</g>
<g>
<g>
<path fill="none" stroke="none"/>
<text fill="#000000" stroke="none" font-family="Arial" font-size="13px" font-style="normal" font-weight="bold" text-decoration="undefined" x="376.5" y="349.5" text-anchor="middle" dominant-baseline="central" transform="matrix(1 0 0 1 -182 -230)">
SEG Provider</text>
<path fill="none" stroke="#000000" paint-order="fill stroke markers" d=" M 236.404052734375 126 L 152.595947265625 126" stroke-miterlimit="10" stroke-dasharray=""/>
</g>
</g>
<g>
<rect fill="#D8E5FF" stroke="none" x="320" y="384" width="112" height="32" transform="matrix(1 0 0 1 -182 -230)"/>
</g>
<g>
<path fill="none" stroke="#00B799" paint-order="fill stroke markers" d=" M 138 154 L 250 154 L 250 186 L 138 186 L 138 154 Z Z" stroke-miterlimit="10" stroke-dasharray=""/>
</g>
<g>
<rect fill="#D8E5FF" stroke="none" x="320" y="384" width="112" height="32" transform="matrix(1 0 0 1 -182 -230)"/>
</g>
<g>
<path fill="none" stroke="#00B799" paint-order="fill stroke markers" d=" M 138 154 L 250 154 L 250 186 L 138 186 L 138 154 Z Z" stroke-miterlimit="10" stroke-dasharray=""/>
</g>
<g>
<g>
<path fill="none" stroke="none"/>
<text fill="#000000" stroke="none" font-family="Arial" font-size="13px" font-style="normal" font-weight="bold" text-decoration="undefined" x="376.5" y="397.5" text-anchor="middle" dominant-baseline="central" transform="matrix(1 0 0 1 -182 -230)">
SEG</text>
<path fill="none" stroke="#000000" paint-order="fill stroke markers" d=" M 208.226806640625 174 L 180.773193359375 174" stroke-miterlimit="10" stroke-dasharray=""/>
</g>
</g>
<g>
<rect fill="#D8E5FF" stroke="none" x="320" y="416" width="112" height="32" transform="matrix(1 0 0 1 -182 -230)"/>
</g>
<g>
<path fill="none" stroke="#00B799" paint-order="fill stroke markers" d=" M 138 186 L 250 186 L 250 218 L 138 218 L 138 186 Z Z" stroke-miterlimit="10" stroke-dasharray=""/>
</g>
<g>
<rect fill="#D8E5FF" stroke="none" x="320" y="416" width="112" height="32" transform="matrix(1 0 0 1 -182 -230)"/>
</g>
<g>
<path fill="none" stroke="#00B799" paint-order="fill stroke markers" d=" M 138 186 L 250 186 L 250 218 L 138 218 L 138 186 Z Z" stroke-miterlimit="10" stroke-dasharray=""/>
</g>
<g>
<g>
<path fill="none" stroke="none"/>
<text fill="#000000" stroke="none" font-family="Arial" font-size="13px" font-style="normal" font-weight="bold" text-decoration="undefined" x="376.5" y="429.5" text-anchor="middle" dominant-baseline="central" transform="matrix(1 0 0 1 -182 -230)">
SEG</text>
<path fill="none" stroke="#000000" paint-order="fill stroke markers" d=" M 208.226806640625 206 L 180.773193359375 206" stroke-miterlimit="10" stroke-dasharray=""/>
</g>
</g>
<g>
<rect fill="#D8E5FF" stroke="none" x="320" y="448" width="112" height="32" transform="matrix(1 0 0 1 -182 -230)"/>
</g>
<g>
<path fill="none" stroke="#00B799" paint-order="fill stroke markers" d=" M 138 218 L 250 218 L 250 250 L 138 250 L 138 218 Z Z" stroke-miterlimit="10" stroke-dasharray=""/>
</g>
<g>
<rect fill="#D8E5FF" stroke="none" x="320" y="448" width="112" height="32" transform="matrix(1 0 0 1 -182 -230)"/>
</g>
<g>
<path fill="none" stroke="#00B799" paint-order="fill stroke markers" d=" M 138 218 L 250 218 L 250 250 L 138 250 L 138 218 Z Z" stroke-miterlimit="10" stroke-dasharray=""/>
</g>
<g>
<g>
<path fill="none" stroke="none"/>
<text fill="#000000" stroke="none" font-family="Arial" font-size="13px" font-style="normal" font-weight="bold" text-decoration="undefined" x="376.5" y="461.5" text-anchor="middle" dominant-baseline="central" transform="matrix(1 0 0 1 -182 -230)">
SEG</text>
<path fill="none" stroke="#000000" paint-order="fill stroke markers" d=" M 208.226806640625 238 L 180.773193359375 238" stroke-miterlimit="10" stroke-dasharray=""/>
</g>
</g>
<g>
<rect fill="#D8E5FF" stroke="none" x="320" y="480" width="112" height="32" transform="matrix(1 0 0 1 -182 -230)"/>
</g>
<g>
<path fill="none" stroke="#00B799" paint-order="fill stroke markers" d=" M 138 250 L 250 250 L 250 282 L 138 282 L 138 250 Z Z" stroke-miterlimit="10" stroke-dasharray=""/>
</g>
<g>
<rect fill="#D8E5FF" stroke="none" x="320" y="480" width="112" height="32" transform="matrix(1 0 0 1 -182 -230)"/>
</g>
<g>
<path fill="none" stroke="#00B799" paint-order="fill stroke markers" d=" M 138 250 L 250 250 L 250 282 L 138 282 L 138 250 Z Z" stroke-miterlimit="10" stroke-dasharray=""/>
</g>
<g>
<g>
<path fill="none" stroke="none"/>
<text fill="#000000" stroke="none" font-family="Arial" font-size="13px" font-style="normal" font-weight="bold" text-decoration="undefined" x="376.5" y="493.5" text-anchor="middle" dominant-baseline="central" transform="matrix(1 0 0 1 -182 -230)">
SEG</text>
<path fill="none" stroke="#000000" paint-order="fill stroke markers" d=" M 208.226806640625 270 L 180.773193359375 270" stroke-miterlimit="10" stroke-dasharray=""/>
</g>
</g>
<g>
<rect fill="#D8E5FF" stroke="none" x="544" y="400" width="128" height="96" transform="matrix(1 0 0 1 -182 -230)"/>
</g>
<g>
<path fill="none" stroke="#00B799" paint-order="fill stroke markers" d=" M 362 170 L 490 170 L 490 266 L 362 266 L 362 170 Z Z" stroke-miterlimit="10" stroke-dasharray=""/>
</g>
<g>
<rect fill="#D8E5FF" stroke="none" x="544" y="400" width="128" height="96" transform="matrix(1 0 0 1 -182 -230)"/>
</g>
<g>
<path fill="none" stroke="#00B799" paint-order="fill stroke markers" d=" M 362 170 L 490 170 L 490 266 L 362 266 L 362 170 Z Z" stroke-miterlimit="10" stroke-dasharray=""/>
</g>
<g>
<g>
<path fill="none" stroke="none"/>
<text fill="#000000" stroke="none" font-family="Arial" font-size="13px" font-style="normal" font-weight="bold" text-decoration="undefined" x="608.5" y="413.5" text-anchor="middle" dominant-baseline="central" transform="matrix(1 0 0 1 -182 -230)">
SEG Hub</text>
<path fill="none" stroke="#000000" paint-order="fill stroke markers" d=" M 454.667724609375 190 L 398.332275390625 190" stroke-miterlimit="10" stroke-dasharray=""/>
</g>
</g>
<g>
<path fill="none" stroke="#00B799" paint-order="fill stroke markers" d=" M 250 234 L 362 234" stroke-miterlimit="10" stroke-dasharray=""/>
</g>
<g>
<path fill="none" stroke="#00B799" paint-order="fill stroke markers" d=" M 351.8373251423759 238.209517756016 L 362 234 L 351.8373251423758 229.790482243984" stroke-miterlimit="10" stroke-dasharray=""/>
</g>
<g>
<path fill="none" stroke="#00B799" paint-order="fill stroke markers" d=" M 362 202 L 266 202" stroke-miterlimit="10" stroke-dasharray=""/>
</g>
<g>
<path fill="none" stroke="#00B799" paint-order="fill stroke markers" d=" M 276.16267485762415 197.790482243984 L 266 202 L 276.16267485762415 206.209517756016" stroke-miterlimit="10" stroke-dasharray=""/>
</g>
<g>
<path fill="none" stroke="#00B799" paint-order="fill stroke markers" d=" M 266 298 L 762 298 L 762 650" stroke-miterlimit="10" stroke-dasharray=""/>
</g>
<g>
<path fill="none" stroke="#00B799" paint-order="fill stroke markers" d=" M 757.790482243984 639.8373251423759 L 762 650 L 766.209517756016 639.8373251423759" stroke-miterlimit="10" stroke-dasharray=""/>
</g>
<g>
<path fill="none" stroke="#00B799" paint-order="fill stroke markers" d=" M 490 234 L 794 234 L 794 650" stroke-miterlimit="10" stroke-dasharray=""/>
</g>
<g>
<path fill="none" stroke="#00B799" paint-order="fill stroke markers" d=" M 789.790482243984 639.8373251423759 L 794 650 L 798.209517756016 639.8373251423759" stroke-miterlimit="10" stroke-dasharray=""/>
</g>
<g>
<path fill="none" stroke="#00B799" paint-order="fill stroke markers" d=" M 826 650 L 826 202 L 490 202" stroke-miterlimit="10" stroke-dasharray=""/>
</g>
<g>
<path fill="none" stroke="#00B799" paint-order="fill stroke markers" d=" M 500.1626748576241 197.790482243984 L 490 202 L 500.1626748576241 206.209517756016" stroke-miterlimit="10" stroke-dasharray=""/>
</g>
<g>
<path fill="none" stroke="#00B799" paint-order="fill stroke markers" d=" M 1066 682 L 1066 74 L 74 74 L 74 378 L 122 378" stroke-miterlimit="10" stroke-dasharray=""/>
</g>
<g>
<path fill="none" stroke="#00B799" paint-order="fill stroke markers" d=" M 111.83732514237585 382.209517756016 L 122 378 L 111.83732514237585 373.790482243984" stroke-miterlimit="10" stroke-dasharray=""/>
</g>
<g>
<path fill="none" stroke="#00B799" paint-order="fill stroke markers" d=" M 1034 682 L 1034 138 L 266 138" stroke-miterlimit="10" stroke-dasharray=""/>
</g>
<g>
<path fill="none" stroke="#00B799" paint-order="fill stroke markers" d=" M 276.16267485762415 133.790482243984 L 266 138 L 276.16267485762415 142.209517756016" stroke-miterlimit="10" stroke-dasharray=""/>
</g>
</g>
</svg>
