<svg version="1.1" xmlns="http://www.w3.org/2000/svg" xmlns:xlink="http://www.w3.org/1999/xlink" width="783.55908203125" height="613">
<defs/>
<g>
<g>
<path fill="#FFFFFF00" stroke="none" paint-order="stroke fill markers" d=" M 212 410 L 288 410 Q 298 410 298 420 L 298 464 Q 298 474 288 474 L 212 474 Q 202 474 202 464 L 202 420 Q 202 410 212 410 Z"/>
</g>
<g>
<path fill="none" stroke="#00B799" paint-order="fill stroke markers" d=" M 212 410 L 288 410 Q 298 410 298 420 L 298 464 Q 298 474 288 474 L 212 474 Q 202 474 202 464 L 202 420 Q 202 410 212 410 Z" stroke-miterlimit="10" stroke-dasharray=""/>
</g>
<g>
<g>
<path fill="none" stroke="none"/>
<text fill="#00B799" stroke="none" font-family="Arial" font-size="13px" font-style="normal" font-weight="bold" text-decoration="undefined" x="272.5" y="445.5" text-anchor="middle" dominant-baseline="central" transform="matrix(1 0 0 1 -22 -22)">
LEFT</text>
</g>
</g>
<g>
<path fill="#00B799" stroke="none" paint-order="stroke fill markers" d=" M 362 26 C 362 17.163443200000003 369.1634432 10 378 10 C 386.8365568 10 394 17.163443200000003 394 26 C 394 34.8365568 386.8365568 42 378 42 C 369.1634432 42 362 34.8365568 362 26 Z"/>
</g>
<g>
<path fill="#FFFFFF00" stroke="none" paint-order="stroke fill markers" d=" M 340 138 L 416 138 Q 426 138 426 148 L 426 224 Q 426 234 416 234 L 340 234 Q 330 234 330 224 L 330 148 Q 330 138 340 138 Z"/>
</g>
<g>
<path fill="none" stroke="#00B799" paint-order="fill stroke markers" d=" M 340 138 L 416 138 Q 426 138 426 148 L 426 224 Q 426 234 416 234 L 340 234 Q 330 234 330 224 L 330 148 Q 330 138 340 138 Z" stroke-miterlimit="10" stroke-dasharray=""/>
</g>
<g>
<g>
<path fill="none" stroke="none"/>
<text fill="#00B799" stroke="none" font-family="Arial" font-size="13px" font-style="normal" font-weight="bold" text-decoration="undefined" x="400.5" y="173.5" text-anchor="middle" dominant-baseline="central" transform="matrix(1 0 0 1 -22 -22)">
UNDEF</text>
</g>
</g>
<g>
<path fill="#FFFFFF00" stroke="none" paint-order="stroke fill markers" d=" M 452 410 L 528 410 Q 538 410 538 420 L 538 464 Q 538 474 528 474 L 452 474 Q 442 474 442 464 L 442 420 Q 442 410 452 410 Z"/>
</g>
<g>
<path fill="none" stroke="#00B799" paint-order="fill stroke markers" d=" M 452 410 L 528 410 Q 538 410 538 420 L 538 464 Q 538 474 528 474 L 452 474 Q 442 474 442 464 L 442 420 Q 442 410 452 410 Z" stroke-miterlimit="10" stroke-dasharray=""/>
</g>
<g>
<g>
<path fill="none" stroke="none"/>
<text fill="#00B799" stroke="none" font-family="Arial" font-size="13px" font-style="normal" font-weight="bold" text-decoration="undefined" x="512.5" y="445.5" text-anchor="middle" dominant-baseline="central" transform="matrix(1 0 0 1 -22 -22)">
RIGHT</text>
</g>
</g>
<g>
<path fill="#FFFFFF00" stroke="none" paint-order="stroke fill markers" d=" M 564 298 L 664 298 Q 674 298 674 308 L 674 336 Q 674 346 664 346 L 564 346 Q 554 346 554 336 L 554 308 Q 554 298 564 298 Z"/>
</g>
<g>
<path fill="none" stroke="#00B799" paint-order="fill stroke markers" d=" M 564 298 L 664 298 Q 674 298 674 308 L 674 336 Q 674 346 664 346 L 564 346 Q 554 346 554 336 L 554 308 Q 554 298 564 298 Z" stroke-miterlimit="10" stroke-dasharray=""/>
</g>
<g>
<g>
<path fill="none" stroke="none"/>
<text fill="#00B799" stroke="none" font-family="Arial" font-size="13px" font-style="normal" font-weight="bold" text-decoration="undefined" x="636.5" y="333.5" text-anchor="middle" dominant-baseline="central" transform="matrix(1 0 0 1 -22 -22)">
WAIT RIGHT</text>
</g>
</g>
<g>
<path fill="#FFFFFF00" stroke="none" paint-order="stroke fill markers" d=" M 84 298 L 184 298 Q 194 298 194 308 L 194 336 Q 194 346 184 346 L 84 346 Q 74 346 74 336 L 74 308 Q 74 298 84 298 Z"/>
</g>
<g>
<path fill="none" stroke="#00B799" paint-order="fill stroke markers" d=" M 84 298 L 184 298 Q 194 298 194 308 L 194 336 Q 194 346 184 346 L 84 346 Q 74 346 74 336 L 74 308 Q 74 298 84 298 Z" stroke-miterlimit="10" stroke-dasharray=""/>
</g>
<g>
<g>
<path fill="none" stroke="none"/>
<text fill="#00B799" stroke="none" font-family="Arial" font-size="13px" font-style="normal" font-weight="bold" text-decoration="undefined" x="156.5" y="333.5" text-anchor="middle" dominant-baseline="central" transform="matrix(1 0 0 1 -22 -22)">
WAIT LEFT</text>
</g>
</g>
<g>
<path fill="none" stroke="#00B799" paint-order="fill stroke markers" d=" M 426 202 L 610 202 L 610 298" stroke-miterlimit="10" stroke-dasharray=""/>
</g>
<g>
<path fill="none" stroke="#00B799" paint-order="fill stroke markers" d=" M 605.790482243984 287.83732514237585 L 610 298 L 614.209517756016 287.83732514237585" stroke-miterlimit="10" stroke-dasharray=""/>
</g>
<g>
<rect fill="#FFFFFF00" stroke="none" x="480" y="207" width="73.658203125" height="13" transform="matrix(1 0 0 1 -22 -22)"/>
</g>
<g>
<g>
<path fill="none" stroke="none"/>
<text fill="#00B799" stroke="none" font-family="Arial" font-size="13px" font-style="normal" font-weight="normal" text-decoration="undefined" x="516.8291015625" y="213.5" text-anchor="middle" dominant-baseline="central" transform="matrix(1 0 0 1 -22 -22)">
CMD RIGHT</text>
</g>
</g>
<g>
<path fill="none" stroke="#00B799" paint-order="fill stroke markers" d=" M 330 202 L 154 202 L 154 298" stroke-miterlimit="10" stroke-dasharray=""/>
</g>
<g>
<path fill="none" stroke="#00B799" paint-order="fill stroke markers" d=" M 149.790482243984 287.83732514237585 L 154 298 L 158.209517756016 287.83732514237585" stroke-miterlimit="10" stroke-dasharray=""/>
</g>
<g>
<rect fill="#FFFFFF00" stroke="none" x="232" y="208" width="65" height="13" transform="matrix(1 0 0 1 -22 -22)"/>
</g>
<g>
<g>
<path fill="none" stroke="none"/>
<text fill="#00B799" stroke="none" font-family="Arial" font-size="13px" font-style="normal" font-weight="normal" text-decoration="undefined" x="264.5" y="214.5" text-anchor="middle" dominant-baseline="central" transform="matrix(1 0 0 1 -22 -22)">
CMD LEFT</text>
</g>
</g>
<g>
<path fill="#FFFFFF00" stroke="none" paint-order="stroke fill markers" d=" M 340 298 L 416 298 Q 426 298 426 308 L 426 352 Q 426 362 416 362 L 340 362 Q 330 362 330 352 L 330 308 Q 330 298 340 298 Z"/>
</g>
<g>
<path fill="none" stroke="#00B799" paint-order="fill stroke markers" d=" M 340 298 L 416 298 Q 426 298 426 308 L 426 352 Q 426 362 416 362 L 340 362 Q 330 362 330 352 L 330 308 Q 330 298 340 298 Z" stroke-miterlimit="10" stroke-dasharray=""/>
</g>
<g>
<g>
<path fill="none" stroke="none"/>
<text fill="#00B799" stroke="none" font-family="Arial" font-size="13px" font-style="normal" font-weight="bold" text-decoration="undefined" x="400.5" y="333.5" text-anchor="middle" dominant-baseline="central" transform="matrix(1 0 0 1 -22 -22)">
DEFECT</text>
</g>
</g>
<g>
<path fill="none" stroke="#00B799" paint-order="fill stroke markers" d=" M 362 234 L 362 298" stroke-miterlimit="10" stroke-dasharray=""/>
</g>
<g>
<path fill="none" stroke="#00B799" paint-order="fill stroke markers" d=" M 357.790482243984 287.83732514237585 L 362 298 L 366.209517756016 287.83732514237585" stroke-miterlimit="10" stroke-dasharray=""/>
</g>
<g>
<rect fill="#FFFFFF00" stroke="none" x="352" y="271" width="24.55908203125" height="13" transform="matrix(1 0 0 1 -22 -22)"/>
</g>
<g>
<g>
<path fill="none" stroke="none"/>
<text fill="#00B799" stroke="none" font-family="Arial" font-size="13px" font-style="normal" font-weight="normal" text-decoration="undefined" x="364.279541015625" y="277.5" text-anchor="middle" dominant-baseline="central" transform="matrix(1 0 0 1 -22 -22)">
FLD</text>
</g>
</g>
<g>
<path fill="none" stroke="#00B799" paint-order="fill stroke markers" d=" M 394 298 L 394 234" stroke-miterlimit="10" stroke-dasharray=""/>
</g>
<g>
<path fill="none" stroke="#00B799" paint-order="fill stroke markers" d=" M 398.209517756016 244.16267485762415 L 394 234 L 389.790482243984 244.16267485762415" stroke-miterlimit="10" stroke-dasharray=""/>
</g>
<g>
<rect fill="#FFFFFF00" stroke="none" x="423" y="271" width="24.55908203125" height="13" transform="matrix(1 0 0 1 -22 -22)"/>
</g>
<g>
<g>
<path fill="none" stroke="none"/>
<text fill="#00B799" stroke="none" font-family="Arial" font-size="13px" font-style="normal" font-weight="normal" text-decoration="undefined" x="435.279541015625" y="277.5" text-anchor="middle" dominant-baseline="central" transform="matrix(1 0 0 1 -22 -22)">
FLD</text>
</g>
</g>
<g>
<path fill="none" stroke="#00B799" paint-order="fill stroke markers" d=" M 194 314 L 330 314" stroke-miterlimit="10" stroke-dasharray=""/>
</g>
<g>
<path fill="none" stroke="#00B799" paint-order="fill stroke markers" d=" M 319.83732514237585 318.209517756016 L 330 314 L 319.83732514237585 309.790482243984" stroke-miterlimit="10" stroke-dasharray=""/>
</g>
<g>
<rect fill="#FFFFFF00" stroke="none" x="272" y="315" width="24.55908203125" height="13" transform="matrix(1 0 0 1 -22 -22)"/>
</g>
<g>
<g>
<path fill="none" stroke="none"/>
<text fill="#00B799" stroke="none" font-family="Arial" font-size="13px" font-style="normal" font-weight="normal" text-decoration="undefined" x="284.279541015625" y="321.5" text-anchor="middle" dominant-baseline="central" transform="matrix(1 0 0 1 -22 -22)">
FLD</text>
</g>
</g>
<g>
<path fill="none" stroke="#00B799" paint-order="fill stroke markers" d=" M 554 314 L 426 314" stroke-miterlimit="10" stroke-dasharray=""/>
</g>
<g>
<path fill="none" stroke="#00B799" paint-order="fill stroke markers" d=" M 436.16267485762415 309.790482243984 L 426 314 L 436.16267485762415 318.209517756016" stroke-miterlimit="10" stroke-dasharray=""/>
</g>
<g>
<rect fill="#FFFFFF00" stroke="none" x="499" y="311" width="24.55908203125" height="13" transform="matrix(1 0 0 1 -22 -22)"/>
</g>
<g>
<g>
<path fill="none" stroke="none"/>
<text fill="#00B799" stroke="none" font-family="Arial" font-size="13px" font-style="normal" font-weight="normal" text-decoration="undefined" x="511.279541015625" y="317.5" text-anchor="middle" dominant-baseline="central" transform="matrix(1 0 0 1 -22 -22)">
FLD</text>
</g>
</g>
<g>
<path fill="none" stroke="#00B799" paint-order="fill stroke markers" d=" M 298 442 L 442 442" stroke-miterlimit="10" stroke-dasharray=""/>
</g>
<g>
<path fill="none" stroke="#00B799" paint-order="fill stroke markers" d=" M 431.83732514237585 446.209517756016 L 442 442 L 431.83732514237585 437.790482243984" stroke-miterlimit="10" stroke-dasharray=""/>
</g>
<g>
<rect fill="#FFFFFF00" stroke="none" x="368" y="472" width="24.55908203125" height="13" transform="matrix(1 0 0 1 -22 -22)"/>
</g>
<g>
<g>
<path fill="none" stroke="none"/>
<text fill="#00B799" stroke="none" font-family="Arial" font-size="13px" font-style="normal" font-weight="normal" text-decoration="undefined" x="380.279541015625" y="478.5" text-anchor="middle" dominant-baseline="central" transform="matrix(1 0 0 1 -22 -22)">
FLD</text>
</g>
</g>
<g>
<path fill="none" stroke="#00B799" paint-order="fill stroke markers" d=" M 442 426 L 298 426" stroke-miterlimit="10" stroke-dasharray=""/>
</g>
<g>
<path fill="none" stroke="#00B799" paint-order="fill stroke markers" d=" M 308.16267485762415 421.790482243984 L 298 426 L 308.16267485762415 430.209517756016" stroke-miterlimit="10" stroke-dasharray=""/>
</g>
<g>
<rect fill="#FFFFFF00" stroke="none" x="379" y="431" width="24.55908203125" height="13" transform="matrix(1 0 0 1 -22 -22)"/>
</g>
<g>
<g>
<path fill="none" stroke="none"/>
<text fill="#00B799" stroke="none" font-family="Arial" font-size="13px" font-style="normal" font-weight="normal" text-decoration="undefined" x="391.279541015625" y="437.5" text-anchor="middle" dominant-baseline="central" transform="matrix(1 0 0 1 -22 -22)">
FLD</text>
</g>
</g>
<g>
<path fill="none" stroke="#00B799" paint-order="fill stroke markers" d=" M 586 346 L 586 426 L 538 426" stroke-miterlimit="10" stroke-dasharray=""/>
</g>
<g>
<path fill="none" stroke="#00B799" paint-order="fill stroke markers" d=" M 548.1626748576241 421.790482243984 L 538 426 L 548.1626748576241 430.209517756016" stroke-miterlimit="10" stroke-dasharray=""/>
</g>
<g>
<rect fill="#FFFFFF00" stroke="none" x="576" y="407" width="24.55908203125" height="13" transform="matrix(1 0 0 1 -22 -22)"/>
</g>
<g>
<g>
<path fill="none" stroke="none"/>
<text fill="#00B799" stroke="none" font-family="Arial" font-size="13px" font-style="normal" font-weight="normal" text-decoration="undefined" x="588.279541015625" y="413.5" text-anchor="middle" dominant-baseline="central" transform="matrix(1 0 0 1 -22 -22)">
FLD</text>
</g>
</g>
<g>
<path fill="none" stroke="#00B799" paint-order="fill stroke markers" d=" M 154 346 L 154 426 L 202 426" stroke-miterlimit="10" stroke-dasharray=""/>
</g>
<g>
<path fill="none" stroke="#00B799" paint-order="fill stroke markers" d=" M 191.83732514237585 430.209517756016 L 202 426 L 191.83732514237585 421.790482243984" stroke-miterlimit="10" stroke-dasharray=""/>
</g>
<g>
<rect fill="#FFFFFF00" stroke="none" x="184" y="408" width="24.55908203125" height="13" transform="matrix(1 0 0 1 -22 -22)"/>
</g>
<g>
<g>
<path fill="none" stroke="none"/>
<text fill="#00B799" stroke="none" font-family="Arial" font-size="13px" font-style="normal" font-weight="normal" text-decoration="undefined" x="196.279541015625" y="414.5" text-anchor="middle" dominant-baseline="central" transform="matrix(1 0 0 1 -22 -22)">
FLD</text>
</g>
</g>
<g>
<path fill="none" stroke="#00B799" paint-order="fill stroke markers" d=" M 586 298 L 586 218 L 426 218" stroke-miterlimit="10" stroke-dasharray=""/>
</g>
<g>
<path fill="none" stroke="#00B799" paint-order="fill stroke markers" d=" M 436.16267485762415 213.790482243984 L 426 218 L 436.16267485762415 222.209517756016" stroke-miterlimit="10" stroke-dasharray=""/>
</g>
<g>
<rect fill="#FFFFFF00" stroke="none" x="544" y="249" width="24.55908203125" height="13" transform="matrix(1 0 0 1 -22 -22)"/>
</g>
<g>
<g>
<path fill="none" stroke="none"/>
<text fill="#00B799" stroke="none" font-family="Arial" font-size="13px" font-style="normal" font-weight="normal" text-decoration="undefined" x="556.279541015625" y="255.5" text-anchor="middle" dominant-baseline="central" transform="matrix(1 0 0 1 -22 -22)">
FLD</text>
</g>
</g>
<g>
<path fill="none" stroke="#00B799" paint-order="fill stroke markers" d=" M 506 410 L 506 330 L 426 330" stroke-miterlimit="10" stroke-dasharray=""/>
</g>
<g>
<path fill="none" stroke="#00B799" paint-order="fill stroke markers" d=" M 436.16267485762415 325.790482243984 L 426 330 L 436.16267485762415 334.209517756016" stroke-miterlimit="10" stroke-dasharray=""/>
</g>
<g>
<rect fill="#FFFFFF00" stroke="none" x="536" y="383" width="24.55908203125" height="13" transform="matrix(1 0 0 1 -22 -22)"/>
</g>
<g>
<g>
<path fill="none" stroke="none"/>
<text fill="#00B799" stroke="none" font-family="Arial" font-size="13px" font-style="normal" font-weight="normal" text-decoration="undefined" x="548.279541015625" y="389.5" text-anchor="middle" dominant-baseline="central" transform="matrix(1 0 0 1 -22 -22)">
FLD</text>
</g>
</g>
<g>
<path fill="none" stroke="#00B799" paint-order="fill stroke markers" d=" M 234 410 L 234 330 L 330 330" stroke-miterlimit="10" stroke-dasharray=""/>
</g>
<g>
<path fill="none" stroke="#00B799" paint-order="fill stroke markers" d=" M 319.83732514237585 334.209517756016 L 330 330 L 319.83732514237585 325.790482243984" stroke-miterlimit="10" stroke-dasharray=""/>
</g>
<g>
<rect fill="#FFFFFF00" stroke="none" x="224" y="384" width="24.55908203125" height="13" transform="matrix(1 0 0 1 -22 -22)"/>
</g>
<g>
<g>
<path fill="none" stroke="none"/>
<text fill="#00B799" stroke="none" font-family="Arial" font-size="13px" font-style="normal" font-weight="normal" text-decoration="undefined" x="236.279541015625" y="390.5" text-anchor="middle" dominant-baseline="central" transform="matrix(1 0 0 1 -22 -22)">
FLD</text>
</g>
</g>
<g>
<path fill="none" stroke="#00B799" paint-order="fill stroke markers" d=" M 170 298 L 170 218 L 330 218" stroke-miterlimit="10" stroke-dasharray=""/>
</g>
<g>
<path fill="none" stroke="#00B799" paint-order="fill stroke markers" d=" M 319.83732514237585 222.209517756016 L 330 218 L 319.83732514237585 213.790482243984" stroke-miterlimit="10" stroke-dasharray=""/>
</g>
<g>
<rect fill="#FFFFFF00" stroke="none" x="240" y="247" width="24.55908203125" height="13" transform="matrix(1 0 0 1 -22 -22)"/>
</g>
<g>
<g>
<path fill="none" stroke="none"/>
<text fill="#00B799" stroke="none" font-family="Arial" font-size="13px" font-style="normal" font-weight="normal" text-decoration="undefined" x="252.279541015625" y="253.5" text-anchor="middle" dominant-baseline="central" transform="matrix(1 0 0 1 -22 -22)">
FLD</text>
</g>
</g>
<g>
<path fill="none" stroke="#00B799" paint-order="fill stroke markers" d=" M 330 346 L 266 346 L 266 410" stroke-miterlimit="10" stroke-dasharray=""/>
</g>
<g>
<path fill="none" stroke="#00B799" paint-order="fill stroke markers" d=" M 261.790482243984 399.83732514237585 L 266 410 L 270.209517756016 399.83732514237585" stroke-miterlimit="10" stroke-dasharray=""/>
</g>
<g>
<rect fill="#FFFFFF00" stroke="none" x="296" y="383" width="24.55908203125" height="13" transform="matrix(1 0 0 1 -22 -22)"/>
</g>
<g>
<g>
<path fill="none" stroke="none"/>
<text fill="#00B799" stroke="none" font-family="Arial" font-size="13px" font-style="normal" font-weight="normal" text-decoration="undefined" x="308.279541015625" y="389.5" text-anchor="middle" dominant-baseline="central" transform="matrix(1 0 0 1 -22 -22)">
FLD</text>
</g>
</g>
<g>
<path fill="none" stroke="#00B799" paint-order="fill stroke markers" d=" M 426 346 L 474 346 L 474 410" stroke-miterlimit="10" stroke-dasharray=""/>
</g>
<g>
<path fill="none" stroke="#00B799" paint-order="fill stroke markers" d=" M 469.790482243984 399.83732514237585 L 474 410 L 478.209517756016 399.83732514237585" stroke-miterlimit="10" stroke-dasharray=""/>
</g>
<g>
<rect fill="#FFFFFF00" stroke="none" x="464" y="384" width="24.55908203125" height="13" transform="matrix(1 0 0 1 -22 -22)"/>
</g>
<g>
<g>
<path fill="none" stroke="none"/>
<text fill="#00B799" stroke="none" font-family="Arial" font-size="13px" font-style="normal" font-weight="normal" text-decoration="undefined" x="476.279541015625" y="390.5" text-anchor="middle" dominant-baseline="central" transform="matrix(1 0 0 1 -22 -22)">
FLD</text>
</g>
</g>
<g>
<path fill="none" stroke="#00B799" paint-order="fill stroke markers" d=" M 122 298 L 122 106 L 634 106 L 634 298" stroke-miterlimit="10" stroke-dasharray=""/>
</g>
<g>
<path fill="none" stroke="#00B799" paint-order="fill stroke markers" d=" M 629.790482243984 287.83732514237585 L 634 298 L 638.209517756016 287.83732514237585" stroke-miterlimit="10" stroke-dasharray=""/>
</g>
<g>
<rect fill="#FFFFFF00" stroke="none" x="548" y="135" width="73.658203125" height="13" transform="matrix(1 0 0 1 -22 -22)"/>
</g>
<g>
<g>
<path fill="none" stroke="none"/>
<text fill="#00B799" stroke="none" font-family="Arial" font-size="13px" font-style="normal" font-weight="normal" text-decoration="undefined" x="584.8291015625" y="141.5" text-anchor="middle" dominant-baseline="central" transform="matrix(1 0 0 1 -22 -22)">
CMD RIGHT</text>
</g>
</g>
<g>
<path fill="none" stroke="#00B799" paint-order="fill stroke markers" d=" M 650 298 L 650 74 L 106 74 L 106 298" stroke-miterlimit="10" stroke-dasharray=""/>
</g>
<g>
<path fill="none" stroke="#00B799" paint-order="fill stroke markers" d=" M 101.79048224398402 287.83732514237585 L 106 298 L 110.209517756016 287.83732514237585" stroke-miterlimit="10" stroke-dasharray=""/>
</g>
<g>
<rect fill="#FFFFFF00" stroke="none" x="144" y="79" width="65" height="13" transform="matrix(1 0 0 1 -22 -22)"/>
</g>
<g>
<g>
<path fill="none" stroke="none"/>
<text fill="#00B799" stroke="none" font-family="Arial" font-size="13px" font-style="normal" font-weight="normal" text-decoration="undefined" x="176.5" y="85.5" text-anchor="middle" dominant-baseline="central" transform="matrix(1 0 0 1 -22 -22)">
CMD LEFT</text>
</g>
</g>
<g>
<path fill="none" stroke="#00B799" paint-order="fill stroke markers" d=" M 538 442 L 698 442 L 698 178 L 426 178" stroke-miterlimit="10" stroke-dasharray=""/>
</g>
<g>
<path fill="none" stroke="#00B799" paint-order="fill stroke markers" d=" M 436.16267485762415 173.790482243984 L 426 178 L 436.16267485762415 182.209517756016" stroke-miterlimit="10" stroke-dasharray=""/>
</g>
<g>
<rect fill="#FFFFFF00" stroke="none" x="728" y="363" width="24.55908203125" height="13" transform="matrix(1 0 0 1 -22 -22)"/>
</g>
<g>
<g>
<path fill="none" stroke="none"/>
<text fill="#00B799" stroke="none" font-family="Arial" font-size="13px" font-style="normal" font-weight="normal" text-decoration="undefined" x="740.279541015625" y="369.5" text-anchor="middle" dominant-baseline="central" transform="matrix(1 0 0 1 -22 -22)">
FLD</text>
</g>
</g>
<g>
<path fill="none" stroke="#00B799" paint-order="fill stroke markers" d=" M 202 442 L 58 442 L 58 178 L 330 178" stroke-miterlimit="10" stroke-dasharray=""/>
</g>
<g>
<path fill="none" stroke="#00B799" paint-order="fill stroke markers" d=" M 319.83732514237585 182.209517756016 L 330 178 L 319.83732514237585 173.790482243984" stroke-miterlimit="10" stroke-dasharray=""/>
</g>
<g>
<rect fill="#FFFFFF00" stroke="none" x="53" y="325" width="24.55908203125" height="13" transform="matrix(1 0 0 1 -22 -22)"/>
</g>
<g>
<g>
<path fill="none" stroke="none"/>
<text fill="#00B799" stroke="none" font-family="Arial" font-size="13px" font-style="normal" font-weight="normal" text-decoration="undefined" x="65.279541015625" y="331.5" text-anchor="middle" dominant-baseline="central" transform="matrix(1 0 0 1 -22 -22)">
FLD</text>
</g>
</g>
<g>
<path fill="none" stroke="#00B799" paint-order="fill stroke markers" d=" M 378 42 L 378 138" stroke-miterlimit="10" stroke-dasharray=""/>
</g>
<g>
<path fill="none" stroke="#00B799" paint-order="fill stroke markers" d=" M 373.790482243984 127.83732514237585 L 378 138 L 382.209517756016 127.83732514237585" stroke-miterlimit="10" stroke-dasharray=""/>
</g>
<g>
<path fill="none" stroke="#00B799" paint-order="fill stroke markers" d=" M 266 474 L 266 506 L 618 506 L 618 346" stroke-miterlimit="10" stroke-dasharray=""/>
</g>
<g>
<path fill="none" stroke="#00B799" paint-order="fill stroke markers" d=" M 622.209517756016 356.16267485762415 L 618 346 L 613.790482243984 356.16267485762415" stroke-miterlimit="10" stroke-dasharray=""/>
</g>
<g>
<rect fill="#FFFFFF00" stroke="none" x="304" y="511" width="134.31640625" height="13" transform="matrix(1 0 0 1 -22 -22)"/>
</g>
<g>
<g>
<path fill="none" stroke="none"/>
<text fill="#00B799" stroke="none" font-family="Arial" font-size="13px" font-style="normal" font-weight="normal" text-decoration="undefined" x="371.158203125" y="517.5" text-anchor="middle" dominant-baseline="central" transform="matrix(1 0 0 1 -22 -22)">
CMD RIGHT, CMD WU</text>
</g>
</g>
<g>
<path fill="none" stroke="#00B799" paint-order="fill stroke markers" d=" M 474 474 L 474 602 L 106 602 L 106 346" stroke-miterlimit="10" stroke-dasharray=""/>
</g>
<g>
<path fill="none" stroke="#00B799" paint-order="fill stroke markers" d=" M 110.209517756016 356.16267485762415 L 106 346 L 101.79048224398402 356.16267485762415" stroke-miterlimit="10" stroke-dasharray=""/>
</g>
<g>
<rect fill="#FFFFFF00" stroke="none" x="136" y="607" width="125.658203125" height="13" transform="matrix(1 0 0 1 -22 -22)"/>
</g>
<g>
<g>
<path fill="none" stroke="none"/>
<text fill="#00B799" stroke="none" font-family="Arial" font-size="13px" font-style="normal" font-weight="normal" text-decoration="undefined" x="198.8291015625" y="613.5" text-anchor="middle" dominant-baseline="central" transform="matrix(1 0 0 1 -22 -22)">
CMD LEFT, CMD WU</text>
</g>
</g>
<g>
<path fill="none" stroke="#00B799" paint-order="fill stroke markers" d=" M 426 154 L 746 154 L 746 458 L 538 458" stroke-miterlimit="10" stroke-dasharray=""/>
</g>
<g>
<path fill="none" stroke="#00B799" paint-order="fill stroke markers" d=" M 548.1626748576241 453.790482243984 L 538 458 L 548.1626748576241 462.209517756016" stroke-miterlimit="10" stroke-dasharray=""/>
</g>
<g>
<rect fill="#FFFFFF00" stroke="none" x="771" y="321" width="24.55908203125" height="13" transform="matrix(1 0 0 1 -22 -22)"/>
</g>
<g>
<g>
<path fill="none" stroke="none"/>
<text fill="#00B799" stroke="none" font-family="Arial" font-size="13px" font-style="normal" font-weight="normal" text-decoration="undefined" x="783.279541015625" y="327.5" text-anchor="middle" dominant-baseline="central" transform="matrix(1 0 0 1 -22 -22)">
FLD</text>
</g>
</g>
<g>
<path fill="none" stroke="#00B799" paint-order="fill stroke markers" d=" M 330 154 L 10 154 L 10 458 L 202 458" stroke-miterlimit="10" stroke-dasharray=""/>
</g>
<g>
<path fill="none" stroke="#00B799" paint-order="fill stroke markers" d=" M 191.83732514237585 462.209517756016 L 202 458 L 191.83732514237585 453.790482243984" stroke-miterlimit="10" stroke-dasharray=""/>
</g>
<g>
<rect fill="#FFFFFF00" stroke="none" x="35" y="264" width="24.55908203125" height="13" transform="matrix(1 0 0 1 -22 -22)"/>
</g>
<g>
<g>
<path fill="none" stroke="none"/>
<text fill="#00B799" stroke="none" font-family="Arial" font-size="13px" font-style="normal" font-weight="normal" text-decoration="undefined" x="47.279541015625" y="270.5" text-anchor="middle" dominant-baseline="central" transform="matrix(1 0 0 1 -22 -22)">
FLD</text>
</g>
</g>
<g>
<path fill="none" stroke="#00B799" paint-order="fill stroke markers" d=" M 650 346 L 650 538 L 234 538 L 234 474" stroke-miterlimit="10" stroke-dasharray=""/>
</g>
<g>
<path fill="none" stroke="#00B799" paint-order="fill stroke markers" d=" M 238.209517756016 484.16267485762415 L 234 474 L 229.790482243984 484.16267485762415" stroke-miterlimit="10" stroke-dasharray=""/>
</g>
<g>
<rect fill="#FFFFFF00" stroke="none" x="448" y="543" width="24.55908203125" height="13" transform="matrix(1 0 0 1 -22 -22)"/>
</g>
<g>
<g>
<path fill="none" stroke="none"/>
<text fill="#00B799" stroke="none" font-family="Arial" font-size="13px" font-style="normal" font-weight="normal" text-decoration="undefined" x="460.279541015625" y="549.5" text-anchor="middle" dominant-baseline="central" transform="matrix(1 0 0 1 -22 -22)">
FLD</text>
</g>
</g>
<g>
<path fill="none" stroke="#00B799" paint-order="fill stroke markers" d=" M 134 346 L 134 570 L 506 570 L 506 474" stroke-miterlimit="10" stroke-dasharray=""/>
</g>
<g>
<path fill="none" stroke="#00B799" paint-order="fill stroke markers" d=" M 510.209517756016 484.16267485762415 L 506 474 L 501.790482243984 484.16267485762415" stroke-miterlimit="10" stroke-dasharray=""/>
</g>
<g>
<rect fill="#FFFFFF00" stroke="none" x="184" y="570" width="24.55908203125" height="13" transform="matrix(1 0 0 1 -22 -22)"/>
</g>
<g>
<g>
<path fill="none" stroke="none"/>
<text fill="#00B799" stroke="none" font-family="Arial" font-size="13px" font-style="normal" font-weight="normal" text-decoration="undefined" x="196.279541015625" y="576.5" text-anchor="middle" dominant-baseline="central" transform="matrix(1 0 0 1 -22 -22)">
FLD</text>
</g>
</g>
</g>
</svg>
