<svg version="1.1" xmlns="http://www.w3.org/2000/svg" xmlns:xlink="http://www.w3.org/1999/xlink" width="989" height="772">
<defs/>
<g>
<g>
<rect fill="#C0C0C0" stroke="none" x="415" y="135" width="144" height="112" transform="matrix(1 0 0 1 -86 -22)" fill-opacity="0.2"/>
</g>
<g>
<rect fill="#D8F2FF" stroke="none" x="408" y="128" width="144" height="112" transform="matrix(1 0 0 1 -86 -22)"/>
</g>
<g>
<path fill="none" stroke="#000000" paint-order="fill stroke markers" d=" M 322 106 L 466 106 L 466 218 L 322 218 L 322 106 Z Z" stroke-miterlimit="10" stroke-dasharray=""/>
</g>
<g>
<rect fill="#D8F2FF" stroke="none" x="408" y="128" width="144" height="112" transform="matrix(1 0 0 1 -86 -22)"/>
</g>
<g>
<path fill="none" stroke="#000000" paint-order="fill stroke markers" d=" M 322 106 L 466 106 L 466 218 L 322 218 L 322 106 Z Z" stroke-miterlimit="10" stroke-dasharray=""/>
</g>
<g>
<g>
<path fill="none" stroke="none"/>
<text fill="#000000" stroke="none" font-family="Arial" font-size="13px" font-style="normal" font-weight="bold" text-decoration="undefined" x="480.5" y="141.5" text-anchor="middle" dominant-baseline="central" transform="matrix(1 0 0 1 -86 -22)">
Hub</text>
<path fill="none" stroke="#000000" paint-order="fill stroke markers" d=" M 407.135009765625 126 L 381.864990234375 126" stroke-miterlimit="10" stroke-dasharray=""/>
</g>
</g>
<g>
<rect fill="#C0C0C0" stroke="none" x="783" y="295" width="144" height="112" transform="matrix(1 0 0 1 -86 -22)" fill-opacity="0.2"/>
</g>
<g>
<rect fill="#E2E2E2" stroke="none" x="776" y="288" width="144" height="112" transform="matrix(1 0 0 1 -86 -22)"/>
</g>
<g>
<path fill="none" stroke="#000000" paint-order="fill stroke markers" d=" M 690 266 L 834 266 L 834 378 L 690 378 L 690 266 Z Z" stroke-miterlimit="10" stroke-dasharray=""/>
</g>
<g>
<rect fill="#E2E2E2" stroke="none" x="776" y="288" width="144" height="112" transform="matrix(1 0 0 1 -86 -22)"/>
</g>
<g>
<path fill="none" stroke="#000000" paint-order="fill stroke markers" d=" M 690 266 L 834 266 L 834 378 L 690 378 L 690 266 Z Z" stroke-miterlimit="10" stroke-dasharray=""/>
</g>
<g>
<g>
<path fill="none" stroke="none"/>
<text fill="#000000" stroke="none" font-family="Arial" font-size="13px" font-style="normal" font-weight="bold" text-decoration="undefined" x="848.5" y="301.5" text-anchor="middle" dominant-baseline="central" transform="matrix(1 0 0 1 -86 -22)">
Dispatcher</text>
<path fill="none" stroke="#000000" paint-order="fill stroke markers" d=" M 796.094970703125 286 L 728.905029296875 286" stroke-miterlimit="10" stroke-dasharray=""/>
</g>
</g>
<g>
<rect fill="#C0C0C0" stroke="none" x="103" y="39" width="144" height="344" transform="matrix(1 0 0 1 -86 -22)" fill-opacity="0.2"/>
</g>
<g>
<rect fill="#D8F2FF" stroke="none" x="96" y="32" width="144" height="344" transform="matrix(1 0 0 1 -86 -22)"/>
</g>
<g>
<path fill="none" stroke="#000000" paint-order="fill stroke markers" d=" M 10 10 L 154 10 L 154 354 L 10 354 L 10 10 Z Z" stroke-miterlimit="10" stroke-dasharray=""/>
</g>
<g>
<rect fill="#D8F2FF" stroke="none" x="96" y="32" width="144" height="344" transform="matrix(1 0 0 1 -86 -22)"/>
</g>
<g>
<path fill="none" stroke="#000000" paint-order="fill stroke markers" d=" M 10 10 L 154 10 L 154 354 L 10 354 L 10 10 Z Z" stroke-miterlimit="10" stroke-dasharray=""/>
</g>
<g>
<g>
<path fill="none" stroke="none"/>
<text fill="#000000" stroke="none" font-family="Arial" font-size="13px" font-style="normal" font-weight="bold" text-decoration="undefined" x="168.5" y="45.5" text-anchor="middle" dominant-baseline="central" transform="matrix(1 0 0 1 -86 -22)">
Provider</text>
<path fill="none" stroke="#000000" paint-order="fill stroke markers" d=" M 108.871337890625 30 L 56.128662109375 30" stroke-miterlimit="10" stroke-dasharray=""/>
</g>
</g>
<g>
<path fill="none" stroke="#000000" paint-order="fill stroke markers" d=" M 362 106 L 362 74 L 154 74" stroke-miterlimit="10" stroke-dasharray=""/>
</g>
<g>
<path fill="none" stroke="#000000" paint-order="fill stroke markers" d=" M 164.16267485762415 69.79048224398402 L 154 74 L 164.16267485762415 78.20951775601598" stroke-miterlimit="10" stroke-dasharray=""/>
</g>
<g>
<path fill="none" stroke="#000000" paint-order="fill stroke markers" d=" M 762 266 L 762 138 L 466 138" stroke-miterlimit="10" stroke-dasharray=""/>
</g>
<g>
<path fill="none" stroke="#000000" paint-order="fill stroke markers" d=" M 476.1626748576241 133.790482243984 L 466 138 L 476.1626748576241 142.209517756016" stroke-miterlimit="10" stroke-dasharray=""/>
</g>
<g>
<path fill="none" stroke="#000000" paint-order="fill stroke markers" d=" M 466 170 L 738 170 L 738 266" stroke-miterlimit="10" stroke-dasharray=""/>
</g>
<g>
<path fill="none" stroke="#000000" paint-order="fill stroke markers" d=" M 733.790482243984 255.83732514237585 L 738 266 L 742.209517756016 255.83732514237585" stroke-miterlimit="10" stroke-dasharray=""/>
</g>
<g>
<rect fill="#C0C0C0" stroke="none" x="375" y="423" width="144" height="112" transform="matrix(1 0 0 1 -86 -22)" fill-opacity="0.2"/>
</g>
<g>
<rect fill="#E2E2E2" stroke="none" x="368" y="416" width="144" height="112" transform="matrix(1 0 0 1 -86 -22)"/>
</g>
<g>
<path fill="none" stroke="#000000" paint-order="fill stroke markers" d=" M 282 394 L 426 394 L 426 506 L 282 506 L 282 394 Z Z" stroke-miterlimit="10" stroke-dasharray=""/>
</g>
<g>
<rect fill="#E2E2E2" stroke="none" x="368" y="416" width="144" height="112" transform="matrix(1 0 0 1 -86 -22)"/>
</g>
<g>
<path fill="none" stroke="#000000" paint-order="fill stroke markers" d=" M 282 394 L 426 394 L 426 506 L 282 506 L 282 394 Z Z" stroke-miterlimit="10" stroke-dasharray=""/>
</g>
<g>
<g>
<path fill="none" stroke="none"/>
<text fill="#000000" stroke="none" font-family="Arial" font-size="13px" font-style="normal" font-weight="bold" text-decoration="undefined" x="440.5" y="429.5" text-anchor="middle" dominant-baseline="central" transform="matrix(1 0 0 1 -86 -22)">
GuiCom</text>
<path fill="none" stroke="#000000" paint-order="fill stroke markers" d=" M 379.7763671875 414 L 329.2236328125 414" stroke-miterlimit="10" stroke-dasharray=""/>
</g>
</g>
<g>
<rect fill="#C0C0C0" stroke="none" x="599" y="423" width="144" height="112" transform="matrix(1 0 0 1 -86 -22)" fill-opacity="0.2"/>
</g>
<g>
<rect fill="#E2E2E2" stroke="none" x="592" y="416" width="144" height="112" transform="matrix(1 0 0 1 -86 -22)"/>
</g>
<g>
<path fill="none" stroke="#000000" paint-order="fill stroke markers" d=" M 506 394 L 650 394 L 650 506 L 506 506 L 506 394 Z Z" stroke-miterlimit="10" stroke-dasharray=""/>
</g>
<g>
<rect fill="#E2E2E2" stroke="none" x="592" y="416" width="144" height="112" transform="matrix(1 0 0 1 -86 -22)"/>
</g>
<g>
<path fill="none" stroke="#000000" paint-order="fill stroke markers" d=" M 506 394 L 650 394 L 650 506 L 506 506 L 506 394 Z Z" stroke-miterlimit="10" stroke-dasharray=""/>
</g>
<g>
<g>
<path fill="none" stroke="none"/>
<text fill="#000000" stroke="none" font-family="Arial" font-size="13px" font-style="normal" font-weight="bold" text-decoration="undefined" x="664.5" y="429.5" text-anchor="middle" dominant-baseline="central" transform="matrix(1 0 0 1 -86 -22)">
FldCom</text>
<path fill="none" stroke="#000000" paint-order="fill stroke markers" d=" M 602.69091796875 414 L 554.30908203125 414" stroke-miterlimit="10" stroke-dasharray=""/>
</g>
</g>
<g>
<path fill="none" stroke="#000000" paint-order="fill stroke markers" d=" M 322 210 L 218 210 L 218 418 L 282 418" stroke-miterlimit="10" stroke-dasharray=""/>
</g>
<g>
<path fill="none" stroke="#000000" paint-order="fill stroke markers" d=" M 271.83732514237585 422.209517756016 L 282 418 L 271.83732514237585 413.790482243984" stroke-miterlimit="10" stroke-dasharray=""/>
</g>
<g>
<path fill="none" stroke="#000000" paint-order="fill stroke markers" d=" M 322 186 L 194 186 L 194 554 L 554 554 L 554 506" stroke-miterlimit="10" stroke-dasharray=""/>
</g>
<g>
<path fill="none" stroke="#000000" paint-order="fill stroke markers" d=" M 558.209517756016 516.1626748576241 L 554 506 L 549.790482243984 516.1626748576241" stroke-miterlimit="10" stroke-dasharray=""/>
</g>
<g>
<path fill="none" stroke="#000000" paint-order="fill stroke markers" d=" M 354 394 L 354 322 L 690 322" stroke-miterlimit="10" stroke-dasharray=""/>
</g>
<g>
<path fill="none" stroke="#000000" paint-order="fill stroke markers" d=" M 679.8373251423759 326.209517756016 L 690 322 L 679.8373251423758 317.790482243984" stroke-miterlimit="10" stroke-dasharray=""/>
</g>
<g>
<path fill="none" stroke="#000000" paint-order="fill stroke markers" d=" M 650 450 L 762 450 L 762 378" stroke-miterlimit="10" stroke-dasharray=""/>
</g>
<g>
<path fill="none" stroke="#000000" paint-order="fill stroke markers" d=" M 766.209517756016 388.16267485762415 L 762 378 L 757.790482243984 388.16267485762415" stroke-miterlimit="10" stroke-dasharray=""/>
</g>
<g>
<rect fill="#C0C0C0" stroke="none" x="119" y="79" width="112" height="48" transform="matrix(1 0 0 1 -86 -22)" fill-opacity="0.2"/>
</g>
<g>
<rect fill="#D8F2FF" stroke="none" x="112" y="72" width="112" height="48" transform="matrix(1 0 0 1 -86 -22)"/>
</g>
<g>
<path fill="none" stroke="#000000" paint-order="fill stroke markers" d=" M 26 50 L 138 50 L 138 98 L 26 98 L 26 50 Z Z" stroke-miterlimit="10" stroke-dasharray=""/>
</g>
<g>
<rect fill="#D8F2FF" stroke="none" x="112" y="72" width="112" height="48" transform="matrix(1 0 0 1 -86 -22)"/>
</g>
<g>
<path fill="none" stroke="#000000" paint-order="fill stroke markers" d=" M 26 50 L 138 50 L 138 98 L 26 98 L 26 50 Z Z" stroke-miterlimit="10" stroke-dasharray=""/>
</g>
<g>
<g>
<path fill="none" stroke="none"/>
<text fill="#000000" stroke="none" font-family="Arial" font-size="13px" font-style="normal" font-weight="bold" text-decoration="undefined" x="168.5" y="85.5" text-anchor="middle" dominant-baseline="central" transform="matrix(1 0 0 1 -86 -22)">
Element</text>
<path fill="none" stroke="#000000" paint-order="fill stroke markers" d=" M 107.785888671875 70 L 57.214111328125 70" stroke-miterlimit="10" stroke-dasharray=""/>
</g>
</g>
<g>
<rect fill="#C0C0C0" stroke="none" x="119" y="143" width="112" height="48" transform="matrix(1 0 0 1 -86 -22)" fill-opacity="0.2"/>
</g>
<g>
<rect fill="#D8F2FF" stroke="none" x="112" y="136" width="112" height="48" transform="matrix(1 0 0 1 -86 -22)"/>
</g>
<g>
<path fill="none" stroke="#000000" paint-order="fill stroke markers" d=" M 26 114 L 138 114 L 138 162 L 26 162 L 26 114 Z Z" stroke-miterlimit="10" stroke-dasharray=""/>
</g>
<g>
<rect fill="#D8F2FF" stroke="none" x="112" y="136" width="112" height="48" transform="matrix(1 0 0 1 -86 -22)"/>
</g>
<g>
<path fill="none" stroke="#000000" paint-order="fill stroke markers" d=" M 26 114 L 138 114 L 138 162 L 26 162 L 26 114 Z Z" stroke-miterlimit="10" stroke-dasharray=""/>
</g>
<g>
<g>
<path fill="none" stroke="none"/>
<text fill="#000000" stroke="none" font-family="Arial" font-size="13px" font-style="normal" font-weight="bold" text-decoration="undefined" x="168.5" y="149.5" text-anchor="middle" dominant-baseline="central" transform="matrix(1 0 0 1 -86 -22)">
Element</text>
<path fill="none" stroke="#000000" paint-order="fill stroke markers" d=" M 107.785888671875 134 L 57.214111328125 134" stroke-miterlimit="10" stroke-dasharray=""/>
</g>
</g>
<g>
<rect fill="#C0C0C0" stroke="none" x="119" y="207" width="112" height="48" transform="matrix(1 0 0 1 -86 -22)" fill-opacity="0.2"/>
</g>
<g>
<rect fill="#D8F2FF" stroke="none" x="112" y="200" width="112" height="48" transform="matrix(1 0 0 1 -86 -22)"/>
</g>
<g>
<path fill="none" stroke="#000000" paint-order="fill stroke markers" d=" M 26 178 L 138 178 L 138 226 L 26 226 L 26 178 Z Z" stroke-miterlimit="10" stroke-dasharray=""/>
</g>
<g>
<rect fill="#D8F2FF" stroke="none" x="112" y="200" width="112" height="48" transform="matrix(1 0 0 1 -86 -22)"/>
</g>
<g>
<path fill="none" stroke="#000000" paint-order="fill stroke markers" d=" M 26 178 L 138 178 L 138 226 L 26 226 L 26 178 Z Z" stroke-miterlimit="10" stroke-dasharray=""/>
</g>
<g>
<g>
<path fill="none" stroke="none"/>
<text fill="#000000" stroke="none" font-family="Arial" font-size="13px" font-style="normal" font-weight="bold" text-decoration="undefined" x="168.5" y="213.5" text-anchor="middle" dominant-baseline="central" transform="matrix(1 0 0 1 -86 -22)">
Element</text>
<path fill="none" stroke="#000000" paint-order="fill stroke markers" d=" M 107.785888671875 198 L 57.214111328125 198" stroke-miterlimit="10" stroke-dasharray=""/>
</g>
</g>
<g>
<path fill="none" stroke="#000000" paint-order="fill stroke markers" d=" M 138 138 L 322 138" stroke-miterlimit="10" stroke-dasharray=""/>
</g>
<g>
<path fill="none" stroke="#000000" paint-order="fill stroke markers" d=" M 311.83732514237585 142.209517756016 L 322 138 L 311.83732514237585 133.790482243984" stroke-miterlimit="10" stroke-dasharray=""/>
</g>
<g>
<rect fill="#C0C0C0" stroke="none" x="927" y="63" width="144" height="112" transform="matrix(1 0 0 1 -86 -22)" fill-opacity="0.2"/>
</g>
<g>
<rect fill="#E2E2E2" stroke="none" x="920" y="56" width="144" height="112" transform="matrix(1 0 0 1 -86 -22)"/>
</g>
<g>
<path fill="none" stroke="#000000" paint-order="fill stroke markers" d=" M 834 34 L 978 34 L 978 146 L 834 146 L 834 34 Z Z" stroke-miterlimit="10" stroke-dasharray=""/>
</g>
<g>
<rect fill="#E2E2E2" stroke="none" x="920" y="56" width="144" height="112" transform="matrix(1 0 0 1 -86 -22)"/>
</g>
<g>
<path fill="none" stroke="#000000" paint-order="fill stroke markers" d=" M 834 34 L 978 34 L 978 146 L 834 146 L 834 34 Z Z" stroke-miterlimit="10" stroke-dasharray=""/>
</g>
<g>
<g>
<path fill="none" stroke="none"/>
<text fill="#000000" stroke="none" font-family="Arial" font-size="13px" font-style="normal" font-weight="bold" text-decoration="undefined" x="992.5" y="69.5" text-anchor="middle" dominant-baseline="central" transform="matrix(1 0 0 1 -86 -22)">
Loader</text>
<path fill="none" stroke="#000000" paint-order="fill stroke markers" d=" M 928.1708984375 54 L 884.8291015625 54" stroke-miterlimit="10" stroke-dasharray=""/>
</g>
</g>
<g>
<path fill="none" stroke="#000000" paint-order="fill stroke markers" d=" M 834 74 L 426 74 L 426 106" stroke-miterlimit="10" stroke-dasharray=""/>
</g>
<g>
<path fill="none" stroke="#000000" paint-order="fill stroke markers" d=" M 421.790482243984 95.83732514237585 L 426 106 L 430.209517756016 95.83732514237585" stroke-miterlimit="10" stroke-dasharray=""/>
</g>
<g>
<rect fill="#C0C0C0" stroke="none" x="367" y="679" width="144" height="112" transform="matrix(1 0 0 1 -86 -22)" fill-opacity="0.2"/>
</g>
<g>
<rect fill="#ffffff" stroke="none" x="360" y="672" width="144" height="112" transform="matrix(1 0 0 1 -86 -22)"/>
</g>
<g>
<path fill="none" stroke="#FF602B" paint-order="fill stroke markers" d=" M 274 650 L 418 650 L 418 762 L 274 762 L 274 650 Z Z" stroke-miterlimit="10" stroke-dasharray=""/>
</g>
<g>
<rect fill="#ffffff" stroke="none" x="360" y="672" width="144" height="112" transform="matrix(1 0 0 1 -86 -22)"/>
</g>
<g>
<path fill="none" stroke="#FF602B" paint-order="fill stroke markers" d=" M 274 650 L 418 650 L 418 762 L 274 762 L 274 650 Z Z" stroke-miterlimit="10" stroke-dasharray=""/>
</g>
<g>
<g>
<path fill="none" stroke="none"/>
<text fill="#000000" stroke="none" font-family="Arial" font-size="13px" font-style="normal" font-weight="bold" text-decoration="undefined" x="432.5" y="685.5" text-anchor="middle" dominant-baseline="central" transform="matrix(1 0 0 1 -86 -22)">
GUI</text>
<path fill="none" stroke="#000000" paint-order="fill stroke markers" d=" M 358.055908203125 670 L 334.944091796875 670" stroke-miterlimit="10" stroke-dasharray=""/>
</g>
</g>
<g>
<rect fill="#C0C0C0" stroke="none" x="615" y="679" width="144" height="112" transform="matrix(1 0 0 1 -86 -22)" fill-opacity="0.2"/>
</g>
<g>
<rect fill="#ffffff" stroke="none" x="608" y="672" width="144" height="112" transform="matrix(1 0 0 1 -86 -22)"/>
</g>
<g>
<path fill="none" stroke="#FF602B" paint-order="fill stroke markers" d=" M 522 650 L 666 650 L 666 762 L 522 762 L 522 650 Z Z" stroke-miterlimit="10" stroke-dasharray=""/>
</g>
<g>
<rect fill="#ffffff" stroke="none" x="608" y="672" width="144" height="112" transform="matrix(1 0 0 1 -86 -22)"/>
</g>
<g>
<path fill="none" stroke="#FF602B" paint-order="fill stroke markers" d=" M 522 650 L 666 650 L 666 762 L 522 762 L 522 650 Z Z" stroke-miterlimit="10" stroke-dasharray=""/>
</g>
<g>
<g>
<path fill="none" stroke="none"/>
<text fill="#000000" stroke="none" font-family="Arial" font-size="13px" font-style="normal" font-weight="bold" text-decoration="undefined" x="680.5" y="685.5" text-anchor="middle" dominant-baseline="central" transform="matrix(1 0 0 1 -86 -22)">
Field</text>
<path fill="none" stroke="#000000" paint-order="fill stroke markers" d=" M 609.667724609375 670 L 579.332275390625 670" stroke-miterlimit="10" stroke-dasharray=""/>
</g>
</g>
<g>
<rect fill="#C0C0C0" stroke="none" x="927" y="671" width="144" height="120" transform="matrix(1 0 0 1 -86 -22)" fill-opacity="0.2"/>
</g>
<g>
<rect fill="#ffffff" stroke="none" x="920" y="664" width="144" height="120" transform="matrix(1 0 0 1 -86 -22)"/>
</g>
<g>
<path fill="none" stroke="#FF602B" paint-order="fill stroke markers" d=" M 834 642 L 978 642 L 978 762 L 834 762 L 834 642 Z Z" stroke-miterlimit="10" stroke-dasharray=""/>
</g>
<g>
<rect fill="#ffffff" stroke="none" x="920" y="664" width="144" height="120" transform="matrix(1 0 0 1 -86 -22)"/>
</g>
<g>
<path fill="none" stroke="#FF602B" paint-order="fill stroke markers" d=" M 834 642 L 978 642 L 978 762 L 834 762 L 834 642 Z Z" stroke-miterlimit="10" stroke-dasharray=""/>
</g>
<g>
<g>
<path fill="none" stroke="none"/>
<text fill="#000000" stroke="none" font-family="Arial" font-size="13px" font-style="normal" font-weight="bold" text-decoration="undefined" x="992.5" y="677.5" text-anchor="middle" dominant-baseline="central" transform="matrix(1 0 0 1 -86 -22)">
Site Data</text>
<path fill="none" stroke="#000000" paint-order="fill stroke markers" d=" M 934.3154296875 662 L 878.6845703125 662" stroke-miterlimit="10" stroke-dasharray=""/>
</g>
</g>
<g>
<path fill="none" stroke="#FF602B" paint-order="fill stroke markers" d=" M 330 650 L 330 506" stroke-miterlimit="10" stroke-dasharray=""/>
</g>
<g>
<path fill="none" stroke="#FF602B" paint-order="fill stroke markers" d=" M 334.209517756016 516.1626748576241 L 330 506 L 325.790482243984 516.1626748576241" stroke-miterlimit="10" stroke-dasharray=""/>
</g>
<g>
<path fill="none" stroke="#FF602B" paint-order="fill stroke markers" d=" M 362 506 L 362 650" stroke-miterlimit="10" stroke-dasharray=""/>
</g>
<g>
<path fill="none" stroke="#FF602B" paint-order="fill stroke markers" d=" M 357.790482243984 639.8373251423759 L 362 650 L 366.209517756016 639.8373251423759" stroke-miterlimit="10" stroke-dasharray=""/>
</g>
<g>
<path fill="none" stroke="#FF602B" paint-order="fill stroke markers" d=" M 618 506 L 618 650" stroke-miterlimit="10" stroke-dasharray=""/>
</g>
<g>
<path fill="none" stroke="#FF602B" paint-order="fill stroke markers" d=" M 613.790482243984 639.8373251423759 L 618 650 L 622.209517756016 639.8373251423759" stroke-miterlimit="10" stroke-dasharray=""/>
</g>
<g>
<path fill="none" stroke="#FF602B" paint-order="fill stroke markers" d=" M 586 650 L 586 506" stroke-miterlimit="10" stroke-dasharray=""/>
</g>
<g>
<path fill="none" stroke="#FF602B" paint-order="fill stroke markers" d=" M 590.209517756016 516.1626748576241 L 586 506 L 581.790482243984 516.1626748576241" stroke-miterlimit="10" stroke-dasharray=""/>
</g>
<g>
<path fill="none" stroke="#FF602B" paint-order="fill stroke markers" d=" M 890 642 L 890 146" stroke-miterlimit="10" stroke-dasharray=""/>
</g>
<g>
<path fill="none" stroke="#FF602B" paint-order="fill stroke markers" d=" M 894.209517756016 156.16267485762415 L 890 146 L 885.790482243984 156.16267485762415" stroke-miterlimit="10" stroke-dasharray=""/>
</g>
<g>
<path fill="none" stroke="#FF602B" paint-order="fill stroke markers" d=" M 922 146 L 922 642" stroke-miterlimit="10" stroke-dasharray=""/>
</g>
<g>
<path fill="none" stroke="#FF602B" paint-order="fill stroke markers" d=" M 917.790482243984 631.8373251423759 L 922 642 L 926.209517756016 631.8373251423759" stroke-miterlimit="10" stroke-dasharray=""/>
</g>
<g>
<path fill="none" stroke="#000000" paint-order="fill stroke markers" d=" M 834 106 L 794 106 L 794 266" stroke-miterlimit="10" stroke-dasharray=""/>
</g>
<g>
<path fill="none" stroke="#000000" paint-order="fill stroke markers" d=" M 789.790482243984 255.83732514237585 L 794 266 L 798.209517756016 255.83732514237585" stroke-miterlimit="10" stroke-dasharray=""/>
</g>
</g>
</svg>
