<svg version="1.1" xmlns="http://www.w3.org/2000/svg" xmlns:xlink="http://www.w3.org/1999/xlink" width="1157" height="772">
<defs/>
<g>
<g>
<rect fill="#C0C0C0" stroke="none" x="415" y="135" width="144" height="112" transform="matrix(1 0 0 1 -86 -22)" fill-opacity="0.2"/>
</g>
<g>
<rect fill="#D8F2FF" stroke="none" x="408" y="128" width="144" height="112" transform="matrix(1 0 0 1 -86 -22)"/>
</g>
<g>
<path fill="none" stroke="#000000" paint-order="fill stroke markers" d=" M 322 106 L 466 106 L 466 218 L 322 218 L 322 106 Z Z" stroke-miterlimit="10" stroke-dasharray=""/>
</g>
<g>
<rect fill="#D8F2FF" stroke="none" x="408" y="128" width="144" height="112" transform="matrix(1 0 0 1 -86 -22)"/>
</g>
<g>
<path fill="none" stroke="#000000" paint-order="fill stroke markers" d=" M 322 106 L 466 106 L 466 218 L 322 218 L 322 106 Z Z" stroke-miterlimit="10" stroke-dasharray=""/>
</g>
<g>
<g>
<path fill="none" stroke="none"/>
<text fill="#000000" stroke="none" font-family="Arial" font-size="13px" font-style="normal" font-weight="bold" text-decoration="undefined" x="480.5" y="141.5" text-anchor="middle" dominant-baseline="central" transform="matrix(1 0 0 1 -86 -22)">
TSW Hub</text>
<path fill="none" stroke="#000000" paint-order="fill stroke markers" d=" M 423.3818359375 126 L 365.6181640625 126" stroke-miterlimit="10" stroke-dasharray=""/>
</g>
</g>
<g>
<rect fill="#C0C0C0" stroke="none" x="783" y="295" width="144" height="112" transform="matrix(1 0 0 1 -86 -22)" fill-opacity="0.2"/>
</g>
<g>
<rect fill="#E2E2E2" stroke="none" x="776" y="288" width="144" height="112" transform="matrix(1 0 0 1 -86 -22)"/>
</g>
<g>
<path fill="none" stroke="#000000" paint-order="fill stroke markers" d=" M 690 266 L 834 266 L 834 378 L 690 378 L 690 266 Z Z" stroke-miterlimit="10" stroke-dasharray=""/>
</g>
<g>
<rect fill="#E2E2E2" stroke="none" x="776" y="288" width="144" height="112" transform="matrix(1 0 0 1 -86 -22)"/>
</g>
<g>
<path fill="none" stroke="#000000" paint-order="fill stroke markers" d=" M 690 266 L 834 266 L 834 378 L 690 378 L 690 266 Z Z" stroke-miterlimit="10" stroke-dasharray=""/>
</g>
<g>
<g>
<path fill="none" stroke="none"/>
<text fill="#000000" stroke="none" font-family="Arial" font-size="13px" font-style="normal" font-weight="bold" text-decoration="undefined" x="848.5" y="301.5" text-anchor="middle" dominant-baseline="central" transform="matrix(1 0 0 1 -86 -22)">
Dispatcher</text>
<path fill="none" stroke="#000000" paint-order="fill stroke markers" d=" M 796.094970703125 286 L 728.905029296875 286" stroke-miterlimit="10" stroke-dasharray=""/>
</g>
</g>
<g>
<rect fill="#C0C0C0" stroke="none" x="103" y="39" width="144" height="344" transform="matrix(1 0 0 1 -86 -22)" fill-opacity="0.2"/>
</g>
<g>
<rect fill="#D8F2FF" stroke="none" x="96" y="32" width="144" height="344" transform="matrix(1 0 0 1 -86 -22)"/>
</g>
<g>
<path fill="none" stroke="#000000" paint-order="fill stroke markers" d=" M 10 10 L 154 10 L 154 354 L 10 354 L 10 10 Z Z" stroke-miterlimit="10" stroke-dasharray=""/>
</g>
<g>
<rect fill="#D8F2FF" stroke="none" x="96" y="32" width="144" height="344" transform="matrix(1 0 0 1 -86 -22)"/>
</g>
<g>
<path fill="none" stroke="#000000" paint-order="fill stroke markers" d=" M 10 10 L 154 10 L 154 354 L 10 354 L 10 10 Z Z" stroke-miterlimit="10" stroke-dasharray=""/>
</g>
<g>
<g>
<path fill="none" stroke="none"/>
<text fill="#000000" stroke="none" font-family="Arial" font-size="13px" font-style="normal" font-weight="bold" text-decoration="undefined" x="168.5" y="45.5" text-anchor="middle" dominant-baseline="central" transform="matrix(1 0 0 1 -86 -22)">
TSW Provider</text>
<path fill="none" stroke="#000000" paint-order="fill stroke markers" d=" M 125.1181640625 30 L 39.8818359375 30" stroke-miterlimit="10" stroke-dasharray=""/>
</g>
</g>
<g>
<path fill="none" stroke="#000000" paint-order="fill stroke markers" d=" M 378 106 L 378 74 L 154 74" stroke-miterlimit="10" stroke-dasharray=""/>
</g>
<g>
<path fill="none" stroke="#000000" paint-order="fill stroke markers" d=" M 164.16267485762415 69.79048224398402 L 154 74 L 164.16267485762415 78.20951775601598" stroke-miterlimit="10" stroke-dasharray=""/>
</g>
<g>
<path fill="none" stroke="#000000" paint-order="fill stroke markers" d=" M 762 266 L 762 138 L 466 138" stroke-miterlimit="10" stroke-dasharray=""/>
</g>
<g>
<path fill="none" stroke="#000000" paint-order="fill stroke markers" d=" M 476.1626748576241 133.790482243984 L 466 138 L 476.1626748576241 142.209517756016" stroke-miterlimit="10" stroke-dasharray=""/>
</g>
<g>
<path fill="none" stroke="#000000" paint-order="fill stroke markers" d=" M 466 170 L 730 170 L 730 266" stroke-miterlimit="10" stroke-dasharray=""/>
</g>
<g>
<path fill="none" stroke="#000000" paint-order="fill stroke markers" d=" M 725.790482243984 255.83732514237585 L 730 266 L 734.209517756016 255.83732514237585" stroke-miterlimit="10" stroke-dasharray=""/>
</g>
<g>
<rect fill="#C0C0C0" stroke="none" x="375" y="423" width="144" height="112" transform="matrix(1 0 0 1 -86 -22)" fill-opacity="0.2"/>
</g>
<g>
<rect fill="#E2E2E2" stroke="none" x="368" y="416" width="144" height="112" transform="matrix(1 0 0 1 -86 -22)"/>
</g>
<g>
<path fill="none" stroke="#000000" paint-order="fill stroke markers" d=" M 282 394 L 426 394 L 426 506 L 282 506 L 282 394 Z Z" stroke-miterlimit="10" stroke-dasharray=""/>
</g>
<g>
<rect fill="#E2E2E2" stroke="none" x="368" y="416" width="144" height="112" transform="matrix(1 0 0 1 -86 -22)"/>
</g>
<g>
<path fill="none" stroke="#000000" paint-order="fill stroke markers" d=" M 282 394 L 426 394 L 426 506 L 282 506 L 282 394 Z Z" stroke-miterlimit="10" stroke-dasharray=""/>
</g>
<g>
<g>
<path fill="none" stroke="none"/>
<text fill="#000000" stroke="none" font-family="Arial" font-size="13px" font-style="normal" font-weight="bold" text-decoration="undefined" x="440.5" y="429.5" text-anchor="middle" dominant-baseline="central" transform="matrix(1 0 0 1 -86 -22)">
GuiCom</text>
<path fill="none" stroke="#000000" paint-order="fill stroke markers" d=" M 379.7763671875 414 L 329.2236328125 414" stroke-miterlimit="10" stroke-dasharray=""/>
</g>
</g>
<g>
<rect fill="#C0C0C0" stroke="none" x="599" y="423" width="144" height="112" transform="matrix(1 0 0 1 -86 -22)" fill-opacity="0.2"/>
</g>
<g>
<rect fill="#E2E2E2" stroke="none" x="592" y="416" width="144" height="112" transform="matrix(1 0 0 1 -86 -22)"/>
</g>
<g>
<path fill="none" stroke="#000000" paint-order="fill stroke markers" d=" M 506 394 L 650 394 L 650 506 L 506 506 L 506 394 Z Z" stroke-miterlimit="10" stroke-dasharray=""/>
</g>
<g>
<rect fill="#E2E2E2" stroke="none" x="592" y="416" width="144" height="112" transform="matrix(1 0 0 1 -86 -22)"/>
</g>
<g>
<path fill="none" stroke="#000000" paint-order="fill stroke markers" d=" M 506 394 L 650 394 L 650 506 L 506 506 L 506 394 Z Z" stroke-miterlimit="10" stroke-dasharray=""/>
</g>
<g>
<g>
<path fill="none" stroke="none"/>
<text fill="#000000" stroke="none" font-family="Arial" font-size="13px" font-style="normal" font-weight="bold" text-decoration="undefined" x="664.5" y="429.5" text-anchor="middle" dominant-baseline="central" transform="matrix(1 0 0 1 -86 -22)">
FldCom</text>
<path fill="none" stroke="#000000" paint-order="fill stroke markers" d=" M 602.69091796875 414 L 554.30908203125 414" stroke-miterlimit="10" stroke-dasharray=""/>
</g>
</g>
<g>
<path fill="none" stroke="#000000" paint-order="fill stroke markers" d=" M 322 202 L 218 202 L 218 450 L 282 450" stroke-miterlimit="10" stroke-dasharray=""/>
</g>
<g>
<path fill="none" stroke="#000000" paint-order="fill stroke markers" d=" M 271.83732514237585 454.209517756016 L 282 450 L 271.83732514237585 445.790482243984" stroke-miterlimit="10" stroke-dasharray=""/>
</g>
<g>
<path fill="none" stroke="#000000" paint-order="fill stroke markers" d=" M 322 170 L 194 170 L 194 554 L 554 554 L 554 506" stroke-miterlimit="10" stroke-dasharray=""/>
</g>
<g>
<path fill="none" stroke="#000000" paint-order="fill stroke markers" d=" M 558.209517756016 516.1626748576241 L 554 506 L 549.790482243984 516.1626748576241" stroke-miterlimit="10" stroke-dasharray=""/>
</g>
<g>
<path fill="none" stroke="#000000" paint-order="fill stroke markers" d=" M 354 394 L 354 322 L 690 322" stroke-miterlimit="10" stroke-dasharray=""/>
</g>
<g>
<path fill="none" stroke="#000000" paint-order="fill stroke markers" d=" M 679.8373251423759 326.209517756016 L 690 322 L 679.8373251423758 317.790482243984" stroke-miterlimit="10" stroke-dasharray=""/>
</g>
<g>
<path fill="none" stroke="#000000" paint-order="fill stroke markers" d=" M 650 450 L 762 450 L 762 378" stroke-miterlimit="10" stroke-dasharray=""/>
</g>
<g>
<path fill="none" stroke="#000000" paint-order="fill stroke markers" d=" M 766.209517756016 388.16267485762415 L 762 378 L 757.790482243984 388.16267485762415" stroke-miterlimit="10" stroke-dasharray=""/>
</g>
<g>
<rect fill="#C0C0C0" stroke="none" x="119" y="79" width="112" height="48" transform="matrix(1 0 0 1 -86 -22)" fill-opacity="0.2"/>
</g>
<g>
<rect fill="#D8F2FF" stroke="none" x="112" y="72" width="112" height="48" transform="matrix(1 0 0 1 -86 -22)"/>
</g>
<g>
<path fill="none" stroke="#000000" paint-order="fill stroke markers" d=" M 26 50 L 138 50 L 138 98 L 26 98 L 26 50 Z Z" stroke-miterlimit="10" stroke-dasharray=""/>
</g>
<g>
<rect fill="#D8F2FF" stroke="none" x="112" y="72" width="112" height="48" transform="matrix(1 0 0 1 -86 -22)"/>
</g>
<g>
<path fill="none" stroke="#000000" paint-order="fill stroke markers" d=" M 26 50 L 138 50 L 138 98 L 26 98 L 26 50 Z Z" stroke-miterlimit="10" stroke-dasharray=""/>
</g>
<g>
<g>
<path fill="none" stroke="none"/>
<text fill="#000000" stroke="none" font-family="Arial" font-size="13px" font-style="normal" font-weight="bold" text-decoration="undefined" x="168.5" y="85.5" text-anchor="middle" dominant-baseline="central" transform="matrix(1 0 0 1 -86 -22)">
TSW</text>
<path fill="none" stroke="#000000" paint-order="fill stroke markers" d=" M 96.94091796875 70 L 68.05908203125 70" stroke-miterlimit="10" stroke-dasharray=""/>
</g>
</g>
<g>
<rect fill="#C0C0C0" stroke="none" x="119" y="143" width="112" height="48" transform="matrix(1 0 0 1 -86 -22)" fill-opacity="0.2"/>
</g>
<g>
<rect fill="#D8F2FF" stroke="none" x="112" y="136" width="112" height="48" transform="matrix(1 0 0 1 -86 -22)"/>
</g>
<g>
<path fill="none" stroke="#000000" paint-order="fill stroke markers" d=" M 26 114 L 138 114 L 138 162 L 26 162 L 26 114 Z Z" stroke-miterlimit="10" stroke-dasharray=""/>
</g>
<g>
<rect fill="#D8F2FF" stroke="none" x="112" y="136" width="112" height="48" transform="matrix(1 0 0 1 -86 -22)"/>
</g>
<g>
<path fill="none" stroke="#000000" paint-order="fill stroke markers" d=" M 26 114 L 138 114 L 138 162 L 26 162 L 26 114 Z Z" stroke-miterlimit="10" stroke-dasharray=""/>
</g>
<g>
<g>
<path fill="none" stroke="none"/>
<text fill="#000000" stroke="none" font-family="Arial" font-size="13px" font-style="normal" font-weight="bold" text-decoration="undefined" x="168.5" y="149.5" text-anchor="middle" dominant-baseline="central" transform="matrix(1 0 0 1 -86 -22)">
TSW</text>
<path fill="none" stroke="#000000" paint-order="fill stroke markers" d=" M 96.94091796875 134 L 68.05908203125 134" stroke-miterlimit="10" stroke-dasharray=""/>
</g>
</g>
<g>
<rect fill="#C0C0C0" stroke="none" x="119" y="207" width="112" height="48" transform="matrix(1 0 0 1 -86 -22)" fill-opacity="0.2"/>
</g>
<g>
<rect fill="#D8F2FF" stroke="none" x="112" y="200" width="112" height="48" transform="matrix(1 0 0 1 -86 -22)"/>
</g>
<g>
<path fill="none" stroke="#000000" paint-order="fill stroke markers" d=" M 26 178 L 138 178 L 138 226 L 26 226 L 26 178 Z Z" stroke-miterlimit="10" stroke-dasharray=""/>
</g>
<g>
<rect fill="#D8F2FF" stroke="none" x="112" y="200" width="112" height="48" transform="matrix(1 0 0 1 -86 -22)"/>
</g>
<g>
<path fill="none" stroke="#000000" paint-order="fill stroke markers" d=" M 26 178 L 138 178 L 138 226 L 26 226 L 26 178 Z Z" stroke-miterlimit="10" stroke-dasharray=""/>
</g>
<g>
<g>
<path fill="none" stroke="none"/>
<text fill="#000000" stroke="none" font-family="Arial" font-size="13px" font-style="normal" font-weight="bold" text-decoration="undefined" x="168.5" y="213.5" text-anchor="middle" dominant-baseline="central" transform="matrix(1 0 0 1 -86 -22)">
TSW</text>
<path fill="none" stroke="#000000" paint-order="fill stroke markers" d=" M 96.94091796875 198 L 68.05908203125 198" stroke-miterlimit="10" stroke-dasharray=""/>
</g>
</g>
<g>
<path fill="none" stroke="#000000" paint-order="fill stroke markers" d=" M 138 138 L 322 138" stroke-miterlimit="10" stroke-dasharray=""/>
</g>
<g>
<path fill="none" stroke="#000000" paint-order="fill stroke markers" d=" M 311.83732514237585 142.209517756016 L 322 138 L 311.83732514237585 133.790482243984" stroke-miterlimit="10" stroke-dasharray=""/>
</g>
<g>
<rect fill="#C0C0C0" stroke="none" x="935" y="63" width="144" height="112" transform="matrix(1 0 0 1 -86 -22)" fill-opacity="0.2"/>
</g>
<g>
<rect fill="#E2E2E2" stroke="none" x="928" y="56" width="144" height="112" transform="matrix(1 0 0 1 -86 -22)"/>
</g>
<g>
<path fill="none" stroke="#000000" paint-order="fill stroke markers" d=" M 842 34 L 986 34 L 986 146 L 842 146 L 842 34 Z Z" stroke-miterlimit="10" stroke-dasharray=""/>
</g>
<g>
<rect fill="#E2E2E2" stroke="none" x="928" y="56" width="144" height="112" transform="matrix(1 0 0 1 -86 -22)"/>
</g>
<g>
<path fill="none" stroke="#000000" paint-order="fill stroke markers" d=" M 842 34 L 986 34 L 986 146 L 842 146 L 842 34 Z Z" stroke-miterlimit="10" stroke-dasharray=""/>
</g>
<g>
<g>
<path fill="none" stroke="none"/>
<text fill="#000000" stroke="none" font-family="Arial" font-size="13px" font-style="normal" font-weight="bold" text-decoration="undefined" x="1000.5" y="69.5" text-anchor="middle" dominant-baseline="central" transform="matrix(1 0 0 1 -86 -22)">
Loader</text>
<path fill="none" stroke="#000000" paint-order="fill stroke markers" d=" M 936.1708984375 54 L 892.8291015625 54" stroke-miterlimit="10" stroke-dasharray=""/>
</g>
</g>
<g>
<path fill="none" stroke="#000000" paint-order="fill stroke markers" d=" M 842 74 L 410 74 L 410 106" stroke-miterlimit="10" stroke-dasharray=""/>
</g>
<g>
<path fill="none" stroke="#000000" paint-order="fill stroke markers" d=" M 405.790482243984 95.83732514237585 L 410 106 L 414.209517756016 95.83732514237585" stroke-miterlimit="10" stroke-dasharray=""/>
</g>
<g>
<rect fill="#C0C0C0" stroke="none" x="367" y="679" width="144" height="112" transform="matrix(1 0 0 1 -86 -22)" fill-opacity="0.2"/>
</g>
<g>
<rect fill="#ffffff" stroke="none" x="360" y="672" width="144" height="112" transform="matrix(1 0 0 1 -86 -22)"/>
</g>
<g>
<path fill="none" stroke="#FF602B" paint-order="fill stroke markers" d=" M 274 650 L 418 650 L 418 762 L 274 762 L 274 650 Z Z" stroke-miterlimit="10" stroke-dasharray=""/>
</g>
<g>
<rect fill="#ffffff" stroke="none" x="360" y="672" width="144" height="112" transform="matrix(1 0 0 1 -86 -22)"/>
</g>
<g>
<path fill="none" stroke="#FF602B" paint-order="fill stroke markers" d=" M 274 650 L 418 650 L 418 762 L 274 762 L 274 650 Z Z" stroke-miterlimit="10" stroke-dasharray=""/>
</g>
<g>
<g>
<path fill="none" stroke="none"/>
<text fill="#000000" stroke="none" font-family="Arial" font-size="13px" font-style="normal" font-weight="bold" text-decoration="undefined" x="432.5" y="685.5" text-anchor="middle" dominant-baseline="central" transform="matrix(1 0 0 1 -86 -22)">
GUI</text>
<path fill="none" stroke="#000000" paint-order="fill stroke markers" d=" M 358.055908203125 670 L 334.944091796875 670" stroke-miterlimit="10" stroke-dasharray=""/>
</g>
</g>
<g>
<rect fill="#C0C0C0" stroke="none" x="623" y="679" width="144" height="112" transform="matrix(1 0 0 1 -86 -22)" fill-opacity="0.2"/>
</g>
<g>
<rect fill="#ffffff" stroke="none" x="616" y="672" width="144" height="112" transform="matrix(1 0 0 1 -86 -22)"/>
</g>
<g>
<path fill="none" stroke="#FF602B" paint-order="fill stroke markers" d=" M 530 650 L 674 650 L 674 762 L 530 762 L 530 650 Z Z" stroke-miterlimit="10" stroke-dasharray=""/>
</g>
<g>
<rect fill="#ffffff" stroke="none" x="616" y="672" width="144" height="112" transform="matrix(1 0 0 1 -86 -22)"/>
</g>
<g>
<path fill="none" stroke="#FF602B" paint-order="fill stroke markers" d=" M 530 650 L 674 650 L 674 762 L 530 762 L 530 650 Z Z" stroke-miterlimit="10" stroke-dasharray=""/>
</g>
<g>
<g>
<path fill="none" stroke="none"/>
<text fill="#000000" stroke="none" font-family="Arial" font-size="13px" font-style="normal" font-weight="bold" text-decoration="undefined" x="688.5" y="685.5" text-anchor="middle" dominant-baseline="central" transform="matrix(1 0 0 1 -86 -22)">
Field</text>
<path fill="none" stroke="#000000" paint-order="fill stroke markers" d=" M 617.667724609375 670 L 587.332275390625 670" stroke-miterlimit="10" stroke-dasharray=""/>
</g>
</g>
<g>
<rect fill="#C0C0C0" stroke="none" x="935" y="679" width="144" height="112" transform="matrix(1 0 0 1 -86 -22)" fill-opacity="0.2"/>
</g>
<g>
<rect fill="#ffffff" stroke="none" x="928" y="672" width="144" height="112" transform="matrix(1 0 0 1 -86 -22)"/>
</g>
<g>
<path fill="none" stroke="#FF602B" paint-order="fill stroke markers" d=" M 842 650 L 986 650 L 986 762 L 842 762 L 842 650 Z Z" stroke-miterlimit="10" stroke-dasharray=""/>
</g>
<g>
<rect fill="#ffffff" stroke="none" x="928" y="672" width="144" height="112" transform="matrix(1 0 0 1 -86 -22)"/>
</g>
<g>
<path fill="none" stroke="#FF602B" paint-order="fill stroke markers" d=" M 842 650 L 986 650 L 986 762 L 842 762 L 842 650 Z Z" stroke-miterlimit="10" stroke-dasharray=""/>
</g>
<g>
<g>
<path fill="none" stroke="none"/>
<text fill="#000000" stroke="none" font-family="Arial" font-size="13px" font-style="normal" font-weight="bold" text-decoration="undefined" x="1000.5" y="685.5" text-anchor="middle" dominant-baseline="central" transform="matrix(1 0 0 1 -86 -22)">
Storage</text>
<path fill="none" stroke="#000000" paint-order="fill stroke markers" d=" M 938.700439453125 670 L 890.299560546875 670" stroke-miterlimit="10" stroke-dasharray=""/>
</g>
</g>
<g>
<path fill="none" stroke="#FF602B" paint-order="fill stroke markers" d=" M 338 650 L 338 506" stroke-miterlimit="10" stroke-dasharray=""/>
</g>
<g>
<path fill="none" stroke="#FF602B" paint-order="fill stroke markers" d=" M 342.209517756016 516.1626748576241 L 338 506 L 333.790482243984 516.1626748576241" stroke-miterlimit="10" stroke-dasharray=""/>
</g>
<g>
<path fill="none" stroke="#FF602B" paint-order="fill stroke markers" d=" M 370 506 L 370 650" stroke-miterlimit="10" stroke-dasharray=""/>
</g>
<g>
<path fill="none" stroke="#FF602B" paint-order="fill stroke markers" d=" M 365.790482243984 639.8373251423759 L 370 650 L 374.209517756016 639.8373251423759" stroke-miterlimit="10" stroke-dasharray=""/>
</g>
<g>
<path fill="none" stroke="#FF602B" paint-order="fill stroke markers" d=" M 618 506 L 618 650" stroke-miterlimit="10" stroke-dasharray=""/>
</g>
<g>
<path fill="none" stroke="#FF602B" paint-order="fill stroke markers" d=" M 613.790482243984 639.8373251423759 L 618 650 L 622.209517756016 639.8373251423759" stroke-miterlimit="10" stroke-dasharray=""/>
</g>
<g>
<path fill="none" stroke="#FF602B" paint-order="fill stroke markers" d=" M 586 650 L 586 506" stroke-miterlimit="10" stroke-dasharray=""/>
</g>
<g>
<path fill="none" stroke="#FF602B" paint-order="fill stroke markers" d=" M 590.209517756016 516.1626748576241 L 586 506 L 581.790482243984 516.1626748576241" stroke-miterlimit="10" stroke-dasharray=""/>
</g>
<g>
<path fill="none" stroke="#FF602B" paint-order="fill stroke markers" d=" M 914 506 L 914 650" stroke-miterlimit="10" stroke-dasharray=""/>
</g>
<g>
<path fill="none" stroke="#FF602B" paint-order="fill stroke markers" d=" M 909.790482243984 639.8373251423759 L 914 650 L 918.209517756016 639.8373251423759" stroke-miterlimit="10" stroke-dasharray=""/>
</g>
<g>
<path fill="none" stroke="#000000" paint-order="fill stroke markers" d=" M 842 106 L 794 106 L 794 266" stroke-miterlimit="10" stroke-dasharray=""/>
</g>
<g>
<path fill="none" stroke="#000000" paint-order="fill stroke markers" d=" M 789.790482243984 255.83732514237585 L 794 266 L 798.209517756016 255.83732514237585" stroke-miterlimit="10" stroke-dasharray=""/>
</g>
<g>
<rect fill="#C0C0C0" stroke="none" x="935" y="423" width="144" height="112" transform="matrix(1 0 0 1 -86 -22)" fill-opacity="0.2"/>
</g>
<g>
<rect fill="#E2E2E2" stroke="none" x="928" y="416" width="144" height="112" transform="matrix(1 0 0 1 -86 -22)"/>
</g>
<g>
<path fill="none" stroke="#000000" paint-order="fill stroke markers" d=" M 842 394 L 986 394 L 986 506 L 842 506 L 842 394 Z Z" stroke-miterlimit="10" stroke-dasharray=""/>
</g>
<g>
<rect fill="#E2E2E2" stroke="none" x="928" y="416" width="144" height="112" transform="matrix(1 0 0 1 -86 -22)"/>
</g>
<g>
<path fill="none" stroke="#000000" paint-order="fill stroke markers" d=" M 842 394 L 986 394 L 986 506 L 842 506 L 842 394 Z Z" stroke-miterlimit="10" stroke-dasharray=""/>
</g>
<g>
<g>
<path fill="none" stroke="none"/>
<text fill="#000000" stroke="none" font-family="Arial" font-size="13px" font-style="normal" font-weight="bold" text-decoration="undefined" x="1000.5" y="429.5" text-anchor="middle" dominant-baseline="central" transform="matrix(1 0 0 1 -86 -22)">
Reader</text>
<path fill="none" stroke="#000000" paint-order="fill stroke markers" d=" M 936.5390625 414 L 892.4609375 414" stroke-miterlimit="10" stroke-dasharray=""/>
</g>
</g>
<g>
<rect fill="#C0C0C0" stroke="none" x="1095" y="295" width="144" height="112" transform="matrix(1 0 0 1 -86 -22)" fill-opacity="0.2"/>
</g>
<g>
<rect fill="#E2E2E2" stroke="none" x="1088" y="288" width="144" height="112" transform="matrix(1 0 0 1 -86 -22)"/>
</g>
<g>
<path fill="none" stroke="#000000" paint-order="fill stroke markers" d=" M 1002 266 L 1146 266 L 1146 378 L 1002 378 L 1002 266 Z Z" stroke-miterlimit="10" stroke-dasharray=""/>
</g>
<g>
<rect fill="#E2E2E2" stroke="none" x="1088" y="288" width="144" height="112" transform="matrix(1 0 0 1 -86 -22)"/>
</g>
<g>
<path fill="none" stroke="#000000" paint-order="fill stroke markers" d=" M 1002 266 L 1146 266 L 1146 378 L 1002 378 L 1002 266 Z Z" stroke-miterlimit="10" stroke-dasharray=""/>
</g>
<g>
<g>
<path fill="none" stroke="none"/>
<text fill="#000000" stroke="none" font-family="Arial" font-size="13px" font-style="normal" font-weight="bold" text-decoration="undefined" x="1160.5" y="301.5" text-anchor="middle" dominant-baseline="central" transform="matrix(1 0 0 1 -86 -22)">
Startup</text>
<path fill="none" stroke="#000000" paint-order="fill stroke markers" d=" M 1097.25 286 L 1051.75 286" stroke-miterlimit="10" stroke-dasharray=""/>
</g>
</g>
<g>
<path fill="none" stroke="#000000" paint-order="fill stroke markers" d=" M 1082 378 L 1082 450 L 986 450" stroke-miterlimit="10" stroke-dasharray=""/>
</g>
<g>
<path fill="none" stroke="#000000" paint-order="fill stroke markers" d=" M 996.1626748576241 445.790482243984 L 986 450 L 996.1626748576241 454.209517756016" stroke-miterlimit="10" stroke-dasharray=""/>
</g>
<g>
<path fill="none" stroke="#000000" paint-order="fill stroke markers" d=" M 914 394 L 914 146" stroke-miterlimit="10" stroke-dasharray=""/>
</g>
<g>
<path fill="none" stroke="#000000" paint-order="fill stroke markers" d=" M 918.209517756016 156.16267485762415 L 914 146 L 909.790482243984 156.16267485762415" stroke-miterlimit="10" stroke-dasharray=""/>
</g>
</g>
</svg>
