<?xml version="1.0" encoding="UTF-8" standalone="no"?>
<!DOCTYPE svg PUBLIC "-//W3C//DTD SVG 1.1//EN" "http://www.w3.org/Graphics/SVG/1.1/DTD/svg11.dtd">
<svg width="100%" height="100%" viewBox="0 0 1157 772" version="1.1" xmlns="http://www.w3.org/2000/svg" xmlns:xlink="http://www.w3.org/1999/xlink" xml:space="preserve" xmlns:serif="http://www.serif.com/" style="fill-rule:evenodd;clip-rule:evenodd;stroke-miterlimit:10;">
    <g>
        <g transform="matrix(1,0,0,1,-86,-22)">
            <rect x="415" y="135" width="144" height="112" style="fill:rgb(192,192,192);fill-opacity:0.2;"/>
        </g>
        <g transform="matrix(1,0,0,1,-86,-22)">
            <rect x="408" y="128" width="144" height="112" style="fill:rgb(216,242,255);"/>
        </g>
        <g>
            <rect x="322" y="106" width="144" height="112" style="fill:none;fill-rule:nonzero;stroke:black;stroke-width:1px;"/>
        </g>
        <g transform="matrix(1,0,0,1,-86,-22)">
            <rect x="408" y="128" width="144" height="112" style="fill:rgb(216,242,255);"/>
        </g>
        <g>
            <rect x="322" y="106" width="144" height="112" style="fill:none;fill-rule:nonzero;stroke:black;stroke-width:1px;"/>
        </g>
        <g>
            <g>
                <g transform="matrix(1,0,0,1,394.5,119.5)">
                    <text x="-28.882px" y="0px" style="font-family:'Arial-BoldMT', 'Arial', sans-serif;font-weight:700;font-size:13px;">
TSW Hub</text>
                </g>
                <path d="M423.382,126L365.618,126" style="fill:none;fill-rule:nonzero;stroke:black;stroke-width:1px;"/>
            </g>
        </g>
        <g transform="matrix(1,0,0,1,-86,-22)">
            <rect x="783" y="295" width="144" height="112" style="fill:rgb(192,192,192);fill-opacity:0.2;"/>
        </g>
        <g transform="matrix(1,0,0,1,-86,-22)">
            <rect x="776" y="288" width="144" height="112" style="fill:rgb(226,226,226);"/>
        </g>
        <g>
            <rect x="690" y="266" width="144" height="112" style="fill:none;fill-rule:nonzero;stroke:black;stroke-width:1px;"/>
        </g>
        <g transform="matrix(1,0,0,1,-86,-22)">
            <rect x="776" y="288" width="144" height="112" style="fill:rgb(226,226,226);"/>
        </g>
        <g>
            <rect x="690" y="266" width="144" height="112" style="fill:none;fill-rule:nonzero;stroke:black;stroke-width:1px;"/>
        </g>
        <g>
            <g>
                <g transform="matrix(1,0,0,1,762.5,279.5)">
                    <text x="-33.595px" y="0px" style="font-family:'Arial-BoldMT', 'Arial', sans-serif;font-weight:700;font-size:13px;">
Dispatcher</text>
                </g>
                <path d="M796.095,286L728.905,286" style="fill:none;fill-rule:nonzero;stroke:black;stroke-width:1px;"/>
            </g>
        </g>
        <g transform="matrix(1,0,0,1,-86,-22)">
            <rect x="103" y="39" width="144" height="344" style="fill:rgb(192,192,192);fill-opacity:0.2;"/>
        </g>
        <g transform="matrix(1,0,0,1,-86,-22)">
            <rect x="96" y="32" width="144" height="344" style="fill:rgb(216,242,255);"/>
        </g>
        <g>
            <rect x="10" y="10" width="144" height="344" style="fill:none;fill-rule:nonzero;stroke:black;stroke-width:1px;"/>
        </g>
        <g transform="matrix(1,0,0,1,-86,-22)">
            <rect x="96" y="32" width="144" height="344" style="fill:rgb(216,242,255);"/>
        </g>
        <g>
            <rect x="10" y="10" width="144" height="344" style="fill:none;fill-rule:nonzero;stroke:black;stroke-width:1px;"/>
        </g>
        <g>
            <g>
                <g transform="matrix(1,0,0,1,82.5,23.5)">
                    <text x="-42.618px" y="0px" style="font-family:'Arial-BoldMT', 'Arial', sans-serif;font-weight:700;font-size:13px;">
TSW Provider</text>
                </g>
                <path d="M125.118,30L39.882,30" style="fill:none;fill-rule:nonzero;stroke:black;stroke-width:1px;"/>
            </g>
        </g>
        <g>
            <path d="M378,106L378,74L154,74" style="fill:none;fill-rule:nonzero;stroke:black;stroke-width:1px;"/>
        </g>
        <g>
            <path d="M164.163,69.79L154,74L164.163,78.21" style="fill:none;fill-rule:nonzero;stroke:black;stroke-width:1px;"/>
        </g>
        <g>
            <path d="M762,266L762,138L466,138" style="fill:none;fill-rule:nonzero;stroke:black;stroke-width:1px;"/>
        </g>
        <g>
            <path d="M476.163,133.79L466,138L476.163,142.21" style="fill:none;fill-rule:nonzero;stroke:black;stroke-width:1px;"/>
        </g>
        <g>
            <path d="M466,170L730,170L730,266" style="fill:none;fill-rule:nonzero;stroke:black;stroke-width:1px;"/>
        </g>
        <g>
            <path d="M725.79,255.837L730,266L734.21,255.837" style="fill:none;fill-rule:nonzero;stroke:black;stroke-width:1px;"/>
        </g>
        <g>
            <path d="M322,202L218,202L218,450L282,450" style="fill:none;fill-rule:nonzero;stroke:black;stroke-width:1px;"/>
        </g>
        <g>
            <path d="M271.837,454.21L282,450L271.837,445.79" style="fill:none;fill-rule:nonzero;stroke:black;stroke-width:1px;"/>
        </g>
        <g>
            <path d="M322,170L194,170L194,554L554,554L554,506" style="fill:none;fill-rule:nonzero;stroke:black;stroke-width:1px;"/>
        </g>
        <g>
            <path d="M558.21,516.163L554,506L549.79,516.163" style="fill:none;fill-rule:nonzero;stroke:black;stroke-width:1px;"/>
        </g>
        <g>
            <path d="M354,394L354,322L690,322" style="fill:none;fill-rule:nonzero;stroke:black;stroke-width:1px;"/>
        </g>
        <g>
            <path d="M679.837,326.21L690,322L679.837,317.79" style="fill:none;fill-rule:nonzero;stroke:black;stroke-width:1px;"/>
        </g>
        <g>
            <path d="M650,450L762,450L762,378" style="fill:none;fill-rule:nonzero;stroke:black;stroke-width:1px;"/>
        </g>
        <g>
            <path d="M766.21,388.163L762,378L757.79,388.163" style="fill:none;fill-rule:nonzero;stroke:black;stroke-width:1px;"/>
        </g>
        <g transform="matrix(1,0,0,1,-86,-22)">
            <rect x="119" y="79" width="112" height="48" style="fill:rgb(192,192,192);fill-opacity:0.2;"/>
        </g>
        <g transform="matrix(1,0,0,1,-86,-22)">
            <rect x="112" y="72" width="112" height="48" style="fill:rgb(216,242,255);"/>
        </g>
        <g>
            <rect x="26" y="50" width="112" height="48" style="fill:none;fill-rule:nonzero;stroke:black;stroke-width:1px;"/>
        </g>
        <g transform="matrix(1,0,0,1,-86,-22)">
            <rect x="112" y="72" width="112" height="48" style="fill:rgb(216,242,255);"/>
        </g>
        <g>
            <rect x="26" y="50" width="112" height="48" style="fill:none;fill-rule:nonzero;stroke:black;stroke-width:1px;"/>
        </g>
        <g>
            <g>
                <g transform="matrix(1,0,0,1,82.5,63.5)">
                    <text x="-14.441px" y="0px" style="font-family:'Arial-BoldMT', 'Arial', sans-serif;font-weight:700;font-size:13px;">
TSW</text>
                </g>
                <path d="M96.941,70L68.059,70" style="fill:none;fill-rule:nonzero;stroke:black;stroke-width:1px;"/>
            </g>
        </g>
        <g transform="matrix(1,0,0,1,-86,-22)">
            <rect x="119" y="143" width="112" height="48" style="fill:rgb(192,192,192);fill-opacity:0.2;"/>
        </g>
        <g transform="matrix(1,0,0,1,-86,-22)">
            <rect x="112" y="136" width="112" height="48" style="fill:rgb(216,242,255);"/>
        </g>
        <g>
            <rect x="26" y="114" width="112" height="48" style="fill:none;fill-rule:nonzero;stroke:black;stroke-width:1px;"/>
        </g>
        <g transform="matrix(1,0,0,1,-86,-22)">
            <rect x="112" y="136" width="112" height="48" style="fill:rgb(216,242,255);"/>
        </g>
        <g>
            <rect x="26" y="114" width="112" height="48" style="fill:none;fill-rule:nonzero;stroke:black;stroke-width:1px;"/>
        </g>
        <g>
            <g>
                <g transform="matrix(1,0,0,1,82.5,127.5)">
                    <text x="-14.441px" y="0px" style="font-family:'Arial-BoldMT', 'Arial', sans-serif;font-weight:700;font-size:13px;">
TSW</text>
                </g>
                <path d="M96.941,134L68.059,134" style="fill:none;fill-rule:nonzero;stroke:black;stroke-width:1px;"/>
            </g>
        </g>
        <g transform="matrix(1,0,0,1,-86,-22)">
            <rect x="119" y="207" width="112" height="48" style="fill:rgb(192,192,192);fill-opacity:0.2;"/>
        </g>
        <g transform="matrix(1,0,0,1,-86,-22)">
            <rect x="112" y="200" width="112" height="48" style="fill:rgb(216,242,255);"/>
        </g>
        <g>
            <rect x="26" y="178" width="112" height="48" style="fill:none;fill-rule:nonzero;stroke:black;stroke-width:1px;"/>
        </g>
        <g transform="matrix(1,0,0,1,-86,-22)">
            <rect x="112" y="200" width="112" height="48" style="fill:rgb(216,242,255);"/>
        </g>
        <g>
            <rect x="26" y="178" width="112" height="48" style="fill:none;fill-rule:nonzero;stroke:black;stroke-width:1px;"/>
        </g>
        <g>
            <g>
                <g transform="matrix(1,0,0,1,82.5,191.5)">
                    <text x="-14.441px" y="0px" style="font-family:'Arial-BoldMT', 'Arial', sans-serif;font-weight:700;font-size:13px;">
TSW</text>
                </g>
                <path d="M96.941,198L68.059,198" style="fill:none;fill-rule:nonzero;stroke:black;stroke-width:1px;"/>
            </g>
        </g>
        <g>
            <path d="M138,138L322,138" style="fill:none;fill-rule:nonzero;stroke:black;stroke-width:1px;"/>
        </g>
        <g>
            <path d="M311.837,142.21L322,138L311.837,133.79" style="fill:none;fill-rule:nonzero;stroke:black;stroke-width:1px;"/>
        </g>
        <g transform="matrix(1,0,0,1,-86,-22)">
            <rect x="935" y="63" width="144" height="112" style="fill:rgb(192,192,192);fill-opacity:0.2;"/>
        </g>
        <g transform="matrix(1,0,0,1,-86,-22)">
            <rect x="928" y="56" width="144" height="112" style="fill:rgb(226,226,226);"/>
        </g>
        <g>
            <rect x="842" y="34" width="144" height="112" style="fill:none;fill-rule:nonzero;stroke:black;stroke-width:1px;"/>
        </g>
        <g transform="matrix(1,0,0,1,-86,-22)">
            <rect x="928" y="56" width="144" height="112" style="fill:rgb(226,226,226);"/>
        </g>
        <g>
            <rect x="842" y="34" width="144" height="112" style="fill:none;fill-rule:nonzero;stroke:black;stroke-width:1px;"/>
        </g>
        <g>
            <g>
                <g transform="matrix(1,0,0,1,914.5,47.5)">
                    <text x="-21.671px" y="0px" style="font-family:'Arial-BoldMT', 'Arial', sans-serif;font-weight:700;font-size:13px;">
Loader</text>
                </g>
                <path d="M936.171,54L892.829,54" style="fill:none;fill-rule:nonzero;stroke:black;stroke-width:1px;"/>
            </g>
        </g>
        <g>
            <path d="M842,74L410,74L410,106" style="fill:none;fill-rule:nonzero;stroke:black;stroke-width:1px;"/>
        </g>
        <g>
            <path d="M405.79,95.837L410,106L414.21,95.837" style="fill:none;fill-rule:nonzero;stroke:black;stroke-width:1px;"/>
        </g>
        <g>
            <path d="M842,106L794,106L794,266" style="fill:none;fill-rule:nonzero;stroke:black;stroke-width:1px;"/>
        </g>
        <g>
            <path d="M789.79,255.837L794,266L798.21,255.837" style="fill:none;fill-rule:nonzero;stroke:black;stroke-width:1px;"/>
        </g>
        <g>
            <path d="M914,394L914,146" style="fill:none;fill-rule:nonzero;stroke:black;stroke-width:1px;"/>
        </g>
        <g>
            <path d="M918.21,156.163L914,146L909.79,156.163" style="fill:none;fill-rule:nonzero;stroke:black;stroke-width:1px;"/>
        </g>
    </g>
    <g id="Ebene1">
        <g transform="matrix(0.759124,0,0,0.759124,42.6278,107.233)">
            <circle cx="342.86" cy="451.889" r="24.596" style="fill:none;stroke:black;stroke-width:1.82px;stroke-linecap:round;stroke-linejoin:round;stroke-miterlimit:1.5;"/>
        </g>
        <g transform="matrix(0.759124,0,0,0.759124,92.4613,71.7627)">
            <circle cx="342.86" cy="451.889" r="24.596" style="fill:none;stroke:black;stroke-width:1.82px;stroke-linecap:round;stroke-linejoin:round;stroke-miterlimit:1.5;"/>
        </g>
        <g transform="matrix(0.759124,0,0,0.759124,293.977,142.422)">
            <circle cx="342.86" cy="451.889" r="24.596" style="fill:none;stroke:black;stroke-width:1.82px;stroke-linecap:round;stroke-linejoin:round;stroke-miterlimit:1.5;"/>
        </g>
        <g transform="matrix(0.759124,0,0,0.759124,371.536,105.515)">
            <circle cx="342.86" cy="451.889" r="24.596" style="fill:none;stroke:black;stroke-width:1.82px;stroke-linecap:round;stroke-linejoin:round;stroke-miterlimit:1.5;"/>
        </g>
        <g transform="matrix(0.759124,0,0,0.759124,653.328,69.8902)">
            <circle cx="342.86" cy="451.889" r="24.596" style="fill:none;stroke:black;stroke-width:1.82px;stroke-linecap:round;stroke-linejoin:round;stroke-miterlimit:1.5;"/>
        </g>
    </g>
</svg>
