<svg version="1.1" xmlns="http://www.w3.org/2000/svg" xmlns:xlink="http://www.w3.org/1999/xlink" width="948" height="836">
<defs/>
<g>
<g>
<path fill="none" stroke="#000000" paint-order="fill stroke markers" d=" M 10 10 L 938 10 L 938 826 L 10 826 L 10 10" stroke-miterlimit="10" stroke-dasharray=""/>
</g>
<g>
<path fill="#ffffff" stroke="none" paint-order="stroke fill markers" d=" M 10 10 L 10 33 L 64.30810546875 33 L 75.80810546875 21.5 L 75.80810546875 10 L 10 10"/>
</g>
<g>
<path fill="none" stroke="#000000" paint-order="fill stroke markers" d=" M 10 10 L 10 33 L 64.30810546875 33 L 75.80810546875 21.5 L 75.80810546875 10 L 10 10 L 10 10" stroke-miterlimit="10" stroke-dasharray=""/>
</g>
<g>
<g>
<path fill="none" stroke="none"/>
<text fill="#000000" stroke="none" font-family="Arial" font-size="13px" font-style="normal" font-weight="normal" text-decoration="undefined" x="93.01904296875" y="11.5" text-anchor="middle" dominant-baseline="central" transform="matrix(1 0 0 1 -46 10)">
load</text>
</g>
</g>
<g>
<g>
<path fill="none" stroke="none"/>
<text fill="#000000" stroke="none" font-family="Arial" font-size="13px" font-style="normal" font-weight="bold" text-decoration="undefined" x="67.864990234375" y="11.5" text-anchor="middle" dominant-baseline="central" transform="matrix(1 0 0 1 -46 10)">
sd</text>
</g>
</g>
<g>
<rect fill="#C0C0C0" stroke="none" x="95" y="47" width="112" height="40" transform="matrix(1 0 0 1 -46 10)" fill-opacity="0.2"/>
</g>
<g>
<rect fill="#ffffff" stroke="none" x="88" y="40" width="112" height="40" transform="matrix(1 0 0 1 -46 10)"/>
</g>
<g>
<path fill="none" stroke="#000000" paint-order="fill stroke markers" d=" M 42 50 L 154 50 L 154 90 L 42 90 L 42 50 Z Z" stroke-miterlimit="10" stroke-dasharray=""/>
</g>
<g>
<g>
<path fill="none" stroke="none"/>
<text fill="#000000" stroke="none" font-family="Arial" font-size="13px" font-style="normal" font-weight="bold" text-decoration="undefined" x="144.5" y="53.5" text-anchor="middle" dominant-baseline="central" transform="matrix(1 0 0 1 -46 10)">
Loader</text>
</g>
</g>
<g>
<path fill="none" stroke="#000000" paint-order="fill stroke markers" d=" M 98.5 91 L 98.5 810" stroke-miterlimit="10" stroke-dasharray="3"/>
</g>
<g>
<rect fill="#C0C0C0" stroke="none" x="287" y="47" width="104" height="40" transform="matrix(1 0 0 1 -46 10)" fill-opacity="0.2"/>
</g>
<g>
<rect fill="#ffffff" stroke="none" x="280" y="40" width="104" height="40" transform="matrix(1 0 0 1 -46 10)"/>
</g>
<g>
<path fill="none" stroke="#000000" paint-order="fill stroke markers" d=" M 234 50 L 338 50 L 338 90 L 234 90 L 234 50 Z Z" stroke-miterlimit="10" stroke-dasharray=""/>
</g>
<g>
<g>
<path fill="none" stroke="none"/>
<text fill="#000000" stroke="none" font-family="Arial" font-size="13px" font-style="normal" font-weight="bold" text-decoration="undefined" x="332.5" y="53.5" text-anchor="middle" dominant-baseline="central" transform="matrix(1 0 0 1 -46 10)">
Dispatcher</text>
</g>
</g>
<g>
<path fill="none" stroke="#000000" paint-order="fill stroke markers" d=" M 286.5 91 L 286.5 810" stroke-miterlimit="10" stroke-dasharray="3"/>
</g>
<g>
<rect fill="#C0C0C0" stroke="none" x="471" y="47" width="96" height="40" transform="matrix(1 0 0 1 -46 10)" fill-opacity="0.2"/>
</g>
<g>
<rect fill="#ffffff" stroke="none" x="464" y="40" width="96" height="40" transform="matrix(1 0 0 1 -46 10)"/>
</g>
<g>
<path fill="none" stroke="#000000" paint-order="fill stroke markers" d=" M 418 50 L 514 50 L 514 90 L 418 90 L 418 50 Z Z" stroke-miterlimit="10" stroke-dasharray=""/>
</g>
<g>
<g>
<path fill="none" stroke="none"/>
<text fill="#000000" stroke="none" font-family="Arial" font-size="13px" font-style="normal" font-weight="bold" text-decoration="undefined" x="512.5" y="53.5" text-anchor="middle" dominant-baseline="central" transform="matrix(1 0 0 1 -46 10)">
TSW Hub</text>
</g>
</g>
<g>
<path fill="none" stroke="#000000" paint-order="fill stroke markers" d=" M 466.5 91 L 466.5 810" stroke-miterlimit="10" stroke-dasharray="3"/>
</g>
<g>
<rect fill="#C0C0C0" stroke="none" x="591" y="47" width="105.236328125" height="40" transform="matrix(1 0 0 1 -46 10)" fill-opacity="0.2"/>
</g>
<g>
<rect fill="#ffffff" stroke="none" x="584" y="40" width="105.236328125" height="40" transform="matrix(1 0 0 1 -46 10)"/>
</g>
<g>
<path fill="none" stroke="#000000" paint-order="fill stroke markers" d=" M 538 50 L 643.236328125 50 L 643.236328125 90 L 538 90 L 538 50 Z Z" stroke-miterlimit="10" stroke-dasharray=""/>
</g>
<g>
<g>
<path fill="none" stroke="none"/>
<text fill="#000000" stroke="none" font-family="Arial" font-size="13px" font-style="normal" font-weight="bold" text-decoration="undefined" x="637.1181640625" y="53.5" text-anchor="middle" dominant-baseline="central" transform="matrix(1 0 0 1 -46 10)">
TSW Provider</text>
</g>
</g>
<g>
<path fill="none" stroke="#000000" paint-order="fill stroke markers" d=" M 591.5 91 L 591.5 802" stroke-miterlimit="10" stroke-dasharray="3"/>
</g>
<g>
<rect fill="#C0C0C0" stroke="none" x="727" y="47" width="112" height="40" transform="matrix(1 0 0 1 -46 10)" fill-opacity="0.2"/>
</g>
<g>
<rect fill="#ffffff" stroke="none" x="720" y="40" width="112" height="40" transform="matrix(1 0 0 1 -46 10)"/>
</g>
<g>
<path fill="none" stroke="#000000" paint-order="fill stroke markers" d=" M 674 50 L 786 50 L 786 90 L 674 90 L 674 50 Z Z" stroke-miterlimit="10" stroke-dasharray=""/>
</g>
<g>
<g>
<path fill="none" stroke="none"/>
<text fill="#000000" stroke="none" font-family="Arial" font-size="13px" font-style="normal" font-weight="bold" text-decoration="undefined" x="776.5" y="53.5" text-anchor="middle" dominant-baseline="central" transform="matrix(1 0 0 1 -46 10)">
SIG Hub</text>
</g>
</g>
<g>
<path fill="none" stroke="#000000" paint-order="fill stroke markers" d=" M 730.5 91 L 730.5 810" stroke-miterlimit="10" stroke-dasharray="3"/>
</g>
<g>
<rect fill="#C0C0C0" stroke="none" x="855" y="47" width="98.7490234375" height="40" transform="matrix(1 0 0 1 -46 10)" fill-opacity="0.2"/>
</g>
<g>
<rect fill="#ffffff" stroke="none" x="848" y="40" width="98.7490234375" height="40" transform="matrix(1 0 0 1 -46 10)"/>
</g>
<g>
<path fill="none" stroke="#000000" paint-order="fill stroke markers" d=" M 802 50 L 900.7490234375 50 L 900.7490234375 90 L 802 90 L 802 50 Z Z" stroke-miterlimit="10" stroke-dasharray=""/>
</g>
<g>
<g>
<path fill="none" stroke="none"/>
<text fill="#000000" stroke="none" font-family="Arial" font-size="13px" font-style="normal" font-weight="bold" text-decoration="undefined" x="897.87451171875" y="53.5" text-anchor="middle" dominant-baseline="central" transform="matrix(1 0 0 1 -46 10)">
SIG Provider</text>
</g>
</g>
<g>
<path fill="none" stroke="#000000" paint-order="fill stroke markers" d=" M 851.5 91 L 851.5 810" stroke-miterlimit="10" stroke-dasharray="3"/>
</g>
<g>
<path fill="none" stroke="#000000" paint-order="fill stroke markers" d=" M 99 130 L 279 130" stroke-miterlimit="10" stroke-dasharray=""/>
</g>
<g>
<path fill="#000000" stroke="none" paint-order="stroke fill markers" d=" M 268.83732514237585 134.209517756016 L 279 130 L 268.83732514237585 125.79048224398402"/>
</g>
<g>
<path fill="none" stroke="#000000" paint-order="fill stroke markers" d=" M 268.83732514237585 134.209517756016 L 279 130 L 268.83732514237585 125.79048224398402 L 268.83732514237585 134.209517756016" stroke-miterlimit="10" stroke-dasharray=""/>
</g>
<g>
<rect fill="#ffffff" stroke="none" x="192" y="103" width="78.04443359375" height="13" transform="matrix(1 0 0 1 -46 10)"/>
</g>
<g>
<g>
<path fill="none" stroke="none"/>
<text fill="#000000" stroke="none" font-family="Arial" font-size="13px" font-style="normal" font-weight="normal" text-decoration="undefined" x="231.022216796875" y="109.5" text-anchor="middle" dominant-baseline="central" transform="matrix(1 0 0 1 -46 10)">
1 : reset</text>
</g>
</g>
<g>
<rect fill="#ffffff" stroke="none" x="325" y="120" width="14" height="28" transform="matrix(1 0 0 1 -46 10)"/>
</g>
<g>
<path fill="none" stroke="#000000" paint-order="fill stroke markers" d=" M 279 130 L 293 130 L 293 158 L 279 158 L 279 130 Z Z" stroke-miterlimit="10" stroke-dasharray=""/>
</g>
<g>
<path fill="none" stroke="#000000" paint-order="fill stroke markers" d=" M 99 202 L 459 202" stroke-miterlimit="10" stroke-dasharray=""/>
</g>
<g>
<path fill="#000000" stroke="none" paint-order="stroke fill markers" d=" M 448.83732514237585 206.209517756016 L 459 202 L 448.83732514237585 197.790482243984"/>
</g>
<g>
<path fill="none" stroke="#000000" paint-order="fill stroke markers" d=" M 448.83732514237585 206.209517756016 L 459 202 L 448.83732514237585 197.790482243984 L 448.83732514237585 206.209517756016" stroke-miterlimit="10" stroke-dasharray=""/>
</g>
<g>
<rect fill="#ffffff" stroke="none" x="194" y="175" width="78.04443359375" height="13" transform="matrix(1 0 0 1 -46 10)"/>
</g>
<g>
<g>
<path fill="none" stroke="none"/>
<text fill="#000000" stroke="none" font-family="Arial" font-size="13px" font-style="normal" font-weight="normal" text-decoration="undefined" x="233.022216796875" y="181.5" text-anchor="middle" dominant-baseline="central" transform="matrix(1 0 0 1 -46 10)">
2 : load data</text>
</g>
</g>
<g>
<rect fill="#ffffff" stroke="none" x="505" y="192" width="14" height="28" transform="matrix(1 0 0 1 -46 10)"/>
</g>
<g>
<path fill="none" stroke="#000000" paint-order="fill stroke markers" d=" M 459 202 L 473 202 L 473 230 L 459 230 L 459 202 Z Z" stroke-miterlimit="10" stroke-dasharray=""/>
</g>
<g>
<path fill="none" stroke="#000000" paint-order="fill stroke markers" d=" M 466 250 L 293 250" stroke-miterlimit="10" stroke-dasharray=""/>
</g>
<g>
<path fill="#000000" stroke="none" paint-order="stroke fill markers" d=" M 303.16267485762415 245.790482243984 L 293 250 L 303.16267485762415 254.209517756016"/>
</g>
<g>
<path fill="none" stroke="#000000" paint-order="fill stroke markers" d=" M 303.16267485762415 245.790482243984 L 293 250 L 303.16267485762415 254.209517756016 L 303.16267485762415 245.790482243984" stroke-miterlimit="10" stroke-dasharray=""/>
</g>
<g>
<rect fill="#ffffff" stroke="none" x="386" y="224" width="78.04443359375" height="13" transform="matrix(1 0 0 1 -46 10)"/>
</g>
<g>
<g>
<path fill="none" stroke="none"/>
<text fill="#000000" stroke="none" font-family="Arial" font-size="13px" font-style="normal" font-weight="normal" text-decoration="undefined" x="425.022216796875" y="230.5" text-anchor="middle" dominant-baseline="central" transform="matrix(1 0 0 1 -46 10)">
3 : assign 1</text>
</g>
</g>
<g>
<rect fill="#ffffff" stroke="none" x="325" y="240" width="14" height="28" transform="matrix(1 0 0 1 -46 10)"/>
</g>
<g>
<path fill="none" stroke="#000000" paint-order="fill stroke markers" d=" M 279 250 L 293 250 L 293 278 L 279 278 L 279 250 Z Z" stroke-miterlimit="10" stroke-dasharray=""/>
</g>
<g>
<path fill="none" stroke="#000000" paint-order="fill stroke markers" d=" M 287 298 L 459 298" stroke-miterlimit="10" stroke-dasharray=""/>
</g>
<g>
<path fill="#000000" stroke="none" paint-order="stroke fill markers" d=" M 448.83732514237585 302.209517756016 L 459 298 L 448.83732514237585 293.790482243984"/>
</g>
<g>
<path fill="none" stroke="#000000" paint-order="fill stroke markers" d=" M 448.83732514237585 302.209517756016 L 459 298 L 448.83732514237585 293.790482243984 L 448.83732514237585 302.209517756016" stroke-miterlimit="10" stroke-dasharray=""/>
</g>
<g>
<rect fill="#ffffff" stroke="none" x="380" y="272" width="78.04443359375" height="13" transform="matrix(1 0 0 1 -46 10)"/>
</g>
<g>
<g>
<path fill="none" stroke="none"/>
<text fill="#000000" stroke="none" font-family="Arial" font-size="13px" font-style="normal" font-weight="normal" text-decoration="undefined" x="419.022216796875" y="278.5" text-anchor="middle" dominant-baseline="central" transform="matrix(1 0 0 1 -46 10)">
4 : id 1</text>
</g>
</g>
<g>
<rect fill="#ffffff" stroke="none" x="505" y="288" width="14" height="28" transform="matrix(1 0 0 1 -46 10)"/>
</g>
<g>
<path fill="none" stroke="#000000" paint-order="fill stroke markers" d=" M 459 298 L 473 298 L 473 326 L 459 326 L 459 298 Z Z" stroke-miterlimit="10" stroke-dasharray=""/>
</g>
<g>
<path fill="none" stroke="#000000" paint-order="fill stroke markers" d=" M 467 346 L 584 346" stroke-miterlimit="10" stroke-dasharray=""/>
</g>
<g>
<path fill="#000000" stroke="none" paint-order="stroke fill markers" d=" M 573.8373251423759 350.209517756016 L 584 346 L 573.8373251423758 341.790482243984"/>
</g>
<g>
<path fill="none" stroke="#000000" paint-order="fill stroke markers" d=" M 573.8373251423759 350.209517756016 L 584 346 L 573.8373251423758 341.790482243984 L 573.8373251423759 350.209517756016" stroke-miterlimit="10" stroke-dasharray=""/>
</g>
<g>
<rect fill="#ffffff" stroke="none" x="532" y="320" width="78.04443359375" height="13" transform="matrix(1 0 0 1 -46 10)"/>
</g>
<g>
<g>
<path fill="none" stroke="none"/>
<text fill="#000000" stroke="none" font-family="Arial" font-size="13px" font-style="normal" font-weight="normal" text-decoration="undefined" x="571.022216796875" y="326.5" text-anchor="middle" dominant-baseline="central" transform="matrix(1 0 0 1 -46 10)">
5 : add 1</text>
</g>
</g>
<g>
<rect fill="#ffffff" stroke="none" x="630" y="336" width="14" height="28" transform="matrix(1 0 0 1 -46 10)"/>
</g>
<g>
<path fill="none" stroke="#000000" paint-order="fill stroke markers" d=" M 584 346 L 598 346 L 598 374 L 584 374 L 584 346 Z Z" stroke-miterlimit="10" stroke-dasharray=""/>
</g>
<g>
<path fill="none" stroke="#000000" paint-order="fill stroke markers" d=" M 466 378 L 293 378" stroke-miterlimit="10" stroke-dasharray=""/>
</g>
<g>
<path fill="#000000" stroke="none" paint-order="stroke fill markers" d=" M 303.16267485762415 373.790482243984 L 293 378 L 303.16267485762415 382.209517756016"/>
</g>
<g>
<path fill="none" stroke="#000000" paint-order="fill stroke markers" d=" M 303.16267485762415 373.790482243984 L 293 378 L 303.16267485762415 382.209517756016 L 303.16267485762415 373.790482243984" stroke-miterlimit="10" stroke-dasharray=""/>
</g>
<g>
<rect fill="#ffffff" stroke="none" x="385" y="353" width="78.04443359375" height="13" transform="matrix(1 0 0 1 -46 10)"/>
</g>
<g>
<g>
<path fill="none" stroke="none"/>
<text fill="#000000" stroke="none" font-family="Arial" font-size="13px" font-style="normal" font-weight="normal" text-decoration="undefined" x="424.022216796875" y="359.5" text-anchor="middle" dominant-baseline="central" transform="matrix(1 0 0 1 -46 10)">
6 : assign n</text>
</g>
</g>
<g>
<rect fill="#ffffff" stroke="none" x="325" y="368" width="14" height="28" transform="matrix(1 0 0 1 -46 10)"/>
</g>
<g>
<path fill="none" stroke="#000000" paint-order="fill stroke markers" d=" M 279 378 L 293 378 L 293 406 L 279 406 L 279 378 Z Z" stroke-miterlimit="10" stroke-dasharray=""/>
</g>
<g>
<path fill="none" stroke="#000000" paint-order="fill stroke markers" d=" M 287 426 L 459 426" stroke-miterlimit="10" stroke-dasharray=""/>
</g>
<g>
<path fill="#000000" stroke="none" paint-order="stroke fill markers" d=" M 448.83732514237585 430.209517756016 L 459 426 L 448.83732514237585 421.790482243984"/>
</g>
<g>
<path fill="none" stroke="#000000" paint-order="fill stroke markers" d=" M 448.83732514237585 430.209517756016 L 459 426 L 448.83732514237585 421.790482243984 L 448.83732514237585 430.209517756016" stroke-miterlimit="10" stroke-dasharray=""/>
</g>
<g>
<rect fill="#ffffff" stroke="none" x="380" y="400" width="78.04443359375" height="13" transform="matrix(1 0 0 1 -46 10)"/>
</g>
<g>
<g>
<path fill="none" stroke="none"/>
<text fill="#000000" stroke="none" font-family="Arial" font-size="13px" font-style="normal" font-weight="normal" text-decoration="undefined" x="419.022216796875" y="406.5" text-anchor="middle" dominant-baseline="central" transform="matrix(1 0 0 1 -46 10)">
7 : id n</text>
</g>
</g>
<g>
<rect fill="#ffffff" stroke="none" x="505" y="416" width="14" height="28" transform="matrix(1 0 0 1 -46 10)"/>
</g>
<g>
<path fill="none" stroke="#000000" paint-order="fill stroke markers" d=" M 459 426 L 473 426 L 473 454 L 459 454 L 459 426 Z Z" stroke-miterlimit="10" stroke-dasharray=""/>
</g>
<g>
<path fill="none" stroke="#000000" paint-order="fill stroke markers" d=" M 467 474 L 584 474" stroke-miterlimit="10" stroke-dasharray=""/>
</g>
<g>
<path fill="#000000" stroke="none" paint-order="stroke fill markers" d=" M 573.8373251423759 478.209517756016 L 584 474 L 573.8373251423758 469.790482243984"/>
</g>
<g>
<path fill="none" stroke="#000000" paint-order="fill stroke markers" d=" M 573.8373251423759 478.209517756016 L 584 474 L 573.8373251423758 469.790482243984 L 573.8373251423759 478.209517756016" stroke-miterlimit="10" stroke-dasharray=""/>
</g>
<g>
<rect fill="#ffffff" stroke="none" x="532" y="448" width="78.04443359375" height="13" transform="matrix(1 0 0 1 -46 10)"/>
</g>
<g>
<g>
<path fill="none" stroke="none"/>
<text fill="#000000" stroke="none" font-family="Arial" font-size="13px" font-style="normal" font-weight="normal" text-decoration="undefined" x="571.022216796875" y="454.5" text-anchor="middle" dominant-baseline="central" transform="matrix(1 0 0 1 -46 10)">
8 : add n</text>
</g>
</g>
<g>
<rect fill="#ffffff" stroke="none" x="630" y="464" width="14" height="28" transform="matrix(1 0 0 1 -46 10)"/>
</g>
<g>
<path fill="none" stroke="#000000" paint-order="fill stroke markers" d=" M 584 474 L 598 474 L 598 502 L 584 502 L 584 474 Z Z" stroke-miterlimit="10" stroke-dasharray=""/>
</g>
<g>
<path fill="none" stroke="#000000" paint-order="fill stroke markers" d=" M 466 506 L 105 506" stroke-miterlimit="10" stroke-dasharray=""/>
</g>
<g>
<path fill="#000000" stroke="none" paint-order="stroke fill markers" d=" M 115.16267485762415 501.790482243984 L 105 506 L 115.16267485762415 510.209517756016"/>
</g>
<g>
<path fill="none" stroke="#000000" paint-order="fill stroke markers" d=" M 115.16267485762415 501.790482243984 L 105 506 L 115.16267485762415 510.209517756016 L 115.16267485762415 501.790482243984" stroke-miterlimit="10" stroke-dasharray=""/>
</g>
<g>
<rect fill="#ffffff" stroke="none" x="392" y="499" width="78.04443359375" height="13" transform="matrix(1 0 0 1 -46 10)"/>
</g>
<g>
<g>
<path fill="none" stroke="none"/>
<text fill="#000000" stroke="none" font-family="Arial" font-size="13px" font-style="normal" font-weight="normal" text-decoration="undefined" x="431.022216796875" y="505.5" text-anchor="middle" dominant-baseline="central" transform="matrix(1 0 0 1 -46 10)">
9 : done</text>
</g>
</g>
<g>
<rect fill="#ffffff" stroke="none" x="137" y="496" width="14" height="28" transform="matrix(1 0 0 1 -46 10)"/>
</g>
<g>
<path fill="none" stroke="#000000" paint-order="fill stroke markers" d=" M 91 506 L 105 506 L 105 534 L 91 534 L 91 506 Z Z" stroke-miterlimit="10" stroke-dasharray=""/>
</g>
<g>
<path fill="none" stroke="#000000" paint-order="fill stroke markers" d=" M 99 554 L 723 554" stroke-miterlimit="10" stroke-dasharray=""/>
</g>
<g>
<path fill="#000000" stroke="none" paint-order="stroke fill markers" d=" M 712.8373251423759 558.209517756016 L 723 554 L 712.8373251423758 549.790482243984"/>
</g>
<g>
<path fill="none" stroke="#000000" paint-order="fill stroke markers" d=" M 712.8373251423759 558.209517756016 L 723 554 L 712.8373251423758 549.790482243984 L 712.8373251423759 558.209517756016" stroke-miterlimit="10" stroke-dasharray=""/>
</g>
<g>
<rect fill="#ffffff" stroke="none" x="200" y="527" width="85.2744140625" height="13" transform="matrix(1 0 0 1 -46 10)"/>
</g>
<g>
<g>
<path fill="none" stroke="none"/>
<text fill="#000000" stroke="none" font-family="Arial" font-size="13px" font-style="normal" font-weight="normal" text-decoration="undefined" x="242.63720703125" y="533.5" text-anchor="middle" dominant-baseline="central" transform="matrix(1 0 0 1 -46 10)">
10 : load data</text>
</g>
</g>
<g>
<rect fill="#ffffff" stroke="none" x="769" y="544" width="14" height="28" transform="matrix(1 0 0 1 -46 10)"/>
</g>
<g>
<path fill="none" stroke="#000000" paint-order="fill stroke markers" d=" M 723 554 L 737 554 L 737 582 L 723 582 L 723 554 Z Z" stroke-miterlimit="10" stroke-dasharray=""/>
</g>
<g>
<path fill="none" stroke="#000000" paint-order="fill stroke markers" d=" M 730 618 L 105 618" stroke-miterlimit="10" stroke-dasharray=""/>
</g>
<g>
<path fill="#000000" stroke="none" paint-order="stroke fill markers" d=" M 115.16267485762415 613.790482243984 L 105 618 L 115.16267485762415 622.209517756016"/>
</g>
<g>
<path fill="none" stroke="#000000" paint-order="fill stroke markers" d=" M 115.16267485762415 613.790482243984 L 105 618 L 115.16267485762415 622.209517756016 L 115.16267485762415 613.790482243984" stroke-miterlimit="10" stroke-dasharray=""/>
</g>
<g>
<rect fill="#ffffff" stroke="none" x="672" y="611" width="84.3095703125" height="13" transform="matrix(1 0 0 1 -46 10)"/>
</g>
<g>
<g>
<path fill="none" stroke="none"/>
<text fill="#000000" stroke="none" font-family="Arial" font-size="13px" font-style="normal" font-weight="normal" text-decoration="undefined" x="714.15478515625" y="617.5" text-anchor="middle" dominant-baseline="central" transform="matrix(1 0 0 1 -46 10)">
11 : done</text>
</g>
</g>
<g>
<rect fill="#ffffff" stroke="none" x="137" y="608" width="14" height="28" transform="matrix(1 0 0 1 -46 10)"/>
</g>
<g>
<path fill="none" stroke="#000000" paint-order="fill stroke markers" d=" M 91 618 L 105 618 L 105 646 L 91 646 L 91 618 Z Z" stroke-miterlimit="10" stroke-dasharray=""/>
</g>
<g>
<path fill="none" stroke="#000000" paint-order="fill stroke markers" d=" M 99 666 L 279 666" stroke-miterlimit="10" stroke-dasharray=""/>
</g>
<g>
<path fill="#000000" stroke="none" paint-order="stroke fill markers" d=" M 268.83732514237585 670.209517756016 L 279 666 L 268.83732514237585 661.790482243984"/>
</g>
<g>
<path fill="none" stroke="#000000" paint-order="fill stroke markers" d=" M 268.83732514237585 670.209517756016 L 279 666 L 268.83732514237585 661.790482243984 L 268.83732514237585 670.209517756016" stroke-miterlimit="10" stroke-dasharray=""/>
</g>
<g>
<rect fill="#ffffff" stroke="none" x="193" y="640" width="85.2744140625" height="13" transform="matrix(1 0 0 1 -46 10)"/>
</g>
<g>
<g>
<path fill="none" stroke="none"/>
<text fill="#000000" stroke="none" font-family="Arial" font-size="13px" font-style="normal" font-weight="normal" text-decoration="undefined" x="235.63720703125" y="646.5" text-anchor="middle" dominant-baseline="central" transform="matrix(1 0 0 1 -46 10)">
12 : index</text>
</g>
</g>
<g>
<rect fill="#ffffff" stroke="none" x="325" y="656" width="14" height="28" transform="matrix(1 0 0 1 -46 10)"/>
</g>
<g>
<path fill="none" stroke="#000000" paint-order="fill stroke markers" d=" M 279 666 L 293 666 L 293 694 L 279 694 L 279 666 Z Z" stroke-miterlimit="10" stroke-dasharray=""/>
</g>
</g>
</svg>
