<svg version="1.1" xmlns="http://www.w3.org/2000/svg" xmlns:xlink="http://www.w3.org/1999/xlink" width="949" height="596">
<defs/>
<g>
<g>
<rect fill="#C0C0C0" stroke="none" x="567" y="583" width="128" height="96" transform="matrix(1 0 0 1 -310 -166)" fill-opacity="0.2"/>
</g>
<g>
<rect fill="#FFDF82" stroke="none" x="560" y="576" width="128" height="96" transform="matrix(1 0 0 1 -310 -166)"/>
</g>
<g>
<path fill="none" stroke="#000000" paint-order="fill stroke markers" d=" M 250 410 L 378 410 L 378 506 L 250 506 L 250 410 Z Z" stroke-miterlimit="10" stroke-dasharray=""/>
</g>
<g>
<rect fill="#FFDF82" stroke="none" x="560" y="576" width="128" height="96" transform="matrix(1 0 0 1 -310 -166)"/>
</g>
<g>
<path fill="none" stroke="#000000" paint-order="fill stroke markers" d=" M 250 410 L 378 410 L 378 506 L 250 506 L 250 410 Z Z" stroke-miterlimit="10" stroke-dasharray=""/>
</g>
<g>
<g>
<path fill="none" stroke="none"/>
<text fill="#000000" stroke="none" font-family="Arial" font-size="13px" font-style="normal" font-weight="bold" text-decoration="undefined" x="624.5" y="589.5" text-anchor="middle" dominant-baseline="central" transform="matrix(1 0 0 1 -310 -166)">
TSW Hub</text>
<path fill="none" stroke="#000000" paint-order="fill stroke markers" d=" M 343.3818359375 430 L 285.6181640625 430" stroke-miterlimit="10" stroke-dasharray=""/>
</g>
</g>
<g>
<rect fill="#C0C0C0" stroke="none" x="839" y="663" width="288" height="96" transform="matrix(1 0 0 1 -310 -166)" fill-opacity="0.2"/>
</g>
<g>
<rect fill="#6DCEFF" stroke="none" x="832" y="656" width="288" height="96" transform="matrix(1 0 0 1 -310 -166)"/>
</g>
<g>
<path fill="none" stroke="#000000" paint-order="fill stroke markers" d=" M 522 490 L 810 490 L 810 586 L 522 586 L 522 490 Z Z" stroke-miterlimit="10" stroke-dasharray=""/>
</g>
<g>
<rect fill="#6DCEFF" stroke="none" x="832" y="656" width="288" height="96" transform="matrix(1 0 0 1 -310 -166)"/>
</g>
<g>
<path fill="none" stroke="#000000" paint-order="fill stroke markers" d=" M 522 490 L 810 490 L 810 586 L 522 586 L 522 490 Z Z" stroke-miterlimit="10" stroke-dasharray=""/>
</g>
<g>
<g>
<path fill="none" stroke="none"/>
<text fill="#000000" stroke="none" font-family="Arial" font-size="13px" font-style="normal" font-weight="bold" text-decoration="undefined" x="976.5" y="669.5" text-anchor="middle" dominant-baseline="central" transform="matrix(1 0 0 1 -310 -166)">
Dispatcher</text>
<path fill="none" stroke="#000000" paint-order="fill stroke markers" d=" M 700.094970703125 510 L 632.905029296875 510" stroke-miterlimit="10" stroke-dasharray=""/>
</g>
</g>
<g>
<rect fill="#C0C0C0" stroke="none" x="327" y="487" width="144" height="272" transform="matrix(1 0 0 1 -310 -166)" fill-opacity="0.2"/>
</g>
<g>
<rect fill="#FFDF82" stroke="none" x="320" y="480" width="144" height="272" transform="matrix(1 0 0 1 -310 -166)"/>
</g>
<g>
<path fill="none" stroke="#000000" paint-order="fill stroke markers" d=" M 10 314 L 154 314 L 154 586 L 10 586 L 10 314 Z Z" stroke-miterlimit="10" stroke-dasharray=""/>
</g>
<g>
<rect fill="#FFDF82" stroke="none" x="320" y="480" width="144" height="272" transform="matrix(1 0 0 1 -310 -166)"/>
</g>
<g>
<path fill="none" stroke="#000000" paint-order="fill stroke markers" d=" M 10 314 L 154 314 L 154 586 L 10 586 L 10 314 Z Z" stroke-miterlimit="10" stroke-dasharray=""/>
</g>
<g>
<g>
<path fill="none" stroke="none"/>
<text fill="#000000" stroke="none" font-family="Arial" font-size="13px" font-style="normal" font-weight="bold" text-decoration="undefined" x="392.5" y="493.5" text-anchor="middle" dominant-baseline="central" transform="matrix(1 0 0 1 -310 -166)">
TSW Provider</text>
<path fill="none" stroke="#000000" paint-order="fill stroke markers" d=" M 125.1181640625 334 L 39.8818359375 334" stroke-miterlimit="10" stroke-dasharray=""/>
</g>
</g>
<g>
<rect fill="#C0C0C0" stroke="none" x="343" y="567" width="112" height="32" transform="matrix(1 0 0 1 -310 -166)" fill-opacity="0.2"/>
</g>
<g>
<rect fill="#FFDF82" stroke="none" x="336" y="560" width="112" height="32" transform="matrix(1 0 0 1 -310 -166)"/>
</g>
<g>
<path fill="none" stroke="#000000" paint-order="fill stroke markers" d=" M 26 394 L 138 394 L 138 426 L 26 426 L 26 394 Z Z" stroke-miterlimit="10" stroke-dasharray=""/>
</g>
<g>
<rect fill="#FFDF82" stroke="none" x="336" y="560" width="112" height="32" transform="matrix(1 0 0 1 -310 -166)"/>
</g>
<g>
<path fill="none" stroke="#000000" paint-order="fill stroke markers" d=" M 26 394 L 138 394 L 138 426 L 26 426 L 26 394 Z Z" stroke-miterlimit="10" stroke-dasharray=""/>
</g>
<g>
<g>
<path fill="none" stroke="none"/>
<text fill="#000000" stroke="none" font-family="Arial" font-size="13px" font-style="normal" font-weight="bold" text-decoration="undefined" x="392.5" y="573.5" text-anchor="middle" dominant-baseline="central" transform="matrix(1 0 0 1 -310 -166)">
TSW</text>
<path fill="none" stroke="#000000" paint-order="fill stroke markers" d=" M 96.94091796875 414 L 68.05908203125 414" stroke-miterlimit="10" stroke-dasharray=""/>
</g>
</g>
<g>
<rect fill="#C0C0C0" stroke="none" x="343" y="599" width="112" height="32" transform="matrix(1 0 0 1 -310 -166)" fill-opacity="0.2"/>
</g>
<g>
<rect fill="#FFDF82" stroke="none" x="336" y="592" width="112" height="32" transform="matrix(1 0 0 1 -310 -166)"/>
</g>
<g>
<path fill="none" stroke="#000000" paint-order="fill stroke markers" d=" M 26 426 L 138 426 L 138 458 L 26 458 L 26 426 Z Z" stroke-miterlimit="10" stroke-dasharray=""/>
</g>
<g>
<rect fill="#FFDF82" stroke="none" x="336" y="592" width="112" height="32" transform="matrix(1 0 0 1 -310 -166)"/>
</g>
<g>
<path fill="none" stroke="#000000" paint-order="fill stroke markers" d=" M 26 426 L 138 426 L 138 458 L 26 458 L 26 426 Z Z" stroke-miterlimit="10" stroke-dasharray=""/>
</g>
<g>
<g>
<path fill="none" stroke="none"/>
<text fill="#000000" stroke="none" font-family="Arial" font-size="13px" font-style="normal" font-weight="bold" text-decoration="undefined" x="392.5" y="605.5" text-anchor="middle" dominant-baseline="central" transform="matrix(1 0 0 1 -310 -166)">
TSW</text>
<path fill="none" stroke="#000000" paint-order="fill stroke markers" d=" M 96.94091796875 446 L 68.05908203125 446" stroke-miterlimit="10" stroke-dasharray=""/>
</g>
</g>
<g>
<rect fill="#C0C0C0" stroke="none" x="343" y="631" width="112" height="32" transform="matrix(1 0 0 1 -310 -166)" fill-opacity="0.2"/>
</g>
<g>
<rect fill="#FFDF82" stroke="none" x="336" y="624" width="112" height="32" transform="matrix(1 0 0 1 -310 -166)"/>
</g>
<g>
<path fill="none" stroke="#000000" paint-order="fill stroke markers" d=" M 26 458 L 138 458 L 138 490 L 26 490 L 26 458 Z Z" stroke-miterlimit="10" stroke-dasharray=""/>
</g>
<g>
<rect fill="#FFDF82" stroke="none" x="336" y="624" width="112" height="32" transform="matrix(1 0 0 1 -310 -166)"/>
</g>
<g>
<path fill="none" stroke="#000000" paint-order="fill stroke markers" d=" M 26 458 L 138 458 L 138 490 L 26 490 L 26 458 Z Z" stroke-miterlimit="10" stroke-dasharray=""/>
</g>
<g>
<g>
<path fill="none" stroke="none"/>
<text fill="#000000" stroke="none" font-family="Arial" font-size="13px" font-style="normal" font-weight="bold" text-decoration="undefined" x="392.5" y="637.5" text-anchor="middle" dominant-baseline="central" transform="matrix(1 0 0 1 -310 -166)">
TSW</text>
<path fill="none" stroke="#000000" paint-order="fill stroke markers" d=" M 96.94091796875 478 L 68.05908203125 478" stroke-miterlimit="10" stroke-dasharray=""/>
</g>
</g>
<g>
<rect fill="#C0C0C0" stroke="none" x="1127" y="183" width="128" height="96" transform="matrix(1 0 0 1 -310 -166)" fill-opacity="0.2"/>
</g>
<g>
<rect fill="#6DCEFF" stroke="none" x="1120" y="176" width="128" height="96" transform="matrix(1 0 0 1 -310 -166)"/>
</g>
<g>
<path fill="none" stroke="#000000" paint-order="fill stroke markers" d=" M 810 10 L 938 10 L 938 106 L 810 106 L 810 10 Z Z" stroke-miterlimit="10" stroke-dasharray=""/>
</g>
<g>
<rect fill="#6DCEFF" stroke="none" x="1120" y="176" width="128" height="96" transform="matrix(1 0 0 1 -310 -166)"/>
</g>
<g>
<path fill="none" stroke="#000000" paint-order="fill stroke markers" d=" M 810 10 L 938 10 L 938 106 L 810 106 L 810 10 Z Z" stroke-miterlimit="10" stroke-dasharray=""/>
</g>
<g>
<g>
<path fill="none" stroke="none"/>
<text fill="#000000" stroke="none" font-family="Arial" font-size="13px" font-style="normal" font-weight="bold" text-decoration="undefined" x="1184.5" y="189.5" text-anchor="middle" dominant-baseline="central" transform="matrix(1 0 0 1 -310 -166)">
Loader</text>
<path fill="none" stroke="#000000" paint-order="fill stroke markers" d=" M 896.1708984375 30 L 852.8291015625 30" stroke-miterlimit="10" stroke-dasharray=""/>
</g>
</g>
<g>
<rect fill="#C0C0C0" stroke="none" x="1111" y="407" width="144" height="32" transform="matrix(1 0 0 1 -310 -166)" fill-opacity="0.2"/>
</g>
<g>
<rect fill="#FFDF82" stroke="none" x="1104" y="400" width="144" height="32" transform="matrix(1 0 0 1 -310 -166)"/>
</g>
<g>
<path fill="none" stroke="#FFFFFF00" paint-order="fill stroke markers" d=" M 794 234 L 938 234 L 938 266 L 794 266 L 794 234 Z Z" stroke-miterlimit="10" stroke-dasharray=""/>
</g>
<g>
<rect fill="#FFDF82" stroke="none" x="1104" y="400" width="144" height="32" transform="matrix(1 0 0 1 -310 -166)"/>
</g>
<g>
<path fill="none" stroke="#FFFFFF00" paint-order="fill stroke markers" d=" M 794 234 L 938 234 L 938 266 L 794 266 L 794 234 Z Z" stroke-miterlimit="10" stroke-dasharray=""/>
</g>
<g>
<g>
<path fill="none" stroke="none"/>
<text fill="#000000" stroke="none" font-family="Arial" font-size="13px" font-style="normal" font-weight="bold" text-decoration="undefined" x="1176.5" y="413.5" text-anchor="middle" dominant-baseline="central" transform="matrix(1 0 0 1 -310 -166)">
subsystem TSW</text>
<path fill="none" stroke="#000000" paint-order="fill stroke markers" d=" M 916.706787109375 254 L 816.293212890625 254" stroke-miterlimit="10" stroke-dasharray=""/>
</g>
</g>
<g>
<rect fill="#C0C0C0" stroke="none" x="1111" y="439" width="144" height="32" transform="matrix(1 0 0 1 -310 -166)" fill-opacity="0.2"/>
</g>
<g>
<rect fill="#6DCEFF" stroke="none" x="1104" y="432" width="144" height="32" transform="matrix(1 0 0 1 -310 -166)"/>
</g>
<g>
<path fill="none" stroke="#FFFFFF00" paint-order="fill stroke markers" d=" M 794 266 L 938 266 L 938 298 L 794 298 L 794 266 Z Z" stroke-miterlimit="10" stroke-dasharray=""/>
</g>
<g>
<rect fill="#6DCEFF" stroke="none" x="1104" y="432" width="144" height="32" transform="matrix(1 0 0 1 -310 -166)"/>
</g>
<g>
<path fill="none" stroke="#FFFFFF00" paint-order="fill stroke markers" d=" M 794 266 L 938 266 L 938 298 L 794 298 L 794 266 Z Z" stroke-miterlimit="10" stroke-dasharray=""/>
</g>
<g>
<g>
<path fill="none" stroke="none"/>
<text fill="#000000" stroke="none" font-family="Arial" font-size="13px" font-style="normal" font-weight="bold" text-decoration="undefined" x="1176.5" y="445.5" text-anchor="middle" dominant-baseline="central" transform="matrix(1 0 0 1 -310 -166)">
system</text>
<path fill="none" stroke="#000000" paint-order="fill stroke markers" d=" M 888.904052734375 286 L 844.095947265625 286" stroke-miterlimit="10" stroke-dasharray=""/>
</g>
</g>
<g>
<rect fill="#C0C0C0" stroke="none" x="1111" y="471" width="144" height="32" transform="matrix(1 0 0 1 -310 -166)" fill-opacity="0.2"/>
</g>
<g>
<rect fill="#E2E2E2" stroke="none" x="1104" y="464" width="144" height="32" transform="matrix(1 0 0 1 -310 -166)"/>
</g>
<g>
<path fill="none" stroke="#FFFFFF00" paint-order="fill stroke markers" d=" M 794 298 L 938 298 L 938 330 L 794 330 L 794 298 Z Z" stroke-miterlimit="10" stroke-dasharray=""/>
</g>
<g>
<rect fill="#E2E2E2" stroke="none" x="1104" y="464" width="144" height="32" transform="matrix(1 0 0 1 -310 -166)"/>
</g>
<g>
<path fill="none" stroke="#FFFFFF00" paint-order="fill stroke markers" d=" M 794 298 L 938 298 L 938 330 L 794 330 L 794 298 Z Z" stroke-miterlimit="10" stroke-dasharray=""/>
</g>
<g>
<g>
<path fill="none" stroke="none"/>
<text fill="#FF5656" stroke="none" font-family="Arial" font-size="13px" font-style="normal" font-weight="bold" text-decoration="undefined" x="1176.5" y="477.5" text-anchor="middle" dominant-baseline="central" transform="matrix(1 0 0 1 -310 -166)">
no function impl</text>
<path fill="none" stroke="#FF5656" paint-order="fill stroke markers" d=" M 917.04638671875 318 L 815.95361328125 318" stroke-miterlimit="10" stroke-dasharray=""/>
</g>
</g>
<g>
<rect fill="#C0C0C0" stroke="none" x="327" y="183" width="144" height="288" transform="matrix(1 0 0 1 -310 -166)" fill-opacity="0.2"/>
</g>
<g>
<rect fill="#D1FFA3" stroke="none" x="320" y="176" width="144" height="288" transform="matrix(1 0 0 1 -310 -166)"/>
</g>
<g>
<path fill="none" stroke="#000000" paint-order="fill stroke markers" d=" M 10 10 L 154 10 L 154 298 L 10 298 L 10 10 Z Z" stroke-miterlimit="10" stroke-dasharray=""/>
</g>
<g>
<rect fill="#D1FFA3" stroke="none" x="320" y="176" width="144" height="288" transform="matrix(1 0 0 1 -310 -166)"/>
</g>
<g>
<path fill="none" stroke="#000000" paint-order="fill stroke markers" d=" M 10 10 L 154 10 L 154 298 L 10 298 L 10 10 Z Z" stroke-miterlimit="10" stroke-dasharray=""/>
</g>
<g>
<g>
<path fill="none" stroke="none"/>
<text fill="#000000" stroke="none" font-family="Arial" font-size="13px" font-style="normal" font-weight="bold" text-decoration="undefined" x="392.5" y="189.5" text-anchor="middle" dominant-baseline="central" transform="matrix(1 0 0 1 -310 -166)">
SIG Prowider</text>
<path fill="none" stroke="#000000" paint-order="fill stroke markers" d=" M 123.3154296875 30 L 41.6845703125 30" stroke-miterlimit="10" stroke-dasharray=""/>
</g>
</g>
<g>
<rect fill="#C0C0C0" stroke="none" x="343" y="263" width="112" height="32" transform="matrix(1 0 0 1 -310 -166)" fill-opacity="0.2"/>
</g>
<g>
<rect fill="#D1FFA3" stroke="none" x="336" y="256" width="112" height="32" transform="matrix(1 0 0 1 -310 -166)"/>
</g>
<g>
<path fill="none" stroke="#000000" paint-order="fill stroke markers" d=" M 26 90 L 138 90 L 138 122 L 26 122 L 26 90 Z Z" stroke-miterlimit="10" stroke-dasharray=""/>
</g>
<g>
<rect fill="#D1FFA3" stroke="none" x="336" y="256" width="112" height="32" transform="matrix(1 0 0 1 -310 -166)"/>
</g>
<g>
<path fill="none" stroke="#000000" paint-order="fill stroke markers" d=" M 26 90 L 138 90 L 138 122 L 26 122 L 26 90 Z Z" stroke-miterlimit="10" stroke-dasharray=""/>
</g>
<g>
<g>
<path fill="none" stroke="none"/>
<text fill="#000000" stroke="none" font-family="Arial" font-size="13px" font-style="normal" font-weight="bold" text-decoration="undefined" x="392.5" y="269.5" text-anchor="middle" dominant-baseline="central" transform="matrix(1 0 0 1 -310 -166)">
SIG_X</text>
<path fill="none" stroke="#000000" paint-order="fill stroke markers" d=" M 101.647705078125 110 L 63.352294921875 110" stroke-miterlimit="10" stroke-dasharray=""/>
</g>
</g>
<g>
<rect fill="#C0C0C0" stroke="none" x="343" y="295" width="112" height="32" transform="matrix(1 0 0 1 -310 -166)" fill-opacity="0.2"/>
</g>
<g>
<rect fill="#D1FFA3" stroke="none" x="336" y="288" width="112" height="32" transform="matrix(1 0 0 1 -310 -166)"/>
</g>
<g>
<path fill="none" stroke="#000000" paint-order="fill stroke markers" d=" M 26 122 L 138 122 L 138 154 L 26 154 L 26 122 Z Z" stroke-miterlimit="10" stroke-dasharray=""/>
</g>
<g>
<rect fill="#D1FFA3" stroke="none" x="336" y="288" width="112" height="32" transform="matrix(1 0 0 1 -310 -166)"/>
</g>
<g>
<path fill="none" stroke="#000000" paint-order="fill stroke markers" d=" M 26 122 L 138 122 L 138 154 L 26 154 L 26 122 Z Z" stroke-miterlimit="10" stroke-dasharray=""/>
</g>
<g>
<g>
<path fill="none" stroke="none"/>
<text fill="#000000" stroke="none" font-family="Arial" font-size="13px" font-style="normal" font-weight="bold" text-decoration="undefined" x="392.5" y="301.5" text-anchor="middle" dominant-baseline="central" transform="matrix(1 0 0 1 -310 -166)">
SIG_X</text>
<path fill="none" stroke="#000000" paint-order="fill stroke markers" d=" M 101.647705078125 142 L 63.352294921875 142" stroke-miterlimit="10" stroke-dasharray=""/>
</g>
</g>
<g>
<rect fill="#C0C0C0" stroke="none" x="343" y="327" width="112" height="32" transform="matrix(1 0 0 1 -310 -166)" fill-opacity="0.2"/>
</g>
<g>
<rect fill="#D1FFA3" stroke="none" x="336" y="320" width="112" height="32" transform="matrix(1 0 0 1 -310 -166)"/>
</g>
<g>
<path fill="none" stroke="#000000" paint-order="fill stroke markers" d=" M 26 154 L 138 154 L 138 186 L 26 186 L 26 154 Z Z" stroke-miterlimit="10" stroke-dasharray=""/>
</g>
<g>
<rect fill="#D1FFA3" stroke="none" x="336" y="320" width="112" height="32" transform="matrix(1 0 0 1 -310 -166)"/>
</g>
<g>
<path fill="none" stroke="#000000" paint-order="fill stroke markers" d=" M 26 154 L 138 154 L 138 186 L 26 186 L 26 154 Z Z" stroke-miterlimit="10" stroke-dasharray=""/>
</g>
<g>
<g>
<path fill="none" stroke="none"/>
<text fill="#000000" stroke="none" font-family="Arial" font-size="13px" font-style="normal" font-weight="bold" text-decoration="undefined" x="392.5" y="333.5" text-anchor="middle" dominant-baseline="central" transform="matrix(1 0 0 1 -310 -166)">
SIG_X</text>
<path fill="none" stroke="#000000" paint-order="fill stroke markers" d=" M 101.647705078125 174 L 63.352294921875 174" stroke-miterlimit="10" stroke-dasharray=""/>
</g>
</g>
<g>
<rect fill="#C0C0C0" stroke="none" x="567" y="279" width="128" height="96" transform="matrix(1 0 0 1 -310 -166)" fill-opacity="0.2"/>
</g>
<g>
<rect fill="#D1FFA3" stroke="none" x="560" y="272" width="128" height="96" transform="matrix(1 0 0 1 -310 -166)"/>
</g>
<g>
<path fill="none" stroke="#000000" paint-order="fill stroke markers" d=" M 250 106 L 378 106 L 378 202 L 250 202 L 250 106 Z Z" stroke-miterlimit="10" stroke-dasharray=""/>
</g>
<g>
<rect fill="#D1FFA3" stroke="none" x="560" y="272" width="128" height="96" transform="matrix(1 0 0 1 -310 -166)"/>
</g>
<g>
<path fill="none" stroke="#000000" paint-order="fill stroke markers" d=" M 250 106 L 378 106 L 378 202 L 250 202 L 250 106 Z Z" stroke-miterlimit="10" stroke-dasharray=""/>
</g>
<g>
<g>
<path fill="none" stroke="none"/>
<text fill="#000000" stroke="none" font-family="Arial" font-size="13px" font-style="normal" font-weight="bold" text-decoration="undefined" x="624.5" y="285.5" text-anchor="middle" dominant-baseline="central" transform="matrix(1 0 0 1 -310 -166)">
SIG Hub</text>
<path fill="none" stroke="#000000" paint-order="fill stroke markers" d=" M 340.13818359375 126 L 288.86181640625 126" stroke-miterlimit="10" stroke-dasharray=""/>
</g>
</g>
<g>
<rect fill="#C0C0C0" stroke="none" x="1111" y="375" width="144" height="32" transform="matrix(1 0 0 1 -310 -166)" fill-opacity="0.2"/>
</g>
<g>
<rect fill="#D1FFA3" stroke="none" x="1104" y="368" width="144" height="32" transform="matrix(1 0 0 1 -310 -166)"/>
</g>
<g>
<path fill="none" stroke="#FFFFFF00" paint-order="fill stroke markers" d=" M 794 202 L 938 202 L 938 234 L 794 234 L 794 202 Z Z" stroke-miterlimit="10" stroke-dasharray=""/>
</g>
<g>
<rect fill="#D1FFA3" stroke="none" x="1104" y="368" width="144" height="32" transform="matrix(1 0 0 1 -310 -166)"/>
</g>
<g>
<path fill="none" stroke="#FFFFFF00" paint-order="fill stroke markers" d=" M 794 202 L 938 202 L 938 234 L 794 234 L 794 202 Z Z" stroke-miterlimit="10" stroke-dasharray=""/>
</g>
<g>
<g>
<path fill="none" stroke="none"/>
<text fill="#000000" stroke="none" font-family="Arial" font-size="13px" font-style="normal" font-weight="bold" text-decoration="undefined" x="1176.5" y="381.5" text-anchor="middle" dominant-baseline="central" transform="matrix(1 0 0 1 -310 -166)">
subsystem SIG</text>
<path fill="none" stroke="#000000" paint-order="fill stroke markers" d=" M 913.463134765625 222 L 819.536865234375 222" stroke-miterlimit="10" stroke-dasharray=""/>
</g>
</g>
<g>
<rect fill="#C0C0C0" stroke="none" x="343" y="359" width="112" height="32" transform="matrix(1 0 0 1 -310 -166)" fill-opacity="0.2"/>
</g>
<g>
<rect fill="#D1FFA3" stroke="none" x="336" y="352" width="112" height="32" transform="matrix(1 0 0 1 -310 -166)"/>
</g>
<g>
<path fill="none" stroke="#000000" paint-order="fill stroke markers" d=" M 26 186 L 138 186 L 138 218 L 26 218 L 26 186 Z Z" stroke-miterlimit="10" stroke-dasharray=""/>
</g>
<g>
<rect fill="#D1FFA3" stroke="none" x="336" y="352" width="112" height="32" transform="matrix(1 0 0 1 -310 -166)"/>
</g>
<g>
<path fill="none" stroke="#000000" paint-order="fill stroke markers" d=" M 26 186 L 138 186 L 138 218 L 26 218 L 26 186 Z Z" stroke-miterlimit="10" stroke-dasharray=""/>
</g>
<g>
<g>
<path fill="none" stroke="none"/>
<text fill="#000000" stroke="none" font-family="Arial" font-size="13px" font-style="normal" font-weight="bold" text-decoration="undefined" x="392.5" y="365.5" text-anchor="middle" dominant-baseline="central" transform="matrix(1 0 0 1 -310 -166)">
SIG_X</text>
<path fill="none" stroke="#000000" paint-order="fill stroke markers" d=" M 101.647705078125 206 L 63.352294921875 206" stroke-miterlimit="10" stroke-dasharray=""/>
</g>
</g>
<g>
<rect fill="#C0C0C0" stroke="none" x="343" y="663" width="112" height="32" transform="matrix(1 0 0 1 -310 -166)" fill-opacity="0.2"/>
</g>
<g>
<rect fill="#FFDF82" stroke="none" x="336" y="656" width="112" height="32" transform="matrix(1 0 0 1 -310 -166)"/>
</g>
<g>
<path fill="none" stroke="#000000" paint-order="fill stroke markers" d=" M 26 490 L 138 490 L 138 522 L 26 522 L 26 490 Z Z" stroke-miterlimit="10" stroke-dasharray=""/>
</g>
<g>
<rect fill="#FFDF82" stroke="none" x="336" y="656" width="112" height="32" transform="matrix(1 0 0 1 -310 -166)"/>
</g>
<g>
<path fill="none" stroke="#000000" paint-order="fill stroke markers" d=" M 26 490 L 138 490 L 138 522 L 26 522 L 26 490 Z Z" stroke-miterlimit="10" stroke-dasharray=""/>
</g>
<g>
<g>
<path fill="none" stroke="none"/>
<text fill="#000000" stroke="none" font-family="Arial" font-size="13px" font-style="normal" font-weight="bold" text-decoration="undefined" x="392.5" y="669.5" text-anchor="middle" dominant-baseline="central" transform="matrix(1 0 0 1 -310 -166)">
TSW</text>
<path fill="none" stroke="#000000" paint-order="fill stroke markers" d=" M 96.94091796875 510 L 68.05908203125 510" stroke-miterlimit="10" stroke-dasharray=""/>
</g>
</g>
<g>
<rect fill="#C0C0C0" stroke="none" x="871" y="375" width="160" height="96" transform="matrix(1 0 0 1 -310 -166)" fill-opacity="0.2"/>
</g>
<g>
<rect fill="#E2E2E2" stroke="none" x="864" y="368" width="160" height="96" transform="matrix(1 0 0 1 -310 -166)"/>
</g>
<g>
<path fill="none" stroke="#000000" paint-order="fill stroke markers" d=" M 554 202 L 714 202 L 714 298 L 554 298 L 554 202 Z Z" stroke-miterlimit="10" stroke-dasharray=""/>
</g>
<g>
<rect fill="#E2E2E2" stroke="none" x="864" y="368" width="160" height="96" transform="matrix(1 0 0 1 -310 -166)"/>
</g>
<g>
<path fill="none" stroke="#000000" paint-order="fill stroke markers" d=" M 554 202 L 714 202 L 714 298 L 554 298 L 554 202 Z Z" stroke-miterlimit="10" stroke-dasharray=""/>
</g>
<g>
<g>
<path fill="none" stroke="none"/>
<text fill="#FF5656" stroke="none" font-family="Arial" font-size="13px" font-style="normal" font-weight="bold" text-decoration="undefined" x="944.5" y="381.5" text-anchor="middle" dominant-baseline="central" transform="matrix(1 0 0 1 -310 -166)">
Log</text>
<path fill="none" stroke="#FF5656" paint-order="fill stroke markers" d=" M 646.411376953125 222 L 622.588623046875 222" stroke-miterlimit="10" stroke-dasharray=""/>
</g>
</g>
<g>
<rect fill="#C0C0C0" stroke="none" x="343" y="231" width="112" height="32" transform="matrix(1 0 0 1 -310 -166)" fill-opacity="0.2"/>
</g>
<g>
<rect fill="#D1FFA3" stroke="none" x="336" y="224" width="112" height="32" transform="matrix(1 0 0 1 -310 -166)"/>
</g>
<g>
<path fill="none" stroke="#000000" paint-order="fill stroke markers" d=" M 26 58 L 138 58 L 138 90 L 26 90 L 26 58 Z Z" stroke-miterlimit="10" stroke-dasharray=""/>
</g>
<g>
<rect fill="#D1FFA3" stroke="none" x="336" y="224" width="112" height="32" transform="matrix(1 0 0 1 -310 -166)"/>
</g>
<g>
<path fill="none" stroke="#000000" paint-order="fill stroke markers" d=" M 26 58 L 138 58 L 138 90 L 26 90 L 26 58 Z Z" stroke-miterlimit="10" stroke-dasharray=""/>
</g>
<g>
<g>
<path fill="none" stroke="none"/>
<text fill="#000000" stroke="none" font-family="Arial" font-size="13px" font-style="normal" font-weight="bold" text-decoration="undefined" x="392.5" y="237.5" text-anchor="middle" dominant-baseline="central" transform="matrix(1 0 0 1 -310 -166)">
SIG_X</text>
<path fill="none" stroke="#000000" paint-order="fill stroke markers" d=" M 101.647705078125 78 L 63.352294921875 78" stroke-miterlimit="10" stroke-dasharray=""/>
</g>
</g>
<g>
<rect fill="#C0C0C0" stroke="none" x="343" y="535" width="112" height="32" transform="matrix(1 0 0 1 -310 -166)" fill-opacity="0.2"/>
</g>
<g>
<rect fill="#FFDF82" stroke="none" x="336" y="528" width="112" height="32" transform="matrix(1 0 0 1 -310 -166)"/>
</g>
<g>
<path fill="none" stroke="#000000" paint-order="fill stroke markers" d=" M 26 362 L 138 362 L 138 394 L 26 394 L 26 362 Z Z" stroke-miterlimit="10" stroke-dasharray=""/>
</g>
<g>
<rect fill="#FFDF82" stroke="none" x="336" y="528" width="112" height="32" transform="matrix(1 0 0 1 -310 -166)"/>
</g>
<g>
<path fill="none" stroke="#000000" paint-order="fill stroke markers" d=" M 26 362 L 138 362 L 138 394 L 26 394 L 26 362 Z Z" stroke-miterlimit="10" stroke-dasharray=""/>
</g>
<g>
<g>
<path fill="none" stroke="none"/>
<text fill="#000000" stroke="none" font-family="Arial" font-size="13px" font-style="normal" font-weight="bold" text-decoration="undefined" x="392.5" y="541.5" text-anchor="middle" dominant-baseline="central" transform="matrix(1 0 0 1 -310 -166)">
TSW</text>
<path fill="none" stroke="#000000" paint-order="fill stroke markers" d=" M 96.94091796875 382 L 68.05908203125 382" stroke-miterlimit="10" stroke-dasharray=""/>
</g>
</g>
<g>
<path fill="none" stroke="#000000" paint-order="fill stroke markers" d=" M 138 378 L 618 378 L 618 298" stroke-miterlimit="10" stroke-dasharray=""/>
</g>
<g>
<path fill="none" stroke="#000000" paint-order="fill stroke markers" d=" M 622.209517756016 308.16267485762415 L 618 298 L 613.790482243984 308.16267485762415" stroke-miterlimit="10" stroke-dasharray=""/>
</g>
<g>
<path fill="none" stroke="#000000" paint-order="fill stroke markers" d=" M 378 458 L 650 458 L 650 298" stroke-miterlimit="10" stroke-dasharray=""/>
</g>
<g>
<path fill="none" stroke="#000000" paint-order="fill stroke markers" d=" M 654.209517756016 308.16267485762415 L 650 298 L 645.790482243984 308.16267485762415" stroke-miterlimit="10" stroke-dasharray=""/>
</g>
<g>
<path fill="none" stroke="#000000" paint-order="fill stroke markers" d=" M 138 74 L 618 74 L 618 202" stroke-miterlimit="10" stroke-dasharray=""/>
</g>
<g>
<path fill="none" stroke="#000000" paint-order="fill stroke markers" d=" M 613.790482243984 191.83732514237585 L 618 202 L 622.209517756016 191.83732514237585" stroke-miterlimit="10" stroke-dasharray=""/>
</g>
<g>
<path fill="none" stroke="#000000" paint-order="fill stroke markers" d=" M 378 154 L 586 154 L 586 202" stroke-miterlimit="10" stroke-dasharray=""/>
</g>
<g>
<path fill="none" stroke="#000000" paint-order="fill stroke markers" d=" M 581.790482243984 191.83732514237585 L 586 202 L 590.209517756016 191.83732514237585" stroke-miterlimit="10" stroke-dasharray=""/>
</g>
<g>
<path fill="none" stroke="#000000" paint-order="fill stroke markers" d=" M 154 42 L 650 42 L 650 202" stroke-miterlimit="10" stroke-dasharray=""/>
</g>
<g>
<path fill="none" stroke="#000000" paint-order="fill stroke markers" d=" M 645.790482243984 191.83732514237585 L 650 202 L 654.209517756016 191.83732514237585" stroke-miterlimit="10" stroke-dasharray=""/>
</g>
<g>
<path fill="none" stroke="#000000" paint-order="fill stroke markers" d=" M 154 346 L 586 346 L 586 298" stroke-miterlimit="10" stroke-dasharray=""/>
</g>
<g>
<path fill="none" stroke="#000000" paint-order="fill stroke markers" d=" M 590.209517756016 308.16267485762415 L 586 298 L 581.790482243984 308.16267485762415" stroke-miterlimit="10" stroke-dasharray=""/>
</g>
<g>
<path fill="none" stroke="#000000" paint-order="fill stroke markers" d=" M 810 58 L 682 58 L 682 202" stroke-miterlimit="10" stroke-dasharray=""/>
</g>
<g>
<path fill="none" stroke="#000000" paint-order="fill stroke markers" d=" M 677.790482243984 191.83732514237585 L 682 202 L 686.209517756016 191.83732514237585" stroke-miterlimit="10" stroke-dasharray=""/>
</g>
<g>
<path fill="none" stroke="#000000" paint-order="fill stroke markers" d=" M 682 490 L 682 298" stroke-miterlimit="10" stroke-dasharray=""/>
</g>
<g>
<path fill="none" stroke="#000000" paint-order="fill stroke markers" d=" M 686.209517756016 308.16267485762415 L 682 298 L 677.790482243984 308.16267485762415" stroke-miterlimit="10" stroke-dasharray=""/>
</g>
</g>
</svg>
