<?xml version="1.0" encoding="UTF-8" standalone="no"?>
<!DOCTYPE svg PUBLIC "-//W3C//DTD SVG 1.1//EN" "http://www.w3.org/Graphics/SVG/1.1/DTD/svg11.dtd">
<svg width="100%" height="100%" viewBox="0 0 114 61" version="1.1" xmlns="http://www.w3.org/2000/svg" xmlns:xlink="http://www.w3.org/1999/xlink" xml:space="preserve" xmlns:serif="http://www.serif.com/" style="fill-rule:evenodd;clip-rule:evenodd;stroke-linejoin:round;stroke-miterlimit:2;">
    <g transform="matrix(0.37503,0,0,0.37503,-84.0067,-102.008)">
        <rect x="224" y="272" width="128" height="32" style="fill:rgb(209,255,163);"/>
    </g>
    <g transform="matrix(0.37503,0,0,0.37503,18.7023,7.31308)">
        <g>
            <text x="0px" y="0px" style="font-family:'Arial-BoldMT', 'Arial', sans-serif;font-weight:700;font-size:13px;">
SIG</text>
        </g>
    </g>
    <g transform="matrix(0.307604,0,0,0.37503,-60.2725,-102.008)">
        <rect x="352" y="272" width="208" height="32" style="fill:rgb(209,255,163);"/>
    </g>
    <g transform="matrix(0.312974,0,0,0.37503,-62.1631,-102.008)">
        <rect x="352" y="272" width="208" height="32" style="fill:rgb(209,255,163);"/>
    </g>
    <g transform="matrix(0.37503,0,0,0.37503,60.8396,6.93805)">
        <g>
            <text x="0px" y="0px" style="font-family:'Arial-BoldMT', 'Arial', sans-serif;font-weight:700;font-size:13px;">
signals</text>
        </g>
    </g>
    <g transform="matrix(0.37503,0,0,0.37503,-84.0067,-102.008)">
        <rect x="224" y="304" width="128" height="34" style="fill:rgb(255,234,173);"/>
    </g>
    <g transform="matrix(0.37503,0,0,0.37503,18.7736,19.314)">
        <g>
            <text x="0px" y="0px" style="font-family:'Arial-BoldMT', 'Arial', sans-serif;font-weight:700;font-size:13px;">
TSW</text>
        </g>
    </g>
    <g transform="matrix(0.307604,0,0,0.37503,-60.2725,-102.008)">
        <rect x="352" y="304" width="208" height="34" style="fill:rgb(255,234,173);"/>
    </g>
    <g transform="matrix(0.312974,0,0,0.37503,-62.1631,-102.008)">
        <rect x="352" y="304" width="208" height="34" style="fill:rgb(255,234,173);"/>
    </g>
    <g transform="matrix(0.37503,0,0,0.37503,60.9536,18.939)">
        <g>
            <text x="0px" y="0px" style="font-family:'Arial-BoldMT', 'Arial', sans-serif;font-weight:700;font-size:13px;">
track switches</text>
        </g>
    </g>
    <g transform="matrix(0.37503,0,0,0.37503,-84.0067,-102.008)">
        <rect x="224" y="336" width="128" height="32" style="fill:rgb(216,255,248);"/>
    </g>
    <g transform="matrix(0.37503,0,0,0.37503,18.5045,31.315)">
        <g>
            <text x="0px" y="0px" style="font-family:'Arial-BoldMT', 'Arial', sans-serif;font-weight:700;font-size:13px;">
LCR</text>
        </g>
    </g>
    <g transform="matrix(0.307604,0,0,0.37503,-60.2725,-102.008)">
        <rect x="352" y="336" width="208" height="32" style="fill:rgb(216,255,248);"/>
    </g>
    <g transform="matrix(0.312974,0,0,0.37503,-62.1631,-102.008)">
        <rect x="352" y="336" width="208" height="32" style="fill:rgb(216,255,248);"/>
    </g>
    <g transform="matrix(0.37503,0,0,0.37503,60.954,30.94)">
        <g>
            <text x="0px" y="0px" style="font-family:'Arial-BoldMT', 'Arial', sans-serif;font-weight:700;font-size:13px;">
level crossings</text>
        </g>
    </g>
    <g transform="matrix(0.37503,0,0,0.37503,-84.0067,-102.008)">
        <rect x="224" y="368" width="128" height="32" style="fill:rgb(216,229,255);"/>
    </g>
    <g transform="matrix(0.37503,0,0,0.37503,18.7022,43.3159)">
        <g>
            <text x="0px" y="0px" style="font-family:'Arial-BoldMT', 'Arial', sans-serif;font-weight:700;font-size:13px;">
SEG</text>
        </g>
    </g>
    <g transform="matrix(0.307604,0,0,0.37503,-60.2725,-102.008)">
        <rect x="352" y="368" width="208" height="32" style="fill:rgb(216,229,255);"/>
    </g>
    <g transform="matrix(0.312974,0,0,0.37503,-62.1631,-102.008)">
        <rect x="352" y="368" width="208" height="32" style="fill:rgb(216,229,255);"/>
    </g>
    <g transform="matrix(0.37503,0,0,0.37503,60.9536,42.9409)">
        <g>
            <text x="0px" y="0px" style="font-family:'Arial-BoldMT', 'Arial', sans-serif;font-weight:700;font-size:13px;">
segments</text>
        </g>
    </g>
    <g transform="matrix(0.37503,0,0,0.37503,-84.0067,-102.008)">
        <rect x="224" y="400" width="128" height="32" style="fill:rgb(109,206,255);"/>
    </g>
    <g transform="matrix(0.37503,0,0,0.37503,18.7024,55.3169)">
        <g>
            <text x="0px" y="0px" style="font-family:'Arial-BoldMT', 'Arial', sans-serif;font-weight:700;font-size:13px;">
SYS</text>
        </g>
    </g>
    <g transform="matrix(0.307604,0,0,0.37503,-60.2725,-102.008)">
        <rect x="352" y="400" width="208" height="32" style="fill:rgb(109,206,255);"/>
    </g>
    <g transform="matrix(0.312974,0,0,0.37503,-62.1631,-102.008)">
        <rect x="352" y="400" width="208" height="32" style="fill:rgb(109,206,255);"/>
    </g>
    <g transform="matrix(0.37503,0,0,0.37503,60.954,54.9419)">
        <g>
            <text x="0px" y="0px" style="font-family:'Arial-BoldMT', 'Arial', sans-serif;font-weight:700;font-size:13px;">
system</text>
        </g>
    </g>
</svg>
