<?xml version="1.0" encoding="UTF-8" standalone="no"?>
<!DOCTYPE svg PUBLIC "-//W3C//DTD SVG 1.1//EN" "http://www.w3.org/Graphics/SVG/1.1/DTD/svg11.dtd">
<svg width="100%" height="100%" viewBox="0 0 357 180" version="1.1" xmlns="http://www.w3.org/2000/svg" xmlns:xlink="http://www.w3.org/1999/xlink" xml:space="preserve" xmlns:serif="http://www.serif.com/" style="fill-rule:evenodd;clip-rule:evenodd;stroke-miterlimit:10;">
    <g>
        <g transform="matrix(1,0,0,1,-214,-262)">
            <rect x="231" y="279" width="128" height="32" style="fill:rgb(192,192,192);fill-opacity:0.2;"/>
        </g>
        <g transform="matrix(1,0,0,1,-214,-262)">
            <rect x="224" y="272" width="128" height="32" style="fill:rgb(209,255,163);"/>
        </g>
        <g>
            <rect x="10" y="10" width="128" height="32" style="fill:none;stroke:white;stroke-width:1px;"/>
        </g>
        <g transform="matrix(1,0,0,1,59.8689,29.5)">
            <g>
                <text x="0px" y="0px" style="font-family:'Arial-BoldMT', 'Arial', sans-serif;font-weight:700;font-size:13px;">
SIG</text>
            </g>
        </g>
        <g transform="matrix(0.820211,0,0,1,-150.714,-262)">
            <rect x="352" y="272" width="208" height="32" style="fill:rgb(209,255,163);"/>
        </g>
        <g>
            <rect x="138" y="10" width="208" height="32" style="fill:none;stroke:white;stroke-width:1px;"/>
        </g>
        <g transform="matrix(0.834531,0,0,1,-155.755,-262)">
            <rect x="352" y="272" width="208" height="32" style="fill:rgb(209,255,163);"/>
        </g>
        <g>
            <rect x="138" y="10" width="208" height="32" style="fill:none;stroke:white;stroke-width:1px;"/>
        </g>
        <g transform="matrix(1,0,0,1,172.226,28.5)">
            <g>
                <text x="0px" y="0px" style="font-family:'Arial-BoldMT', 'Arial', sans-serif;font-weight:700;font-size:13px;">
signals</text>
            </g>
        </g>
        <g transform="matrix(1,0,0,1,-214,-262)">
            <rect x="231" y="311" width="128" height="34" style="fill:rgb(192,192,192);fill-opacity:0.2;"/>
        </g>
        <g transform="matrix(1,0,0,1,-214,-262)">
            <rect x="224" y="304" width="128" height="34" style="fill:rgb(255,234,173);"/>
        </g>
        <g>
            <rect x="10" y="42" width="128" height="34" style="fill:none;stroke:white;stroke-width:1px;"/>
        </g>
        <g transform="matrix(1,0,0,1,60.059,61.5)">
            <g>
                <text x="0px" y="0px" style="font-family:'Arial-BoldMT', 'Arial', sans-serif;font-weight:700;font-size:13px;">
TSW</text>
            </g>
        </g>
        <g transform="matrix(0.820211,0,0,1,-150.714,-262)">
            <rect x="352" y="304" width="208" height="34" style="fill:rgb(255,234,173);"/>
        </g>
        <g>
            <rect x="138" y="42" width="208" height="34" style="fill:none;stroke:white;stroke-width:1px;"/>
        </g>
        <g transform="matrix(0.834531,0,0,1,-155.755,-262)">
            <rect x="352" y="304" width="208" height="34" style="fill:rgb(255,234,173);"/>
        </g>
        <g>
            <rect x="138" y="42" width="208" height="34" style="fill:none;stroke:white;stroke-width:1px;"/>
        </g>
        <g transform="matrix(1,0,0,1,172.53,60.5)">
            <g>
                <text x="0px" y="0px" style="font-family:'Arial-BoldMT', 'Arial', sans-serif;font-weight:700;font-size:13px;">
track switches</text>
            </g>
        </g>
        <g transform="matrix(1,0,0,1,-214,-262)">
            <rect x="231" y="343" width="128" height="32" style="fill:rgb(192,192,192);fill-opacity:0.2;"/>
        </g>
        <g transform="matrix(1,0,0,1,-214,-262)">
            <rect x="224" y="336" width="128" height="32" style="fill:rgb(216,255,248);"/>
        </g>
        <g>
            <rect x="10" y="74" width="128" height="32" style="fill:none;stroke:white;stroke-width:1px;"/>
        </g>
        <g transform="matrix(1,0,0,1,59.3414,93.5)">
            <g>
                <text x="0px" y="0px" style="font-family:'Arial-BoldMT', 'Arial', sans-serif;font-weight:700;font-size:13px;">
LCR</text>
            </g>
        </g>
        <g transform="matrix(0.820211,0,0,1,-150.714,-262)">
            <rect x="352" y="336" width="208" height="32" style="fill:rgb(216,255,248);"/>
        </g>
        <g>
            <rect x="138" y="74" width="208" height="32" style="fill:none;stroke:white;stroke-width:1px;"/>
        </g>
        <g transform="matrix(0.834531,0,0,1,-155.755,-262)">
            <rect x="352" y="336" width="208" height="32" style="fill:rgb(216,255,248);"/>
        </g>
        <g>
            <rect x="138" y="74" width="208" height="32" style="fill:none;stroke:white;stroke-width:1px;"/>
        </g>
        <g transform="matrix(1,0,0,1,172.531,92.5)">
            <g>
                <text x="0px" y="0px" style="font-family:'Arial-BoldMT', 'Arial', sans-serif;font-weight:700;font-size:13px;">
level crossings</text>
            </g>
        </g>
        <g transform="matrix(1,0,0,1,-214,-262)">
            <rect x="231" y="375" width="128" height="32" style="fill:rgb(192,192,192);fill-opacity:0.2;"/>
        </g>
        <g transform="matrix(1,0,0,1,-214,-262)">
            <rect x="224" y="368" width="128" height="32" style="fill:rgb(216,229,255);"/>
        </g>
        <g>
            <rect x="10" y="106" width="128" height="32" style="fill:none;stroke:white;stroke-width:1px;"/>
        </g>
        <g transform="matrix(1,0,0,1,59.8685,125.5)">
            <g>
                <text x="0px" y="0px" style="font-family:'Arial-BoldMT', 'Arial', sans-serif;font-weight:700;font-size:13px;">
SEG</text>
            </g>
        </g>
        <g transform="matrix(0.820211,0,0,1,-150.714,-262)">
            <rect x="352" y="368" width="208" height="32" style="fill:rgb(216,229,255);"/>
        </g>
        <g>
            <rect x="138" y="106" width="208" height="32" style="fill:none;stroke:white;stroke-width:1px;"/>
        </g>
        <g transform="matrix(0.834531,0,0,1,-155.755,-262)">
            <rect x="352" y="368" width="208" height="32" style="fill:rgb(216,229,255);"/>
        </g>
        <g>
            <rect x="138" y="106" width="208" height="32" style="fill:none;stroke:white;stroke-width:1px;"/>
        </g>
        <g transform="matrix(1,0,0,1,172.53,124.5)">
            <g>
                <text x="0px" y="0px" style="font-family:'Arial-BoldMT', 'Arial', sans-serif;font-weight:700;font-size:13px;">
segments</text>
            </g>
        </g>
        <g transform="matrix(1,0,0,1,-214,-262)">
            <rect x="231" y="407" width="128" height="32" style="fill:rgb(192,192,192);fill-opacity:0.2;"/>
        </g>
        <g transform="matrix(1,0,0,1,-214,-262)">
            <rect x="224" y="400" width="128" height="32" style="fill:rgb(109,206,255);"/>
        </g>
        <g>
            <rect x="10" y="138" width="128" height="32" style="fill:none;stroke:white;stroke-width:1px;"/>
        </g>
        <g transform="matrix(1,0,0,1,59.869,157.5)">
            <g>
                <text x="0px" y="0px" style="font-family:'Arial-BoldMT', 'Arial', sans-serif;font-weight:700;font-size:13px;">
SYS</text>
            </g>
        </g>
        <g transform="matrix(0.820211,0,0,1,-150.714,-262)">
            <rect x="352" y="400" width="208" height="32" style="fill:rgb(109,206,255);"/>
        </g>
        <g>
            <rect x="138" y="138" width="208" height="32" style="fill:none;stroke:white;stroke-width:1px;"/>
        </g>
        <g transform="matrix(0.834531,0,0,1,-155.755,-262)">
            <rect x="352" y="400" width="208" height="32" style="fill:rgb(109,206,255);"/>
        </g>
        <g>
            <rect x="138" y="138" width="208" height="32" style="fill:none;stroke:white;stroke-width:1px;"/>
        </g>
        <g transform="matrix(1,0,0,1,172.531,156.5)">
            <g>
                <text x="0px" y="0px" style="font-family:'Arial-BoldMT', 'Arial', sans-serif;font-weight:700;font-size:13px;">
system</text>
            </g>
        </g>
    </g>
</svg>
