<svg version="1.1" xmlns="http://www.w3.org/2000/svg" xmlns:xlink="http://www.w3.org/1999/xlink" width="1093" height="980">
<defs/>
<g>
<g>
<rect fill="#C0C0C0" stroke="none" x="567" y="599" width="128" height="112" transform="matrix(1 0 0 1 -262 -118)" fill-opacity="0.2"/>
</g>
<g>
<rect fill="#FFDF82" stroke="none" x="560" y="592" width="128" height="112" transform="matrix(1 0 0 1 -262 -118)"/>
</g>
<g>
<path fill="none" stroke="#000000" paint-order="fill stroke markers" d=" M 298 474 L 426 474 L 426 586 L 298 586 L 298 474 Z Z" stroke-miterlimit="10" stroke-dasharray=""/>
</g>
<g>
<rect fill="#FFDF82" stroke="none" x="560" y="592" width="128" height="112" transform="matrix(1 0 0 1 -262 -118)"/>
</g>
<g>
<path fill="none" stroke="#000000" paint-order="fill stroke markers" d=" M 298 474 L 426 474 L 426 586 L 298 586 L 298 474 Z Z" stroke-miterlimit="10" stroke-dasharray=""/>
</g>
<g>
<g>
<path fill="none" stroke="none"/>
<text fill="#000000" stroke="none" font-family="Arial" font-size="13px" font-style="normal" font-weight="bold" text-decoration="undefined" x="624.5" y="605.5" text-anchor="middle" dominant-baseline="central" transform="matrix(1 0 0 1 -262 -118)">
TSW Hub</text>
<path fill="none" stroke="#000000" paint-order="fill stroke markers" d=" M 391.3818359375 494 L 333.6181640625 494" stroke-miterlimit="10" stroke-dasharray=""/>
</g>
</g>
<g>
<rect fill="#C0C0C0" stroke="none" x="839" y="711" width="288" height="96" transform="matrix(1 0 0 1 -262 -118)" fill-opacity="0.2"/>
</g>
<g>
<rect fill="#6DCEFF" stroke="none" x="832" y="704" width="288" height="96" transform="matrix(1 0 0 1 -262 -118)"/>
</g>
<g>
<path fill="none" stroke="#000000" paint-order="fill stroke markers" d=" M 570 586 L 858 586 L 858 682 L 570 682 L 570 586 Z Z" stroke-miterlimit="10" stroke-dasharray=""/>
</g>
<g>
<rect fill="#6DCEFF" stroke="none" x="832" y="704" width="288" height="96" transform="matrix(1 0 0 1 -262 -118)"/>
</g>
<g>
<path fill="none" stroke="#000000" paint-order="fill stroke markers" d=" M 570 586 L 858 586 L 858 682 L 570 682 L 570 586 Z Z" stroke-miterlimit="10" stroke-dasharray=""/>
</g>
<g>
<g>
<path fill="none" stroke="none"/>
<text fill="#000000" stroke="none" font-family="Arial" font-size="13px" font-style="normal" font-weight="bold" text-decoration="undefined" x="976.5" y="717.5" text-anchor="middle" dominant-baseline="central" transform="matrix(1 0 0 1 -262 -118)">
Dispatcher</text>
<path fill="none" stroke="#000000" paint-order="fill stroke markers" d=" M 748.094970703125 606 L 680.905029296875 606" stroke-miterlimit="10" stroke-dasharray=""/>
</g>
</g>
<g>
<rect fill="#C0C0C0" stroke="none" x="327" y="487" width="144" height="288" transform="matrix(1 0 0 1 -262 -118)" fill-opacity="0.2"/>
</g>
<g>
<rect fill="#FFDF82" stroke="none" x="320" y="480" width="144" height="288" transform="matrix(1 0 0 1 -262 -118)"/>
</g>
<g>
<path fill="none" stroke="#000000" paint-order="fill stroke markers" d=" M 58 362 L 202 362 L 202 650 L 58 650 L 58 362 Z Z" stroke-miterlimit="10" stroke-dasharray=""/>
</g>
<g>
<rect fill="#FFDF82" stroke="none" x="320" y="480" width="144" height="288" transform="matrix(1 0 0 1 -262 -118)"/>
</g>
<g>
<path fill="none" stroke="#000000" paint-order="fill stroke markers" d=" M 58 362 L 202 362 L 202 650 L 58 650 L 58 362 Z Z" stroke-miterlimit="10" stroke-dasharray=""/>
</g>
<g>
<g>
<path fill="none" stroke="none"/>
<text fill="#000000" stroke="none" font-family="Arial" font-size="13px" font-style="normal" font-weight="bold" text-decoration="undefined" x="392.5" y="493.5" text-anchor="middle" dominant-baseline="central" transform="matrix(1 0 0 1 -262 -118)">
TSW Provider</text>
<path fill="none" stroke="#000000" paint-order="fill stroke markers" d=" M 173.1181640625 382 L 87.8818359375 382" stroke-miterlimit="10" stroke-dasharray=""/>
</g>
</g>
<g>
<path fill="none" stroke="#000000" paint-order="fill stroke markers" d=" M 362 474 L 362 442 L 202 442" stroke-miterlimit="10" stroke-dasharray=""/>
</g>
<g>
<path fill="none" stroke="#000000" paint-order="fill stroke markers" d=" M 212.16267485762415 437.790482243984 L 202 442 L 212.16267485762415 446.209517756016" stroke-miterlimit="10" stroke-dasharray=""/>
</g>
<g>
<path fill="none" stroke="#000000" paint-order="fill stroke markers" d=" M 634 586 L 634 506 L 426 506" stroke-miterlimit="10" stroke-dasharray=""/>
</g>
<g>
<path fill="none" stroke="#000000" paint-order="fill stroke markers" d=" M 436.1626748576241 501.790482243984 L 426 506 L 436.1626748576241 510.209517756016" stroke-miterlimit="10" stroke-dasharray=""/>
</g>
<g>
<path fill="none" stroke="#000000" paint-order="fill stroke markers" d=" M 426 538 L 602 538 L 602 586" stroke-miterlimit="10" stroke-dasharray=""/>
</g>
<g>
<path fill="none" stroke="#000000" paint-order="fill stroke markers" d=" M 597.790482243984 575.8373251423759 L 602 586 L 606.209517756016 575.8373251423759" stroke-miterlimit="10" stroke-dasharray=""/>
</g>
<g>
<rect fill="#C0C0C0" stroke="none" x="583" y="839" width="224" height="96" transform="matrix(1 0 0 1 -262 -118)" fill-opacity="0.2"/>
</g>
<g>
<rect fill="#FFC1AD" stroke="none" x="576" y="832" width="224" height="96" transform="matrix(1 0 0 1 -262 -118)"/>
</g>
<g>
<path fill="none" stroke="#000000" paint-order="fill stroke markers" d=" M 314 714 L 538 714 L 538 810 L 314 810 L 314 714 Z Z" stroke-miterlimit="10" stroke-dasharray=""/>
</g>
<g>
<rect fill="#FFC1AD" stroke="none" x="576" y="832" width="224" height="96" transform="matrix(1 0 0 1 -262 -118)"/>
</g>
<g>
<path fill="none" stroke="#000000" paint-order="fill stroke markers" d=" M 314 714 L 538 714 L 538 810 L 314 810 L 314 714 Z Z" stroke-miterlimit="10" stroke-dasharray=""/>
</g>
<g>
<g>
<path fill="none" stroke="none"/>
<text fill="#000000" stroke="none" font-family="Arial" font-size="13px" font-style="normal" font-weight="bold" text-decoration="undefined" x="688.5" y="845.5" text-anchor="middle" dominant-baseline="central" transform="matrix(1 0 0 1 -262 -118)">
Com</text>
<path fill="none" stroke="#000000" paint-order="fill stroke markers" d=" M 440.944091796875 734 L 412.055908203125 734" stroke-miterlimit="10" stroke-dasharray=""/>
</g>
</g>
<g>
<path fill="none" stroke="#000000" paint-order="fill stroke markers" d=" M 410 714 L 410 618 L 570 618" stroke-miterlimit="10" stroke-dasharray=""/>
</g>
<g>
<path fill="none" stroke="#000000" paint-order="fill stroke markers" d=" M 559.8373251423759 622.209517756016 L 570 618 L 559.8373251423758 613.790482243984" stroke-miterlimit="10" stroke-dasharray=""/>
</g>
<g>
<rect fill="#C0C0C0" stroke="none" x="343" y="551" width="112" height="48" transform="matrix(1 0 0 1 -262 -118)" fill-opacity="0.2"/>
</g>
<g>
<rect fill="#FFDF82" stroke="none" x="336" y="544" width="112" height="48" transform="matrix(1 0 0 1 -262 -118)"/>
</g>
<g>
<path fill="none" stroke="#000000" paint-order="fill stroke markers" d=" M 74 426 L 186 426 L 186 474 L 74 474 L 74 426 Z Z" stroke-miterlimit="10" stroke-dasharray=""/>
</g>
<g>
<rect fill="#FFDF82" stroke="none" x="336" y="544" width="112" height="48" transform="matrix(1 0 0 1 -262 -118)"/>
</g>
<g>
<path fill="none" stroke="#000000" paint-order="fill stroke markers" d=" M 74 426 L 186 426 L 186 474 L 74 474 L 74 426 Z Z" stroke-miterlimit="10" stroke-dasharray=""/>
</g>
<g>
<g>
<path fill="none" stroke="none"/>
<text fill="#000000" stroke="none" font-family="Arial" font-size="13px" font-style="normal" font-weight="bold" text-decoration="undefined" x="392.5" y="557.5" text-anchor="middle" dominant-baseline="central" transform="matrix(1 0 0 1 -262 -118)">
TSW</text>
<path fill="none" stroke="#000000" paint-order="fill stroke markers" d=" M 144.94091796875 446 L 116.05908203125 446" stroke-miterlimit="10" stroke-dasharray=""/>
</g>
</g>
<g>
<rect fill="#C0C0C0" stroke="none" x="343" y="615" width="112" height="48" transform="matrix(1 0 0 1 -262 -118)" fill-opacity="0.2"/>
</g>
<g>
<rect fill="#FFDF82" stroke="none" x="336" y="608" width="112" height="48" transform="matrix(1 0 0 1 -262 -118)"/>
</g>
<g>
<path fill="none" stroke="#000000" paint-order="fill stroke markers" d=" M 74 490 L 186 490 L 186 538 L 74 538 L 74 490 Z Z" stroke-miterlimit="10" stroke-dasharray=""/>
</g>
<g>
<rect fill="#FFDF82" stroke="none" x="336" y="608" width="112" height="48" transform="matrix(1 0 0 1 -262 -118)"/>
</g>
<g>
<path fill="none" stroke="#000000" paint-order="fill stroke markers" d=" M 74 490 L 186 490 L 186 538 L 74 538 L 74 490 Z Z" stroke-miterlimit="10" stroke-dasharray=""/>
</g>
<g>
<g>
<path fill="none" stroke="none"/>
<text fill="#000000" stroke="none" font-family="Arial" font-size="13px" font-style="normal" font-weight="bold" text-decoration="undefined" x="392.5" y="621.5" text-anchor="middle" dominant-baseline="central" transform="matrix(1 0 0 1 -262 -118)">
TSW</text>
<path fill="none" stroke="#000000" paint-order="fill stroke markers" d=" M 144.94091796875 510 L 116.05908203125 510" stroke-miterlimit="10" stroke-dasharray=""/>
</g>
</g>
<g>
<rect fill="#C0C0C0" stroke="none" x="343" y="679" width="112" height="48" transform="matrix(1 0 0 1 -262 -118)" fill-opacity="0.2"/>
</g>
<g>
<rect fill="#FFDF82" stroke="none" x="336" y="672" width="112" height="48" transform="matrix(1 0 0 1 -262 -118)"/>
</g>
<g>
<path fill="none" stroke="#000000" paint-order="fill stroke markers" d=" M 74 554 L 186 554 L 186 602 L 74 602 L 74 554 Z Z" stroke-miterlimit="10" stroke-dasharray=""/>
</g>
<g>
<rect fill="#FFDF82" stroke="none" x="336" y="672" width="112" height="48" transform="matrix(1 0 0 1 -262 -118)"/>
</g>
<g>
<path fill="none" stroke="#000000" paint-order="fill stroke markers" d=" M 74 554 L 186 554 L 186 602 L 74 602 L 74 554 Z Z" stroke-miterlimit="10" stroke-dasharray=""/>
</g>
<g>
<g>
<path fill="none" stroke="none"/>
<text fill="#000000" stroke="none" font-family="Arial" font-size="13px" font-style="normal" font-weight="bold" text-decoration="undefined" x="392.5" y="685.5" text-anchor="middle" dominant-baseline="central" transform="matrix(1 0 0 1 -262 -118)">
TSW</text>
<path fill="none" stroke="#000000" paint-order="fill stroke markers" d=" M 144.94091796875 574 L 116.05908203125 574" stroke-miterlimit="10" stroke-dasharray=""/>
</g>
</g>
<g>
<path fill="none" stroke="#000000" paint-order="fill stroke markers" d=" M 186 514 L 298 514" stroke-miterlimit="10" stroke-dasharray=""/>
</g>
<g>
<path fill="none" stroke="#000000" paint-order="fill stroke markers" d=" M 287.8373251423759 518.209517756016 L 298 514 L 287.8373251423758 509.790482243984" stroke-miterlimit="10" stroke-dasharray=""/>
</g>
<g>
<rect fill="#C0C0C0" stroke="none" x="1127" y="167" width="128" height="96" transform="matrix(1 0 0 1 -262 -118)" fill-opacity="0.2"/>
</g>
<g>
<rect fill="#6DCEFF" stroke="none" x="1120" y="160" width="128" height="96" transform="matrix(1 0 0 1 -262 -118)"/>
</g>
<g>
<path fill="none" stroke="#000000" paint-order="fill stroke markers" d=" M 858 42 L 986 42 L 986 138 L 858 138 L 858 42 Z Z" stroke-miterlimit="10" stroke-dasharray=""/>
</g>
<g>
<rect fill="#6DCEFF" stroke="none" x="1120" y="160" width="128" height="96" transform="matrix(1 0 0 1 -262 -118)"/>
</g>
<g>
<path fill="none" stroke="#000000" paint-order="fill stroke markers" d=" M 858 42 L 986 42 L 986 138 L 858 138 L 858 42 Z Z" stroke-miterlimit="10" stroke-dasharray=""/>
</g>
<g>
<g>
<path fill="none" stroke="none"/>
<text fill="#000000" stroke="none" font-family="Arial" font-size="13px" font-style="normal" font-weight="bold" text-decoration="undefined" x="1184.5" y="173.5" text-anchor="middle" dominant-baseline="central" transform="matrix(1 0 0 1 -262 -118)">
Loader</text>
<path fill="none" stroke="#000000" paint-order="fill stroke markers" d=" M 944.1708984375 62 L 900.8291015625 62" stroke-miterlimit="10" stroke-dasharray=""/>
</g>
</g>
<g>
<rect fill="#FFFFFF00" stroke="none" x="576" y="992" width="96" height="96" transform="matrix(1 0 0 1 -262 -118)"/>
</g>
<g>
<path fill="none" stroke="#FF602B" paint-order="fill stroke markers" d=" M 314 874 L 410 874 L 410 970 L 314 970 L 314 874 Z Z" stroke-miterlimit="10" stroke-dasharray=""/>
</g>
<g>
<rect fill="#FFFFFF00" stroke="none" x="576" y="992" width="96" height="96" transform="matrix(1 0 0 1 -262 -118)"/>
</g>
<g>
<path fill="none" stroke="#FF602B" paint-order="fill stroke markers" d=" M 314 874 L 410 874 L 410 970 L 314 970 L 314 874 Z Z" stroke-miterlimit="10" stroke-dasharray=""/>
</g>
<g>
<g>
<path fill="none" stroke="none"/>
<text fill="#FF8056" stroke="none" font-family="Arial" font-size="13px" font-style="normal" font-weight="bold" text-decoration="undefined" x="624.5" y="1005.5" text-anchor="middle" dominant-baseline="central" transform="matrix(1 0 0 1 -262 -118)">
GUI</text>
<path fill="none" stroke="#FF8056" paint-order="fill stroke markers" d=" M 374.055908203125 894 L 350.944091796875 894" stroke-miterlimit="10" stroke-dasharray=""/>
</g>
</g>
<g>
<rect fill="#FFFFFF00" stroke="none" x="704" y="992" width="96" height="96" transform="matrix(1 0 0 1 -262 -118)"/>
</g>
<g>
<path fill="none" stroke="#FF602B" paint-order="fill stroke markers" d=" M 442 874 L 538 874 L 538 970 L 442 970 L 442 874 Z Z" stroke-miterlimit="10" stroke-dasharray=""/>
</g>
<g>
<rect fill="#FFFFFF00" stroke="none" x="704" y="992" width="96" height="96" transform="matrix(1 0 0 1 -262 -118)"/>
</g>
<g>
<path fill="none" stroke="#FF602B" paint-order="fill stroke markers" d=" M 442 874 L 538 874 L 538 970 L 442 970 L 442 874 Z Z" stroke-miterlimit="10" stroke-dasharray=""/>
</g>
<g>
<g>
<path fill="none" stroke="none"/>
<text fill="#FF8056" stroke="none" font-family="Arial" font-size="13px" font-style="normal" font-weight="bold" text-decoration="undefined" x="752.5" y="1005.5" text-anchor="middle" dominant-baseline="central" transform="matrix(1 0 0 1 -262 -118)">
Field</text>
<path fill="none" stroke="#FF8056" paint-order="fill stroke markers" d=" M 505.667724609375 894 L 475.332275390625 894" stroke-miterlimit="10" stroke-dasharray=""/>
</g>
</g>
<g>
<rect fill="#FFFFFF00" stroke="none" x="1136" y="992" width="96" height="96" transform="matrix(1 0 0 1 -262 -118)"/>
</g>
<g>
<path fill="none" stroke="#FF602B" paint-order="fill stroke markers" d=" M 874 874 L 970 874 L 970 970 L 874 970 L 874 874 Z Z" stroke-miterlimit="10" stroke-dasharray=""/>
</g>
<g>
<rect fill="#FFFFFF00" stroke="none" x="1136" y="992" width="96" height="96" transform="matrix(1 0 0 1 -262 -118)"/>
</g>
<g>
<path fill="none" stroke="#FF602B" paint-order="fill stroke markers" d=" M 874 874 L 970 874 L 970 970 L 874 970 L 874 874 Z Z" stroke-miterlimit="10" stroke-dasharray=""/>
</g>
<g>
<g>
<path fill="none" stroke="none"/>
<text fill="#FF8056" stroke="none" font-family="Arial" font-size="13px" font-style="normal" font-weight="bold" text-decoration="undefined" x="1184.5" y="1005.5" text-anchor="middle" dominant-baseline="central" transform="matrix(1 0 0 1 -262 -118)">
Storage</text>
<path fill="none" stroke="#FF8056" paint-order="fill stroke markers" d=" M 946.700439453125 894 L 898.299560546875 894" stroke-miterlimit="10" stroke-dasharray=""/>
</g>
</g>
<g>
<path fill="none" stroke="#FF602B" paint-order="fill stroke markers" d=" M 346 874 L 346 810" stroke-miterlimit="10" stroke-dasharray=""/>
</g>
<g>
<path fill="none" stroke="#FF602B" paint-order="fill stroke markers" d=" M 350.209517756016 820.1626748576241 L 346 810 L 341.790482243984 820.1626748576241" stroke-miterlimit="10" stroke-dasharray=""/>
</g>
<g>
<path fill="none" stroke="#FF602B" paint-order="fill stroke markers" d=" M 378 810 L 378 874" stroke-miterlimit="10" stroke-dasharray=""/>
</g>
<g>
<path fill="none" stroke="#FF602B" paint-order="fill stroke markers" d=" M 373.790482243984 863.8373251423759 L 378 874 L 382.209517756016 863.8373251423759" stroke-miterlimit="10" stroke-dasharray=""/>
</g>
<g>
<path fill="none" stroke="#FF602B" paint-order="fill stroke markers" d=" M 922 810 L 922 874" stroke-miterlimit="10" stroke-dasharray=""/>
</g>
<g>
<path fill="none" stroke="#FF602B" paint-order="fill stroke markers" d=" M 917.7904822439841 863.8373251423759 L 922 874 L 926.2095177560159 863.8373251423759" stroke-miterlimit="10" stroke-dasharray=""/>
</g>
<g>
<path fill="none" stroke="#000000" paint-order="fill stroke markers" d=" M 858 106 L 826 106 L 826 586" stroke-miterlimit="10" stroke-dasharray=""/>
</g>
<g>
<path fill="none" stroke="#000000" paint-order="fill stroke markers" d=" M 821.7904822439841 575.8373251423759 L 826 586 L 830.2095177560159 575.8373251423759" stroke-miterlimit="10" stroke-dasharray=""/>
</g>
<g>
<rect fill="#FFC1AD" stroke="none" x="1120" y="832" width="128" height="96" transform="matrix(1 0 0 1 -262 -118)"/>
</g>
<g>
<path fill="none" stroke="#000000" paint-order="fill stroke markers" d=" M 858 714 L 986 714 L 986 810 L 858 810 L 858 714 Z Z" stroke-miterlimit="10" stroke-dasharray=""/>
</g>
<g>
<rect fill="#FFC1AD" stroke="none" x="1120" y="832" width="128" height="96" transform="matrix(1 0 0 1 -262 -118)"/>
</g>
<g>
<path fill="none" stroke="#000000" paint-order="fill stroke markers" d=" M 858 714 L 986 714 L 986 810 L 858 810 L 858 714 Z Z" stroke-miterlimit="10" stroke-dasharray=""/>
</g>
<g>
<g>
<path fill="none" stroke="none"/>
<text fill="#000000" stroke="none" font-family="Arial" font-size="13px" font-style="normal" font-weight="bold" text-decoration="undefined" x="1184.5" y="845.5" text-anchor="middle" dominant-baseline="central" transform="matrix(1 0 0 1 -262 -118)">
Reader</text>
<path fill="none" stroke="#000000" paint-order="fill stroke markers" d=" M 944.5390625 734 L 900.4609375 734" stroke-miterlimit="10" stroke-dasharray=""/>
</g>
</g>
<g>
<rect fill="#FFFFFF00" stroke="none" x="1248" y="704" width="96" height="96" transform="matrix(1 0 0 1 -262 -118)"/>
</g>
<g>
<path fill="none" stroke="#FF602B" paint-order="fill stroke markers" d=" M 986 586 L 1082 586 L 1082 682 L 986 682 L 986 586 Z Z" stroke-miterlimit="10" stroke-dasharray=""/>
</g>
<g>
<rect fill="#FFFFFF00" stroke="none" x="1248" y="704" width="96" height="96" transform="matrix(1 0 0 1 -262 -118)"/>
</g>
<g>
<path fill="none" stroke="#FF602B" paint-order="fill stroke markers" d=" M 986 586 L 1082 586 L 1082 682 L 986 682 L 986 586 Z Z" stroke-miterlimit="10" stroke-dasharray=""/>
</g>
<g>
<g>
<path fill="none" stroke="none"/>
<text fill="#FF602B" stroke="none" font-family="Arial" font-size="13px" font-style="normal" font-weight="bold" text-decoration="undefined" x="1296.5" y="717.5" text-anchor="middle" dominant-baseline="central" transform="matrix(1 0 0 1 -262 -118)">
Startup</text>
<path fill="none" stroke="#FF602B" paint-order="fill stroke markers" d=" M 1057.25 606 L 1011.75 606" stroke-miterlimit="10" stroke-dasharray=""/>
</g>
</g>
<g>
<path fill="none" stroke="#FF602B" paint-order="fill stroke markers" d=" M 1034 682 L 1034 762 L 986 762" stroke-miterlimit="10" stroke-dasharray=""/>
</g>
<g>
<path fill="none" stroke="#FF602B" paint-order="fill stroke markers" d=" M 996.1626748576241 757.790482243984 L 986 762 L 996.1626748576241 766.209517756016" stroke-miterlimit="10" stroke-dasharray=""/>
</g>
<g>
<path fill="none" stroke="#000000" paint-order="fill stroke markers" d=" M 922 714 L 922 138" stroke-miterlimit="10" stroke-dasharray=""/>
</g>
<g>
<path fill="none" stroke="#000000" paint-order="fill stroke markers" d=" M 926.2095177560159 148.16267485762415 L 922 138 L 917.7904822439841 148.16267485762415" stroke-miterlimit="10" stroke-dasharray=""/>
</g>
<g>
<path fill="none" stroke="#000000" paint-order="fill stroke markers" d=" M 202 410 L 666 410 L 666 586" stroke-miterlimit="10" stroke-dasharray=""/>
</g>
<g>
<path fill="none" stroke="#000000" paint-order="fill stroke markers" d=" M 661.790482243984 575.8373251423759 L 666 586 L 670.209517756016 575.8373251423759" stroke-miterlimit="10" stroke-dasharray=""/>
</g>
<g>
<rect fill="#C0C0C0" stroke="none" x="327" y="967" width="144" height="32" transform="matrix(1 0 0 1 -262 -118)" fill-opacity="0.2"/>
</g>
<g>
<rect fill="#FFDF82" stroke="none" x="320" y="960" width="144" height="32" transform="matrix(1 0 0 1 -262 -118)"/>
</g>
<g>
<path fill="none" stroke="#FFFFFF00" paint-order="fill stroke markers" d=" M 58 842 L 202 842 L 202 874 L 58 874 L 58 842 Z Z" stroke-miterlimit="10" stroke-dasharray=""/>
</g>
<g>
<rect fill="#FFDF82" stroke="none" x="320" y="960" width="144" height="32" transform="matrix(1 0 0 1 -262 -118)"/>
</g>
<g>
<path fill="none" stroke="#FFFFFF00" paint-order="fill stroke markers" d=" M 58 842 L 202 842 L 202 874 L 58 874 L 58 842 Z Z" stroke-miterlimit="10" stroke-dasharray=""/>
</g>
<g>
<g>
<path fill="none" stroke="none"/>
<text fill="#000000" stroke="none" font-family="Arial" font-size="13px" font-style="normal" font-weight="bold" text-decoration="undefined" x="392.5" y="973.5" text-anchor="middle" dominant-baseline="central" transform="matrix(1 0 0 1 -262 -118)">
subsystem TSW</text>
<path fill="none" stroke="#000000" paint-order="fill stroke markers" d=" M 180.706787109375 862 L 80.293212890625 862" stroke-miterlimit="10" stroke-dasharray=""/>
</g>
</g>
<g>
<rect fill="#C0C0C0" stroke="none" x="327" y="999" width="144" height="32" transform="matrix(1 0 0 1 -262 -118)" fill-opacity="0.2"/>
</g>
<g>
<rect fill="#6DCEFF" stroke="none" x="320" y="992" width="144" height="32" transform="matrix(1 0 0 1 -262 -118)"/>
</g>
<g>
<path fill="none" stroke="#FFFFFF00" paint-order="fill stroke markers" d=" M 58 874 L 202 874 L 202 906 L 58 906 L 58 874 Z Z" stroke-miterlimit="10" stroke-dasharray=""/>
</g>
<g>
<rect fill="#6DCEFF" stroke="none" x="320" y="992" width="144" height="32" transform="matrix(1 0 0 1 -262 -118)"/>
</g>
<g>
<path fill="none" stroke="#FFFFFF00" paint-order="fill stroke markers" d=" M 58 874 L 202 874 L 202 906 L 58 906 L 58 874 Z Z" stroke-miterlimit="10" stroke-dasharray=""/>
</g>
<g>
<g>
<path fill="none" stroke="none"/>
<text fill="#000000" stroke="none" font-family="Arial" font-size="13px" font-style="normal" font-weight="bold" text-decoration="undefined" x="392.5" y="1005.5" text-anchor="middle" dominant-baseline="central" transform="matrix(1 0 0 1 -262 -118)">
system</text>
<path fill="none" stroke="#000000" paint-order="fill stroke markers" d=" M 152.904052734375 894 L 108.095947265625 894" stroke-miterlimit="10" stroke-dasharray=""/>
</g>
</g>
<g>
<rect fill="#C0C0C0" stroke="none" x="327" y="1031" width="144" height="32" transform="matrix(1 0 0 1 -262 -118)" fill-opacity="0.2"/>
</g>
<g>
<rect fill="#FFC1AD" stroke="none" x="320" y="1024" width="144" height="32" transform="matrix(1 0 0 1 -262 -118)"/>
</g>
<g>
<path fill="none" stroke="#FFFFFF00" paint-order="fill stroke markers" d=" M 58 906 L 202 906 L 202 938 L 58 938 L 58 906 Z Z" stroke-miterlimit="10" stroke-dasharray=""/>
</g>
<g>
<rect fill="#FFC1AD" stroke="none" x="320" y="1024" width="144" height="32" transform="matrix(1 0 0 1 -262 -118)"/>
</g>
<g>
<path fill="none" stroke="#FFFFFF00" paint-order="fill stroke markers" d=" M 58 906 L 202 906 L 202 938 L 58 938 L 58 906 Z Z" stroke-miterlimit="10" stroke-dasharray=""/>
</g>
<g>
<g>
<path fill="none" stroke="none"/>
<text fill="#000000" stroke="none" font-family="Arial" font-size="13px" font-style="normal" font-weight="bold" text-decoration="undefined" x="392.5" y="1037.5" text-anchor="middle" dominant-baseline="central" transform="matrix(1 0 0 1 -262 -118)">
mocked</text>
<path fill="none" stroke="#000000" paint-order="fill stroke markers" d=" M 155.0654296875 926 L 105.9345703125 926" stroke-miterlimit="10" stroke-dasharray=""/>
</g>
</g>
<g>
<rect fill="#C0C0C0" stroke="none" x="327" y="1063" width="144" height="32" transform="matrix(1 0 0 1 -262 -118)" fill-opacity="0.2"/>
</g>
<g>
<rect fill="#ffffff" stroke="none" x="320" y="1056" width="144" height="32" transform="matrix(1 0 0 1 -262 -118)"/>
</g>
<g>
<path fill="none" stroke="#FFFFFF00" paint-order="fill stroke markers" d=" M 58 938 L 202 938 L 202 970 L 58 970 L 58 938 Z Z" stroke-miterlimit="10" stroke-dasharray=""/>
</g>
<g>
<rect fill="#ffffff" stroke="none" x="320" y="1056" width="144" height="32" transform="matrix(1 0 0 1 -262 -118)"/>
</g>
<g>
<path fill="none" stroke="#FFFFFF00" paint-order="fill stroke markers" d=" M 58 938 L 202 938 L 202 970 L 58 970 L 58 938 Z Z" stroke-miterlimit="10" stroke-dasharray=""/>
</g>
<g>
<g>
<path fill="none" stroke="none"/>
<text fill="#FF602B" stroke="none" font-family="Arial" font-size="13px" font-style="normal" font-weight="bold" text-decoration="undefined" x="392.5" y="1069.5" text-anchor="middle" dominant-baseline="central" transform="matrix(1 0 0 1 -262 -118)">
not imlpemented</text>
<path fill="none" stroke="#FF602B" paint-order="fill stroke markers" d=" M 182.503173828125 958 L 78.496826171875 958" stroke-miterlimit="10" stroke-dasharray=""/>
</g>
</g>
<g>
<rect fill="#C0C0C0" stroke="none" x="327" y="167" width="144" height="288" transform="matrix(1 0 0 1 -262 -118)" fill-opacity="0.2"/>
</g>
<g>
<rect fill="#D1FFA3" stroke="none" x="320" y="160" width="144" height="288" transform="matrix(1 0 0 1 -262 -118)"/>
</g>
<g>
<path fill="none" stroke="#000000" paint-order="fill stroke markers" d=" M 58 42 L 202 42 L 202 330 L 58 330 L 58 42 Z Z" stroke-miterlimit="10" stroke-dasharray=""/>
</g>
<g>
<rect fill="#D1FFA3" stroke="none" x="320" y="160" width="144" height="288" transform="matrix(1 0 0 1 -262 -118)"/>
</g>
<g>
<path fill="none" stroke="#000000" paint-order="fill stroke markers" d=" M 58 42 L 202 42 L 202 330 L 58 330 L 58 42 Z Z" stroke-miterlimit="10" stroke-dasharray=""/>
</g>
<g>
<g>
<path fill="none" stroke="none"/>
<text fill="#000000" stroke="none" font-family="Arial" font-size="13px" font-style="normal" font-weight="bold" text-decoration="undefined" x="392.5" y="173.5" text-anchor="middle" dominant-baseline="central" transform="matrix(1 0 0 1 -262 -118)">
SIG Prowider</text>
<path fill="none" stroke="#000000" paint-order="fill stroke markers" d=" M 171.3154296875 62 L 89.6845703125 62" stroke-miterlimit="10" stroke-dasharray=""/>
</g>
</g>
<g>
<rect fill="#C0C0C0" stroke="none" x="343" y="231" width="112" height="48" transform="matrix(1 0 0 1 -262 -118)" fill-opacity="0.2"/>
</g>
<g>
<rect fill="#D1FFA3" stroke="none" x="336" y="224" width="112" height="48" transform="matrix(1 0 0 1 -262 -118)"/>
</g>
<g>
<path fill="none" stroke="#000000" paint-order="fill stroke markers" d=" M 74 106 L 186 106 L 186 154 L 74 154 L 74 106 Z Z" stroke-miterlimit="10" stroke-dasharray=""/>
</g>
<g>
<rect fill="#D1FFA3" stroke="none" x="336" y="224" width="112" height="48" transform="matrix(1 0 0 1 -262 -118)"/>
</g>
<g>
<path fill="none" stroke="#000000" paint-order="fill stroke markers" d=" M 74 106 L 186 106 L 186 154 L 74 154 L 74 106 Z Z" stroke-miterlimit="10" stroke-dasharray=""/>
</g>
<g>
<g>
<path fill="none" stroke="none"/>
<text fill="#000000" stroke="none" font-family="Arial" font-size="13px" font-style="normal" font-weight="bold" text-decoration="undefined" x="392.5" y="237.5" text-anchor="middle" dominant-baseline="central" transform="matrix(1 0 0 1 -262 -118)">
SIG_X</text>
<path fill="none" stroke="#000000" paint-order="fill stroke markers" d=" M 149.647705078125 126 L 111.352294921875 126" stroke-miterlimit="10" stroke-dasharray=""/>
</g>
</g>
<g>
<rect fill="#C0C0C0" stroke="none" x="343" y="295" width="112" height="48" transform="matrix(1 0 0 1 -262 -118)" fill-opacity="0.2"/>
</g>
<g>
<rect fill="#D1FFA3" stroke="none" x="336" y="288" width="112" height="48" transform="matrix(1 0 0 1 -262 -118)"/>
</g>
<g>
<path fill="none" stroke="#000000" paint-order="fill stroke markers" d=" M 74 170 L 186 170 L 186 218 L 74 218 L 74 170 Z Z" stroke-miterlimit="10" stroke-dasharray=""/>
</g>
<g>
<rect fill="#D1FFA3" stroke="none" x="336" y="288" width="112" height="48" transform="matrix(1 0 0 1 -262 -118)"/>
</g>
<g>
<path fill="none" stroke="#000000" paint-order="fill stroke markers" d=" M 74 170 L 186 170 L 186 218 L 74 218 L 74 170 Z Z" stroke-miterlimit="10" stroke-dasharray=""/>
</g>
<g>
<g>
<path fill="none" stroke="none"/>
<text fill="#000000" stroke="none" font-family="Arial" font-size="13px" font-style="normal" font-weight="bold" text-decoration="undefined" x="392.5" y="301.5" text-anchor="middle" dominant-baseline="central" transform="matrix(1 0 0 1 -262 -118)">
SIG_X</text>
<path fill="none" stroke="#000000" paint-order="fill stroke markers" d=" M 149.647705078125 190 L 111.352294921875 190" stroke-miterlimit="10" stroke-dasharray=""/>
</g>
</g>
<g>
<rect fill="#C0C0C0" stroke="none" x="343" y="359" width="112" height="48" transform="matrix(1 0 0 1 -262 -118)" fill-opacity="0.2"/>
</g>
<g>
<rect fill="#D1FFA3" stroke="none" x="336" y="352" width="112" height="48" transform="matrix(1 0 0 1 -262 -118)"/>
</g>
<g>
<path fill="none" stroke="#000000" paint-order="fill stroke markers" d=" M 74 234 L 186 234 L 186 282 L 74 282 L 74 234 Z Z" stroke-miterlimit="10" stroke-dasharray=""/>
</g>
<g>
<rect fill="#D1FFA3" stroke="none" x="336" y="352" width="112" height="48" transform="matrix(1 0 0 1 -262 -118)"/>
</g>
<g>
<path fill="none" stroke="#000000" paint-order="fill stroke markers" d=" M 74 234 L 186 234 L 186 282 L 74 282 L 74 234 Z Z" stroke-miterlimit="10" stroke-dasharray=""/>
</g>
<g>
<g>
<path fill="none" stroke="none"/>
<text fill="#000000" stroke="none" font-family="Arial" font-size="13px" font-style="normal" font-weight="bold" text-decoration="undefined" x="392.5" y="365.5" text-anchor="middle" dominant-baseline="central" transform="matrix(1 0 0 1 -262 -118)">
SIG_X</text>
<path fill="none" stroke="#000000" paint-order="fill stroke markers" d=" M 149.647705078125 254 L 111.352294921875 254" stroke-miterlimit="10" stroke-dasharray=""/>
</g>
</g>
<g>
<rect fill="#C0C0C0" stroke="none" x="567" y="279" width="128" height="96" transform="matrix(1 0 0 1 -262 -118)" fill-opacity="0.2"/>
</g>
<g>
<rect fill="#D1FFA3" stroke="none" x="560" y="272" width="128" height="96" transform="matrix(1 0 0 1 -262 -118)"/>
</g>
<g>
<path fill="none" stroke="#000000" paint-order="fill stroke markers" d=" M 298 154 L 426 154 L 426 250 L 298 250 L 298 154 Z Z" stroke-miterlimit="10" stroke-dasharray=""/>
</g>
<g>
<rect fill="#D1FFA3" stroke="none" x="560" y="272" width="128" height="96" transform="matrix(1 0 0 1 -262 -118)"/>
</g>
<g>
<path fill="none" stroke="#000000" paint-order="fill stroke markers" d=" M 298 154 L 426 154 L 426 250 L 298 250 L 298 154 Z Z" stroke-miterlimit="10" stroke-dasharray=""/>
</g>
<g>
<g>
<path fill="none" stroke="none"/>
<text fill="#000000" stroke="none" font-family="Arial" font-size="13px" font-style="normal" font-weight="bold" text-decoration="undefined" x="624.5" y="285.5" text-anchor="middle" dominant-baseline="central" transform="matrix(1 0 0 1 -262 -118)">
SIG Hub</text>
<path fill="none" stroke="#000000" paint-order="fill stroke markers" d=" M 388.13818359375 174 L 336.86181640625 174" stroke-miterlimit="10" stroke-dasharray=""/>
</g>
</g>
<g>
<path fill="none" stroke="#000000" paint-order="fill stroke markers" d=" M 202 298 L 714 298 L 714 586" stroke-miterlimit="10" stroke-dasharray=""/>
</g>
<g>
<path fill="none" stroke="#000000" paint-order="fill stroke markers" d=" M 709.790482243984 575.8373251423759 L 714 586 L 718.209517756016 575.8373251423759" stroke-miterlimit="10" stroke-dasharray=""/>
</g>
<g>
<path fill="none" stroke="#000000" paint-order="fill stroke markers" d=" M 778 586 L 778 186 L 426 186" stroke-miterlimit="10" stroke-dasharray=""/>
</g>
<g>
<path fill="none" stroke="#000000" paint-order="fill stroke markers" d=" M 436.1626748576241 181.790482243984 L 426 186 L 436.1626748576241 190.209517756016" stroke-miterlimit="10" stroke-dasharray=""/>
</g>
<g>
<path fill="none" stroke="#000000" paint-order="fill stroke markers" d=" M 426 218 L 746 218 L 746 586" stroke-miterlimit="10" stroke-dasharray=""/>
</g>
<g>
<path fill="none" stroke="#000000" paint-order="fill stroke markers" d=" M 741.790482243984 575.8373251423759 L 746 586 L 750.209517756016 575.8373251423759" stroke-miterlimit="10" stroke-dasharray=""/>
</g>
<g>
<path fill="none" stroke="#000000" paint-order="fill stroke markers" d=" M 858 74 L 202 74" stroke-miterlimit="10" stroke-dasharray=""/>
</g>
<g>
<path fill="none" stroke="#000000" paint-order="fill stroke markers" d=" M 212.16267485762415 69.790482243984 L 202 74 L 212.16267485762415 78.209517756016" stroke-miterlimit="10" stroke-dasharray=""/>
</g>
<g>
<path fill="none" stroke="#000000" paint-order="fill stroke markers" d=" M 922 42 L 922 10 L 10 10 L 10 410 L 58 410" stroke-miterlimit="10" stroke-dasharray=""/>
</g>
<g>
<path fill="none" stroke="#000000" paint-order="fill stroke markers" d=" M 47.837325142375846 414.209517756016 L 58 410 L 47.837325142375846 405.790482243984" stroke-miterlimit="10" stroke-dasharray=""/>
</g>
<g>
<path fill="none" stroke="#000000" paint-order="fill stroke markers" d=" M 362 154 L 362 122 L 202 122" stroke-miterlimit="10" stroke-dasharray=""/>
</g>
<g>
<path fill="none" stroke="#000000" paint-order="fill stroke markers" d=" M 212.16267485762415 117.790482243984 L 202 122 L 212.16267485762415 126.209517756016" stroke-miterlimit="10" stroke-dasharray=""/>
</g>
<g>
<path fill="none" stroke="#000000" paint-order="fill stroke markers" d=" M 186 194 L 298 194" stroke-miterlimit="10" stroke-dasharray=""/>
</g>
<g>
<path fill="none" stroke="#000000" paint-order="fill stroke markers" d=" M 287.8373251423759 198.209517756016 L 298 194 L 287.8373251423758 189.790482243984" stroke-miterlimit="10" stroke-dasharray=""/>
</g>
<g>
<path fill="none" stroke="#000000" paint-order="fill stroke markers" d=" M 570 650 L 442 650 L 442 714" stroke-miterlimit="10" stroke-dasharray=""/>
</g>
<g>
<path fill="none" stroke="#000000" paint-order="fill stroke markers" d=" M 437.790482243984 703.8373251423759 L 442 714 L 446.209517756016 703.8373251423759" stroke-miterlimit="10" stroke-dasharray=""/>
</g>
<g>
<rect fill="#C0C0C0" stroke="none" x="327" y="935" width="144" height="32" transform="matrix(1 0 0 1 -262 -118)" fill-opacity="0.2"/>
</g>
<g>
<rect fill="#D1FFA3" stroke="none" x="320" y="928" width="144" height="32" transform="matrix(1 0 0 1 -262 -118)"/>
</g>
<g>
<path fill="none" stroke="#FFFFFF00" paint-order="fill stroke markers" d=" M 58 810 L 202 810 L 202 842 L 58 842 L 58 810 Z Z" stroke-miterlimit="10" stroke-dasharray=""/>
</g>
<g>
<rect fill="#D1FFA3" stroke="none" x="320" y="928" width="144" height="32" transform="matrix(1 0 0 1 -262 -118)"/>
</g>
<g>
<path fill="none" stroke="#FFFFFF00" paint-order="fill stroke markers" d=" M 58 810 L 202 810 L 202 842 L 58 842 L 58 810 Z Z" stroke-miterlimit="10" stroke-dasharray=""/>
</g>
<g>
<g>
<path fill="none" stroke="none"/>
<text fill="#000000" stroke="none" font-family="Arial" font-size="13px" font-style="normal" font-weight="bold" text-decoration="undefined" x="392.5" y="941.5" text-anchor="middle" dominant-baseline="central" transform="matrix(1 0 0 1 -262 -118)">
subsystem SIG</text>
<path fill="none" stroke="#000000" paint-order="fill stroke markers" d=" M 177.463134765625 830 L 83.536865234375 830" stroke-miterlimit="10" stroke-dasharray=""/>
</g>
</g>
<g>
<path fill="none" stroke="#FF8056" paint-order="fill stroke markers" d=" M 474 874 L 474 810" stroke-miterlimit="10" stroke-dasharray=""/>
</g>
<g>
<path fill="none" stroke="#FF8056" paint-order="fill stroke markers" d=" M 478.209517756016 820.1626748576241 L 474 810 L 469.790482243984 820.1626748576241" stroke-miterlimit="10" stroke-dasharray=""/>
</g>
<g>
<path fill="none" stroke="#FF8056" paint-order="fill stroke markers" d=" M 506 810 L 506 874" stroke-miterlimit="10" stroke-dasharray=""/>
</g>
<g>
<path fill="none" stroke="#FF8056" paint-order="fill stroke markers" d=" M 501.790482243984 863.8373251423759 L 506 874 L 510.209517756016 863.8373251423759" stroke-miterlimit="10" stroke-dasharray=""/>
</g>
</g>
</svg>
