<svg version="1.1" xmlns="http://www.w3.org/2000/svg" xmlns:xlink="http://www.w3.org/1999/xlink" width="1093" height="676">
<defs/>
<g>
<g>
<rect fill="#C0C0C0" stroke="none" x="423" y="231" width="144" height="112" transform="matrix(1 0 0 1 -118 -70)" fill-opacity="0.2"/>
</g>
<g>
<rect fill="#B6FF6D" stroke="none" x="416" y="224" width="144" height="112" transform="matrix(1 0 0 1 -118 -70)"/>
</g>
<g>
<path fill="none" stroke="#000000" paint-order="fill stroke markers" d=" M 298 154 L 442 154 L 442 266 L 298 266 L 298 154 Z Z" stroke-miterlimit="10" stroke-dasharray=""/>
</g>
<g>
<rect fill="#B6FF6D" stroke="none" x="416" y="224" width="144" height="112" transform="matrix(1 0 0 1 -118 -70)"/>
</g>
<g>
<path fill="none" stroke="#000000" paint-order="fill stroke markers" d=" M 298 154 L 442 154 L 442 266 L 298 266 L 298 154 Z Z" stroke-miterlimit="10" stroke-dasharray=""/>
</g>
<g>
<g>
<path fill="none" stroke="none"/>
<text fill="#000000" stroke="none" font-family="Arial" font-size="13px" font-style="normal" font-weight="bold" text-decoration="undefined" x="488.5" y="237.5" text-anchor="middle" dominant-baseline="central" transform="matrix(1 0 0 1 -118 -70)">
SIG Hub</text>
<path fill="none" stroke="#000000" paint-order="fill stroke markers" d=" M 396.13818359375 174 L 344.86181640625 174" stroke-miterlimit="10" stroke-dasharray=""/>
</g>
</g>
<g>
<rect fill="#C0C0C0" stroke="none" x="759" y="343" width="168" height="112" transform="matrix(1 0 0 1 -118 -70)" fill-opacity="0.2"/>
</g>
<g>
<rect fill="#6DCEFF" stroke="none" x="752" y="336" width="168" height="112" transform="matrix(1 0 0 1 -118 -70)"/>
</g>
<g>
<path fill="none" stroke="#000000" paint-order="fill stroke markers" d=" M 634 266 L 802 266 L 802 378 L 634 378 L 634 266 Z Z" stroke-miterlimit="10" stroke-dasharray=""/>
</g>
<g>
<rect fill="#6DCEFF" stroke="none" x="752" y="336" width="168" height="112" transform="matrix(1 0 0 1 -118 -70)"/>
</g>
<g>
<path fill="none" stroke="#000000" paint-order="fill stroke markers" d=" M 634 266 L 802 266 L 802 378 L 634 378 L 634 266 Z Z" stroke-miterlimit="10" stroke-dasharray=""/>
</g>
<g>
<g>
<path fill="none" stroke="none"/>
<text fill="#000000" stroke="none" font-family="Arial" font-size="13px" font-style="normal" font-weight="bold" text-decoration="undefined" x="836.5" y="349.5" text-anchor="middle" dominant-baseline="central" transform="matrix(1 0 0 1 -118 -70)">
Dispatcher</text>
<path fill="none" stroke="#000000" paint-order="fill stroke markers" d=" M 752.094970703125 286 L 684.905029296875 286" stroke-miterlimit="10" stroke-dasharray=""/>
</g>
</g>
<g>
<rect fill="#C0C0C0" stroke="none" x="135" y="87" width="144" height="344" transform="matrix(1 0 0 1 -118 -70)" fill-opacity="0.2"/>
</g>
<g>
<rect fill="#B6FF6D" stroke="none" x="128" y="80" width="144" height="344" transform="matrix(1 0 0 1 -118 -70)"/>
</g>
<g>
<path fill="none" stroke="#000000" paint-order="fill stroke markers" d=" M 10 10 L 154 10 L 154 354 L 10 354 L 10 10 Z Z" stroke-miterlimit="10" stroke-dasharray=""/>
</g>
<g>
<rect fill="#B6FF6D" stroke="none" x="128" y="80" width="144" height="344" transform="matrix(1 0 0 1 -118 -70)"/>
</g>
<g>
<path fill="none" stroke="#000000" paint-order="fill stroke markers" d=" M 10 10 L 154 10 L 154 354 L 10 354 L 10 10 Z Z" stroke-miterlimit="10" stroke-dasharray=""/>
</g>
<g>
<g>
<path fill="none" stroke="none"/>
<text fill="#000000" stroke="none" font-family="Arial" font-size="13px" font-style="normal" font-weight="bold" text-decoration="undefined" x="200.5" y="93.5" text-anchor="middle" dominant-baseline="central" transform="matrix(1 0 0 1 -118 -70)">
SIG Provider</text>
<path fill="none" stroke="#000000" paint-order="fill stroke markers" d=" M 121.87451171875 30 L 43.12548828125 30" stroke-miterlimit="10" stroke-dasharray=""/>
</g>
</g>
<g>
<path fill="none" stroke="#000000" paint-order="fill stroke markers" d=" M 370 154 L 370 106 L 154 106" stroke-miterlimit="10" stroke-dasharray=""/>
</g>
<g>
<path fill="none" stroke="#000000" paint-order="fill stroke markers" d=" M 164.16267485762415 101.790482243984 L 154 106 L 164.16267485762415 110.209517756016" stroke-miterlimit="10" stroke-dasharray=""/>
</g>
<g>
<path fill="none" stroke="#000000" paint-order="fill stroke markers" d=" M 698 266 L 698 186 L 442 186" stroke-miterlimit="10" stroke-dasharray=""/>
</g>
<g>
<path fill="none" stroke="#000000" paint-order="fill stroke markers" d=" M 452.1626748576241 181.790482243984 L 442 186 L 452.1626748576241 190.209517756016" stroke-miterlimit="10" stroke-dasharray=""/>
</g>
<g>
<path fill="none" stroke="#000000" paint-order="fill stroke markers" d=" M 442 218 L 666 218 L 666 266" stroke-miterlimit="10" stroke-dasharray=""/>
</g>
<g>
<path fill="none" stroke="#000000" paint-order="fill stroke markers" d=" M 661.790482243984 255.83732514237585 L 666 266 L 670.209517756016 255.83732514237585" stroke-miterlimit="10" stroke-dasharray=""/>
</g>
<g>
<rect fill="#C0C0C0" stroke="none" x="391" y="447" width="144" height="112" transform="matrix(1 0 0 1 -118 -70)" fill-opacity="0.2"/>
</g>
<g>
<rect fill="#FFC1AD" stroke="none" x="384" y="440" width="144" height="112" transform="matrix(1 0 0 1 -118 -70)"/>
</g>
<g>
<path fill="none" stroke="#000000" paint-order="fill stroke markers" d=" M 266 370 L 410 370 L 410 482 L 266 482 L 266 370 Z Z" stroke-miterlimit="10" stroke-dasharray=""/>
</g>
<g>
<rect fill="#FFC1AD" stroke="none" x="384" y="440" width="144" height="112" transform="matrix(1 0 0 1 -118 -70)"/>
</g>
<g>
<path fill="none" stroke="#000000" paint-order="fill stroke markers" d=" M 266 370 L 410 370 L 410 482 L 266 482 L 266 370 Z Z" stroke-miterlimit="10" stroke-dasharray=""/>
</g>
<g>
<g>
<path fill="none" stroke="none"/>
<text fill="#000000" stroke="none" font-family="Arial" font-size="13px" font-style="normal" font-weight="bold" text-decoration="undefined" x="456.5" y="453.5" text-anchor="middle" dominant-baseline="central" transform="matrix(1 0 0 1 -118 -70)">
GuiCom</text>
<path fill="none" stroke="#000000" paint-order="fill stroke markers" d=" M 363.7763671875 390 L 313.2236328125 390" stroke-miterlimit="10" stroke-dasharray=""/>
</g>
</g>
<g>
<rect fill="#C0C0C0" stroke="none" x="575" y="447" width="144" height="112" transform="matrix(1 0 0 1 -118 -70)" fill-opacity="0.2"/>
</g>
<g>
<rect fill="#FFC1AD" stroke="none" x="568" y="440" width="144" height="112" transform="matrix(1 0 0 1 -118 -70)"/>
</g>
<g>
<path fill="none" stroke="#000000" paint-order="fill stroke markers" d=" M 450 370 L 594 370 L 594 482 L 450 482 L 450 370 Z Z" stroke-miterlimit="10" stroke-dasharray=""/>
</g>
<g>
<rect fill="#FFC1AD" stroke="none" x="568" y="440" width="144" height="112" transform="matrix(1 0 0 1 -118 -70)"/>
</g>
<g>
<path fill="none" stroke="#000000" paint-order="fill stroke markers" d=" M 450 370 L 594 370 L 594 482 L 450 482 L 450 370 Z Z" stroke-miterlimit="10" stroke-dasharray=""/>
</g>
<g>
<g>
<path fill="none" stroke="none"/>
<text fill="#000000" stroke="none" font-family="Arial" font-size="13px" font-style="normal" font-weight="bold" text-decoration="undefined" x="640.5" y="453.5" text-anchor="middle" dominant-baseline="central" transform="matrix(1 0 0 1 -118 -70)">
FldCom</text>
<path fill="none" stroke="#000000" paint-order="fill stroke markers" d=" M 546.69091796875 390 L 498.30908203125 390" stroke-miterlimit="10" stroke-dasharray=""/>
</g>
</g>
<g>
<path fill="none" stroke="#000000" paint-order="fill stroke markers" d=" M 298 250 L 218 250 L 218 426 L 266 426" stroke-miterlimit="10" stroke-dasharray=""/>
</g>
<g>
<path fill="none" stroke="#000000" paint-order="fill stroke markers" d=" M 255.83732514237585 430.209517756016 L 266 426 L 255.83732514237585 421.790482243984" stroke-miterlimit="10" stroke-dasharray=""/>
</g>
<g>
<path fill="none" stroke="#000000" paint-order="fill stroke markers" d=" M 298 218 L 186 218 L 186 530 L 482 530 L 482 482" stroke-miterlimit="10" stroke-dasharray=""/>
</g>
<g>
<path fill="none" stroke="#000000" paint-order="fill stroke markers" d=" M 486.209517756016 492.1626748576241 L 482 482 L 477.790482243984 492.1626748576241" stroke-miterlimit="10" stroke-dasharray=""/>
</g>
<g>
<path fill="none" stroke="#000000" paint-order="fill stroke markers" d=" M 330 370 L 330 322 L 634 322" stroke-miterlimit="10" stroke-dasharray=""/>
</g>
<g>
<path fill="none" stroke="#000000" paint-order="fill stroke markers" d=" M 623.8373251423759 326.209517756016 L 634 322 L 623.8373251423758 317.790482243984" stroke-miterlimit="10" stroke-dasharray=""/>
</g>
<g>
<path fill="none" stroke="#000000" paint-order="fill stroke markers" d=" M 594 426 L 698 426 L 698 378" stroke-miterlimit="10" stroke-dasharray=""/>
</g>
<g>
<path fill="none" stroke="#000000" paint-order="fill stroke markers" d=" M 702.209517756016 388.16267485762415 L 698 378 L 693.790482243984 388.16267485762415" stroke-miterlimit="10" stroke-dasharray=""/>
</g>
<g>
<rect fill="#C0C0C0" stroke="none" x="151" y="175" width="112" height="48" transform="matrix(1 0 0 1 -118 -70)" fill-opacity="0.2"/>
</g>
<g>
<rect fill="#B6FF6D" stroke="none" x="144" y="168" width="112" height="48" transform="matrix(1 0 0 1 -118 -70)"/>
</g>
<g>
<path fill="none" stroke="#000000" paint-order="fill stroke markers" d=" M 26 98 L 138 98 L 138 146 L 26 146 L 26 98 Z Z" stroke-miterlimit="10" stroke-dasharray=""/>
</g>
<g>
<rect fill="#B6FF6D" stroke="none" x="144" y="168" width="112" height="48" transform="matrix(1 0 0 1 -118 -70)"/>
</g>
<g>
<path fill="none" stroke="#000000" paint-order="fill stroke markers" d=" M 26 98 L 138 98 L 138 146 L 26 146 L 26 98 Z Z" stroke-miterlimit="10" stroke-dasharray=""/>
</g>
<g>
<g>
<path fill="none" stroke="none"/>
<text fill="#000000" stroke="none" font-family="Arial" font-size="13px" font-style="normal" font-weight="bold" text-decoration="undefined" x="200.5" y="181.5" text-anchor="middle" dominant-baseline="central" transform="matrix(1 0 0 1 -118 -70)">
SIG_X</text>
<path fill="none" stroke="#000000" paint-order="fill stroke markers" d=" M 101.647705078125 118 L 63.352294921875 118" stroke-miterlimit="10" stroke-dasharray=""/>
</g>
</g>
<g>
<rect fill="#C0C0C0" stroke="none" x="151" y="239" width="112" height="48" transform="matrix(1 0 0 1 -118 -70)" fill-opacity="0.2"/>
</g>
<g>
<rect fill="#B6FF6D" stroke="none" x="144" y="232" width="112" height="48" transform="matrix(1 0 0 1 -118 -70)"/>
</g>
<g>
<path fill="none" stroke="#000000" paint-order="fill stroke markers" d=" M 26 162 L 138 162 L 138 210 L 26 210 L 26 162 Z Z" stroke-miterlimit="10" stroke-dasharray=""/>
</g>
<g>
<rect fill="#B6FF6D" stroke="none" x="144" y="232" width="112" height="48" transform="matrix(1 0 0 1 -118 -70)"/>
</g>
<g>
<path fill="none" stroke="#000000" paint-order="fill stroke markers" d=" M 26 162 L 138 162 L 138 210 L 26 210 L 26 162 Z Z" stroke-miterlimit="10" stroke-dasharray=""/>
</g>
<g>
<g>
<path fill="none" stroke="none"/>
<text fill="#000000" stroke="none" font-family="Arial" font-size="13px" font-style="normal" font-weight="bold" text-decoration="undefined" x="200.5" y="245.5" text-anchor="middle" dominant-baseline="central" transform="matrix(1 0 0 1 -118 -70)">
SIG_X</text>
<path fill="none" stroke="#000000" paint-order="fill stroke markers" d=" M 101.647705078125 182 L 63.352294921875 182" stroke-miterlimit="10" stroke-dasharray=""/>
</g>
</g>
<g>
<rect fill="#C0C0C0" stroke="none" x="151" y="303" width="112" height="48" transform="matrix(1 0 0 1 -118 -70)" fill-opacity="0.2"/>
</g>
<g>
<rect fill="#B6FF6D" stroke="none" x="144" y="296" width="112" height="48" transform="matrix(1 0 0 1 -118 -70)"/>
</g>
<g>
<path fill="none" stroke="#000000" paint-order="fill stroke markers" d=" M 26 226 L 138 226 L 138 274 L 26 274 L 26 226 Z Z" stroke-miterlimit="10" stroke-dasharray=""/>
</g>
<g>
<rect fill="#B6FF6D" stroke="none" x="144" y="296" width="112" height="48" transform="matrix(1 0 0 1 -118 -70)"/>
</g>
<g>
<path fill="none" stroke="#000000" paint-order="fill stroke markers" d=" M 26 226 L 138 226 L 138 274 L 26 274 L 26 226 Z Z" stroke-miterlimit="10" stroke-dasharray=""/>
</g>
<g>
<g>
<path fill="none" stroke="none"/>
<text fill="#000000" stroke="none" font-family="Arial" font-size="13px" font-style="normal" font-weight="bold" text-decoration="undefined" x="200.5" y="309.5" text-anchor="middle" dominant-baseline="central" transform="matrix(1 0 0 1 -118 -70)">
SIG_X</text>
<path fill="none" stroke="#000000" paint-order="fill stroke markers" d=" M 101.647705078125 246 L 63.352294921875 246" stroke-miterlimit="10" stroke-dasharray=""/>
</g>
</g>
<g>
<path fill="none" stroke="#000000" paint-order="fill stroke markers" d=" M 138 186 L 298 186" stroke-miterlimit="10" stroke-dasharray=""/>
</g>
<g>
<path fill="none" stroke="#000000" paint-order="fill stroke markers" d=" M 287.83732514237585 190.209517756016 L 298 186 L 287.83732514237585 181.790482243984" stroke-miterlimit="10" stroke-dasharray=""/>
</g>
<g>
<rect fill="#C0C0C0" stroke="none" x="935" y="87" width="144" height="112" transform="matrix(1 0 0 1 -118 -70)" fill-opacity="0.2"/>
</g>
<g>
<rect fill="#6DCEFF" stroke="none" x="928" y="80" width="144" height="112" transform="matrix(1 0 0 1 -118 -70)"/>
</g>
<g>
<path fill="none" stroke="#000000" paint-order="fill stroke markers" d=" M 810 10 L 954 10 L 954 122 L 810 122 L 810 10 Z Z" stroke-miterlimit="10" stroke-dasharray=""/>
</g>
<g>
<rect fill="#6DCEFF" stroke="none" x="928" y="80" width="144" height="112" transform="matrix(1 0 0 1 -118 -70)"/>
</g>
<g>
<path fill="none" stroke="#000000" paint-order="fill stroke markers" d=" M 810 10 L 954 10 L 954 122 L 810 122 L 810 10 Z Z" stroke-miterlimit="10" stroke-dasharray=""/>
</g>
<g>
<g>
<path fill="none" stroke="none"/>
<text fill="#000000" stroke="none" font-family="Arial" font-size="13px" font-style="normal" font-weight="bold" text-decoration="undefined" x="1000.5" y="93.5" text-anchor="middle" dominant-baseline="central" transform="matrix(1 0 0 1 -118 -70)">
Loader</text>
<path fill="none" stroke="#000000" paint-order="fill stroke markers" d=" M 904.1708984375 30 L 860.8291015625 30" stroke-miterlimit="10" stroke-dasharray=""/>
</g>
</g>
<g>
<path fill="none" stroke="#000000" paint-order="fill stroke markers" d=" M 810 42 L 154 42" stroke-miterlimit="10" stroke-dasharray=""/>
</g>
<g>
<path fill="none" stroke="#000000" paint-order="fill stroke markers" d=" M 164.16267485762415 37.790482243984016 L 154 42 L 164.16267485762415 46.209517756015984" stroke-miterlimit="10" stroke-dasharray=""/>
</g>
<g>
<rect fill="#FFFFFF00" stroke="none" x="368" y="640" width="144" height="96" transform="matrix(1 0 0 1 -118 -70)"/>
</g>
<g>
<path fill="none" stroke="#FF602B" paint-order="fill stroke markers" d=" M 250 570 L 394 570 L 394 666 L 250 666 L 250 570 Z Z" stroke-miterlimit="10" stroke-dasharray=""/>
</g>
<g>
<rect fill="#FFFFFF00" stroke="none" x="368" y="640" width="144" height="96" transform="matrix(1 0 0 1 -118 -70)"/>
</g>
<g>
<path fill="none" stroke="#FF602B" paint-order="fill stroke markers" d=" M 250 570 L 394 570 L 394 666 L 250 666 L 250 570 Z Z" stroke-miterlimit="10" stroke-dasharray=""/>
</g>
<g>
<g>
<path fill="none" stroke="none"/>
<text fill="#FF8056" stroke="none" font-family="Arial" font-size="13px" font-style="normal" font-weight="bold" text-decoration="undefined" x="440.5" y="653.5" text-anchor="middle" dominant-baseline="central" transform="matrix(1 0 0 1 -118 -70)">
GUI</text>
<path fill="none" stroke="#FF8056" paint-order="fill stroke markers" d=" M 334.055908203125 590 L 310.944091796875 590" stroke-miterlimit="10" stroke-dasharray=""/>
</g>
</g>
<g>
<rect fill="#FFFFFF00" stroke="none" x="560" y="640" width="144" height="96" transform="matrix(1 0 0 1 -118 -70)"/>
</g>
<g>
<path fill="none" stroke="#FF602B" paint-order="fill stroke markers" d=" M 442 570 L 586 570 L 586 666 L 442 666 L 442 570 Z Z" stroke-miterlimit="10" stroke-dasharray=""/>
</g>
<g>
<rect fill="#FFFFFF00" stroke="none" x="560" y="640" width="144" height="96" transform="matrix(1 0 0 1 -118 -70)"/>
</g>
<g>
<path fill="none" stroke="#FF602B" paint-order="fill stroke markers" d=" M 442 570 L 586 570 L 586 666 L 442 666 L 442 570 Z Z" stroke-miterlimit="10" stroke-dasharray=""/>
</g>
<g>
<g>
<path fill="none" stroke="none"/>
<text fill="#FF8056" stroke="none" font-family="Arial" font-size="13px" font-style="normal" font-weight="bold" text-decoration="undefined" x="632.5" y="653.5" text-anchor="middle" dominant-baseline="central" transform="matrix(1 0 0 1 -118 -70)">
Field</text>
<path fill="none" stroke="#FF8056" paint-order="fill stroke markers" d=" M 529.667724609375 590 L 499.332275390625 590" stroke-miterlimit="10" stroke-dasharray=""/>
</g>
</g>
<g>
<rect fill="#FFFFFF00" stroke="none" x="936" y="640" width="144" height="96" transform="matrix(1 0 0 1 -118 -70)"/>
</g>
<g>
<path fill="none" stroke="#FF602B" paint-order="fill stroke markers" d=" M 818 570 L 962 570 L 962 666 L 818 666 L 818 570 Z Z" stroke-miterlimit="10" stroke-dasharray=""/>
</g>
<g>
<rect fill="#FFFFFF00" stroke="none" x="936" y="640" width="144" height="96" transform="matrix(1 0 0 1 -118 -70)"/>
</g>
<g>
<path fill="none" stroke="#FF602B" paint-order="fill stroke markers" d=" M 818 570 L 962 570 L 962 666 L 818 666 L 818 570 Z Z" stroke-miterlimit="10" stroke-dasharray=""/>
</g>
<g>
<g>
<path fill="none" stroke="none"/>
<text fill="#FF8056" stroke="none" font-family="Arial" font-size="13px" font-style="normal" font-weight="bold" text-decoration="undefined" x="1008.5" y="653.5" text-anchor="middle" dominant-baseline="central" transform="matrix(1 0 0 1 -118 -70)">
Storage</text>
<path fill="none" stroke="#FF8056" paint-order="fill stroke markers" d=" M 914.700439453125 590 L 866.299560546875 590" stroke-miterlimit="10" stroke-dasharray=""/>
</g>
</g>
<g>
<path fill="none" stroke="#FF602B" paint-order="fill stroke markers" d=" M 306 570 L 306 482" stroke-miterlimit="10" stroke-dasharray=""/>
</g>
<g>
<path fill="none" stroke="#FF602B" paint-order="fill stroke markers" d=" M 310.209517756016 492.1626748576241 L 306 482 L 301.790482243984 492.1626748576241" stroke-miterlimit="10" stroke-dasharray=""/>
</g>
<g>
<path fill="none" stroke="#FF602B" paint-order="fill stroke markers" d=" M 338 482 L 338 570" stroke-miterlimit="10" stroke-dasharray=""/>
</g>
<g>
<path fill="none" stroke="#FF602B" paint-order="fill stroke markers" d=" M 333.790482243984 559.8373251423759 L 338 570 L 342.209517756016 559.8373251423759" stroke-miterlimit="10" stroke-dasharray=""/>
</g>
<g>
<path fill="none" stroke="#FF602B" paint-order="fill stroke markers" d=" M 514 482 L 514 570" stroke-miterlimit="10" stroke-dasharray=""/>
</g>
<g>
<path fill="none" stroke="#FF602B" paint-order="fill stroke markers" d=" M 509.790482243984 559.8373251423759 L 514 570 L 518.209517756016 559.8373251423759" stroke-miterlimit="10" stroke-dasharray=""/>
</g>
<g>
<path fill="none" stroke="#FF602B" paint-order="fill stroke markers" d=" M 546 570 L 546 482" stroke-miterlimit="10" stroke-dasharray=""/>
</g>
<g>
<path fill="none" stroke="#FF602B" paint-order="fill stroke markers" d=" M 550.209517756016 492.1626748576241 L 546 482 L 541.790482243984 492.1626748576241" stroke-miterlimit="10" stroke-dasharray=""/>
</g>
<g>
<path fill="none" stroke="#FF602B" paint-order="fill stroke markers" d=" M 890 530 L 890 570" stroke-miterlimit="10" stroke-dasharray=""/>
</g>
<g>
<path fill="none" stroke="#FF602B" paint-order="fill stroke markers" d=" M 885.790482243984 559.8373251423759 L 890 570 L 894.209517756016 559.8373251423759" stroke-miterlimit="10" stroke-dasharray=""/>
</g>
<g>
<path fill="none" stroke="#000000" paint-order="fill stroke markers" d=" M 810 74 L 762 74 L 762 266" stroke-miterlimit="10" stroke-dasharray=""/>
</g>
<g>
<path fill="none" stroke="#000000" paint-order="fill stroke markers" d=" M 757.790482243984 255.83732514237585 L 762 266 L 766.209517756016 255.83732514237585" stroke-miterlimit="10" stroke-dasharray=""/>
</g>
<g>
<rect fill="#FFC1AD" stroke="none" x="936" y="488" width="144" height="112" transform="matrix(1 0 0 1 -118 -70)"/>
</g>
<g>
<path fill="none" stroke="#000000" paint-order="fill stroke markers" d=" M 818 418 L 962 418 L 962 530 L 818 530 L 818 418 Z Z" stroke-miterlimit="10" stroke-dasharray=""/>
</g>
<g>
<rect fill="#FFC1AD" stroke="none" x="936" y="488" width="144" height="112" transform="matrix(1 0 0 1 -118 -70)"/>
</g>
<g>
<path fill="none" stroke="#000000" paint-order="fill stroke markers" d=" M 818 418 L 962 418 L 962 530 L 818 530 L 818 418 Z Z" stroke-miterlimit="10" stroke-dasharray=""/>
</g>
<g>
<g>
<path fill="none" stroke="none"/>
<text fill="#000000" stroke="none" font-family="Arial" font-size="13px" font-style="normal" font-weight="bold" text-decoration="undefined" x="1008.5" y="501.5" text-anchor="middle" dominant-baseline="central" transform="matrix(1 0 0 1 -118 -70)">
Reader</text>
<path fill="none" stroke="#000000" paint-order="fill stroke markers" d=" M 912.5390625 438 L 868.4609375 438" stroke-miterlimit="10" stroke-dasharray=""/>
</g>
</g>
<g>
<rect fill="#FFFFFF00" stroke="none" x="1056" y="336" width="144" height="112" transform="matrix(1 0 0 1 -118 -70)"/>
</g>
<g>
<path fill="none" stroke="#FF602B" paint-order="fill stroke markers" d=" M 938 266 L 1082 266 L 1082 378 L 938 378 L 938 266 Z Z" stroke-miterlimit="10" stroke-dasharray=""/>
</g>
<g>
<rect fill="#FFFFFF00" stroke="none" x="1056" y="336" width="144" height="112" transform="matrix(1 0 0 1 -118 -70)"/>
</g>
<g>
<path fill="none" stroke="#FF602B" paint-order="fill stroke markers" d=" M 938 266 L 1082 266 L 1082 378 L 938 378 L 938 266 Z Z" stroke-miterlimit="10" stroke-dasharray=""/>
</g>
<g>
<g>
<path fill="none" stroke="none"/>
<text fill="#FF602B" stroke="none" font-family="Arial" font-size="13px" font-style="normal" font-weight="bold" text-decoration="undefined" x="1128.5" y="349.5" text-anchor="middle" dominant-baseline="central" transform="matrix(1 0 0 1 -118 -70)">
Startup</text>
<path fill="none" stroke="#FF602B" paint-order="fill stroke markers" d=" M 1033.25 286 L 987.75 286" stroke-miterlimit="10" stroke-dasharray=""/>
</g>
</g>
<g>
<path fill="none" stroke="#FF602B" paint-order="fill stroke markers" d=" M 1010 378 L 1010 474 L 962 474" stroke-miterlimit="10" stroke-dasharray=""/>
</g>
<g>
<path fill="none" stroke="#FF602B" paint-order="fill stroke markers" d=" M 972.1626748576241 469.790482243984 L 962 474 L 972.1626748576241 478.209517756016" stroke-miterlimit="10" stroke-dasharray=""/>
</g>
<g>
<path fill="none" stroke="#FF602B" paint-order="fill stroke markers" d=" M 890 418 L 890 122" stroke-miterlimit="10" stroke-dasharray=""/>
</g>
<g>
<path fill="none" stroke="#FF602B" paint-order="fill stroke markers" d=" M 894.209517756016 132.16267485762415 L 890 122 L 885.790482243984 132.16267485762415" stroke-miterlimit="10" stroke-dasharray=""/>
</g>
<g>
<path fill="none" stroke="#000000" paint-order="fill stroke markers" d=" M 154 74 L 730 74 L 730 266" stroke-miterlimit="10" stroke-dasharray=""/>
</g>
<g>
<path fill="none" stroke="#000000" paint-order="fill stroke markers" d=" M 725.790482243984 255.83732514237585 L 730 266 L 734.209517756016 255.83732514237585" stroke-miterlimit="10" stroke-dasharray=""/>
</g>
<g>
<rect fill="#C0C0C0" stroke="none" x="135" y="615" width="144" height="32" transform="matrix(1 0 0 1 -118 -70)" fill-opacity="0.2"/>
</g>
<g>
<rect fill="#B6FF6D" stroke="none" x="128" y="608" width="144" height="32" transform="matrix(1 0 0 1 -118 -70)"/>
</g>
<g>
<path fill="none" stroke="#FFFFFF00" paint-order="fill stroke markers" d=" M 10 538 L 154 538 L 154 570 L 10 570 L 10 538 Z Z" stroke-miterlimit="10" stroke-dasharray=""/>
</g>
<g>
<rect fill="#B6FF6D" stroke="none" x="128" y="608" width="144" height="32" transform="matrix(1 0 0 1 -118 -70)"/>
</g>
<g>
<path fill="none" stroke="#FFFFFF00" paint-order="fill stroke markers" d=" M 10 538 L 154 538 L 154 570 L 10 570 L 10 538 Z Z" stroke-miterlimit="10" stroke-dasharray=""/>
</g>
<g>
<g>
<path fill="none" stroke="none"/>
<text fill="#000000" stroke="none" font-family="Arial" font-size="13px" font-style="normal" font-weight="bold" text-decoration="undefined" x="200.5" y="621.5" text-anchor="middle" dominant-baseline="central" transform="matrix(1 0 0 1 -118 -70)">
subsystem SIG</text>
<path fill="none" stroke="#000000" paint-order="fill stroke markers" d=" M 129.463134765625 558 L 35.536865234375 558" stroke-miterlimit="10" stroke-dasharray=""/>
</g>
</g>
<g>
<rect fill="#C0C0C0" stroke="none" x="135" y="647" width="144" height="32" transform="matrix(1 0 0 1 -118 -70)" fill-opacity="0.2"/>
</g>
<g>
<rect fill="#6DCEFF" stroke="none" x="128" y="640" width="144" height="32" transform="matrix(1 0 0 1 -118 -70)"/>
</g>
<g>
<path fill="none" stroke="#FFFFFF00" paint-order="fill stroke markers" d=" M 10 570 L 154 570 L 154 602 L 10 602 L 10 570 Z Z" stroke-miterlimit="10" stroke-dasharray=""/>
</g>
<g>
<rect fill="#6DCEFF" stroke="none" x="128" y="640" width="144" height="32" transform="matrix(1 0 0 1 -118 -70)"/>
</g>
<g>
<path fill="none" stroke="#FFFFFF00" paint-order="fill stroke markers" d=" M 10 570 L 154 570 L 154 602 L 10 602 L 10 570 Z Z" stroke-miterlimit="10" stroke-dasharray=""/>
</g>
<g>
<g>
<path fill="none" stroke="none"/>
<text fill="#000000" stroke="none" font-family="Arial" font-size="13px" font-style="normal" font-weight="bold" text-decoration="undefined" x="200.5" y="653.5" text-anchor="middle" dominant-baseline="central" transform="matrix(1 0 0 1 -118 -70)">
system</text>
<path fill="none" stroke="#000000" paint-order="fill stroke markers" d=" M 104.904052734375 590 L 60.095947265625 590" stroke-miterlimit="10" stroke-dasharray=""/>
</g>
</g>
<g>
<rect fill="#C0C0C0" stroke="none" x="135" y="679" width="144" height="32" transform="matrix(1 0 0 1 -118 -70)" fill-opacity="0.2"/>
</g>
<g>
<rect fill="#FFC1AD" stroke="none" x="128" y="672" width="144" height="32" transform="matrix(1 0 0 1 -118 -70)"/>
</g>
<g>
<path fill="none" stroke="#FFFFFF00" paint-order="fill stroke markers" d=" M 10 602 L 154 602 L 154 634 L 10 634 L 10 602 Z Z" stroke-miterlimit="10" stroke-dasharray=""/>
</g>
<g>
<rect fill="#FFC1AD" stroke="none" x="128" y="672" width="144" height="32" transform="matrix(1 0 0 1 -118 -70)"/>
</g>
<g>
<path fill="none" stroke="#FFFFFF00" paint-order="fill stroke markers" d=" M 10 602 L 154 602 L 154 634 L 10 634 L 10 602 Z Z" stroke-miterlimit="10" stroke-dasharray=""/>
</g>
<g>
<g>
<path fill="none" stroke="none"/>
<text fill="#000000" stroke="none" font-family="Arial" font-size="13px" font-style="normal" font-weight="bold" text-decoration="undefined" x="200.5" y="685.5" text-anchor="middle" dominant-baseline="central" transform="matrix(1 0 0 1 -118 -70)">
mocked</text>
<path fill="none" stroke="#000000" paint-order="fill stroke markers" d=" M 107.0654296875 622 L 57.9345703125 622" stroke-miterlimit="10" stroke-dasharray=""/>
</g>
</g>
<g>
<rect fill="#C0C0C0" stroke="none" x="135" y="711" width="144" height="32" transform="matrix(1 0 0 1 -118 -70)" fill-opacity="0.2"/>
</g>
<g>
<rect fill="#ffffff" stroke="none" x="128" y="704" width="144" height="32" transform="matrix(1 0 0 1 -118 -70)"/>
</g>
<g>
<path fill="none" stroke="#FFFFFF00" paint-order="fill stroke markers" d=" M 10 634 L 154 634 L 154 666 L 10 666 L 10 634 Z Z" stroke-miterlimit="10" stroke-dasharray=""/>
</g>
<g>
<rect fill="#ffffff" stroke="none" x="128" y="704" width="144" height="32" transform="matrix(1 0 0 1 -118 -70)"/>
</g>
<g>
<path fill="none" stroke="#FFFFFF00" paint-order="fill stroke markers" d=" M 10 634 L 154 634 L 154 666 L 10 666 L 10 634 Z Z" stroke-miterlimit="10" stroke-dasharray=""/>
</g>
<g>
<g>
<path fill="none" stroke="none"/>
<text fill="#FF602B" stroke="none" font-family="Arial" font-size="13px" font-style="normal" font-weight="bold" text-decoration="undefined" x="200.5" y="717.5" text-anchor="middle" dominant-baseline="central" transform="matrix(1 0 0 1 -118 -70)">
not imlpemented</text>
<path fill="none" stroke="#FF602B" paint-order="fill stroke markers" d=" M 134.503173828125 654 L 30.496826171875 654" stroke-miterlimit="10" stroke-dasharray=""/>
</g>
</g>
</g>
</svg>
